<?xml version="1.0" encoding="utf-8"?>
<!-- Generator: Adobe Illustrator 25.4.1, SVG Export Plug-In . SVG Version: 6.00 Build 0)  -->
<svg version="1.1" id="レイヤー_1" xmlns="http://www.w3.org/2000/svg" xmlns:xlink="http://www.w3.org/1999/xlink" x="0px"
	 y="0px" viewBox="0 0 148 148" style="enable-background:new 0 0 148 148;" xml:space="preserve">
<style type="text/css">
	.st0{fill:#B1001E;}
	.st1{fill:none;stroke:#FFFFFF;stroke-width:3;stroke-miterlimit:10;}
	.st2{fill:#F8F5DA;}
	.st3{fill:#FFFFFF;}
	.st4{enable-background:new    ;}
</style>
<g id="レイヤー_2_00000042737441287364944540000017547383634413406893_">
	<g id="文字">
		
			<image style="overflow:visible;opacity:0.1;enable-background:new    ;" width="148" height="148" xlink:href="5B94CFE9.png"  transform="matrix(1 0 0 1 0 -1.464844e-05)">
		</image>
		<circle class="st0" cx="70" cy="70" r="60"/>
		<circle class="st1" cx="70" cy="70" r="60"/>
		<path class="st2" d="M64.6,73.7c-0.6-0.4-1.2-0.6-1.9-0.6c-0.5,0-0.9,0.1-1.3,0.3c-0.6,0.3-1.1,0.7-1.5,1.2
			c-0.4,0.6-0.6,1.2-0.6,1.9c0,0.5,0.1,0.9,0.3,1.3c0.5,1.3,1.8,2.1,3.2,2.1c0.5,0,0.9-0.1,1.3-0.3c1.3-0.6,2.1-1.8,2.1-3.2
			c0-0.5-0.1-0.9-0.3-1.3C65.6,74.6,65.1,74,64.6,73.7z M64,77.1c-0.1,0.2-0.3,0.5-0.5,0.6c-0.6,0.4-1.5,0.3-1.9-0.4
			c-0.4-0.6-0.3-1.5,0.4-1.9c0.2-0.2,0.5-0.2,0.8-0.2c0.2,0,0.4,0,0.5,0.1c0.2,0.1,0.5,0.3,0.6,0.5c0.2,0.2,0.2,0.5,0.2,0.8
			C64.1,76.7,64.1,76.9,64,77.1z"/>
		<path class="st3" d="M83.5,73.7c-0.6-0.4-1.2-0.6-1.9-0.6c-0.5,0-0.9,0.1-1.3,0.3c-1.3,0.5-2.1,1.8-2.1,3.2c0,0.5,0.1,0.9,0.3,1.3
			c0.5,1.3,1.8,2.1,3.2,2.1c0.5,0,0.9-0.1,1.3-0.3c0.6-0.3,1.1-0.7,1.5-1.2c0.4-0.6,0.6-1.3,0.6-2c0-0.5-0.1-0.9-0.3-1.3
			C84.5,74.6,84,74,83.5,73.7z M82.8,77.1c-0.2,0.5-0.7,0.8-1.3,0.8c-0.2,0-0.4,0-0.6-0.1c-0.3-0.1-0.5-0.3-0.6-0.5
			c-0.4-0.6-0.3-1.5,0.4-1.9c0.2-0.2,0.5-0.2,0.8-0.2c0.5,0,0.9,0.2,1.2,0.6C82.9,76.1,83,76.6,82.8,77.1L82.8,77.1z"/>
		<path class="st2" d="M90.2,41c-0.5-0.6-1.2-0.9-1.9-0.9H55.7l-1.1-3.8l0,0c-0.5-1.7-1.9-3-3.6-3.4L47,32c-0.7-0.2-1.4,0.2-1.5,0.9
			c-0.2,0.7,0.2,1.4,0.9,1.5c0.1,0,0.1,0,0.2,0l4,0.8c0.9,0.2,1.5,0.9,1.8,1.7l7.3,25c-0.2,0.1-0.3,0.2-0.5,0.2
			c-0.8,0.5-1.4,1.1-1.8,1.9c-0.4,0.7-0.6,1.6-0.6,2.4l0,0v0.1l0,0c0,0.6,0.2,1.3,0.4,1.9c0.8,1.9,2.7,3.1,4.8,3.2h23.4
			c0.7,0,1.2-0.6,1.2-1.2s-0.6-1.2-1.2-1.2H61.7c-0.3,0-0.7-0.1-1-0.2c-1.3-0.5-2-2-1.4-3.3c0.1-0.2,0.2-0.5,0.4-0.7
			c0.2-0.2,0.4-0.4,0.7-0.6c0.3-0.2,0.6-0.3,1-0.4l23.5-3.8c1.5-0.3,2.8-1.4,3.1-3L90.7,43l0,0c0-0.2,0-0.3,0.1-0.5
			C90.7,42,90.5,41.4,90.2,41z M66.3,58.6c-0.7,0.2-1.4-0.2-1.6-0.9L61.2,46c-0.2-0.7,0.2-1.4,0.9-1.6c0.7-0.2,1.4,0.2,1.6,0.9l0,0
			L67.2,57C67.4,57.7,67,58.4,66.3,58.6C66.3,58.6,66.3,58.6,66.3,58.6z M71.8,57.8c-0.7,0.2-1.4-0.2-1.6-0.9L67,46
			c-0.2-0.7,0.1-1.4,0.8-1.7c0.7-0.2,1.4,0.1,1.7,0.8c0,0,0,0.1,0,0.1l3.2,10.9C72.9,56.8,72.5,57.6,71.8,57.8z M77.4,56.9
			c-0.7,0.2-1.4-0.2-1.6-0.9l-2.9-10c-0.2-0.7,0.1-1.4,0.8-1.7c0.7-0.2,1.4,0.1,1.7,0.8c0,0,0,0.1,0,0.1l2.9,10
			C78.5,56,78.1,56.7,77.4,56.9C77.4,56.9,77.4,56.9,77.4,56.9z M82.9,56c-0.7,0.2-1.4-0.2-1.6-0.9L78.6,46
			c-0.2-0.7,0.2-1.4,0.9-1.6c0.7-0.2,1.4,0.2,1.6,0.9l2.7,9.1C84,55.1,83.6,55.8,82.9,56z"/>
		<g class="st4">
			<path class="st3" d="M35.5,102.8c-0.5,1.7-1.4,3.4-2.4,4.5c-0.4-0.3-1.3-0.9-1.8-1.2c0.9-0.9,1.7-2.4,2.1-3.8L35.5,102.8z
				 M38.5,102.2h-6.1V89.3h6.1V102.2z M36.5,91.2h-2v1.8h2V91.2z M36.5,94.8h-2v1.9h2V94.8z M36.5,98.5h-2v1.9h2V98.5z M37.5,102.3
				c0.7,1,1.4,2.3,1.7,3.2l-1.8,0.9c-0.3-0.9-1-2.3-1.6-3.4L37.5,102.3z M50.2,104.1h-0.9v1.1c0,1-0.2,1.5-0.9,1.8s-1.6,0.3-2.9,0.3
				c-0.1-0.6-0.4-1.4-0.6-1.9c0.8,0,1.6,0,1.9,0c0.3,0,0.3-0.1,0.3-0.3v-1H42v3.2h-2.1v-3.2h-1.1v-1.7h1.1v-5h3.6v-0.8h-4.6v-1.7
				h2.5v-0.8h-1.7v-1.6h1.7v-0.7h-2.2v-1.7h2.2v-1.5h2.1v1.5h2v-1.5h2.1v1.5h2.2v1.7h-2.2v0.7h1.8v1.6h-1.8v0.8h2.5v1.7h-4.6v0.8
				h3.7v5h0.9V104.1z M42,99v0.9h1.5V99H42z M42,102.4h1.5v-1H42V102.4z M43.5,92.6h2v-0.7h-2V92.6z M43.5,94.9h2v-0.8h-2V94.9z
				 M45.5,99v0.9h1.6V99H45.5z M47.1,102.4v-1h-1.6v1H47.1z"/>
		</g>
		<g class="st4">
			<path class="st3" d="M63,89.7c0,3.8,0.5,11.1,7.9,15.4c-0.5,0.4-1.5,1.5-1.9,2.1c-4.1-2.5-6.3-6.3-7.4-9.9
				c-1.5,4.5-3.9,7.8-7.4,9.9c-0.4-0.5-1.6-1.5-2.2-1.9c4.2-2.1,6.5-6,7.6-11.2l1.2,0.2c-0.1-0.8-0.2-1.5-0.3-2.2H56v-2.4H63z"/>
		</g>
		<g class="st4">
			<path class="st3" d="M82.1,91.1c0,0.2,0,0.4,0,0.6c2,0,4.8,0,5.8,0l0,2.4C86.7,94,84.8,94,82.1,94c0,1,0,2.1,0,3
				c0.5,0.8,0.7,1.7,0.7,2.7c0,2.6-1.5,5.9-6.4,7.3l-2.1-2.1c2-0.4,3.8-1.1,4.9-2.3c-0.3,0.1-0.6,0.1-0.9,0.1
				c-1.5,0-3.4-1.2-3.4-3.7c0-2.3,1.8-3.7,4-3.7c0.3,0,0.5,0,0.8,0.1c0-0.4,0-0.9,0-1.3c-3,0-6.1,0.2-8.6,0.3l-0.1-2.4
				c2.3,0,5.9-0.1,8.6-0.1c0-0.3,0-0.5,0-0.6c-0.1-0.8-0.1-1.5-0.2-1.7h2.9C82.2,89.7,82.1,90.8,82.1,91.1z M78.8,100.5
				c0.8,0,1.6-0.6,1.3-2.4c-0.3-0.5-0.8-0.7-1.3-0.7c-0.8,0-1.5,0.5-1.5,1.6C77.2,99.9,78,100.5,78.8,100.5z"/>
		</g>
		<g class="st4">
			<path class="st3" d="M94.6,90.4c1.1,0,5.3-0.1,6.5-0.2c0.8-0.1,1.3-0.1,1.5-0.2l1.3,1.8c-0.5,0.3-0.9,0.6-1.4,0.9
				c-1.1,0.8-3.2,2.5-4.4,3.5c0.7-0.2,1.3-0.2,1.9-0.2c3.4,0,6,2.1,6,5c0,3.2-2.4,5.7-7.2,5.7c-2.8,0-4.9-1.3-4.9-3.3
				c0-1.6,1.5-3.1,3.6-3.1c2.5,0,4,1.5,4.3,3.4c1.1-0.6,1.7-1.5,1.7-2.7c0-1.8-1.8-3-4.2-3c-3.1,0-5.1,1.6-7.2,4.1l-1.8-1.9
				c1.4-1.1,3.8-3.2,5-4.2c1.1-0.9,3.2-2.6,4.2-3.5c-1,0-3.8,0.1-4.8,0.2c-0.5,0-1.2,0.1-1.6,0.2l-0.1-2.6
				C93.3,90.4,94,90.4,94.6,90.4z M98.2,104.4c0.4,0,0.8,0,1.2-0.1c-0.1-1.3-0.9-2.1-1.9-2.1c-0.8,0-1.2,0.5-1.2,1
				C96.1,103.9,97,104.4,98.2,104.4z"/>
		</g>
	</g>
</g>
</svg>
