<svg xmlns="http://www.w3.org/2000/svg" viewBox="0 0 45.27 47.96"><defs><style>.cls-1{fill:#f8f5da;}</style></defs><g id="レイヤー_2" data-name="レイヤー 2"><g id="contents"><path class="cls-1" d="M19.11,41.66a3.4,3.4,0,0,0-1.92-.58,3.34,3.34,0,0,0-1.34.27,3.39,3.39,0,0,0-2.1,3.17A3.34,3.34,0,0,0,14,45.86a3.4,3.4,0,0,0,1.24,1.51,3.46,3.46,0,0,0,1.93.59,3.34,3.34,0,0,0,1.34-.27,3.46,3.46,0,0,0,2.1-3.17,3.44,3.44,0,0,0-1.52-2.86Zm-.64,3.4a1.45,1.45,0,0,1-.51.61,1.35,1.35,0,0,1-.77.24,1.33,1.33,0,0,1-.54-.11,1.38,1.38,0,0,1-.61-.51,1.35,1.35,0,0,1-.24-.77,1.33,1.33,0,0,1,.11-.54,1.36,1.36,0,0,1,.5-.61,1.38,1.38,0,0,1,1.32-.13,1.36,1.36,0,0,1,.61.5,1.38,1.38,0,0,1,.13,1.32Z"/><path class="cls-1" d="M38,41.66a3.42,3.42,0,0,0-1.92-.58,3.31,3.31,0,0,0-1.34.27,3.42,3.42,0,0,0-1.52,1.24,3.46,3.46,0,0,0-.59,1.93,3.35,3.35,0,0,0,.28,1.34,3.4,3.4,0,0,0,1.24,1.51,3.46,3.46,0,0,0,1.93.59,3.38,3.38,0,0,0,1.34-.27,3.47,3.47,0,0,0,1.51-1.25,3.41,3.41,0,0,0,.59-1.92A3.44,3.44,0,0,0,38,41.66Zm-.65,3.4a1.39,1.39,0,0,1-1.27.85,1.37,1.37,0,0,1-1.15-.62,1.28,1.28,0,0,1-.24-.77,1.33,1.33,0,0,1,.11-.54,1.39,1.39,0,0,1,1.28-.85,1.39,1.39,0,0,1,1.27,1.93Z"/><path class="cls-1" d="M44.71,9a2.52,2.52,0,0,0-1.94-.92H10.24L9.13,4.24h0A4.87,4.87,0,0,0,5.49.88L1.51,0A1.24,1.24,0,0,0,0,1,1.24,1.24,0,0,0,1,2.47l4,.85A2.37,2.37,0,0,1,6.74,5l7.27,25a4.37,4.37,0,0,0-.48.25,5,5,0,0,0-1.83,1.89,5.21,5.21,0,0,0-.64,2.4h0v.13h0a5.35,5.35,0,0,0,.4,1.88,5.22,5.22,0,0,0,4.77,3.16H39.6a1.25,1.25,0,1,0,0-2.5H16.23a2.54,2.54,0,0,1-1-.21A2.66,2.66,0,0,1,14,36a2.54,2.54,0,0,1,.12-3.05,2.61,2.61,0,0,1,.68-.59,3.17,3.17,0,0,1,1-.37l23.5-3.83a3.74,3.74,0,0,0,3.06-2.95L45.22,11h0a2.72,2.72,0,0,0,.05-.49A2.54,2.54,0,0,0,44.71,9ZM20.82,26.65a1.32,1.32,0,0,1-1.64-.89L15.76,14a1.32,1.32,0,0,1,2.54-.74L21.72,25A1.31,1.31,0,0,1,20.82,26.65Zm5.53-.87a1.32,1.32,0,0,1-1.64-.89L21.54,14a1.32,1.32,0,1,1,2.54-.74l3.17,10.87A1.32,1.32,0,0,1,26.35,25.78Zm5.54-.84a1.33,1.33,0,0,1-1.64-.9L27.32,14a1.32,1.32,0,1,1,2.53-.74l2.94,10A1.33,1.33,0,0,1,31.89,24.94Zm5.52-.9a1.33,1.33,0,0,1-1.64-.9L33.09,14a1.32,1.32,0,0,1,2.54-.74l2.68,9.16A1.33,1.33,0,0,1,37.41,24Z"/></g></g></svg>