<svg xmlns="http://www.w3.org/2000/svg" viewBox="0 0 494 27.68"><defs><style>.cls-1{fill:#231815;}</style></defs><g id="レイヤー_2" data-name="レイヤー 2"><g id="contents"><path class="cls-1" d="M149.27,2.89c0,2.25,0,7.37-1.35,9.71-.36.58-2,4-8.13,4.37V13.32c4.16-.15,5.92-2.29,6-7H123.47V2.89ZM136.8,13.1c0,3.58-.33,6.43-1.68,8.48-.83,1.26-3.29,5-11.32,5.37V23.4c2.67,0,5.79-1.11,7.24-2.85,1.61-1.94,2-3.71,2-7.8V9.84h3.77Z"/><path class="cls-1" d="M263.15,12.72a12.47,12.47,0,0,0,6.42-1.67c1-.59,2.38-1.35,6.26-4,3.51-2.37,6.18-4.57,10.09-4.6h1.55V6h-1.11c-2.55,0-4.84,1.4-7.89,3.61V26.83h-3.82V12.22c-3.84,2.7-6.78,4.09-11.21,4.09H262V12.72Z"/><path class="cls-1" d="M187,6l-.37-4.9h3.92l.38,4.9h11.25V9.54h-11l.43,5.45h11v3.52H191.9l.64,8.31h-3.93L188,18.51H176.14V15h11.53l-.42-5.45H176.69V6Z"/><path class="cls-1" d="M396.18,9.18H388.9v4.7c-.06,6.84-2.29,9.11-4.66,10.71s-5.13,2.18-8.51,2.32h-2.18V23.3h2.12c6.25,0,9.42-3.14,9.42-9.28V9.18h-7.6q-2.12,5-8.22,6.11v-4c4.13-1.11,5.82-4.22,5.7-9.85h3.75a33.59,33.59,0,0,1-.32,4.25h17.78Z"/><path class="cls-1" d="M429.46,2.64V6h-9.79V2.64Zm0,8.24v3.37h-9.79V10.88Zm14.4,1.88c-.06,3.07-.11,6.42-2,9.12-2.26,3.14-6.12,4.87-12.59,4.89h-9.56V23h8.65c5.91.11,7.27-.82,9.15-2.17s2.87-3.93,2.84-7.75V6.92h3.55Z"/><path class="cls-1" d="M235.6,9.69l17.43.85v3.7l-17.43-.82V26.77h-3.89V1.52h3.89Z"/><path class="cls-1" d="M341.25,2.82V9.07c.21,7.08-2,11.45-5.2,13.89-3,2.29-6.39,3.81-13.08,3.94H320V23.37h2.85c7.3-.3,9.78-2.27,11.59-4.17,2.34-2.47,3.11-6.28,3-10.18V6.26h-21V2.82Z"/><path class="cls-1" d="M301.32,3.45V7.21H290.25V3.45Zm13.16,7.4c0,10.47-5.59,16-16.17,16h-8.06V23.05H298c8.68,0,12.85-4,12.85-12.5V7.24h3.66Z"/><path class="cls-1" d="M358.89,9.28V6h3.37V9.28h4.64V12.5h-4.64V26.82h-3.37V12.5h-3.55v.18c0,7.42-3.37,12-10.11,14.12V23.33c4.56-1.75,6.74-5.19,6.74-10.56V12.5h-6.74V9.28Z"/><path class="cls-1" d="M156.83,9.83l18,.64v3.58l-18-.68V26.64H153V1.34h3.82Zm15-6.78h-2.64V0h2.64Zm3.79,0H173V0h2.65Z"/><path class="cls-1" d="M466.89,6.62V21.94a4.29,4.29,0,0,1-1.23,3.44c-.92.82-1.92,1-4,1H447.23V23.12h14c1.67,0,2.21-.56,2.21-2.21V17.83H447.67V14.6h15.79V9.85H447.23V6.62Z"/><path class="cls-1" d="M210.88,15.1h-3.46L205,6.8h3.41Zm6.77,0h-3.48l-2.53-8.3h3.41ZM227,8.39c0,11.11-4.94,17.43-16.44,18.3V23.38c9.4-.74,13-5.83,13-15.41V6.82H227Z"/><path class="cls-1" d="M480.82,3.45V7.21H469.75V3.45ZM494,10.85c0,10.47-5.6,16-16.17,16h-8.08V23.05h7.74c8.67,0,12.84-4,12.84-12.5V7.24H494Z"/><path class="cls-1" d="M417.2,12.55v3.76H397V12.55Z"/><path class="cls-1" d="M18.37,27.5H16.3V17.92A25.16,25.16,0,0,1,9.94,25.4L8.45,23.57a24.25,24.25,0,0,0,7.22-8H9.55v-2H16.3V9.52H13a17.13,17.13,0,0,1-1.89,3.32l-2-1.2c1.29-1.57,2.38-3.35,3.24-7.74l2.17.28a22.28,22.28,0,0,1-.8,3.33H16.3V3.2h2.07V7.51h5.75v2H18.37V13.6h6.38v2H19.1a21.14,21.14,0,0,0,6,7.74l-1.2,2.2a21,21,0,0,1-5.54-7.8ZM8.53,18.78A16.42,16.42,0,0,1,6.3,15V27.5h-2V14.91a25.16,25.16,0,0,1-3.19,6.7L0,19a24.47,24.47,0,0,0,4.09-8.74H.44v-2H4.26v-5h2v5H9.55v2H6.3V12a20.13,20.13,0,0,0,3.61,4.93Z"/><path class="cls-1" d="M41.57,24.25c-4.32,1-9.25,1.72-13.61,2.26l-.31-2.15c1.08-.11,2.46-.23,5.76-.71V15.43H28.23v-2H40.68v2H35.61v7.91c2-.32,3.92-.65,5.88-1.08Zm2-21c0,1.07,0,2,.06,4.32H52V9.65H43.74a36.39,36.39,0,0,0,1.71,10.66c.65,1.93,2.31,4.62,3.35,4.62.72,0,1.3-1.85,1.45-4.29l2,.92A11.27,11.27,0,0,1,51,26.11c-.81,1.25-1.5,1.33-2,1.33-2.88,0-5.05-4.34-5.71-6.38a32.76,32.76,0,0,1-1.6-8.32c-.15-2.69-.18-3-.18-3.09H27.75V7.59H41.49c-.05-1.26-.05-2.77-.07-4.32Zm5.74,4.12a20.94,20.94,0,0,0-4.11-2.68l1.2-1.57a23,23,0,0,1,4.21,2.64Z"/><path class="cls-1" d="M61,10.47A23.19,23.19,0,0,0,67,4.84a25.81,25.81,0,0,0,6.13,5.63Zm9,9.34a39.64,39.64,0,0,1,3.61,4.06c-1,.05-6.18.41-7.32.49-.42,0-2.94.07-4.58.13.78-1.39,2-3.63,3.32-6.67H78.68v-2H55.28v2h7.17a45.89,45.89,0,0,1-3.16,6.72c-.82,0-3.14.08-3.63.08l.2,2.15c7.35-.25,8.5-.35,19-1.16.6.87.92,1.4,1.3,2.07l1.92-1.28a39,39,0,0,0-6.44-7.77ZM74,11a31.61,31.61,0,0,0,4.47,2.44l1.16-2.1A24.9,24.9,0,0,1,68.19,3H65.86A19.47,19.47,0,0,1,61,7.82a27.86,27.86,0,0,1-6.56,3.51l1.07,2.09A26.77,26.77,0,0,0,60.15,11v1.47H74Z"/><path class="cls-1" d="M88.38,27.52H86.26V16.88a24.89,24.89,0,0,1-3.55,2.77l-.9-2.12a19.24,19.24,0,0,0,7.65-8.14H82.12v-2h4.14V3.14h2.12V7.39h3.4v2a17.14,17.14,0,0,1-2.85,4.66,18.07,18.07,0,0,0,3.75,3.43L91.5,19.39a23.87,23.87,0,0,1-3.12-3.14ZM100,3.14V10.7h5.76v2.14H100V24.43h6.37v2.16H91.08V24.43h6.69V12.84H92.31V10.7h5.46V3.14Z"/></g></g></svg>