<svg xmlns="http://www.w3.org/2000/svg" viewBox="0 0 574.6 69.25"><defs><style>.cls-1{fill:#231815;}</style></defs><g id="レイヤー_2" data-name="レイヤー 2"><g id="contents"><path class="cls-1" d="M67.79,63.39c2.4-4.47,3.15-9.88,3.42-16.45l3.94.38c-.38,11.49-2.71,16.63-3.38,18ZM90.92,43.15c-4.36.41-6.38,2.89-6.38,4.92,0,1.46.86,2.44,2.1,3.87,1.91,2.17,3.72,4.84,3.72,8.18a6.64,6.64,0,0,1-6.91,6.95,19.82,19.82,0,0,1-7.59-1.8l.49-4c2.85,1.16,4.43,1.61,6.27,1.61A3,3,0,0,0,86,59.56c0-2.4-1.27-3.94-2.89-5.78-1.31-1.54-2.59-3.08-2.59-5.45,0-2.1,1.28-5.71,6-6.91a37.05,37.05,0,0,0-11.9-2.18l.86-3.86c2.55.15,10.14.56,16.82,3.6Zm5.45,22c-.61-11.46-3.8-17.24-4.21-18l3.87-1C97.15,48,99.63,53,100.8,64.07Z"/><path class="cls-1" d="M129.38,39.51c-3,2.21-6.57,5.1-9.84,7.66a18.7,18.7,0,0,1,5.67-1c5.26,0,10.18,2.89,10.18,9.65,0,7.36-6.16,11.38-13.6,11.38-6.46,0-9.87-2.93-9.87-6.42,0-3.19,2.89-5.56,6.64-5.56a9.33,9.33,0,0,1,9,6.91,6.88,6.88,0,0,0,3.64-6.19c0-2.74-1.39-6.35-7.59-6.35-6.42,0-11,3.72-16.22,8.6L105,54.64c1.09-.79,7.92-6,17.61-14.57-4.47.34-7.36.45-13.63.6V36.58c8.67.07,12.28-.08,20.39-.45Zm-10.93,19c-2,0-2.89,1.24-2.89,2.1,0,1.62,2,3.27,5.93,3.27a18.58,18.58,0,0,0,2.67-.3C123.37,60.76,121.64,58.51,118.45,58.51Z"/><path class="cls-1" d="M163.82,56.71c-3-3.35-4.81-7.44-6.54-11.57-1.54,0-4.46.07-4.65.07l-11.57,0v-4l11.76.18c1.46,0,2.36,0,3.19,0a54.38,54.38,0,0,1-1.43-5.82l4.43-.34c.26,1.46.75,4.24,1.28,6a56.37,56.37,0,0,0,10.85-1.39l.79,4A58.17,58.17,0,0,1,161.64,45a31.37,31.37,0,0,0,5.86,9.35ZM150.6,54c-.79.42-3.76,1.88-3.76,4.58,0,4.32,6.35,4.44,10.74,4.44a70.78,70.78,0,0,0,10.11-.6v4.16c-1.54.12-4.44.38-9.69.38-6.5,0-10.4-.71-13.11-3.16a6.91,6.91,0,0,1-2.21-5.14c0-3.38,2.29-5.9,5.74-7.58Z"/><path class="cls-1" d="M204,48.26c-1.58.15-22.5,2.25-22.5,10.21,0,3.91,4.28,4.32,11.46,4.32a111.09,111.09,0,0,0,12.2-.6l0,4.35c-2.26.15-5.45.38-10.85.38-6.46,0-17.24,0-17.24-8.3,0-6.31,7.36-9.58,9.95-10.74-1.35-2.37-1.39-4.77-1.5-12.5h4.54c0,1.2-.07,2.25-.07,4.13,0,3.9.18,5.48.9,6.94a87,87,0,0,1,12.58-2.66Z"/><path class="cls-1" d="M226.24,62.9c4-.37,12.35-1.73,12.35-11.79,0-4.17-1.72-10.36-10.14-10.78C227.29,57,222.29,64,217.11,64c-4.35,0-7.13-5-7.13-10.78,0-10.55,7.81-16.86,17.46-16.86,11.68,0,15.58,7.81,15.58,14.87,0,14.2-12.73,15.47-15.39,15.74ZM214,53.33c0,2.17.79,6.15,3.23,6.15,1.43,0,2.48-1.27,3.38-2.93,2.56-4.65,3.27-10.4,3.72-16C217.6,41.76,214,47.13,214,53.33Z"/><path class="cls-1" d="M246.52,48.18h7.77V59.82c1.06,2.37,2.6,4.58,8.34,4.58h19.45l-.75,3.72H262.86c-6,0-8.38-2.7-9.65-4.13a28.79,28.79,0,0,1-5.11,5.07l-1.95-4a21.79,21.79,0,0,0,4.31-3.34V51.82h-3.94Zm11.38-4.92c-.23.11-.41.23-1.09.64l-1.73-2.59-2.74,2.14a35.2,35.2,0,0,0-5.29-6.87l2.81-2.33a39.8,39.8,0,0,1,5.26,6c3-1.65,5.93-3.71,7.81-6.68l3.87.6A10.6,10.6,0,0,1,265.75,36H276v3.08a27.18,27.18,0,0,1-2.55,3h6.64V52.57h-6.31v5.56c0,.53.12,1,1,1h2.33c.63,0,1-.15,1.12-3.94l3.34.94c-.22,3.12-.45,6.42-3.11,6.42H273c-1.47,0-2.78-.19-2.78-2.1V52.57h-3.64c-.27,2.33-1.24,7-8,10.52l-2.25-3.16c6.23-2.7,6.64-6,6.83-7.36H257.9ZM269.05,42a19.66,19.66,0,0,0,2.52-3h-8.41a28.6,28.6,0,0,1-3.42,3Zm-7.58,7.55h5.74V45.1h-5.74Zm9.2-4.47v4.47h5.78V45.1Z"/><path class="cls-1" d="M300,51.33V68.2H285.35V51.33Zm14.65-16.48V48.29H288.92V34.85ZM288.92,54.79V64.7h7.44V54.79Zm3.72-16.41v6.38H311V38.38ZM318.1,51.33V68.2H302.85V51.33Zm-11.6,3.46V64.7h8V54.79Z"/><path class="cls-1" d="M321.9,48.26h7.77v9.91c0,4.77,4.77,6.27,8.34,6.27h19.37l-.78,3.72H337.86c-2.93,0-6.8-.79-9-4.32a25.29,25.29,0,0,1-5.44,5.41l-2-4.21a21.86,21.86,0,0,0,4.51-3.27V52.05h-4Zm3.41-14.09A52.23,52.23,0,0,1,331,40.93l-3.31,2.52a40.26,40.26,0,0,0-5.33-7Zm13.67,4h-6.27V35h22v3.11a29.8,29.8,0,0,1-7,4h7.92V59.86c0,2.67-1.54,3.12-3,3.12h-4.43l-.68-3.53h3.68c.86,0,.94-.49.94-1.09V56.52H346v6.12h-3.5V56.52h-5.93V63H333V42.1h7.14a19.41,19.41,0,0,0-3-1.77Zm-2.4,7v2.7h5.93v-2.7Zm0,5.56v2.78h5.93V50.7Zm3.08-12.55c1.43.87,2.82,1.85,4.21,2.82a31.14,31.14,0,0,0,5.1-2.82Zm6.35,7v2.7h6.08v-2.7Zm0,5.56v2.78h6.08V50.7Z"/><path class="cls-1" d="M365.27,62.15a19.26,19.26,0,0,1-3.83,6.91l-2.74-2.4a14.09,14.09,0,0,0,3.27-6Zm-4.91-27.23h12.43V60H360.36Zm3.64,3.5v3.64h5.18V38.42Zm0,7v3.72h5.18V45.4Zm0,7.1v4h5.18v-4Zm7.25,14.34c.15-.22.33-.45.41-.56l-1.69.79c-.64-1.32-.87-1.69-2.89-5.11l3.26-1.2c.83,1.16,2,3.08,2.45,3.79,2.77-4.84,2.92-12.13,2.92-14.83V34.92h18.86v3.69h-15v5.25h13.63v3.87c-.26,1.88-1.09,8-4.39,12.88a22.58,22.58,0,0,0,6.27,4.73L393.18,69a28.22,28.22,0,0,1-6.76-5.36,22.19,22.19,0,0,1-7.55,5.18l-1.95-3.38a16.62,16.62,0,0,0,7.17-4.81A30.59,30.59,0,0,1,380,49.12l3.56-.86a21.36,21.36,0,0,0,2.86,9.2,25.09,25.09,0,0,0,3-10h-9.84c.08,9.46-1.05,15.66-5,21.67Z"/><path class="cls-1" d="M431.9,39.32H416.27v1.8h12.55v7.36H416.27v1.65h13.34v4.58h2.51v3.2h-2.51v4.58H416.27v2.74c0,2-1,3.72-3.26,3.72h-6.8l-.56-3.72h5.67c1,0,1.16-.3,1.16-1.16V62.49H398.89V59.71h13.59v-2H396.71V54.87h15.77V53h-13.4V50.13h13.4V48.48h-12.2V41.12h12.2v-1.8H397.12V36.2h15.36V33.8h3.79v2.4H431.9Zm-19.42,4.47h-8.41v2.1h8.41Zm12.43,0h-8.64v2.1h8.64Zm.68,9.2h-9.32v1.88h9.32Zm.11,4.77h-9.43v2h9.43Z"/><path class="cls-1" d="M467.46,68.38c-4-1.35-8.78-3-13.59-7.43v7.88h-3.79V61c-2.41,2.1-5.64,4.65-13.56,7.36L434.57,65c7.77-2.36,11-4.61,12.69-5.82H434.53V56.07h15.55V53.81H437.16V50.92h12.92V48.67H436.37V45.59H444a17.85,17.85,0,0,0-1-2.93h-8.45V39.43h5.9c-.27-.56-1.47-3.12-2.18-4.65l3.9-1.13a30.18,30.18,0,0,1,2.26,5.78h2.29V33.91h3.68v5.52h3.26V33.91h3.68v5.52h2.44a39.89,39.89,0,0,0,2.07-5.78l3.91,1.13a32.12,32.12,0,0,1-2.07,4.65h5.78v3.23h-8.52c-.19.49-.9,2.52-1.05,2.93H468v3.08H453.87v2.25h13.22v2.89H453.87v2.26h15.58v3.11H456.72A32.67,32.67,0,0,0,469.64,65ZM455.9,45.59a15.93,15.93,0,0,0,.9-2.93H447c.19.41.86,2.48,1.05,2.93Z"/><path class="cls-1" d="M480.12,36.88V33.76h3.8v3.12h7.47v3.41H489a72.52,72.52,0,0,1-1.54,7.44h4.58v3.42H472V47.73h4.58a40.21,40.21,0,0,0-1.08-7.44h-2.82V36.88Zm10.67,31.43h-17.2V53.48h17.2Zm-3.65-11.42h-9.87V65h9.87Zm-3.22-9.16c.78-2.85,1.31-6.35,1.5-7.44H479a58.78,58.78,0,0,1,1.2,7.44ZM493.49,69V34.66h13.26v3.19c-1.88,4.66-2.11,5.15-4.28,9.65a16.31,16.31,0,0,1,4.84,11.27,7.41,7.41,0,0,1-1.88,5.33c-.94.94-2.18,1.24-4.13,1.24h-2.66l-.49-3.83h2.44c1.09,0,2.7-.15,2.7-3.3a13,13,0,0,0-5.14-9.88,70,70,0,0,0,4.17-10.25h-5V69Z"/><path class="cls-1" d="M18.92,22.21H3.68V16.89A14.4,14.4,0,0,1,1.2,18l-1.2-2A17.41,17.41,0,0,0,5.16,13.6H.42V11.71H7.19c.21-.26.35-.42.65-.84H2.54V4.72H6V3.79H.42v-2H6v-1H8.28v1h6v-1h2.33v1h5.55v2H16.63v.93h3.49v6.15H10.36c-.25.42-.32.51-.53.84H22.18V13.6H17.67a11.68,11.68,0,0,0,5,2.29L21.4,18a15.82,15.82,0,0,1-2.48-1.11ZM17.77,6.13H4.86v1H17.77Zm0,2.2H4.86V9.42H17.77Zm-1.14,8.16H6v1.16H16.63Zm0,2.73H6v1.23H16.63ZM15.8,14.8a10,10,0,0,1-1.3-1.2H8.19c-.56.56-.86.81-1.32,1.2Zm-1.5-11h-6v.93h6Z"/><path class="cls-1" d="M28.24,5.55a20,20,0,0,0-.67,6A12.46,12.46,0,0,1,35.14,9c5.39,0,6.38,3.6,6.38,5.52,0,4.95-4.16,6.85-10.52,6.85a30.3,30.3,0,0,1-4.4-.3l-.28-2.5a28.83,28.83,0,0,0,4.51.37c6,0,8-1.8,8-4.51,0-1.5-1-3.12-3.91-3.12a9.64,9.64,0,0,0-7.29,3.08,4,4,0,0,0-.07.48L25,14.78c.1-6.22.14-7,.65-9.55Zm9.67.26a29.69,29.69,0,0,0-9.53-1.76l.49-2.43a35.15,35.15,0,0,1,9.74,1.46Z"/><path class="cls-1" d="M49,2.06c-.21,4.9-.32,10-.32,11.31,0,2.82.2,5.55,4.18,5.55,5.74,0,6.48-4.23,7.08-7.49l2.43,1c-.83,4.3-2.54,9-9.46,9-6.29,0-6.92-4-6.92-8.12,0-1.78.12-9.65.14-11.24Z"/><path class="cls-1" d="M82.33,3.89V6.13h-10A18,18,0,0,1,71,9a6.4,6.4,0,0,1,3.37-1.2A3.29,3.29,0,0,1,78,10.36c1.07-.41,3.73-1.45,5.58-2l.6,2.45a57.67,57.67,0,0,0-5.83,1.8,24.8,24.8,0,0,1,.11,2.5,15.51,15.51,0,0,1-.07,1.69H75.92A17.3,17.3,0,0,0,76,13.56c-2.43,1.13-4,2.31-4,3.67,0,1.85,2.27,1.85,4.81,1.85a55.17,55.17,0,0,0,6-.32l.07,2.48c-1.6.09-3.54.18-5.35.18-2.75,0-8.14,0-8.14-3.89,0-3.23,4.33-5.34,6.27-6.2A1.67,1.67,0,0,0,73.86,9.9,6.44,6.44,0,0,0,69.7,12c-.1.09-2.8,3.68-3.43,4.3l-1.75-1.85a20,20,0,0,0,5.22-8.28H65.23V3.89h5.18a18.85,18.85,0,0,0,.47-2.46l2.73.12c-.17.88-.28,1.34-.54,2.34Z"/><path class="cls-1" d="M86.19,10.83h4.47V9.44h2.26v1.39h4.21V13H93.06a16.83,16.83,0,0,0,4.07,3.91l-1.36,2a10.58,10.58,0,0,1-2.85-3.36v7H90.66v-7a24.38,24.38,0,0,1-3.52,5l-1.3-2.33A20.23,20.23,0,0,0,90.22,13h-4ZM97.34,3A70.05,70.05,0,0,1,86.77,4.14L86.31,2c6.64-.26,8.51-.7,9.94-1Zm-9,1.78a17.63,17.63,0,0,1,1.2,3.8l-2.1.6a23,23,0,0,0-1-3.87Zm3.82-.35A21.85,21.85,0,0,1,93,8.12l-2,.46a21.09,21.09,0,0,0-.85-3.7Zm5.15.17c-.18.58-1.11,3.28-1.8,4.81l-2-.6c.84-2.13,1.53-4.35,1.69-4.84Zm10.6,10.2a22.25,22.25,0,0,1-10.76,7.72l-1.27-2.22c4.44-1.45,8.31-4.32,10-7ZM107,2.24a22.44,22.44,0,0,1-8.63,5.21l-1.25-2.2A19.42,19.42,0,0,0,104.93.86Zm.27,5.67a23.61,23.61,0,0,1-8.6,6.66l-1.27-2.15a19.35,19.35,0,0,0,7.75-5.69Z"/><path class="cls-1" d="M124.84,4.42c-1.85,1.36-4,3.14-6.06,4.72a11.55,11.55,0,0,1,3.5-.63c3.23,0,6.27,1.78,6.27,6,0,4.53-3.8,7-8.38,7-4,0-6.08-1.81-6.08-4,0-2,1.78-3.42,4.09-3.42a5.73,5.73,0,0,1,5.55,4.25A4.21,4.21,0,0,0,126,14.53c0-1.69-.86-3.91-4.68-3.91s-6.77,2.29-10,5.3l-1.48-2.18c.67-.49,4.88-3.7,10.85-9-2.75.2-4.53.27-8.4.37V2.61c5.35.05,7.57,0,12.56-.27Zm-6.73,11.7c-1.22,0-1.78.77-1.78,1.3,0,1,1.2,2,3.66,2a11.11,11.11,0,0,0,1.64-.18C121.14,17.51,120.08,16.12,118.11,16.12Z"/><path class="cls-1" d="M135.6,3.1A44.87,44.87,0,0,0,135,10c0,3,.21,8,2.55,8a2.16,2.16,0,0,0,1.66-1.14,14.91,14.91,0,0,0,1.83-3.74l2.11,1.25a14.7,14.7,0,0,1-3.1,5.43,3.7,3.7,0,0,1-2.66,1.14c-4.1,0-5-6-5-11.18,0-2.26.21-4.76.39-6.84Zm13.32,15.57c.05-4.1.14-10.23-4.09-13.7l2-1.45c3.65,3.23,4.88,6.54,4.88,15Z"/><path class="cls-1" d="M158.73,3.1a45.16,45.16,0,0,0-.55,6.87c0,3,.2,8,2.54,8a2.19,2.19,0,0,0,1.67-1.14,15.3,15.3,0,0,0,1.82-3.74l2.11,1.25a14.56,14.56,0,0,1-3.1,5.43,3.69,3.69,0,0,1-2.66,1.14c-4.1,0-4.95-6-4.95-11.18,0-2.26.21-4.76.39-6.84Zm13.33,15.57c0-4.1.13-10.23-4.1-13.7l2-1.45c3.65,3.23,4.88,6.54,4.88,15Z"/><path class="cls-1" d="M192.32,4.83V7.19h-7.08L185.15,11h2.71a17.24,17.24,0,0,0,4.16-.37l.14,2.34a19,19,0,0,1-4.3.41H185.1c-.07,4.75,0,5.53,4.4,5.53,2.52,0,5.34-.14,5.34-4a11.88,11.88,0,0,0-1.27-5l2.34-.63a12,12,0,0,1,1.57,5.86c0,6.29-5.14,6.29-8,6.29-3.15,0-5.14-.4-6.32-2.59-.64-1.21-.64-2.92-.6-5.42h-4.16V11h4.19l.06-3.82h-4V4.83h4.05l0-3,2.68,0-.07,3Z"/><path class="cls-1" d="M210.73,18.83c2.45-.23,7.61-1.06,7.61-7.26,0-2.57-1.06-6.39-6.24-6.64-.72,10.29-3.8,14.57-7,14.57-2.68,0-4.39-3.08-4.39-6.64,0-6.5,4.81-10.38,10.75-10.38,7.2,0,9.6,4.81,9.6,9.16,0,8.74-7.84,9.53-9.48,9.69Zm-7.52-5.9c0,1.34.49,3.79,2,3.79.88,0,1.53-.78,2.09-1.8,1.57-2.87,2-6.41,2.29-9.88A7.61,7.61,0,0,0,203.21,12.93Z"/><path class="cls-1" d="M228.2,21.81a43.29,43.29,0,0,0-4.1-5.09l2.13-1.5a36.74,36.74,0,0,1,4.42,4.93Z"/><path class="cls-1" d="M243.35,20.52h-3.56L234.33,2.17h2.91l4.33,15.43,4.16-15.43h3.59l4.16,15.43,4.33-15.43h2.91l-5.46,18.35H251.7L247.51,5Z"/><path class="cls-1" d="M264.4,14.55c.21,2.8,1.89,4,4.51,4a7.87,7.87,0,0,0,4.28-1.18V20a10.51,10.51,0,0,1-4.35.88c-5.62,0-7-4.21-7-7.13,0-4.39,2.71-7.31,6.32-7.31a5.72,5.72,0,0,1,5.48,3.71,12,12,0,0,1,.67,4.39Zm7.31-2.1c-.33-3.38-2.82-3.68-3.61-3.68-1.6,0-3.4,1-3.68,3.68Z"/><path class="cls-1" d="M279.39,20.52h-2.55V1.32h2.59V8.4a5.5,5.5,0,0,1,4.21-1.95c3.78,0,6.09,3.22,6.09,7.22s-2.31,7.22-6.11,7.22a5.16,5.16,0,0,1-4.23-2Zm3.88-2c2.78,0,3.89-2.43,3.89-4.84S286,8.81,283.27,8.81c-1.45,0-3.93.84-3.93,4.86S281.82,18.51,283.27,18.51Z"/><path class="cls-1" d="M296.37,2.43a46.89,46.89,0,0,0-1,10.55,40.8,40.8,0,0,0,.67,8.19l-2.75.2a46.29,46.29,0,0,1-.58-8,58.1,58.1,0,0,1,.93-11.17Zm5.92,10a5.47,5.47,0,0,0-1.13,3c0,1.95,2.29,2.15,4.51,2.15a50.19,50.19,0,0,0,5.34-.27v2.68c-1.25.09-2.64.21-4.28.21-3.79,0-8-.37-8-4.47a7.63,7.63,0,0,1,1.2-3.95ZM310.55,4V6.52H299.44V4Z"/><path class="cls-1" d="M317.83,3.1a45.16,45.16,0,0,0-.55,6.87c0,3,.21,8,2.54,8a2.19,2.19,0,0,0,1.67-1.14,15.3,15.3,0,0,0,1.82-3.74l2.11,1.25a14.56,14.56,0,0,1-3.1,5.43,3.69,3.69,0,0,1-2.66,1.14c-4.09,0-5-6-5-11.18,0-2.26.21-4.76.39-6.84Zm13.33,15.57c0-4.1.14-10.23-4.1-13.7l2-1.45c3.65,3.23,4.88,6.54,4.88,15Z"/><path class="cls-1" d="M341.84,18.55c2.43,0,8.89-.11,8.89-5.16,0-2.36-1.69-3.67-4-3.67-2.47,0-7.72,1.27-9.34,1.66L337,8.84c.93-.14,5-.86,5.76-1a26.28,26.28,0,0,1,4.12-.42c4.3,0,6.41,2.8,6.41,6a6.74,6.74,0,0,1-5,6.59,23.55,23.55,0,0,1-5.7.79Z"/><path class="cls-1" d="M360,2.36a50.38,50.38,0,0,0-1,10.36,42.24,42.24,0,0,0,.74,8.4l-2.59.3a49.27,49.27,0,0,1-.67-8.72,59,59,0,0,1,.86-10.53Zm8.28,0h2.29l.18,4.23h4.42V9H371l.1,5.23a16.72,16.72,0,0,1,4.55,3.28L374,19.75A13.17,13.17,0,0,0,371,17l0,.67c-.1,2.71-1.74,3.75-4.56,3.75-3.56,0-5-2.1-5-4.12,0-2.43,2.06-4.16,5.13-4.16a7.48,7.48,0,0,1,2.06.28L368.47,9h-6.69V6.57h6.62Zm.3,13.39a4.79,4.79,0,0,0-2.11-.44c-1.36,0-2.89.51-2.89,2s1.48,1.94,2.64,1.94c2.36,0,2.36-1.41,2.36-2.24ZM377.7,3.19A3.2,3.2,0,1,1,374.51,0,3.19,3.19,0,0,1,377.7,3.19Zm-4.91,0a1.72,1.72,0,0,0,1.72,1.71,1.71,1.71,0,1,0-1.72-1.71Z"/><path class="cls-1" d="M382.76,3.1a46.52,46.52,0,0,0-.55,6.87c0,3,.21,8,2.54,8a2.19,2.19,0,0,0,1.67-1.14,15.64,15.64,0,0,0,1.83-3.74l2.1,1.25a14.56,14.56,0,0,1-3.1,5.43,3.69,3.69,0,0,1-2.66,1.14c-4.09,0-4.95-6-4.95-11.18,0-2.26.21-4.76.39-6.84Zm13.33,15.57c0-4.1.14-10.23-4.1-13.7l2-1.45c3.65,3.23,4.88,6.54,4.88,15Z"/><path class="cls-1" d="M420.82,8.1c-1.07,9.09-5.28,12.37-14.88,13.3l-.76-2.48c4-.25,6.78-1,8.58-2.17a9.62,9.62,0,0,0,4-6.25H402.47V8.1Zm-1.41-5.46V5H404.14V2.64Z"/><path class="cls-1" d="M436.25,21.51h-2.76V11.27a37.44,37.44,0,0,1-8.58,4.18l-1.27-2.36a34.55,34.55,0,0,0,16.54-11.4l2.36,1.6a41.92,41.92,0,0,1-6.29,6Z"/><path class="cls-1" d="M464.26,3.35c-.44,7.06-2.34,15.36-14.83,18l-1.09-2.42c10.39-2,12.31-7.78,13-13H446.38V3.35Z"/><path class="cls-1" d="M477.19,21.7h-2.41V13.62A30.39,30.39,0,0,1,467.87,17l-1.09-2.16a27.28,27.28,0,0,0,13.44-9.29l2.06,1.48a33.86,33.86,0,0,1-5.09,4.85Z"/><path class="cls-1" d="M501.89,3a24.31,24.31,0,0,1-4.28,9.55,83.32,83.32,0,0,1,7.68,6.73l-2.17,2.11A84.5,84.5,0,0,0,496,14.5a28.06,28.06,0,0,1-9.21,6.9l-1.5-2.15A23.76,23.76,0,0,0,498.47,5.46H486.56V3Z"/><path class="cls-1" d="M507.81,9.88A14.76,14.76,0,0,0,513.9,3h12.35c-.37,3.68-1.53,15.08-15.59,18.69l-1.3-2.36A18.87,18.87,0,0,0,519.13,14a31.89,31.89,0,0,0-6.8-4.39,16.06,16.06,0,0,1-2.83,2.19Zm7.82-4.54a18.92,18.92,0,0,1-1.78,2.59,33.33,33.33,0,0,1,6.85,4.19,16.28,16.28,0,0,0,2.5-6.78Z"/><path class="cls-1" d="M549.92,10.36v2.71H530.07V10.36Z"/><path class="cls-1" d="M568.58,5.83a23.3,23.3,0,0,1-3.49,6.68,83.2,83.2,0,0,1,7.7,6.74l-2.15,2.12a77.84,77.84,0,0,0-7.1-6.89,27.92,27.92,0,0,1-9.21,6.92l-1.5-2.13A23.83,23.83,0,0,0,566,5.46H554.06V3h12.7Zm.65-4.95a20.28,20.28,0,0,1,2.11,4.49l-1.67.85a19.2,19.2,0,0,0-2-4.55ZM572.52,0a19.92,19.92,0,0,1,2.08,4.49l-1.67.83a18.53,18.53,0,0,0-2-4.56Z"/></g></g></svg>