<?xml version="1.0" encoding="utf-8"?>
<!-- Generator: Adobe Illustrator 25.4.1, SVG Export Plug-In . SVG Version: 6.00 Build 0)  -->
<svg version="1.1" id="レイヤー_1" xmlns="http://www.w3.org/2000/svg" xmlns:xlink="http://www.w3.org/1999/xlink" x="0px"
	 y="0px" viewBox="0 0 776.2 20" style="enable-background:new 0 0 776.2 20;" xml:space="preserve">
<style type="text/css">
	.st0{clip-path:url(#SVGID_00000169536075326807007060000013794466223918054299_);}
	.st1{fill:#C29115;}
</style>
<g id="レイヤー_2_00000001648279066236393170000012074491045863406466_">
	<g id="文字_写真">
		<g>
			<defs>
				<rect id="SVGID_1_" x="-5.9" y="3" width="788.7" height="15.9"/>
			</defs>
			<clipPath id="SVGID_00000054956084994900246800000014065073211166836371_">
				<use xlink:href="#SVGID_1_"  style="overflow:visible;"/>
			</clipPath>
			<g style="clip-path:url(#SVGID_00000054956084994900246800000014065073211166836371_);">
				<path class="st1" d="M61.7,17.8v-0.3c-0.1-0.7-0.1-1.4,0.1-2.1v-0.1v-0.4v-0.7v-0.3c0-0.6,0-1.3,0-2c0.1-0.5,0.1-1,0-1.5
					c0-0.4,0-0.7,0-1.1c0-0.1,0-0.2,0-0.4c-0.2-1.1-0.3-2.3-0.1-3.4c0-0.4,0.1-0.8,0.1-1.2h6.5c0,0.5,0,1-0.1,1.5
					c-0.1,0.7-0.1,1.5,0,2.3c0.1,0.5,0.1,1,0.1,1.5c0,0.1,0,0.2,0,0.4c0.1,0.8,0.1,1.5,0,2.3c0,0.5,0,1,0,1.6v0.3v0.6v0.5
					c0,0.4,0,0.7-0.1,1.1c0,0.3,0,0.6,0,0.9v0.4L61.7,17.8z"/>
				<path class="st1" d="M76.7,17.7h-6.5c0-0.4,0-0.7,0.1-1.1c0.1-0.3,0.1-0.6,0-0.9c-0.1-0.6-0.2-1.2-0.2-1.8c0-0.3,0-0.6,0-0.9
					c0-0.3,0-0.6,0-0.9c0-0.2,0-0.5,0-0.7c0,0,0-0.1,0-0.1s0-0.3,0-0.5v-0.2c0-0.5,0-1.1,0.1-1.6V8.8c0-0.3,0-0.5,0.1-0.8V7.8
					c0-0.1,0-0.1,0-0.2c-0.1-0.3-0.1-0.6-0.1-1c0-0.1,0-0.2,0-0.4c0-0.4,0-0.8,0-1.2c0-0.2,0.1-0.5,0.2-0.7V4.2
					c-0.1,0.6,0.1,1.1,0.5,1.6l5.3-2.9c0.7,0.8,0.9,1.9,0.4,2.8c0,0.1,0,0.3,0,0.5s0,0.4,0,0.5c0,0.1,0,0.1,0,0.2
					c0.1,0.4,0.1,0.7,0.1,1.1v0.2c0,0.4,0,0.7-0.1,1.1v0.2c0,0.2-0.1,0.4-0.1,0.6v0.3v0.3c0,0.3,0,0.7,0,1c0,0,0,0.1,0,0.1
					c0,0.3,0,0.7,0,1s0,0.5,0,0.8c0,0.6,0,0.9,0.1,1.1c0.2,0.7,0.2,1.5,0.1,2.2C76.7,17.3,76.7,17.5,76.7,17.7z"/>
				<path class="st1" d="M85.4,18.1L79,17.4c0-0.1,0-0.2,0-0.2c-0.1-0.5-0.2-1.1-0.3-1.6v-0.3l0.1-0.2c0-0.2,0.1-0.3,0.2-0.5
					c0,0,0-0.1,0-0.1c0-0.1,0-0.3,0-0.4c0-0.1,0-0.4-0.1-0.6c-0.1-0.4-0.1-0.8-0.1-1.2c0-0.2,0-0.4,0-0.6c0-0.5,0-1,0-1.4
					c0-0.4,0.1-0.8,0.1-1.3V8.8c0-0.2,0-0.4,0-0.5c0-0.2,0-0.4,0-0.6V7.5c0-0.2,0-0.3,0-0.5c0-0.3,0-0.7,0-1c0-0.2,0.1-0.4,0.1-0.6
					c0-0.1,0-0.1,0-0.2s0-0.4,0-0.5c0.1,0.7,0.6,1.4,1.5,1.8l3.5-4.2c1.8,0.9,1.7,2.3,1.5,3.3v0.1c0,0.3-0.1,0.5-0.1,0.8
					c0,0.2,0,0.4,0,0.6c0,0.2,0,0.5,0,0.8v0.3c0,0.1,0,0.2,0,0.2v0.1c0,0.2,0,0.4,0,0.5c0,0.5,0,1-0.1,1.6c0,0.3,0,0.5,0,0.8
					c0,0.3,0,0.5,0,0.8c0,0.2,0,0.4,0.1,0.7c0.1,0.4,0.1,0.9,0.1,1.3v0.2c0,0.3,0,0.7,0,1c0,0.2-0.1,0.3-0.1,0.5
					c0,0.1,0,0.2,0.1,0.4C85.5,16.8,85.5,17.5,85.4,18.1z M85.3,6.5L85.3,6.5z"/>
				<path class="st1" d="M36,17.8v-0.3c-0.1-0.7-0.1-1.4,0.1-2.1v-0.1v-0.4c0-0.2,0-0.5,0-0.7v-0.3c0-0.6,0-1.3,0-2c0-0.5,0-1,0-1.5
					c0-0.4,0-0.7,0-1.1c0-0.1,0-0.2,0-0.4c-0.2-1.1-0.3-2.3-0.1-3.4C36,5.1,36,4.7,36,4.3h6.5c0,0.5,0,1-0.1,1.5
					c-0.1,0.7-0.1,1.5,0,2.3c0.1,0.5,0.1,1,0.1,1.5c0,0.1,0,0.2,0,0.4c0.1,0.8,0.1,1.5,0,2.3c0,0.5,0,1.1,0,1.6v0.3
					c0,0.2,0,0.4,0,0.6v0.5c0,0.4,0,0.8-0.1,1.1c0,0.3,0,0.6,0,0.9v0.4L36,17.8z"/>
				<path class="st1" d="M51,17.7h-6.5c0-0.4,0-0.7,0.1-1.1c0.1-0.3,0.1-0.6,0-1c-0.1-0.6-0.2-1.2-0.2-1.8c0-0.3,0-0.6,0-0.9
					c0-0.3,0-0.6,0-0.9c0-0.2,0-0.5,0-0.7c0,0,0-0.1,0-0.1c0,0,0-0.3-0.1-0.5v-0.2c0-0.5,0-1.1,0.1-1.6V8.8c0-0.3,0.1-0.5,0.1-0.8
					V7.8c0,0,0-0.1,0-0.2c-0.1-0.3-0.1-0.6-0.1-1c0-0.1,0-0.2,0-0.4c0-0.4,0-0.8,0-1.2c0-0.2,0.1-0.5,0.2-0.7V4.2
					c-0.1,0.6,0.1,1.1,0.5,1.6l5.3-2.9c0.7,0.8,0.9,1.9,0.4,2.8c0,0.1,0,0.3,0,0.5s0,0.4,0,0.5c0,0.1,0,0.1,0,0.2
					c0.1,0.4,0.1,0.7,0.1,1.1v0.2c0,0.4,0,0.7-0.1,1.1v0.2c0,0.2,0,0.4,0,0.6v0.3c0,0.1,0,0.2,0,0.3c0,0.3,0,0.7,0,1
					c0,0,0,0.1,0,0.1c0,0.3,0,0.7,0,1s0,0.5,0,0.8c0,0.6,0,0.9,0.1,1.1c0.2,0.7,0.2,1.5,0.1,2.2C51,17.3,51,17.5,51,17.7z"/>
				<path class="st1" d="M59.7,18.1l-6.4-0.7c0-0.1,0-0.2,0-0.2c-0.1-0.5-0.2-1.1-0.3-1.6v-0.3l0.1-0.2c0-0.2,0.1-0.3,0.1-0.5v-0.1
					c0-0.1,0-0.3,0-0.4c0-0.2,0-0.4-0.1-0.6c-0.1-0.4-0.1-0.8-0.1-1.2c0-0.2,0-0.4,0-0.6c0-0.5,0-1,0-1.4c0-0.5,0-0.9,0-1.3V8.8
					c0-0.2,0-0.4,0-0.5c0-0.2,0-0.4,0-0.6V7.5c0-0.2,0-0.3,0-0.5c0-0.3,0-0.7,0-1c0.1-0.2,0.1-0.4,0.2-0.6c0-0.1,0-0.1,0-0.2
					s0-0.4,0-0.5c0.1,0.7,0.6,1.4,1.4,1.8l3.5-4.2C60,3,59.8,4.5,59.7,5.5v0.1c0,0.3-0.1,0.5-0.1,0.8c0,0.2,0,0.4,0,0.6
					c0,0.3,0,0.5,0,0.8V8c0,0.1,0,0.2,0,0.2v0.1c0,0.2,0,0.4,0,0.5c0,0.5,0,1.1-0.1,1.6c0,0.2,0,0.5,0,0.8c0,0.3,0,0.6,0,0.8
					c0,0.2,0,0.4,0.1,0.7c0.1,0.5,0.1,0.9,0.1,1.4c0,0.1,0,0.2,0,0.2c0,0.3,0,0.7,0,1c0,0.2-0.1,0.3-0.1,0.5c0,0.1,0.1,0.2,0.1,0.4
					C59.8,16.8,59.8,17.5,59.7,18.1z M59.6,6.5L59.6,6.5z"/>
				<path class="st1" d="M10.6,17.8v-0.3c-0.1-0.7-0.1-1.4,0.1-2.1c0,0,0-0.1,0-0.1v-0.4c0-0.2,0-0.5,0-0.7v-0.3c0-0.6,0-1.3,0-2
					c0.1-0.5,0.1-1,0-1.5c0-0.4,0-0.7,0-1.1c0-0.1,0-0.3,0-0.4c-0.2-1.1-0.3-2.3-0.1-3.4c0-0.4,0.1-0.8,0.1-1.2h6.5
					c0,0.5,0,1-0.1,1.5c-0.1,0.7-0.1,1.5,0,2.3c0.1,0.5,0.1,1,0.1,1.5c0,0.1,0,0.2,0,0.4c0.1,0.8,0.1,1.5,0,2.3c0,0.5,0,1.1,0,1.6
					v0.3c0,0.2,0,0.4,0,0.6v0.5c0,0.4,0,0.7-0.1,1.1c0,0.3,0,0.6,0,0.9v0.4L10.6,17.8z"/>
				<path class="st1" d="M25.6,17.7h-6.5c0-0.4,0-0.7,0.1-1.1c0.1-0.3,0.1-0.6,0-0.9c-0.1-0.6-0.2-1.2-0.2-1.8c0-0.3,0-0.6,0-0.9
					s0-0.6,0-1s0-0.5,0-0.7c0,0,0-0.1,0-0.1s0-0.3-0.1-0.5v-0.2c-0.1-0.5,0-1.1,0.1-1.6V8.8c0-0.3,0-0.5,0.1-0.8V7.8
					c0-0.1,0-0.1,0-0.2C19,7.3,19,6.9,19,6.6c0-0.1,0-0.2,0-0.4c0-0.4,0-0.8,0-1.2c0-0.2,0.1-0.5,0.2-0.7l0.1-0.1
					c-0.1,0.6,0.1,1.1,0.5,1.6L25,2.9c0.7,0.8,0.9,1.9,0.4,2.8c0,0.1,0,0.3,0,0.4s0,0.4,0,0.6c0,0.1,0,0.1,0,0.2
					c0.1,0.4,0.1,0.7,0.1,1.1v0.2c0,0.4,0,0.7-0.1,1.1v0.2c0,0.2-0.1,0.4-0.1,0.6v0.3c0,0.1,0,0.2,0,0.3c0,0.3,0,0.7,0,1
					c0,0.1,0,0.1,0,0.2c0,0.3,0,0.7,0,1s0,0.5,0,0.8c0,0.6,0.1,0.9,0.1,1.1c0.2,0.7,0.2,1.5,0.1,2.2C25.7,17.3,25.6,17.5,25.6,17.7z
					"/>
				<path class="st1" d="M34.3,18.1l-6.4-0.7c0-0.1,0-0.2,0-0.2c-0.2-0.5-0.2-1.1-0.3-1.6v-0.2l0.1-0.2c0-0.2,0.1-0.3,0.2-0.5
					c0,0,0-0.1,0-0.1c0-0.1,0-0.3,0-0.4c0-0.2,0-0.4-0.1-0.6c-0.1-0.4-0.1-0.8-0.1-1.2c0-0.2,0-0.4,0-0.6c0-0.5,0-1,0-1.4
					c0-0.4,0.1-0.8,0.1-1.3V8.8c0-0.2,0-0.4,0-0.5s0-0.4,0-0.6V7.5c0-0.2,0-0.4,0-0.5c0-0.4,0-0.7,0-1c0-0.2,0.1-0.4,0.1-0.6
					c0-0.1,0-0.1,0-0.2s0-0.4,0-0.5C28,5.3,28.5,6,29.3,6.4l3.5-4.2c1.8,0.9,1.6,2.3,1.5,3.3v0.1c0,0.3-0.1,0.5-0.1,0.8
					c0,0.2,0,0.4,0,0.6c0,0.2,0,0.5,0,0.8v0.3c0,0.1,0,0.2,0,0.2v0.1c0,0.2,0,0.4,0,0.5c0,0.5,0,1-0.1,1.6c0,0.3,0,0.5,0,0.8
					c0,0.3,0,0.6,0,0.8s0,0.4,0.1,0.7c0.1,0.4,0.1,0.9,0.1,1.3c0,0.1,0,0.2,0,0.2c0,0.3,0,0.7,0,1c0,0.2-0.1,0.3-0.1,0.5
					c0,0.1,0,0.2,0.1,0.4C34.4,16.8,34.4,17.5,34.3,18.1z M34.2,6.5L34.2,6.5z"/>
				<path class="st1" d="M-15.1,17.8v-0.3c-0.1-0.7-0.1-1.4,0.1-2.1c0,0,0-0.1,0-0.1v-0.4c0-0.2,0-0.5,0-0.7v-0.3c0-0.6,0-1.3,0-2
					c0.1-0.5,0.1-1,0-1.5c0-0.4,0-0.7,0-1.1c0-0.1,0-0.2,0-0.4c-0.2-1.1-0.3-2.3-0.1-3.4c0-0.4,0.1-0.8,0.1-1.2h6.5
					c0,0.5,0,1-0.1,1.5c-0.1,0.7-0.1,1.5,0,2.3c0.1,0.5,0.1,1,0.1,1.5c0,0.1,0,0.3,0,0.4c0.1,0.8,0.1,1.5,0,2.3c0,0.5,0,1.1,0,1.6
					v0.3v0.6v0.5c0,0.4,0,0.7-0.1,1.1c0,0.3,0,0.6,0,0.9v0.4L-15.1,17.8z"/>
				<path class="st1" d="M-0.1,17.7h-6.5c0-0.4,0-0.7,0.1-1.1c0.1-0.3,0.1-0.6,0-1c-0.1-0.6-0.2-1.2-0.2-1.8c0-0.3,0-0.6,0-0.9
					s0-0.6,0-0.9s0-0.5,0-0.7c0,0,0-0.1,0-0.1c0-0.2,0-0.3,0-0.5v-0.2C-6.8,10-6.8,9.5-6.7,9V8.8c0-0.3,0.1-0.5,0.1-0.8V7.7
					c0-0.1,0-0.1,0-0.2c-0.1-0.3-0.1-0.6-0.1-0.9c0-0.1,0-0.2,0-0.4c0-0.4,0-0.8,0-1.2c0-0.2,0.1-0.5,0.2-0.7l0-0.1
					C-6.6,4.7-6.4,5.3-6,5.8l5.3-2.9C0,3.7,0.2,4.7-0.3,5.7c0,0.1,0,0.3,0,0.4c0,0.2,0,0.4,0,0.6c0,0.1,0,0.1,0,0.2
					C-0.2,7.2-0.2,7.6-0.2,8v0.2c0,0.4,0,0.7-0.1,1.1v0.2c0,0.2,0,0.4,0,0.6v0.3v0.3c0,0.3,0,0.7,0,1c0,0,0,0.1,0,0.1
					c0,0.3,0,0.7,0,1c0,0.4,0,0.5,0,0.8c0,0.6,0,0.9,0.1,1.1C0,15.6,0,16.4-0.1,17.1C-0.1,17.3-0.1,17.5-0.1,17.7z M-6.7,11.4
					L-6.7,11.4z"/>
				<path class="st1" d="M8.6,18.1l-6.4-0.7c0-0.1,0-0.2,0-0.2c-0.1-0.5-0.2-1.1-0.2-1.6v-0.2v-0.2c0-0.2,0.1-0.3,0.2-0.5
					c0,0,0-0.1,0-0.1s0-0.3,0-0.4c0-0.1,0-0.4-0.1-0.6c-0.1-0.4-0.1-0.8-0.1-1.2c0-0.2,0-0.4,0-0.6c0-0.5,0-1,0-1.4
					C1.9,9.8,2,9.4,2,8.9V8.8c0-0.2,0-0.4,0-0.5s0-0.4,0-0.6V7.5C2,7.4,2,7.2,2,7c0-0.4,0-0.7,0-1c0-0.2,0.1-0.4,0.2-0.6
					c0-0.1,0-0.1,0-0.2c0-0.2,0-0.4,0-0.5C2.2,5.3,2.8,6,3.7,6.4l3.4-4.2c1.8,0.9,1.6,2.3,1.5,3.3v0.1c0,0.3-0.1,0.5-0.1,0.8
					c0,0.2,0,0.4,0,0.6c0,0.2,0,0.5,0,0.8v0.3c0,0.1,0,0.2,0,0.2v0.1c0,0.2,0,0.4,0,0.5c0,0.5,0,1-0.1,1.6c0,0.3,0,0.5,0,0.8
					c0,0.3,0,0.6,0,0.8c0,0.2,0,0.4,0.1,0.7c0.1,0.4,0.1,0.9,0.1,1.3c0,0.1,0,0.2,0,0.2c0,0.3,0,0.7,0,1c0,0.2-0.1,0.3-0.1,0.5
					c0,0.1,0,0.2,0.1,0.4C8.7,16.8,8.7,17.5,8.6,18.1z M8.5,6.5L8.5,6.5z"/>
				<path class="st1" d="M163.9,17.8v-0.3c-0.1-0.7,0-1.4,0.1-2.1v-0.1v-0.4v-0.7v-0.3c0-0.6,0-1.3,0-2c0.1-0.5,0.1-1,0-1.5
					c0-0.4,0-0.7,0-1.1c0-0.1,0-0.2,0-0.4c-0.2-1.1-0.3-2.3-0.1-3.4c0-0.4,0.1-0.8,0.1-1.2h6.5c0,0.5,0,1-0.1,1.5
					c-0.1,0.7-0.1,1.5,0,2.3c0.1,0.5,0.1,1,0.1,1.5c0,0.1,0,0.3,0,0.4c0.1,0.8,0.1,1.5,0,2.3c0,0.5,0,1.1,0,1.6v0.3v0.6v0.5
					c0,0.4,0,0.7-0.1,1.1c0,0.3,0,0.6,0,0.9v0.4L163.9,17.8z"/>
				<path class="st1" d="M178.9,17.7h-6.5c0-0.4,0-0.7,0.1-1.1c0.1-0.3,0.1-0.6,0-0.9c-0.1-0.6-0.2-1.2-0.2-1.8c0-0.3,0-0.6,0-0.9
					c0-0.3,0-0.6,0-0.9c0-0.2,0-0.5,0-0.7c0,0,0-0.1,0-0.1s0-0.3-0.1-0.5v-0.2c0-0.5,0-1.1,0.1-1.6V8.8c0-0.3,0-0.5,0.1-0.8V7.8
					c0-0.1,0-0.1,0-0.2c-0.1-0.3-0.1-0.6-0.1-1c0-0.1,0-0.2,0-0.4c0-0.4,0-0.8,0-1.2c0-0.2,0.1-0.5,0.2-0.7V4.2
					c-0.1,0.6,0.1,1.1,0.5,1.6l5.3-2.9c0.7,0.8,0.9,1.9,0.4,2.8c0,0.1,0,0.3,0,0.5s0,0.4,0,0.5c0,0.1,0,0.1,0,0.2
					c0.1,0.4,0.1,0.7,0.1,1.1v0.2c0,0.4,0,0.7-0.1,1.1v0.2c0,0.2-0.1,0.4-0.1,0.6v0.3v0.3c0,0.3,0,0.7,0,1c0,0,0,0.1,0,0.1
					c0,0.3,0,0.7,0,1s0,0.5,0,0.8c0,0.6,0,0.9,0.1,1.1c0.2,0.7,0.2,1.5,0.1,2.2C178.9,17.3,178.9,17.5,178.9,17.7z"/>
				<path class="st1" d="M187.6,18.1l-6.4-0.7c0-0.1,0-0.2,0-0.2c-0.1-0.5-0.2-1.1-0.3-1.6v-0.3l0.1-0.2c0-0.2,0.1-0.3,0.2-0.5
					c0,0,0-0.1,0-0.1c0-0.1,0-0.3,0-0.4c0-0.1,0-0.4-0.1-0.6c-0.1-0.4-0.1-0.8-0.1-1.2c0-0.2,0-0.4,0-0.6c0-0.5,0-1,0-1.4
					c0-0.4,0.1-0.8,0.1-1.3V8.8c0-0.2,0-0.4,0-0.5c0-0.2,0-0.4,0-0.6V7.5c0-0.2,0-0.3,0-0.5c0-0.3,0-0.7,0-1c0-0.2,0.1-0.4,0.1-0.6
					c0-0.1,0-0.1,0-0.2c0-0.2,0-0.4,0-0.5c0.1,0.7,0.6,1.4,1.5,1.8l3.5-4.2c1.8,0.9,1.6,2.3,1.5,3.3v0.1c0,0.3-0.1,0.5-0.1,0.8
					c0,0.2,0,0.4,0,0.6s0,0.5,0,0.8V8c0,0.1,0,0.2,0,0.2v0.1c0,0.2,0,0.4,0,0.5c0,0.5,0,1-0.1,1.6c0,0.3,0,0.5,0,0.8
					c0,0.3,0,0.5,0,0.8c0,0.2,0,0.4,0.1,0.7c0.1,0.4,0.1,0.9,0.1,1.4v0.2c0,0.3,0,0.7,0,1c0,0.2-0.1,0.3-0.1,0.5
					c0,0.1,0,0.2,0.1,0.4C187.7,16.8,187.8,17.5,187.6,18.1z M187.5,6.5L187.5,6.5z"/>
				<path class="st1" d="M138.2,17.8v-0.3c-0.1-0.7-0.1-1.4,0.1-2.1v-0.1v-0.4v-0.7v-0.3c0-0.6,0-1.3,0-2c0-0.5,0-1,0-1.5
					c0-0.4,0-0.7,0-1.1c0-0.1,0-0.2,0-0.4c-0.2-1.1-0.3-2.3-0.1-3.4c0-0.4,0.1-0.8,0.1-1.2h6.5c0,0.5,0,1-0.1,1.5
					c-0.1,0.7-0.1,1.5,0,2.3c0.1,0.5,0.1,1,0.1,1.5c0,0.1,0,0.2,0,0.4c0.1,0.8,0.1,1.5,0,2.3c-0.1,0.5,0,1.1,0,1.6v0.3
					c0,0.2,0,0.4,0,0.6v0.5c0,0.4,0,0.8-0.1,1.1c0,0.3,0,0.6,0,0.9v0.4L138.2,17.8z"/>
				<path class="st1" d="M153.2,17.7h-6.5c0-0.4,0-0.7,0.1-1.1c0.1-0.3,0.1-0.6,0-0.9c-0.1-0.6-0.2-1.2-0.2-1.8c0-0.3,0-0.6,0-0.9
					c0-0.3,0-0.6,0-0.9c0-0.2,0-0.5,0-0.7c0,0,0-0.1,0-0.1s0-0.3-0.1-0.5v-0.2c0-0.5,0-1.1,0.1-1.6V8.8c0-0.3,0-0.5,0.1-0.8V7.7
					c0-0.1,0-0.1,0-0.2c-0.1-0.3-0.1-0.6-0.1-1c0-0.1,0-0.2,0-0.4c0-0.4,0-0.8,0-1.2c0-0.2,0.1-0.5,0.2-0.7V4.2
					c-0.1,0.6,0.1,1.1,0.5,1.6l5.3-2.9c0.7,0.8,0.9,1.9,0.4,2.8c0,0.1,0,0.3,0,0.5s0,0.4,0,0.5c0,0.1,0,0.1,0,0.2
					c0.1,0.4,0.1,0.7,0.1,1.1v0.2c0,0.4,0,0.7-0.1,1.1v0.2c0,0.2-0.1,0.4-0.1,0.6v0.3c0,0.1,0,0.2,0,0.3c0,0.3,0,0.7,0,1
					c0,0,0,0.1,0,0.1c0,0.3,0,0.7,0,1s0,0.5,0,0.8c0,0.6,0,0.9,0.1,1.1c0.2,0.7,0.2,1.5,0.1,2.2C153.2,17.3,153.2,17.5,153.2,17.7z"
					/>
				<path class="st1" d="M161.9,18.1l-6.4-0.7c0-0.1,0-0.2,0-0.2c-0.1-0.5-0.2-1.1-0.3-1.6v-0.3l0.1-0.2c0-0.2,0.1-0.3,0.2-0.5
					c0,0,0-0.1,0-0.1c0-0.1,0-0.3,0-0.4c0-0.2,0-0.4-0.1-0.6c-0.1-0.4-0.1-0.8-0.1-1.2c0-0.2,0-0.4,0-0.6c0-0.5,0-1,0-1.4
					c0.1-0.5,0.1-0.9,0.1-1.3V8.8c0-0.2,0-0.4,0-0.5c0-0.2,0-0.4,0-0.6V7.5c0-0.2,0-0.3,0-0.5c0-0.3,0-0.7,0-1
					c0-0.2,0.1-0.4,0.1-0.6c0-0.1,0-0.1,0-0.2s0-0.4,0-0.5c0.1,0.7,0.6,1.4,1.5,1.8l3.5-4.2c1.8,0.8,1.6,2.3,1.5,3.3v0.1
					c0,0.3-0.1,0.5-0.1,0.8c0,0.2,0,0.4,0,0.6c0,0.3,0,0.5,0,0.8V8c0,0.1,0,0.2,0,0.2v0.1c0,0.2,0,0.4,0,0.5c0,0.5,0,1.1-0.1,1.6
					c0,0.3,0,0.5,0,0.8c0,0.3,0,0.6,0,0.8c0,0.2,0,0.4,0.1,0.7c0.1,0.4,0.1,0.8,0.1,1.2c0,0.1,0,0.2,0,0.2c0,0.3,0,0.7,0,1
					c0,0.2-0.1,0.3-0.1,0.5c0,0.1,0.1,0.2,0.1,0.4C162,16.7,162,17.4,161.9,18.1z M161.8,6.5L161.8,6.5z"/>
				<path class="st1" d="M112.8,17.8v-0.3c-0.1-0.7-0.1-1.4,0.1-2.1c0,0,0-0.1,0-0.1v-0.4c0-0.2,0-0.5,0-0.7v-0.3c0-0.6,0-1.3,0-2
					c0-0.5,0-1,0-1.5c0-0.4,0-0.7,0-1.1c0-0.1,0-0.3,0-0.4c-0.2-1.1-0.3-2.3-0.1-3.4c0-0.4,0.1-0.8,0.1-1.2h6.4c0,0.5,0,1-0.1,1.5
					c-0.1,0.7-0.1,1.5,0,2.3c0.1,0.5,0.1,1,0.1,1.5c0,0.1,0,0.2,0,0.4c0.1,0.8,0.1,1.5,0,2.3c0,0.5,0,1.1,0,1.6v0.3
					c0,0.2,0,0.4,0,0.6v0.5c0,0.4,0,0.7-0.1,1.1c0,0.3,0,0.6,0,0.9v0.4L112.8,17.8z"/>
				<path class="st1" d="M127.8,17.7h-6.4c0-0.4,0-0.7,0.1-1.1c0-0.3,0-0.6-0.1-1c-0.1-0.6-0.2-1.2-0.2-1.8c0-0.3,0-0.6,0-0.9
					s0-0.6,0-1c0-0.3,0-0.5,0-0.7c0,0,0-0.1,0-0.1c0,0,0-0.3,0-0.5v-0.2c-0.1-0.5,0-1.1,0.1-1.6V8.8c0-0.3,0-0.5,0.1-0.8V7.8
					c0-0.1,0-0.1,0-0.2c-0.1-0.3-0.1-0.6-0.1-0.9c0-0.1,0-0.2,0-0.4c0-0.4,0-0.8,0-1.2c0-0.2,0.1-0.5,0.2-0.7V4.2
					c-0.1,0.6,0.1,1.1,0.5,1.6l5.3-2.9c0.7,0.8,0.9,1.9,0.4,2.8c0,0.1,0,0.3,0,0.4s0,0.4,0,0.6c0,0.1,0,0.1,0,0.2
					c0.1,0.4,0.1,0.7,0.1,1.1v0.2c0,0.4,0,0.7-0.1,1.1v0.2c0,0.2,0,0.4,0,0.6v0.3c0,0.1,0,0.2,0,0.3c0,0.3,0,0.7,0,1
					c0,0.1,0,0.1,0,0.2c0,0.3,0,0.7,0,1s0,0.5,0,0.8c0,0.6,0,0.9,0.1,1.1c0.2,0.7,0.2,1.5,0.1,2.2C127.9,17.3,127.8,17.5,127.8,17.7
					z M121.2,11.4L121.2,11.4z"/>
				<path class="st1" d="M136.5,18.1l-6.4-0.7c0-0.1,0-0.2,0-0.2c-0.2-0.5-0.2-1.1-0.3-1.6v-0.2l0.1-0.2c0-0.2,0.1-0.3,0.2-0.5
					c0,0,0-0.1,0-0.1c0-0.1,0-0.3,0-0.4c0-0.2,0-0.4-0.1-0.6c-0.1-0.4-0.1-0.8-0.1-1.2c0-0.2,0-0.4,0-0.6c0-0.5,0-1,0-1.4
					c0-0.4,0.1-0.8,0.1-1.3V8.8c0-0.2,0-0.4,0-0.5s0-0.4,0-0.6V7.5c0-0.2,0-0.4,0-0.5c0-0.4,0-0.7,0-1c0-0.2,0.1-0.4,0.1-0.6
					c0-0.1,0-0.1,0-0.2s0-0.4,0-0.5c0.1,0.7,0.6,1.4,1.4,1.8l3.5-4.2c1.8,0.8,1.6,2.3,1.5,3.3v0.1c0,0.3-0.1,0.5-0.1,0.8
					c0,0.2,0,0.4,0,0.6c0,0.2,0,0.5,0,0.8V8c0,0.1,0,0.2,0,0.2v0.1c0,0.2,0,0.4,0,0.5c0,0.5,0,1-0.1,1.6c0,0.3,0,0.5,0,0.8
					c0,0.3,0,0.6,0,0.8s0,0.4,0.1,0.7c0.1,0.5,0.1,0.9,0.1,1.4c0,0.1,0,0.2,0,0.2c0,0.3,0,0.7,0,1c0,0.2-0.1,0.3-0.1,0.5
					c0,0.1,0,0.2,0.1,0.4C136.6,16.8,136.7,17.5,136.5,18.1z M136.4,6.5L136.4,6.5z"/>
				<path class="st1" d="M87.1,17.8v-0.3c-0.1-0.7-0.1-1.4,0.1-2.1c0,0,0-0.1,0-0.1v-0.4c0-0.2,0-0.5,0-0.7v-0.3c0-0.6,0-1.3,0-2
					c0.1-0.5,0.1-1,0-1.5c0-0.4,0-0.7,0-1.1c0-0.1,0-0.2,0-0.4c-0.2-1.1-0.3-2.3-0.1-3.4c0-0.4,0.1-0.8,0.1-1.2h6.5
					c0,0.5,0,1-0.1,1.5c-0.1,0.7-0.1,1.5,0,2.3c0.1,0.5,0.1,1,0.1,1.5c0,0.1,0,0.3,0,0.4c0.1,0.8,0.1,1.5,0,2.3c0,0.5,0,1.1,0,1.6
					v0.3c0,0.2,0,0.4,0,0.6v0.5c0,0.4,0,0.7-0.1,1.1c0,0.3,0,0.6,0,0.9v0.4L87.1,17.8z"/>
				<path class="st1" d="M102.1,17.7h-6.5c0-0.4,0-0.7,0.1-1.1c0.1-0.3,0.1-0.6,0-0.9c-0.1-0.6-0.2-1.2-0.2-1.8c0-0.3,0-0.6,0-0.9
					s0-0.6,0-0.9c0-0.3,0-0.5,0-0.7c0,0,0-0.1,0-0.1c0-0.2,0-0.3,0-0.5v-0.2c-0.1-0.5,0-1.1,0.1-1.6V8.8c0-0.3,0-0.5,0.1-0.8V7.8
					c0,0,0-0.1,0-0.2c-0.1-0.3-0.1-0.6-0.1-0.9c0-0.1,0-0.2,0-0.4c0-0.4,0-0.8,0-1.2c0-0.2,0.1-0.5,0.2-0.7V4.2
					c-0.1,0.6,0.1,1.1,0.5,1.6l5.3-2.9c0.7,0.8,0.9,1.9,0.4,2.8c0,0.1,0,0.3,0,0.4c0,0.2,0,0.4,0,0.6c0,0.1,0,0.1,0,0.2
					C102,7.3,102,7.6,102,8v0.2c0,0.4,0,0.7-0.1,1.1v0.2c0,0.2-0.1,0.4-0.1,0.6v0.3v0.3c0,0.3,0,0.7,0,1c0,0,0,0.1,0,0.1
					c0,0.3,0,0.7,0,1c0,0.4,0,0.5,0,0.8c0,0.6,0,0.9,0.1,1.1c0.2,0.7,0.2,1.5,0.1,2.2C102,17.3,102.1,17.5,102.1,17.7z"/>
				<path class="st1" d="M110.8,18.1l-6.4-0.7c0-0.1,0-0.2,0-0.2c-0.1-0.5-0.2-1.1-0.2-1.6v-0.2v-0.2c0-0.2,0.1-0.3,0.2-0.5
					c0,0,0-0.1,0-0.1s0-0.3,0-0.4c0-0.2,0-0.4-0.1-0.6c-0.1-0.4-0.1-0.8-0.1-1.2c0-0.2,0-0.4,0-0.6c0-0.5,0-1,0-1.4
					c0-0.4,0.1-0.8,0.1-1.3V8.8c0-0.2,0-0.4,0-0.5s0-0.4,0-0.6V7.5c0-0.2,0-0.4,0-0.5c0-0.4,0-0.7,0-1c0-0.2,0.1-0.4,0.2-0.6
					c0-0.1,0-0.1,0-0.2c0-0.2,0-0.4,0-0.5c0.1,0.7,0.6,1.4,1.5,1.8l3.5-4.2c1.8,0.9,1.6,2.3,1.5,3.3v0.1c0,0.3,0,0.5-0.1,0.8
					c0,0.2,0,0.4,0,0.6s0,0.5,0,0.8v0.3c0,0.1,0,0.2,0,0.2v0.1c0,0.2,0,0.4,0,0.5c0,0.5,0,1-0.1,1.6c0,0.3,0,0.5,0,0.8
					c0,0.3,0,0.6,0,0.8c0,0.2,0,0.4,0.1,0.7c0.1,0.4,0.1,0.8,0.1,1.2c0,0.1,0,0.2,0,0.2c0,0.3,0,0.7,0,1c0,0.2-0.1,0.3-0.1,0.5
					c0,0.1,0,0.2,0.1,0.4C110.9,16.7,110.9,17.4,110.8,18.1z M110.7,6.5L110.7,6.5z"/>
				<path class="st1" d="M266.1,17.8v-0.3c-0.1-0.7-0.1-1.4,0.1-2.1c0,0,0-0.1,0-0.1v-0.4v-0.7v-0.3c0-0.6,0-1.3,0-2
					c0.1-0.5,0.1-1,0-1.5c0-0.4,0-0.7,0-1.1c0-0.1,0-0.2,0-0.4c-0.2-1.1-0.3-2.3-0.1-3.4c0-0.4,0-0.8,0-1.2h6.5c0,0.5,0,1-0.1,1.5
					c-0.1,0.7-0.1,1.5,0,2.3c0.1,0.5,0.1,1,0.1,1.5c0,0.1,0,0.3,0,0.4c0.1,0.8,0.1,1.5,0,2.3c0,0.5,0,1.1,0,1.6v0.3v0.6v0.5
					c0,0.4,0,0.8-0.1,1.1c0,0.3,0,0.6,0,0.9v0.4L266.1,17.8z"/>
				<path class="st1" d="M281.1,17.7h-6.5c0-0.4,0-0.7,0.1-1.1c0.1-0.3,0.1-0.6,0-0.9c-0.1-0.6-0.2-1.2-0.2-1.8c0-0.3,0-0.6,0-0.9
					c0-0.3,0-0.6,0-0.9c0-0.2,0-0.5,0-0.7c0,0,0-0.1,0-0.1s0-0.3-0.1-0.5v-0.2c0-0.5,0-1.1,0.1-1.6V8.8c0-0.3,0.1-0.5,0.1-0.8V7.7
					c0-0.1,0-0.1,0-0.2c-0.1-0.3-0.1-0.6-0.1-1c0-0.1,0-0.2,0-0.4c0-0.4,0-0.8,0-1.2c0-0.2,0.1-0.5,0.2-0.7V4.2
					c-0.1,0.6,0.1,1.1,0.5,1.6l5.3-2.9c0.7,0.8,0.9,1.9,0.4,2.8c0,0.2,0,0.3,0,0.5c0,0.2,0,0.4,0,0.5c0,0.1,0,0.1,0,0.2
					c0.1,0.4,0.1,0.7,0.1,1.1v0.2c0,0.4,0,0.7-0.1,1.1v0.2c0,0.2-0.1,0.4-0.1,0.6v0.3v0.3c0,0.3,0,0.7,0,1c0,0,0,0.1,0,0.1
					c0,0.3,0,0.7,0,1s0,0.5,0,0.8c0,0.6,0,0.9,0.1,1.1c0.2,0.7,0.2,1.5,0.1,2.2C281.2,17.3,281.1,17.5,281.1,17.7z"/>
				<path class="st1" d="M289.8,18.1l-6.4-0.7c0-0.1,0-0.2,0-0.2c-0.1-0.5-0.2-1.1-0.3-1.6v-0.3v-0.2c0-0.2,0.1-0.3,0.2-0.5
					c0,0,0-0.1,0-0.1s0-0.3,0-0.4c0-0.1,0-0.4-0.1-0.6c-0.1-0.4-0.1-0.8-0.1-1.2c0-0.2,0-0.4,0-0.6c0-0.5,0-1,0-1.4
					c0.1-0.5,0.1-0.9,0.1-1.3V8.8c0-0.2,0-0.4,0-0.5c0-0.2,0-0.4,0-0.6V7.5c0-0.2,0-0.3,0-0.5c0-0.3,0-0.7,0-1
					c0-0.2,0.1-0.4,0.1-0.6c0-0.1,0-0.1,0-0.2c0-0.2,0-0.4,0-0.5c0.1,0.7,0.6,1.4,1.5,1.8l3.6-4.2c1.8,0.8,1.6,2.3,1.5,3.3v0.1
					c0,0.3-0.1,0.5-0.1,0.8c0,0.2,0,0.4,0,0.6c0,0.2,0,0.5,0,0.8V8c0,0.1,0,0.2,0,0.2v0.1c0,0.2,0,0.4,0,0.5c0,0.5,0,1.1-0.1,1.6
					c0,0.3,0,0.5,0,0.8c0,0.3,0,0.6,0,0.8c0,0.2,0,0.4,0.1,0.7c0.1,0.4,0.1,0.8,0.1,1.2c0,0.1,0,0.2,0,0.2c0,0.3,0,0.7,0,1
					c0,0.2-0.1,0.3-0.1,0.5c0,0.1,0,0.2,0.1,0.4C290,16.7,290,17.4,289.8,18.1z M289.7,6.5L289.7,6.5z"/>
				<path class="st1" d="M240.4,17.8v-0.3c-0.1-0.7-0.1-1.4,0.1-2.1v-0.1v-0.4v-0.7v-0.3c0-0.6,0-1.3,0-2c0.1-0.5,0.1-1,0-1.5
					c0-0.4,0-0.7,0-1.1c0-0.1,0-0.2,0-0.4c-0.2-1.1-0.3-2.3-0.1-3.4c0-0.4,0.1-0.8,0.1-1.2h6.5c0,0.5,0,1-0.1,1.5
					c-0.1,0.7-0.1,1.5,0,2.3c0.1,0.5,0.1,1,0.1,1.5c0,0.1,0,0.2,0,0.4c0.1,0.8,0.1,1.5,0,2.3c0,0.5,0,1.1,0,1.6v0.3
					c0,0.2,0,0.4,0,0.6v0.5c0,0.4,0,0.8-0.1,1.1c0,0.3,0,0.6,0,0.9v0.4L240.4,17.8z"/>
				<path class="st1" d="M255.4,17.7h-6.5c0-0.4,0-0.7,0.1-1.1c0.1-0.3,0.1-0.6,0-0.9c-0.1-0.6-0.2-1.2-0.2-1.8c0-0.3,0-0.6,0-0.9
					c0-0.3,0-0.6,0-0.9c0-0.2,0-0.5,0-0.7c0,0,0-0.1,0-0.1s0-0.3,0-0.5v-0.2c0-0.5,0-1.1,0.1-1.6V8.8c0-0.3,0-0.5,0.1-0.8V7.7
					c0-0.1,0-0.1,0-0.2c-0.1-0.3-0.1-0.6-0.1-1c0-0.1,0-0.2,0-0.4c0-0.4,0-0.8,0-1.2c0-0.2,0.1-0.5,0.2-0.7V4.2
					c-0.1,0.6,0.1,1.1,0.5,1.6l5.3-2.9c0.7,0.8,0.9,1.9,0.4,2.8c0,0.1,0,0.3,0,0.5s0,0.4,0,0.5c0,0.1,0,0.1,0,0.2
					c0.1,0.4,0.1,0.7,0.1,1.1v0.2c0,0.4,0,0.7-0.1,1.1v0.2c0,0.2-0.1,0.4-0.1,0.6v0.3v0.3c0,0.3,0,0.7,0,1c0,0,0,0.1,0,0.1
					c0,0.3,0,0.7,0,1s0,0.5,0,0.8c0,0.6,0,0.9,0.1,1.1c0.2,0.7,0.2,1.5,0.1,2.2C255.4,17.3,255.4,17.5,255.4,17.7z"/>
				<path class="st1" d="M264.1,18.1l-6.4-0.7c0-0.1,0-0.2,0-0.2c-0.1-0.5-0.2-1.1-0.3-1.6v-0.3l0.1-0.2c0-0.2,0.1-0.3,0.2-0.5
					c0,0,0-0.1,0-0.1c0-0.1,0-0.3,0-0.4c0-0.2,0-0.4-0.1-0.6c-0.1-0.4-0.1-0.8-0.1-1.2c0-0.2,0-0.4,0-0.6c0-0.5,0-1,0-1.4
					c0-0.4,0.1-0.8,0.1-1.3V8.8c0-0.2,0-0.4,0-0.5c0-0.2,0-0.4,0-0.6V7.5c0-0.2,0-0.3,0-0.5c0-0.3,0-0.7,0-1c0-0.2,0.1-0.4,0.1-0.6
					c0-0.1,0-0.1,0-0.2s0-0.4,0-0.5c0.1,0.7,0.6,1.4,1.5,1.8l3.5-4.2c1.8,0.8,1.6,2.3,1.5,3.3v0.1c0,0.3-0.1,0.5-0.1,0.8
					c0,0.2,0,0.4,0,0.6c0,0.2,0,0.5,0,0.8V8c0,0.1,0,0.2,0,0.2v0.1c0,0.2,0,0.4,0,0.5c0,0.5,0,1.1-0.1,1.6c0,0.3,0,0.5,0,0.8
					c0,0.3,0,0.6,0,0.8c0,0.2,0,0.4,0.1,0.7c0.1,0.4,0.1,0.8,0.1,1.2v0.2c0,0.3,0,0.7,0,1c0,0.2-0.1,0.3-0.1,0.5
					c0,0.1,0.1,0.2,0.1,0.4C264.2,16.7,264.2,17.4,264.1,18.1z M264,6.5L264,6.5z"/>
				<path class="st1" d="M215,17.8v-0.3c-0.1-0.7-0.1-1.4,0.1-2.1c0,0,0-0.1,0-0.1v-0.4c0-0.2,0-0.5,0-0.7v-0.3c0-0.6,0-1.3,0-2
					c0-0.5,0-1,0-1.5c0-0.4,0-0.7,0-1.1c0-0.1,0-0.3,0-0.4c-0.2-1.1-0.3-2.3-0.1-3.4c0-0.4,0.1-0.8,0.1-1.2h6.5c0,0.5,0,1-0.1,1.5
					c-0.1,0.7-0.1,1.5,0,2.3c0.1,0.5,0.1,1,0.1,1.5c0,0.1,0,0.2,0,0.4c0.1,0.8,0.1,1.5,0,2.3c0,0.5,0,1.1,0,1.6v0.3
					c0,0.2,0,0.4,0,0.6v0.5c0,0.4,0,0.7-0.1,1.1c0,0.3,0,0.6,0,0.9v0.4L215,17.8z"/>
				<path class="st1" d="M230,17.7h-6.5c0-0.4,0-0.7,0.1-1.1c0.1-0.3,0.1-0.6,0-0.9c-0.1-0.6-0.2-1.2-0.2-1.8c0-0.3,0-0.6,0-0.9v-1
					c0-0.2,0-0.5,0-0.7c0,0,0-0.1,0-0.1c0-0.2,0-0.3,0-0.5v-0.2c-0.1-0.5,0-1.1,0.1-1.6V8.8c0-0.3,0-0.5,0.1-0.8V7.8
					c0-0.1,0-0.1,0-0.2c-0.1-0.3-0.1-0.6-0.1-0.9c0-0.1,0-0.2,0-0.4c0-0.4,0-0.8,0-1.2c0-0.2,0.1-0.5,0.2-0.7l0.1-0.1
					c-0.1,0.6,0.1,1.1,0.5,1.6l5.3-2.9c0.7,0.8,0.9,1.9,0.4,2.8c0,0.1,0,0.3,0,0.4s0,0.4,0,0.6c0,0.1,0,0.1,0,0.2
					C230,7.3,230,7.6,230,8v0.2c0,0.4,0,0.7-0.1,1.1v0.2c0,0.2,0,0.4,0,0.6v0.3c0,0.1,0,0.2,0,0.3c0,0.3,0,0.7,0,1
					c0,0.1,0,0.1,0,0.2c0,0.3,0,0.7,0,1s0,0.5,0,0.8c0,0.4,0,0.7,0.1,1.1c0.2,0.7,0.2,1.5,0.1,2.2C230.1,17.3,230,17.5,230,17.7z
					 M223.4,11.4L223.4,11.4z"/>
				<path class="st1" d="M238.7,18.1l-6.4-0.7c0-0.1,0-0.2,0-0.2c-0.2-0.5-0.2-1.1-0.3-1.6v-0.2l0.1-0.2c0-0.2,0.1-0.3,0.2-0.5v-0.1
					c0-0.1,0-0.3,0-0.4c0-0.2,0-0.4-0.1-0.6c-0.1-0.4-0.1-0.8-0.1-1.2c0-0.2,0-0.4,0-0.6c0-0.5,0-1,0-1.4c0-0.4,0.1-0.8,0.1-1.3V8.8
					c0-0.2,0-0.4,0-0.5s0-0.4,0-0.6V7.5c0-0.2,0-0.4,0-0.5c0-0.4,0-0.7,0-1c0-0.2,0.1-0.4,0.1-0.6c0-0.1,0-0.1,0-0.2s0-0.4,0-0.5
					c0.1,0.7,0.6,1.4,1.4,1.8l3.5-4.2c1.8,0.8,1.6,2.3,1.5,3.3v0.1c0,0.3-0.1,0.5-0.1,0.8c0,0.2,0,0.4,0,0.6c0,0.2,0,0.5,0,0.8V8
					c0,0.1,0,0.2,0,0.2v0.1c0,0.2,0,0.4,0,0.5c0,0.5,0,1-0.1,1.6c0,0.2,0,0.5,0,0.8s0,0.6,0,0.8s0,0.4,0.1,0.7
					c0.1,0.4,0.1,0.8,0.1,1.2c0,0.1,0,0.2,0,0.2c0,0.3,0,0.7,0,1c0,0.2-0.1,0.3-0.1,0.5c0,0.1,0.1,0.2,0.1,0.4
					C238.9,16.7,238.9,17.4,238.7,18.1z M238.6,6.5L238.6,6.5z"/>
				<path class="st1" d="M189.3,17.8v-0.3c-0.1-0.7-0.1-1.4,0.1-2.1c0,0,0-0.1,0-0.1v-0.4c0-0.2,0-0.5,0-0.7v-0.3c0-0.6,0-1.3,0-2
					c0.1-0.5,0.1-1,0-1.5c0-0.4,0-0.7,0-1.1c0-0.1,0-0.3,0-0.4c-0.2-1.1-0.3-2.3-0.1-3.4c0-0.4,0.1-0.8,0.1-1.2h6.5
					c0,0.5,0,1-0.1,1.5c-0.1,0.7-0.1,1.5,0,2.3c0.1,0.5,0.1,1,0.1,1.5c0,0.1,0,0.2,0,0.4c0.1,0.8,0.1,1.5,0,2.3c0,0.5,0,1.1,0,1.6
					v0.3c0,0.2,0,0.4,0,0.6v0.5c0,0.4,0,0.7-0.1,1.1c0,0.3,0,0.6,0,0.9v0.4L189.3,17.8z"/>
				<path class="st1" d="M204.3,17.7h-6.5c0-0.4,0-0.7,0.1-1.1c0.1-0.3,0.1-0.6,0-0.9c-0.1-0.6-0.2-1.2-0.2-1.8c0-0.3,0-0.6,0-0.9
					s0-0.6,0-0.9c0-0.3,0-0.5,0-0.7c0,0,0-0.1,0-0.1c0-0.2,0-0.3,0-0.5v-0.2c-0.1-0.5,0-1.1,0.1-1.6V8.8c0-0.3,0-0.5,0.1-0.8V7.8
					c0,0,0-0.1,0-0.2c-0.1-0.3-0.1-0.6-0.1-0.9c0-0.1,0-0.2,0-0.4c0-0.4,0-0.8,0-1.2c0-0.2,0.1-0.5,0.2-0.7l0.1-0.1
					c-0.1,0.6,0.1,1.1,0.5,1.6l5.3-2.9c0.7,0.8,0.9,1.9,0.4,2.8c0,0.1,0,0.3,0,0.4s0,0.4,0,0.6c0,0.1,0,0.1,0,0.2
					c0.1,0.4,0.1,0.7,0.1,1.1v0.2c0,0.4,0,0.7-0.1,1.1v0.2c0,0.2-0.1,0.4-0.1,0.6v0.3v0.3c0.1,0.3,0.1,0.7,0,1c0,0,0,0.1,0,0.1
					c0,0.3,0,0.7,0,1c0,0.4,0,0.5,0,0.8c0,0.6,0.1,0.9,0.1,1.1c0.2,0.7,0.2,1.5,0.1,2.2C204.3,17.3,204.3,17.5,204.3,17.7z
					 M197.7,11.4L197.7,11.4z"/>
				<path class="st1" d="M213,18.1l-6.4-0.7c0-0.1,0-0.2,0-0.2c-0.1-0.5-0.2-1.1-0.2-1.6v-0.2l0.1-0.2c0-0.2,0.1-0.3,0.2-0.5
					c0,0,0-0.1,0-0.1c0-0.1,0-0.3,0-0.4c0-0.2,0-0.4-0.1-0.6c-0.1-0.4-0.1-0.8-0.1-1.2c0-0.2,0-0.4,0-0.6c0-0.5,0-1,0-1.4
					c0-0.4,0.1-0.8,0.1-1.3V8.8c0-0.2,0-0.4,0-0.5s0-0.4,0-0.6V7.5c0-0.2,0-0.4,0-0.5c0-0.4,0-0.7,0-1c0-0.2,0.1-0.4,0.1-0.6
					c0-0.1,0-0.2,0-0.2c0-0.2,0-0.4,0-0.5c0.1,0.7,0.6,1.4,1.5,1.8l3.5-4.2c1.8,0.9,1.6,2.3,1.5,3.3v0.1c0,0.3-0.1,0.5-0.1,0.8
					c0,0.2,0,0.4,0,0.6s0,0.5,0,0.8v0.3c0,0.1,0,0.2,0,0.2v0.1c0,0.2,0,0.4,0,0.5c0,0.5,0,1-0.1,1.6c0,0.3,0,0.5,0,0.8
					c0,0.3,0,0.6,0,0.8s0,0.4,0.1,0.7c0.1,0.4,0.1,0.8,0.1,1.2c0,0.1,0,0.2,0,0.2c0,0.3,0,0.7,0,1c0,0.2-0.1,0.3-0.1,0.5
					c0,0.1,0,0.2,0.1,0.4C213.1,16.7,213.1,17.4,213,18.1z M212.9,6.5L212.9,6.5z M206.6,5.2C206.6,5.2,206.6,5.3,206.6,5.2
					C206.6,5.3,206.6,5.2,206.6,5.2z"/>
				<path class="st1" d="M368.4,17.8v-0.3c-0.1-0.7-0.1-1.4,0.1-2.1c0,0,0-0.1,0-0.1v-0.4c0-0.2,0-0.5,0-0.7v-0.3c0-0.6,0-1.3,0-2
					c0.1-0.5,0.1-1,0-1.5c0-0.4,0-0.7,0-1.1c0-0.1,0-0.2,0-0.4c-0.2-1.1-0.3-2.3-0.1-3.4c0-0.4,0.1-0.8,0.1-1.2h6.4
					c0,0.5,0,1-0.1,1.5c-0.1,0.7-0.1,1.5,0,2.3c0.1,0.5,0.1,1,0.1,1.5c0,0.1,0,0.3,0,0.4c0.1,0.8,0.1,1.5,0,2.3c0,0.5,0,1.1,0,1.6
					v0.3v0.6v0.5c0,0.4,0,0.8-0.1,1.1c0,0.3,0,0.6,0,0.9v0.4L368.4,17.8z"/>
				<path class="st1" d="M383.3,17.7h-6.5c0-0.4,0-0.7,0.1-1.1c0.1-0.3,0.1-0.6,0-1c-0.1-0.6-0.2-1.2-0.2-1.8c0-0.3,0-0.6,0-0.9
					c0-0.3,0-0.6,0-0.9c0-0.3,0-0.5,0-0.7c0,0,0-0.1,0-0.1c0-0.2,0-0.3,0-0.5v-0.2c-0.1-0.5,0-1.1,0.1-1.6V8.8
					c0-0.3,0.1-0.5,0.1-0.8V7.8c0,0,0-0.1,0-0.2c-0.1-0.3-0.1-0.6-0.1-1c0-0.1,0-0.2,0-0.4c0-0.4,0-0.8,0-1.2c0-0.2,0.1-0.5,0.2-0.7
					l-0.1-0.2c-0.1,0.6,0.1,1.1,0.5,1.6l5.3-2.9c0.7,0.8,0.9,1.9,0.4,2.8c0,0.2,0,0.3,0,0.5c0,0.2,0,0.4,0,0.5c0,0.1,0,0.1,0,0.2
					c0.1,0.4,0.1,0.7,0.1,1.1v0.2c0,0.4,0,0.7-0.1,1.1v0.2c0,0.2-0.1,0.4-0.1,0.6v0.3v0.3c0,0.3,0,0.7,0,1c0,0,0,0.1,0,0.1
					c0,0.3,0,0.7,0,1s0,0.5,0,0.8c0,0.6,0,0.9,0.1,1.1c0.2,0.7,0.2,1.5,0.1,2.2C383.4,17.3,383.3,17.5,383.3,17.7z"/>
				<path class="st1" d="M392,18.1l-6.4-0.7c0-0.1,0-0.2,0-0.2c-0.1-0.5-0.2-1.1-0.2-1.6v-0.3v-0.2c0-0.2,0.1-0.3,0.2-0.5
					c0,0,0-0.1,0-0.1s0-0.3,0-0.4c0-0.2,0-0.4-0.1-0.6c-0.1-0.4-0.1-0.8-0.1-1.2c0-0.2,0-0.4,0-0.6c0-0.5,0-1,0-1.4
					c0.1-0.5,0.1-0.9,0.1-1.3V8.8c0-0.2,0-0.4,0-0.5c0-0.2,0-0.4,0-0.6V7.5c0-0.2,0-0.3,0-0.5c0-0.3,0-0.7,0-1
					c0-0.2,0.1-0.4,0.1-0.6c0-0.1,0-0.1,0-0.2c0-0.2,0-0.4,0-0.5c0.1,0.7,0.6,1.4,1.5,1.8l3.6-4.2c1.8,0.8,1.6,2.3,1.5,3.3v0.1
					c0,0.3-0.1,0.5-0.1,0.8c0,0.2,0,0.4,0,0.6c0,0.2,0,0.5,0,0.8V8c0,0.1,0,0.2,0,0.2v0.1c0,0.2,0,0.4,0,0.5c0,0.5,0,1.1-0.1,1.6
					c0,0.3,0,0.5,0,0.8c0,0.3,0,0.6,0,0.8c0,0.2,0,0.4,0.1,0.7c0.1,0.4,0.1,0.8,0.1,1.2c0,0.1,0,0.2,0,0.2c0,0.3,0,0.7,0,1
					c0,0.2-0.1,0.3-0.1,0.5c0,0.1,0,0.2,0.1,0.4C392.2,16.7,392.2,17.4,392,18.1z M391.9,6.5L391.9,6.5z"/>
				<path class="st1" d="M342.6,17.8v-0.3c-0.1-0.7,0-1.4,0.1-2.1v-0.1v-0.4v-0.7v-0.3c0-0.6,0-1.3,0-2c0.1-0.5,0.1-1,0-1.5
					c0-0.4,0-0.7,0-1.1c0-0.1,0-0.2,0-0.4c-0.2-1.1-0.3-2.3-0.1-3.4c0-0.4,0.1-0.8,0.1-1.2h6.5c0,0.5,0,1-0.1,1.5
					c-0.1,0.7-0.1,1.5,0,2.3c0.1,0.5,0.1,1,0.1,1.5c0,0.1,0,0.2,0,0.4c0.1,0.8,0.1,1.5,0,2.3c0,0.5,0,1.1,0,1.6v0.3v0.6v0.5
					c0,0.4,0,0.8-0.1,1.1c0,0.3,0,0.6,0,0.9v0.4L342.6,17.8z"/>
				<path class="st1" d="M357.6,17.7h-6.5c0-0.4,0-0.7,0.1-1.1c0.1-0.3,0.1-0.6,0-0.9c-0.1-0.6-0.2-1.2-0.2-1.8c0-0.3,0-0.6,0-0.9
					c0-0.3,0-0.6,0-0.9c0-0.2,0-0.5,0-0.7c0,0,0-0.1,0-0.1s0-0.3-0.1-0.5v-0.2c0-0.5,0-1.1,0.1-1.6V8.8c0-0.3,0.1-0.5,0.1-0.8V7.7
					c0-0.1,0-0.1,0-0.2c-0.1-0.3-0.1-0.6-0.1-1c0-0.1,0-0.2,0-0.4c0-0.4,0-0.8,0-1.2c0-0.2,0.1-0.5,0.2-0.7V4.2
					c-0.1,0.6,0.1,1.1,0.5,1.6l5.3-2.9c0.7,0.8,0.9,1.9,0.4,2.8c0,0.1,0,0.3,0,0.5s0,0.4,0,0.5c0,0.1,0,0.1,0,0.2
					c0.1,0.4,0.1,0.7,0.1,1.1v0.2c0,0.4,0,0.7-0.1,1.1v0.2c0,0.2-0.1,0.4-0.1,0.6v0.3v0.3c0,0.3,0,0.7,0,1c0,0,0,0.1,0,0.1
					c0,0.3,0,0.7,0,1s0,0.5,0,0.8c0,0.6,0,0.9,0.1,1.1c0.2,0.7,0.2,1.5,0.1,2.2C357.6,17.3,357.6,17.5,357.6,17.7z"/>
				<path class="st1" d="M366.3,18.1l-6.4-0.7c0-0.1,0-0.2,0-0.2c-0.1-0.5-0.2-1.1-0.3-1.6v-0.3l0.1-0.2c0-0.2,0.1-0.3,0.2-0.5
					c0,0,0-0.1,0-0.1c0-0.1,0-0.3,0-0.4c0-0.2,0-0.4-0.1-0.6c-0.1-0.4-0.1-0.8-0.1-1.2c0-0.2,0-0.4,0-0.6c0-0.5,0-1,0-1.4
					c0-0.4,0.1-0.8,0.1-1.3V8.8c0-0.2,0-0.4,0-0.5c0-0.2,0-0.4,0-0.6V7.5c0-0.2,0-0.4,0-0.5c0-0.4,0-0.7,0-1c0-0.2,0.1-0.4,0.1-0.6
					c0-0.1,0-0.1,0-0.2c0-0.2,0-0.4,0-0.5c0.1,0.7,0.6,1.4,1.5,1.8l3.5-4.2c1.8,0.8,1.6,2.3,1.5,3.3v0.1c0,0.3-0.1,0.5-0.1,0.8
					c0,0.2,0,0.4,0,0.6s0,0.5,0,0.8V8c0,0.1,0,0.2,0,0.2v0.1c0,0.2,0,0.4,0,0.5c0,0.5,0,1.1-0.1,1.6c0,0.3,0,0.5,0,0.8
					c0,0.3,0,0.6,0,0.8c0,0.2,0,0.4,0.1,0.7c0.1,0.4,0.1,0.8,0.1,1.2v0.2c0,0.3,0,0.7,0,1c0,0.2-0.1,0.3-0.1,0.5
					c0,0.1,0,0.2,0.1,0.4C366.4,16.7,366.5,17.4,366.3,18.1z M366.2,6.5L366.2,6.5z"/>
				<path class="st1" d="M317.2,17.8v-0.3c-0.1-0.7-0.1-1.4,0.1-2.1c0,0,0-0.1,0-0.1v-0.4c0-0.2,0-0.5,0-0.7v-0.3c0-0.6,0-1.3,0-2
					c0-0.5,0-1,0-1.5c0-0.4,0-0.7,0-1.1c0-0.1,0-0.3,0-0.4c-0.2-1.1-0.3-2.3-0.1-3.4c0-0.4,0.1-0.8,0.1-1.2h6.5c0,0.5,0,1-0.1,1.5
					c-0.1,0.7-0.1,1.5,0,2.3c0.1,0.5,0.1,1,0.1,1.5c0,0.1,0,0.2,0,0.4c0.1,0.8,0.1,1.5,0,2.3c0,0.5,0,1.1,0,1.6v0.3
					c0,0.2,0,0.4,0,0.6v0.5c0,0.4,0,0.7-0.1,1.1c0,0.3,0,0.6,0,0.9v0.4L317.2,17.8z"/>
				<path class="st1" d="M332.2,17.7h-6.5c0-0.4,0-0.7,0.1-1.1c0.1-0.3,0.1-0.6,0-0.9c-0.1-0.6-0.2-1.2-0.2-1.8c0-0.3,0-0.6,0-0.9
					s0-0.6,0-0.9c0-0.2,0-0.5,0-0.7c0,0,0-0.1,0-0.1s0-0.3-0.1-0.5v-0.2c0-0.5,0-1.1,0.1-1.6V8.8c0-0.3,0-0.5,0.1-0.8V7.8
					c0,0,0-0.1,0-0.2c-0.1-0.3-0.1-0.6-0.1-0.9c0-0.1,0-0.2,0-0.4c0-0.4,0-0.8,0-1.2c0-0.2,0.1-0.5,0.2-0.7V4.2
					c-0.1,0.6,0.1,1.1,0.5,1.6l5.3-2.9c0.7,0.8,0.9,1.9,0.4,2.8c0,0.1,0,0.3,0,0.4s0,0.4,0,0.6c0,0.1,0,0.1,0,0.2
					c0.1,0.4,0.1,0.7,0.1,1.1v0.2c0,0.4,0,0.7-0.1,1.1v0.2c0,0.2-0.1,0.4-0.1,0.6v0.3c0,0.1,0,0.2,0,0.3c0,0.3,0,0.7,0,1
					c0,0,0,0.1,0,0.1c0,0.3,0,0.7,0,1c0,0.4,0,0.5,0,0.8c0,0.6,0.1,0.9,0.1,1.1c0.2,0.7,0.2,1.5,0.1,2.2
					C332.3,17.3,332.2,17.5,332.2,17.7z"/>
				<path class="st1" d="M340.9,18.1l-6.4-0.7c0-0.1,0-0.2,0-0.2c-0.2-0.5-0.2-1.1-0.3-1.6v-0.2l0.1-0.2c0-0.2,0.1-0.3,0.1-0.5v-0.1
					c0-0.1,0-0.3,0-0.4c0-0.2,0-0.4-0.1-0.6c-0.1-0.4-0.1-0.8-0.1-1.2c0-0.2,0-0.4,0-0.6c0-0.5,0-1,0-1.4c0-0.4,0.1-0.8,0.1-1.3V8.8
					c0-0.2,0-0.4,0-0.5s0-0.4,0-0.6V7.5c0-0.2,0-0.4,0-0.5c0-0.4,0-0.7,0-1c0-0.2,0.1-0.4,0.1-0.6c0-0.1,0-0.1,0-0.2s0-0.4,0-0.5
					c0.1,0.7,0.6,1.4,1.5,1.8l3.5-4.2c1.8,0.9,1.6,2.3,1.5,3.3v0.1c0,0.3-0.1,0.5-0.1,0.8c0,0.2,0,0.4,0,0.6s0,0.5,0,0.8v0.3
					c0,0.1,0,0.2,0,0.2v0.1c0,0.2,0,0.4,0,0.5c0,0.5,0,1-0.1,1.6c0,0.2,0,0.5,0,0.8s0,0.6,0,0.8s0,0.4,0.1,0.7
					c0.1,0.4,0.1,0.8,0.1,1.2c0,0.1,0,0.2,0,0.2c0,0.3,0,0.7,0,1c0,0.2-0.1,0.3-0.1,0.5c0,0.1,0.1,0.2,0.1,0.4
					C341.1,16.7,341.1,17.4,340.9,18.1z M340.8,6.5L340.8,6.5z"/>
				<path class="st1" d="M291.5,17.8v-0.3c-0.1-0.7-0.1-1.4,0.1-2.1c0,0,0-0.1,0-0.1v-0.4c0-0.2,0-0.5,0-0.7v-0.3c0-0.6,0-1.3,0-2
					c0.1-0.5,0.1-1,0-1.5c0-0.4,0-0.7,0-1.1c0-0.1,0-0.3,0-0.4c-0.2-1.1-0.3-2.3-0.1-3.4c0-0.4,0.1-0.8,0.1-1.2h6.5
					c0,0.5,0,1-0.1,1.5c-0.1,0.7-0.1,1.5,0,2.3c0.1,0.5,0.1,1,0.1,1.5c0,0.1,0,0.2,0,0.4c0.1,0.8,0.1,1.5,0,2.3c0,0.5,0,1.1,0,1.6
					v0.3c0,0.2,0,0.4,0,0.6v0.5c0,0.4,0,0.7-0.1,1.1c0,0.3,0,0.6,0,0.9v0.4L291.5,17.8z"/>
				<path class="st1" d="M306.5,17.7H300c0-0.4,0-0.7,0.1-1.1c0.1-0.3,0.1-0.6,0-0.9c-0.1-0.6-0.2-1.2-0.2-1.8c0-0.3,0-0.6,0-0.9
					s0-0.6,0-0.9c0-0.3,0-0.5,0-0.7c0,0,0-0.1,0-0.1s0-0.3-0.1-0.5v-0.2c-0.1-0.5,0-1.1,0.1-1.6V8.8c0-0.3,0-0.5,0.1-0.8V7.8
					c0-0.1,0-0.1,0-0.2c-0.1-0.3-0.1-0.6-0.1-0.9c0-0.1,0-0.2,0-0.4c0-0.4,0-0.8,0-1.2c0-0.2,0.1-0.5,0.2-0.7l0.1-0.2
					c-0.1,0.6,0.1,1.1,0.5,1.6l5.3-2.9c0.7,0.8,0.9,1.9,0.4,2.8c0,0.1,0,0.3,0,0.5c0,0.2,0,0.4,0,0.5c0,0.1,0,0.1,0,0.2
					c0.1,0.4,0.1,0.7,0.1,1.1v0.2c0,0.4,0,0.7-0.1,1.1v0.2c0,0.2-0.1,0.4-0.1,0.6v0.3c0,0.1,0,0.2,0,0.3c0,0.3,0,0.7,0,1
					c0,0,0,0.1,0,0.1c0,0.3,0,0.7,0,1c0,0.4,0,0.5,0,0.8c0,0.6,0,0.9,0.1,1.1c0.2,0.7,0.2,1.5,0.1,2.2
					C306.5,17.3,306.5,17.5,306.5,17.7z"/>
				<path class="st1" d="M315.2,18.1l-6.4-0.7c0-0.1,0-0.2,0-0.2c-0.2-0.5-0.2-1.1-0.3-1.6v-0.2v-0.2c0-0.2,0.1-0.3,0.2-0.5
					c0,0,0-0.1,0-0.1c0-0.1,0-0.3,0-0.4c0-0.2,0-0.4-0.1-0.7c-0.1-0.4-0.1-0.8-0.1-1.2c0-0.2,0-0.4,0-0.6c0-0.5,0-1,0-1.4
					c0-0.4,0.1-0.8,0.1-1.3V8.8c0-0.2,0-0.4,0-0.5s0-0.4,0-0.6V7.5c0-0.2,0-0.4,0-0.5c0-0.4,0-0.7,0-1c0-0.2,0.1-0.4,0.1-0.6
					c0-0.1,0-0.1,0-0.2s0-0.4,0-0.5c0.1,0.7,0.6,1.4,1.5,1.8l3.6-4.2c1.8,0.9,1.6,2.3,1.5,3.3v0.1c0,0.3-0.1,0.5-0.1,0.8
					c0,0.2,0,0.4,0,0.6s0,0.5,0,0.8v0.3c0,0.1,0,0.2,0,0.2v0.1c0,0.2,0,0.4,0,0.5c0,0.5,0,1-0.1,1.6c0,0.3,0,0.5,0,0.8
					c0,0.3,0,0.6,0,0.8s0,0.4,0.1,0.6c0.1,0.4,0.1,0.8,0.1,1.2c0,0.1,0,0.2,0,0.2c0,0.3,0,0.7,0,1c0,0.2-0.1,0.3-0.1,0.5
					c0,0.1,0,0.2,0.1,0.4C315.3,16.7,315.4,17.4,315.2,18.1z M315.1,6.5L315.1,6.5z M308.8,5.2C308.8,5.2,308.8,5.3,308.8,5.2
					C308.8,5.3,308.8,5.2,308.8,5.2L308.8,5.2z"/>
				<path class="st1" d="M470.5,17.8v-0.3c-0.1-0.7-0.1-1.4,0.1-2.1c0,0,0-0.1,0-0.1v-0.4c0-0.2,0-0.5,0-0.7v-0.3c0-0.6,0-1.3,0-2
					c0.1-0.5,0.1-1,0-1.5c0-0.4,0-0.7,0-1.1c0-0.1,0-0.2,0-0.4c-0.2-1.1-0.3-2.3-0.1-3.4c0-0.4,0.1-0.8,0.1-1.2h6.5
					c0,0.5,0,1-0.1,1.5c-0.1,0.7-0.1,1.5,0,2.3c0.1,0.5,0.1,1,0.1,1.5c0,0.1,0,0.3,0,0.4c0.1,0.8,0.1,1.5,0,2.3c0,0.5,0,1.1,0,1.6
					v0.3c0,0.2,0,0.4,0,0.6v0.5c0,0.4,0,0.8-0.1,1.1c0,0.3,0,0.6,0,0.9v0.4L470.5,17.8z"/>
				<path class="st1" d="M485.5,17.7h-6.5c0-0.4,0-0.7,0.1-1.1c0.1-0.3,0.1-0.6,0-0.9c-0.1-0.6-0.2-1.2-0.2-1.8c0-0.3,0-0.6,0-0.9
					c0-0.3,0-0.6,0-0.9s0-0.5,0-0.7c0,0,0-0.1,0-0.1c0-0.2,0-0.3,0-0.5v-0.2c-0.1-0.5,0-1.1,0.1-1.6V8.8c0-0.3,0.1-0.5,0.1-0.8V7.8
					c0,0,0-0.1,0-0.2C479,7.3,479,7,479,6.6c0-0.1,0-0.2,0-0.4c0-0.4,0-0.8,0-1.2c0-0.2,0.1-0.5,0.2-0.7l0.1-0.1
					c-0.1,0.6,0.1,1.1,0.5,1.6l5.3-2.9c0.7,0.8,0.9,1.9,0.4,2.8c0,0.2,0,0.3,0,0.5c0,0.2,0,0.4,0,0.5c0,0.1,0,0.1,0,0.2
					c0.1,0.4,0.1,0.7,0.1,1.1v0.2c0,0.4,0,0.7-0.1,1.1v0.2c0,0.2-0.1,0.4-0.1,0.6v0.3v0.3c0.1,0.3,0.1,0.7,0,1c0,0,0,0.1,0,0.1
					c0,0.3,0,0.7,0,1s0,0.5,0,0.8c0,0.6,0.1,0.9,0.1,1.1c0.2,0.7,0.2,1.5,0.1,2.2C485.6,17.3,485.5,17.5,485.5,17.7z"/>
				<path class="st1" d="M494.2,18.1l-6.4-0.7c0-0.1,0-0.2,0-0.2c-0.1-0.5-0.2-1.1-0.2-1.6v-0.3v-0.2c0-0.2,0.1-0.3,0.2-0.5
					c0,0,0-0.1,0-0.1s0-0.3,0-0.4c0-0.2,0-0.4-0.1-0.6c-0.1-0.4-0.1-0.8-0.1-1.2c0-0.2,0-0.4,0-0.6c0-0.5,0-1,0-1.4
					c0-0.4,0.1-0.8,0.1-1.3V8.8c0-0.2,0-0.4,0-0.5c0-0.2,0-0.4,0-0.6V7.5c0-0.2,0-0.3,0-0.5c0-0.3,0-0.7,0-1c0-0.2,0.1-0.4,0.1-0.6
					c0-0.1,0-0.2,0-0.2c0-0.2,0-0.4,0-0.5c0.1,0.7,0.6,1.4,1.5,1.8l3.6-4.2c1.8,0.8,1.6,2.3,1.5,3.3v0.1c0,0.3,0,0.5-0.1,0.8
					c0,0.2,0,0.4,0,0.6c0,0.2,0,0.5,0,0.8V8c0,0.1,0,0.2,0,0.2v0.1c0,0.2,0,0.4,0,0.5c0,0.5,0,1.1-0.1,1.6c0,0.3,0,0.5,0,0.8
					c0,0.3,0,0.6,0,0.8c0,0.2,0,0.4,0.1,0.7c0.1,0.4,0.1,0.8,0.1,1.2c0,0.1,0,0.2,0,0.2c0,0.3,0,0.7,0,1c0,0.2-0.1,0.3-0.1,0.5
					c0,0.1,0,0.2,0.1,0.4C494.4,16.7,494.4,17.4,494.2,18.1z M494.1,6.5L494.1,6.5z"/>
				<path class="st1" d="M444.8,17.8v-0.3c-0.1-0.7,0-1.4,0.1-2.1c0,0,0-0.1,0-0.1v-0.4v-0.7v-0.3c0-0.6,0-1.3,0-2
					c0.1-0.5,0.1-1,0-1.5c0-0.4,0-0.7,0-1.1c0-0.1,0-0.2,0-0.4c-0.2-1.1-0.3-2.3-0.1-3.4c0-0.4,0.1-0.8,0.1-1.2h6.5
					c0,0.5,0,1-0.1,1.5c-0.1,0.7-0.1,1.5,0,2.3c0.1,0.5,0.1,1,0.1,1.5c0,0.1,0,0.3,0,0.4c0.1,0.8,0.1,1.5,0,2.3c0,0.5,0,1.1,0,1.6
					v0.3v0.6v0.5c0,0.4,0,0.7-0.1,1.1c0,0.3,0,0.6,0,0.9v0.4L444.8,17.8z"/>
				<path class="st1" d="M459.8,17.7h-6.5c0-0.4,0-0.7,0.1-1.1c0.1-0.3,0.1-0.6,0-0.9c-0.1-0.6-0.2-1.2-0.2-1.8c0-0.3,0-0.6,0-0.9
					c0-0.3,0-0.6,0-0.9c0-0.2,0-0.5,0-0.7c0,0,0-0.1,0-0.1c0-0.2,0-0.3-0.1-0.5v-0.2c0-0.5,0-1.1,0.1-1.6V8.8c0-0.3,0.1-0.5,0.1-0.8
					V7.7c0-0.1,0-0.1,0-0.2c-0.1-0.3-0.1-0.6-0.1-1c0-0.1,0-0.2,0-0.4c0-0.4,0-0.8,0-1.2c0-0.2,0.1-0.5,0.2-0.7V4.2
					c-0.1,0.6,0.1,1.1,0.5,1.6l5.3-2.9c0.7,0.8,0.9,1.9,0.4,2.8c0,0.1,0,0.3,0,0.4c0,0.2,0,0.4,0,0.6c0,0.1,0,0.1,0,0.2
					c0.1,0.4,0.1,0.7,0.1,1.1v0.3c0,0.4,0,0.7-0.1,1.1v0.2c0,0.2-0.1,0.4-0.1,0.6v0.3v0.3c0,0.3,0,0.7,0,1c0,0.1,0,0.1,0,0.2
					c0,0.3,0,0.7,0,1s0,0.5,0,0.8c0,0.6,0,0.9,0.1,1.1c0.2,0.7,0.2,1.5,0.1,2.2C459.8,17.3,459.8,17.5,459.8,17.7z"/>
				<path class="st1" d="M468.5,18.1l-6.4-0.7c0-0.1,0-0.2,0-0.2c-0.1-0.5-0.2-1.1-0.3-1.6v-0.3l0.1-0.2c0-0.2,0.1-0.3,0.2-0.5
					c0,0,0-0.1,0-0.1s0-0.3,0-0.4c0-0.2,0-0.4-0.1-0.6c-0.1-0.4-0.1-0.8-0.1-1.2c0-0.2,0-0.4,0-0.6c0-0.5,0-1,0-1.4
					c0-0.4,0.1-0.8,0.1-1.3V8.8c0-0.2,0-0.4,0-0.5c0-0.2,0-0.4,0-0.6V7.5c0-0.2,0-0.4,0-0.5c0-0.4,0-0.7,0-1c0-0.2,0.1-0.4,0.1-0.6
					c0-0.1,0-0.1,0-0.2c0-0.2,0-0.4,0-0.6c0.1,0.7,0.6,1.4,1.5,1.8l3.5-4.1c1.8,0.8,1.6,2.3,1.5,3.3v0.1c0,0.3-0.1,0.5-0.1,0.8
					c0,0.2,0,0.4,0,0.6s0,0.5,0,0.8V8c0,0.1,0,0.2,0,0.2v0.1c0,0.2,0,0.4,0,0.5c0,0.5,0,1.1-0.1,1.6c0,0.3,0,0.5,0,0.8
					c0,0.3,0,0.6,0,0.8c0,0.2,0,0.4,0.1,0.7c0.1,0.4,0.1,0.9,0.1,1.3c0,0.1,0,0.2,0,0.2c0,0.3,0,0.7,0,1c0,0.2-0.1,0.3-0.1,0.5
					c0,0.1,0,0.2,0.1,0.4C468.6,16.8,468.6,17.5,468.5,18.1z M468.4,6.5L468.4,6.5z"/>
				<path class="st1" d="M419.4,17.8v-0.3c-0.1-0.7-0.1-1.4,0.1-2.1v-0.1v-0.4c0-0.2,0-0.5,0-0.7v-0.3c0-0.6,0-1.3,0-2
					c0-0.5,0-1,0-1.5c0-0.4,0-0.7,0-1.1c0-0.1,0-0.2,0-0.4c-0.2-1.1-0.3-2.3-0.1-3.4c0-0.4,0.1-0.8,0.1-1.2h6.5c0,0.5,0,1-0.1,1.5
					c-0.1,0.7-0.1,1.5,0,2.3c0.1,0.5,0.1,1,0.1,1.5c0,0.1,0,0.2,0,0.4c0.1,0.8,0.1,1.5,0,2.3c-0.1,0.5,0,1.1,0,1.6v0.3
					c0,0.2,0,0.4,0,0.6v0.5c0,0.4,0,0.7-0.1,1.1c0,0.3,0,0.6,0,0.9v0.4L419.4,17.8z"/>
				<path class="st1" d="M434.4,17.7H428c0-0.4,0-0.7,0.1-1.1c0.1-0.3,0.1-0.6,0-0.9c-0.1-0.6-0.2-1.2-0.2-1.8c0-0.3,0-0.6,0-0.9
					s0-0.6,0-0.9c0-0.2,0-0.5,0-0.7c0,0,0-0.1,0-0.1s0-0.3-0.1-0.5v-0.2c0-0.5,0-1.1,0.1-1.6V8.8c0-0.3,0.1-0.5,0.1-0.8V7.8
					c0,0,0-0.1,0-0.2c-0.1-0.3-0.1-0.6-0.1-0.9c0-0.1,0-0.2,0-0.4c0-0.4,0-0.8,0-1.2c0-0.2,0.1-0.5,0.2-0.7V4.2
					c-0.1,0.6,0.1,1.1,0.5,1.6l5.3-2.9c0.7,0.8,0.9,1.9,0.4,2.8c0,0.1,0,0.3,0,0.4s0,0.4,0,0.6c0,0.1,0,0.1,0,0.2
					c0.1,0.4,0.1,0.7,0.1,1.1v0.2c0,0.4,0,0.7-0.1,1.1v0.2c0,0.2-0.1,0.4-0.1,0.6v0.3c0,0.1,0,0.2,0,0.3c0,0.3,0,0.7,0,1
					c0,0,0,0.1,0,0.1c0,0.3,0,0.7,0,1c0,0.4,0,0.5,0,0.8c0,0.6,0,0.9,0.1,1.1c0.2,0.7,0.2,1.5,0.1,2.2
					C434.5,17.3,434.4,17.5,434.4,17.7z"/>
				<path class="st1" d="M443.2,18.1l-6.4-0.7c0-0.1,0-0.2,0-0.2c-0.1-0.5-0.2-1.1-0.3-1.6v-0.2l0.1-0.2c0-0.2,0.1-0.3,0.1-0.5v-0.1
					c0-0.1,0-0.3,0-0.4c0-0.1,0-0.4-0.1-0.6c-0.1-0.4-0.1-0.8-0.1-1.2c0-0.2,0-0.4,0-0.6c0-0.5,0-1,0-1.4c0-0.4,0.1-0.8,0.1-1.3V8.8
					c0-0.2,0-0.4,0-0.5s0-0.4,0-0.6V7.5c0-0.2,0-0.4,0-0.5c0-0.4,0-0.7,0-1c0-0.2,0.1-0.4,0.1-0.6c0-0.1,0-0.1,0-0.2s0-0.4,0-0.5
					c0.1,0.7,0.6,1.4,1.5,1.8l3.5-4.2c1.8,0.9,1.6,2.3,1.5,3.3v0.1c0,0.3-0.1,0.5-0.1,0.8c0,0.2,0,0.4,0,0.6c0,0.3,0,0.5,0,0.8v0.3
					c0,0.1,0,0.2,0,0.2v0.1c0,0.2,0,0.4,0,0.5c0,0.5,0,1-0.1,1.6c0,0.3,0,0.5,0,0.8c0,0.3,0,0.6,0,0.8s0,0.4,0.1,0.7
					c0.1,0.4,0.2,0.9,0.2,1.4c0,0.1,0,0.2,0,0.2c0,0.3,0,0.7,0,1c0,0.2-0.1,0.3-0.1,0.5c0,0.1,0.1,0.2,0.1,0.4
					C443.3,16.8,443.3,17.5,443.2,18.1z M443,6.5L443,6.5z"/>
				<path class="st1" d="M393.7,17.8v-0.3c-0.1-0.7-0.1-1.4,0.1-2.1c0,0,0-0.1,0-0.1v-0.4c0-0.2,0-0.5,0-0.7v-0.3c0-0.6,0-1.3,0-2
					c0-0.5,0-1,0-1.5c0-0.4,0-0.7,0-1.1c0-0.1,0-0.3,0-0.4c-0.2-1.1-0.3-2.3-0.1-3.4c0-0.4,0.1-0.8,0.1-1.2h6.5c0,0.5,0,1-0.1,1.5
					c-0.1,0.7-0.1,1.5,0,2.3c0.1,0.5,0.1,1,0.1,1.5c0,0.1,0,0.2,0,0.4c0.1,0.8,0.1,1.5,0,2.3c0,0.5,0,1.1,0,1.6v0.3
					c0,0.2,0,0.4,0,0.6v0.5c0,0.4,0,0.7-0.1,1.1c0,0.3,0,0.6,0,0.9v0.4L393.7,17.8z"/>
				<path class="st1" d="M408.7,17.7h-6.5c0-0.4,0-0.7,0.1-1.1c0.1-0.3,0.1-0.6,0-0.9c-0.1-0.6-0.2-1.2-0.2-1.8c0-0.3,0-0.6,0-0.9
					s0-0.6,0-0.9c0-0.3,0-0.5,0-0.7c0,0,0-0.1,0-0.1s0-0.3-0.1-0.5v-0.2c-0.1-0.5,0-1.1,0.1-1.6V8.8c0-0.3,0-0.5,0.1-0.8V7.8
					c0-0.1,0-0.1,0-0.2c-0.1-0.3-0.1-0.6-0.1-0.9c0-0.1,0-0.2,0-0.4c0-0.4,0-0.8,0-1.2c0-0.2,0.1-0.5,0.2-0.7l0.1-0.1
					c-0.1,0.6,0.1,1.1,0.5,1.6l5.3-2.9c0.7,0.8,0.8,1.8,0.3,2.7c0,0.1,0,0.3,0,0.5s0,0.4,0,0.5c0,0.1,0,0.1,0,0.2
					c0.1,0.4,0.1,0.7,0.1,1.1v0.2c0,0.4,0,0.7-0.1,1.1v0.2c0,0.2,0,0.4,0,0.6v0.3c0,0.1,0,0.2,0,0.3c0,0.3,0,0.7,0,1
					c0,0,0,0.1,0,0.1c0,0.3,0,0.7,0,1s0,0.5,0,0.8c0,0.6,0,0.9,0.1,1.1c0.2,0.7,0.2,1.5,0.1,2.2C408.7,17.3,408.7,17.5,408.7,17.7z"
					/>
				<path class="st1" d="M417.4,18.1l-6.4-0.7c0-0.1,0-0.2,0-0.2c-0.2-0.5-0.2-1.1-0.3-1.6v-0.2v-0.2c0-0.2,0.1-0.3,0.2-0.5
					c0,0,0-0.1,0-0.1c0-0.1,0-0.3,0-0.4c0-0.2,0-0.4-0.1-0.7c-0.1-0.4-0.1-0.8-0.1-1.2c0-0.2,0-0.4,0-0.6c0-0.5,0-1,0-1.4
					c0-0.4,0.1-0.8,0.1-1.3V8.8c0-0.2,0-0.4,0-0.5s0-0.4,0-0.6V7.5c0-0.2,0-0.4,0-0.5c0-0.4,0-0.7,0-1c0-0.2,0.1-0.4,0.1-0.6
					c0-0.1,0-0.1,0-0.2s0-0.4,0-0.5c0.1,0.7,0.6,1.4,1.5,1.8l3.6-4.2c1.8,0.9,1.6,2.3,1.5,3.3v0.1c0,0.3-0.1,0.5-0.1,0.8
					c0,0.2,0,0.4,0,0.6s0,0.5,0,0.8v0.3c0,0.1,0,0.2,0,0.2v0.1c0,0.2,0,0.4,0,0.5c0,0.5,0,1-0.1,1.6c0,0.3,0,0.5,0,0.8
					c0,0.3,0,0.6,0,0.8s0,0.4,0.1,0.6c0.1,0.5,0.1,0.9,0.1,1.4c0,0.1,0,0.2,0,0.2c0,0.3,0,0.7,0,1c0,0.2-0.1,0.3-0.1,0.5
					c0,0.1,0,0.2,0.1,0.4C417.5,16.8,417.5,17.5,417.4,18.1z M411,5.2C411,5.2,411,5.3,411,5.2C411,5.3,411,5.2,411,5.2z"/>
				<path class="st1" d="M572.8,17.8v-0.3c-0.1-0.7-0.1-1.4,0.1-2.1c0,0,0-0.1,0-0.1v-0.4c0-0.2,0-0.5,0-0.7v-0.3c0-0.6,0-1.3,0-2
					c0.1-0.5,0.1-1,0-1.5c0-0.4,0-0.7,0-1.1c0-0.1,0-0.3,0-0.4c-0.2-1.1-0.3-2.3-0.1-3.4c0-0.4,0.1-0.8,0.1-1.2h6.5
					c0,0.5,0,1-0.1,1.5c-0.1,0.7-0.1,1.5,0,2.3c0.1,0.5,0.1,1,0.1,1.5c0,0.1,0,0.2,0,0.4c0.1,0.8,0.1,1.5,0,2.3c0,0.5,0,1.1,0,1.6
					v0.3c0,0.2,0,0.4,0,0.6v0.5c0,0.4,0,0.8-0.1,1.1c0,0.3,0,0.6,0,0.9v0.4L572.8,17.8z"/>
				<path class="st1" d="M587.7,17.7h-6.5c0-0.4,0-0.7,0.1-1.1c0.1-0.3,0.1-0.6,0-0.9c-0.1-0.6-0.2-1.2-0.2-1.8c0-0.3,0-0.6,0-0.9
					c0-0.3,0-0.6,0-0.9s0-0.5,0-0.7c0,0,0-0.1,0-0.1s0-0.3-0.1-0.5v-0.2c-0.1-0.5,0-1.1,0.1-1.6V8.8c0-0.3,0-0.5,0.1-0.8V7.8
					c0,0,0-0.1,0-0.2c-0.1-0.3-0.1-0.6-0.1-1c0-0.1,0-0.2,0-0.4c0-0.4,0-0.8,0-1.2c0-0.2,0.1-0.5,0.2-0.7V4.2
					c-0.1,0.6,0.1,1.1,0.5,1.6l5.3-2.9c0.7,0.8,0.9,1.9,0.4,2.8c0,0.1,0,0.3,0,0.5s0,0.4,0,0.5c0,0.1,0,0.1,0,0.2
					c0.1,0.4,0.1,0.7,0.1,1.1v0.2c0,0.4,0,0.7-0.1,1.1v0.2c0,0.2-0.1,0.4-0.1,0.6v0.3v0.3c0.1,0.3,0.1,0.7,0,1c0,0,0,0.1,0,0.1
					c0,0.3,0,0.7,0,1s0,0.5,0,0.8c0,0.6,0,0.9,0.1,1.1c0.2,0.7,0.2,1.5,0.1,2.2C587.8,17.3,587.7,17.5,587.7,17.7z"/>
				<path class="st1" d="M596.5,18.1l-6.4-0.7c0-0.1,0-0.2,0-0.2c-0.2-0.5-0.2-1.1-0.3-1.6v-0.3l0.1-0.2c0-0.2,0.1-0.3,0.2-0.5
					c0,0,0-0.1,0-0.1c0-0.1,0-0.3,0-0.4c0-0.2,0-0.4-0.1-0.6c-0.1-0.4-0.1-0.8-0.1-1.2c0-0.2,0-0.4,0-0.6c0-0.5,0-1,0-1.4
					c0-0.4,0.1-0.8,0.1-1.3V8.8c0-0.2,0-0.4,0-0.5c0-0.2,0-0.4,0-0.6V7.5c0-0.2,0-0.4,0-0.5c0-0.4,0-0.7,0-1c0-0.2,0.1-0.4,0.1-0.6
					c0-0.1,0-0.1,0-0.2s0-0.4,0-0.5c0.1,0.7,0.6,1.4,1.4,1.8l3.5-4.2c1.8,0.8,1.6,2.3,1.5,3.3v0.1c0,0.3-0.1,0.5-0.1,0.8
					c0,0.2,0,0.4,0,0.6s0,0.5,0,0.8V8c0,0.1,0,0.2,0,0.2v0.1c0,0.2,0,0.4,0,0.5c0,0.5,0,1.1-0.1,1.6c0,0.3,0,0.5,0,0.8
					c0,0.3,0,0.6,0,0.8s0,0.4,0.1,0.7c0.1,0.4,0.1,0.8,0.1,1.2c0,0.1,0,0.2,0,0.2c0,0.3,0,0.7,0,1c0,0.2-0.1,0.3-0.1,0.5
					c0,0.1,0,0.2,0.1,0.4C596.6,16.7,596.6,17.4,596.5,18.1z M596.3,6.5L596.3,6.5z"/>
				<path class="st1" d="M547,17.8v-0.3c-0.1-0.7-0.1-1.4,0.1-2.1c0,0,0-0.1,0-0.1v-0.4v-0.7v-0.3c0-0.6,0-1.3,0-2
					c0.1-0.5,0.1-1,0-1.5c0-0.4,0-0.7,0-1.1c0-0.1,0-0.2,0-0.4c-0.2-1.1-0.3-2.3-0.1-3.4c0-0.4,0-0.8,0-1.2h6.5c0,0.5,0,1-0.1,1.5
					c-0.1,0.7-0.1,1.5,0,2.3c0.1,0.5,0.1,1,0.1,1.5c0,0.1,0,0.3,0,0.4c0.1,0.8,0.1,1.5,0,2.3c0,0.5,0,1.1,0,1.6v0.3v0.6v0.5
					c0,0.4,0,0.7-0.1,1.1c0,0.3,0,0.6,0,0.9v0.4L547,17.8z"/>
				<path class="st1" d="M562,17.7h-6.5c0-0.4,0-0.7,0.1-1.1c0.1-0.3,0.1-0.6,0-0.9c-0.1-0.6-0.2-1.2-0.2-1.8c0-0.3,0-0.6,0-0.9
					s0-0.6,0-1c0-0.2,0-0.5,0-0.7c0,0,0-0.1,0-0.1c0-0.2,0-0.3,0-0.5v-0.2c-0.1-0.5,0-1.1,0.1-1.6V8.8c0-0.3,0-0.5,0.1-0.8V7.7
					c0,0,0-0.1,0-0.2c-0.1-0.3-0.1-0.6-0.1-1c0-0.1,0-0.2,0-0.4c0-0.4,0-0.8,0-1.2c0-0.2,0.1-0.5,0.2-0.7V4.2
					c-0.1,0.6,0.1,1.1,0.5,1.6l5.3-2.9c0.7,0.8,0.9,1.9,0.4,2.8c0,0.1,0,0.3,0,0.4c0,0.2,0,0.4,0,0.6c0,0.1,0,0.1,0,0.2
					c0.1,0.3,0.2,0.7,0.2,1.1v0.3c0,0.4,0,0.7-0.1,1.1v0.2c0,0.2-0.1,0.4-0.1,0.6v0.3v0.3c0,0.3,0,0.7,0,1c0,0.1,0,0.1,0,0.2
					c0,0.3,0,0.7,0,1s0,0.5,0,0.8c0,0.6,0,0.9,0.1,1.1c0.2,0.7,0.2,1.5,0.1,2.2C562,17.3,562,17.5,562,17.7z"/>
				<path class="st1" d="M570.7,18.1l-6.4-0.7c0-0.1,0-0.2,0-0.2c-0.1-0.5-0.2-1.1-0.2-1.6v-0.2v-0.2c0-0.2,0.1-0.3,0.2-0.5
					c0,0,0-0.1,0-0.1s0-0.3,0-0.4c0-0.2,0-0.4-0.1-0.6c-0.1-0.4-0.1-0.8-0.1-1.2c0-0.2,0-0.4,0-0.6c0-0.5,0-1,0-1.4
					c0.1-0.4,0.1-0.8,0.1-1.3V8.8c0-0.2,0-0.4,0-0.5c0-0.2,0-0.4,0-0.6V7.5c0-0.2,0-0.4,0-0.5c0-0.4,0-0.7,0-1
					c0-0.2,0.1-0.4,0.1-0.6c0-0.1,0-0.1,0-0.2c0-0.2,0-0.4,0-0.5c0.1,0.7,0.6,1.4,1.5,1.8l3.6-4.2c1.8,0.8,1.6,2.3,1.5,3.3v0.1
					c0,0.3-0.1,0.5-0.1,0.8c0,0.2,0,0.4,0,0.6c0,0.2,0,0.5,0,0.8V8c0,0.1,0,0.2,0,0.2v0.1c0,0.2,0,0.4,0,0.5c0,0.5,0,1.1-0.1,1.6
					c0,0.3,0,0.5,0,0.8c0,0.3,0,0.6,0,0.8c0,0.2,0,0.4,0.1,0.7c0.1,0.4,0.1,0.8,0.1,1.2c0,0.1,0,0.2,0,0.2c0,0.3,0,0.7,0,1
					c0,0.2-0.1,0.3-0.1,0.5c0,0.1,0,0.2,0.1,0.4C570.8,16.7,570.9,17.4,570.7,18.1z M570.6,6.5L570.6,6.5z"/>
				<path class="st1" d="M521.7,17.8v-0.3c-0.1-0.7-0.1-1.4,0.1-2.1v-0.1v-0.4v-0.7v-0.3c0-0.6,0-1.3,0-2c0-0.5,0-1,0-1.5
					c0-0.4,0-0.7,0-1.1c0-0.1,0-0.2,0-0.4c-0.2-1.1-0.3-2.3-0.1-3.4c0-0.4,0.1-0.8,0.1-1.2h6.5c0,0.5,0,1-0.1,1.5
					c-0.1,0.7-0.1,1.5,0,2.3c0.1,0.5,0.1,1,0.1,1.5c0,0.1,0,0.2,0,0.4c0.1,0.8,0.1,1.5,0,2.3c0,0.5,0,1.1,0,1.6v0.3
					c0,0.2,0,0.4,0,0.6v0.5c0,0.4,0,0.7-0.1,1.1c0,0.3,0,0.6,0,0.9v0.4L521.7,17.8z"/>
				<path class="st1" d="M536.7,17.7h-6.5c0-0.4,0-0.7,0.1-1.1c0.1-0.3,0.1-0.6,0-0.9c-0.1-0.6-0.2-1.2-0.2-1.8c0-0.3,0-0.6,0-0.9
					s0-0.6,0-0.9c0-0.2,0-0.5,0-0.7c0,0,0-0.1,0-0.1s0-0.3-0.1-0.5v-0.2c0-0.5,0-1.1,0.1-1.6V8.8c0-0.3,0.1-0.5,0.1-0.8V7.8
					c0-0.1,0-0.1,0-0.2c-0.1-0.3-0.1-0.6-0.1-0.9c0-0.1,0-0.2,0-0.4c0-0.4,0-0.8,0-1.2c0-0.2,0.1-0.5,0.2-0.7V4.2
					c-0.1,0.6,0.1,1.1,0.5,1.6l5.3-2.9c0.7,0.8,0.9,1.9,0.4,2.8c0,0.1,0,0.3,0,0.5s0,0.4,0,0.5c0,0.1,0,0.1,0,0.2
					c0.1,0.4,0.1,0.7,0.1,1.1v0.2c0,0.4,0,0.7-0.1,1.1v0.2c0,0.2-0.1,0.4-0.1,0.6v0.3c0,0.1,0,0.2,0,0.3c0,0.3,0,0.7,0,1
					c0,0,0,0.1,0,0.1c0,0.3,0,0.7,0,1c0,0.4,0,0.5,0,0.8c0,0.6,0,0.9,0.1,1.1c0.2,0.7,0.2,1.5,0.1,2.2
					C536.7,17.3,536.7,17.5,536.7,17.7z"/>
				<path class="st1" d="M545.3,18.1l-6.4-0.7c0-0.1,0-0.2,0-0.2c-0.1-0.5-0.2-1.1-0.3-1.6v-0.2l0.1-0.2c0-0.2,0.1-0.3,0.2-0.5
					c0,0,0-0.1,0-0.1c0-0.1,0-0.3,0-0.4c0-0.1,0-0.4-0.1-0.7c-0.1-0.4-0.1-0.8-0.1-1.2c0-0.2,0-0.4,0-0.6c0-0.5,0-1,0-1.4
					c0-0.4,0.1-0.8,0.1-1.3V8.8c0-0.2,0-0.4,0-0.5s0-0.4,0-0.6V7.5c0-0.2,0-0.4,0-0.5c0-0.4,0-0.7,0-1c0-0.2,0-0.4,0.1-0.6
					c0-0.1,0-0.1,0-0.2s0-0.4,0-0.5c0.1,0.7,0.6,1.4,1.5,1.8l3.5-4.2c1.8,0.9,1.6,2.3,1.5,3.3v0.1c0,0.3-0.1,0.5-0.1,0.8
					c0,0.2,0,0.4,0,0.6c0,0.3,0,0.5,0,0.8v0.3c0,0.1,0,0.2,0,0.2v0.1c0,0.2,0,0.4,0,0.5c0,0.5,0,1-0.1,1.6c0,0.3,0,0.5,0,0.8
					c0,0.3,0,0.6,0,0.8c0,0.2,0,0.4,0.1,0.6c0.1,0.4,0.1,0.8,0.1,1.2v0.2c0,0.3,0,0.7,0,1c0,0.2-0.1,0.3-0.1,0.5
					c0,0.1,0.1,0.2,0.1,0.4C545.5,16.7,545.5,17.4,545.3,18.1z M545.2,6.5L545.2,6.5z M538.9,5.2C538.9,5.2,538.9,5.3,538.9,5.2
					C538.9,5.3,538.9,5.3,538.9,5.2L538.9,5.2z"/>
				<path class="st1" d="M495.9,17.8v-0.3c-0.1-0.7-0.1-1.4,0.1-2.1c0,0,0-0.1,0-0.1v-0.4c0-0.2,0-0.5,0-0.7v-0.3c0-0.6,0-1.3,0-2
					c0-0.5,0-1,0-1.5c0-0.4,0-0.7,0-1.1c0-0.1,0-0.3,0-0.4c-0.2-1.1-0.3-2.3-0.1-3.4c0-0.4,0.1-0.8,0.1-1.2h6.5c0,0.5,0,1-0.1,1.5
					c-0.1,0.7-0.1,1.5,0,2.3c0.1,0.5,0.1,1,0.1,1.5c0,0.1,0,0.2,0,0.4c0.1,0.8,0.1,1.5,0,2.3c0,0.5,0,1.1,0,1.6v0.3
					c0,0.2,0,0.4,0,0.6v0.5c0,0.4,0,0.7-0.1,1.1c0,0.3,0,0.6,0,0.9v0.4L495.9,17.8z"/>
				<path class="st1" d="M510.9,17.7h-6.5c0-0.4,0-0.7,0.1-1.1c0.1-0.3,0.1-0.6,0-0.9c-0.1-0.6-0.2-1.2-0.2-1.8c0-0.3,0-0.6,0-0.9
					v-0.9c0-0.2,0-0.5,0-0.7c0,0,0-0.1,0-0.1c0-0.2,0-0.3-0.1-0.5v-0.2c-0.1-0.5,0-1.1,0.1-1.6V8.8c0-0.3,0-0.5,0.1-0.8V7.8
					c0,0,0-0.1,0-0.2c-0.1-0.3-0.1-0.6-0.1-0.9c0-0.1,0-0.2,0-0.4c0-0.4,0-0.8,0-1.2c0-0.2,0.1-0.5,0.2-0.7V4.2
					c-0.1,0.6,0.1,1.1,0.5,1.6l5.3-2.9c0.7,0.8,0.9,1.9,0.4,2.8c0,0.1,0,0.3,0,0.5s0,0.4,0,0.5c0,0.1,0,0.1,0,0.2
					c0.1,0.4,0.1,0.7,0.1,1.1v0.2c0,0.4,0,0.7-0.1,1.1v0.2c0,0.2-0.1,0.4-0.1,0.6v0.3c0,0.1,0,0.2,0,0.3c0,0.3,0,0.7,0,1
					c0,0,0,0.1,0,0.1c0,0.3,0,0.7,0,1c0,0.4,0,0.5,0,0.8c0,0.6,0,0.9,0.1,1.1c0.2,0.7,0.2,1.5,0.1,2.2
					C510.9,17.3,510.9,17.5,510.9,17.7z"/>
				<path class="st1" d="M519.6,18.1l-6.4-0.7c0-0.1,0-0.2,0-0.2c-0.2-0.5-0.2-1.1-0.3-1.6v-0.2v-0.2c0-0.2,0.1-0.3,0.2-0.5v-0.1
					c0-0.1,0-0.3,0-0.4c0-0.2,0-0.4-0.1-0.7c-0.1-0.4-0.1-0.8-0.1-1.2c0-0.2,0-0.4,0-0.6c0-0.5,0-1,0-1.4c0-0.4,0.1-0.8,0.1-1.3V8.8
					c0-0.2,0-0.4,0-0.5s0-0.4,0-0.6V7.5c0-0.2,0-0.3,0-0.5c0-0.4,0-0.7,0-1c0-0.2,0.1-0.4,0.1-0.6c0-0.1,0-0.1,0-0.2s0-0.4,0-0.5
					c0.1,0.7,0.7,1.4,1.6,1.8l3.4-4.2c1.8,0.9,1.6,2.3,1.5,3.3v0.1c0,0.3-0.1,0.5-0.1,0.8c0,0.2,0,0.4,0,0.6s0,0.5,0,0.8V8
					c0,0.1,0,0.2,0,0.2v0.1c0,0.2,0,0.4,0,0.5c0,0.5,0,1-0.1,1.6c0,0.2,0,0.5,0,0.8s0,0.6,0,0.8s0,0.4,0.1,0.6
					c0.1,0.4,0.1,0.8,0.1,1.2c0,0.1,0,0.2,0,0.2c0,0.3,0,0.7,0,1c0,0.2-0.1,0.3-0.1,0.5c0,0.1,0.1,0.2,0.1,0.4
					C519.7,16.7,519.8,17.4,519.6,18.1z M519.5,6.5L519.5,6.5z"/>
				<path class="st1" d="M675,17.8v-0.3c-0.1-0.7-0.1-1.4,0.1-2.1c0,0,0-0.1,0-0.1v-0.4c0-0.2,0-0.5,0-0.7v-0.3c0-0.6,0-1.3,0-2
					c0-0.5,0-1,0-1.5c0-0.4,0-0.7,0-1.1c0-0.1,0-0.3,0-0.4c-0.2-1.1-0.3-2.3-0.1-3.4c0-0.4,0.1-0.8,0.1-1.2h6.5c0,0.5,0,1-0.1,1.5
					c-0.1,0.7-0.1,1.5,0,2.3c0.1,0.5,0.1,1,0.1,1.5c0,0.1,0,0.2,0,0.4c0.1,0.8,0.1,1.5,0,2.3c0,0.5,0,1.1,0,1.6v0.3
					c0,0.2,0,0.4,0,0.6v0.5c0,0.4,0,0.7-0.1,1.1c0,0.3,0,0.6,0,0.9v0.4L675,17.8z"/>
				<path class="st1" d="M690,17.7h-6.5c0-0.4,0-0.7,0.1-1.1c0.1-0.3,0.1-0.6,0-0.9c-0.1-0.6-0.2-1.2-0.2-1.8c0-0.3,0-0.6,0-0.9
					c0-0.3,0-0.6,0-0.9s0-0.5,0-0.7c0,0,0-0.1,0-0.1s0-0.3,0-0.5v-0.2c-0.1-0.5,0-1.1,0.1-1.6V8.8c0-0.3,0-0.5,0.1-0.8V7.8
					c0,0,0-0.1,0-0.2c-0.1-0.3-0.1-0.6-0.1-1c0-0.1,0-0.2,0-0.4c0-0.4,0-0.8,0-1.2c0-0.2,0.1-0.5,0.2-0.7l0.1-0.1
					c-0.1,0.6,0.1,1.1,0.5,1.6l5.3-2.9c0.7,0.8,0.9,1.9,0.4,2.8c0,0.1,0,0.3,0,0.4s0,0.4,0,0.6c0,0.1,0,0.1,0,0.2
					c0.1,0.4,0.1,0.7,0.1,1.1v0.3c0,0.4,0,0.7-0.1,1.1v0.2c0,0.2,0,0.4,0,0.6v0.3c0,0.1,0,0.2,0,0.3c0,0.3,0,0.7,0,1
					c0,0,0,0.1,0,0.1c0,0.3,0,0.7,0,1s0,0.5,0,0.8c0,0.6,0.1,0.9,0.1,1.1c0.2,0.7,0.2,1.5,0.1,2.2C690,17.3,690,17.5,690,17.7z"/>
				<path class="st1" d="M698.7,18.1l-6.4-0.7c0-0.1,0-0.2,0-0.2c-0.2-0.5-0.2-1.1-0.3-1.6v-0.3v-0.2c0-0.2,0.1-0.3,0.2-0.5
					c0,0,0-0.1,0-0.1c0-0.1,0-0.3,0-0.4c0-0.2,0-0.4-0.1-0.6c-0.1-0.4-0.1-0.8-0.1-1.2c0-0.2,0-0.4,0-0.6c0-0.5,0-1,0-1.4
					c0-0.4,0.1-0.8,0.1-1.3V8.8c0-0.2,0-0.4,0-0.5c0-0.2,0-0.4,0-0.6V7.5c0-0.2,0-0.4,0-0.5c0-0.4,0-0.7,0-1c0-0.2,0.1-0.4,0.1-0.6
					c0-0.1,0-0.1,0-0.2s0-0.4,0-0.5c0.1,0.7,0.6,1.4,1.4,1.8l3.5-4.2c1.8,0.8,1.6,2.3,1.5,3.3v0.1c0,0.3-0.1,0.5-0.1,0.8
					c0,0.2,0,0.4,0,0.6s0,0.5,0,0.8V8c0,0.1,0,0.2,0,0.2v0.1c0,0.2,0,0.4,0,0.5c0,0.5,0,1.1-0.1,1.6c0,0.3,0,0.5,0,0.8
					c0,0.3,0,0.6,0,0.8s0,0.4,0.1,0.7c0.1,0.4,0.2,0.9,0.2,1.3c0,0.1,0,0.2,0,0.2c0,0.3,0,0.7,0,1c0,0.2-0.1,0.3-0.1,0.5
					c0,0.1,0,0.2,0.1,0.4C698.8,16.8,698.8,17.5,698.7,18.1z M698.5,6.5L698.5,6.5z"/>
				<path class="st1" d="M649.3,17.8v-0.3c-0.1-0.7-0.1-1.4,0-2.1c0,0,0-0.1,0-0.1v-0.4c0-0.2,0-0.5,0-0.7v-0.3c0-0.6,0-1.3,0-2
					c0.1-0.5,0.1-1,0-1.5c0-0.4,0-0.7,0-1.1c0-0.1,0-0.2,0-0.4c-0.2-1.1-0.3-2.3-0.1-3.4c0-0.4,0.1-0.8,0.1-1.2h6.5
					c0,0.5,0,1-0.1,1.5c-0.1,0.7-0.1,1.5,0,2.3c0.1,0.5,0.1,1,0.1,1.5c0,0.1,0,0.3,0,0.4c0.1,0.8,0.1,1.5,0,2.3c0,0.5,0,1.1,0,1.6
					v0.3v0.6v0.5c0,0.4,0,0.7-0.1,1.1c0,0.3,0,0.6,0,0.9v0.4L649.3,17.8z"/>
				<path class="st1" d="M664.2,17.7h-6.5c0-0.4,0-0.7,0.1-1.1c0.1-0.3,0.1-0.6,0-0.9c-0.1-0.6-0.2-1.2-0.2-1.8c0-0.3,0-0.6,0-0.9
					s0-0.6,0-1s0-0.5,0-0.7c0,0,0-0.1,0-0.1c0-0.2,0-0.3,0-0.5v-0.2c-0.1-0.5,0-1.1,0.1-1.6V8.8c0-0.3,0-0.5,0.1-0.8V7.8
					c0,0,0-0.1,0-0.2c-0.1-0.3-0.1-0.6-0.1-0.9c0-0.1,0-0.2,0-0.4c0-0.4,0-0.8,0-1.2c0-0.2,0.1-0.5,0.2-0.7V4.2
					c-0.1,0.6,0.1,1.1,0.5,1.6l5.3-2.9c0.7,0.8,0.9,1.8,0.4,2.7c0,0.1,0,0.3,0,0.4c0,0.2,0,0.4,0,0.6c0,0.1,0,0.1,0,0.2
					c0.1,0.4,0.1,0.7,0.1,1.1v0.2c0,0.4,0,0.7-0.1,1.1v0.2c0,0.2,0,0.4,0,0.6v0.3v0.3c0.1,0.3,0.1,0.7,0,1c0,0.1,0,0.1,0,0.2
					c0,0.3,0,0.7,0,1s0,0.5,0,0.8c0,0.6,0,0.9,0.1,1.1c0.2,0.7,0.2,1.5,0.1,2.2C664.2,17.3,664.2,17.5,664.2,17.7z"/>
				<path class="st1" d="M672.9,18.1l-6.4-0.7c0-0.1,0-0.2,0-0.2c-0.1-0.5-0.2-1.1-0.2-1.6v-0.2l0.1-0.2c0-0.2,0.1-0.3,0.2-0.5
					c0,0,0-0.1,0-0.1s0-0.3,0-0.4c0-0.2,0-0.4-0.1-0.6c-0.1-0.4-0.1-0.8-0.1-1.2c0-0.2,0-0.4,0-0.6c0-0.5,0-1,0-1.4
					c0-0.4,0.1-0.8,0.1-1.3V8.8c0-0.2,0-0.4,0-0.5s0-0.4,0-0.6V7.5c0-0.2,0-0.4,0-0.5c0-0.4,0-0.7,0-1c0-0.2,0.1-0.4,0.1-0.6
					c0-0.1,0-0.1,0-0.2c0-0.2,0-0.4,0-0.5c0.1,0.7,0.6,1.4,1.5,1.8l3.5-4.2c1.8,0.8,1.6,2.3,1.5,3.3v0.1c0,0.3-0.1,0.5-0.1,0.8
					c0,0.2,0,0.4,0,0.6c0,0.2,0,0.5,0,0.8V8c0,0.1,0,0.2,0,0.2v0.1c0,0.2,0,0.4,0,0.5c0,0.5,0,1-0.1,1.6c0,0.3,0,0.5,0,0.8
					c0,0.3,0,0.6,0,0.8c0,0.2,0,0.4,0.1,0.7c0.1,0.4,0.1,0.8,0.1,1.2c0,0.1,0,0.2,0,0.2c0,0.3,0,0.7,0,1c0,0.2-0.1,0.3-0.1,0.5
					c0,0.1,0,0.2,0.1,0.4C673.1,16.7,673.1,17.4,672.9,18.1z M672.8,6.5L672.8,6.5z"/>
				<path class="st1" d="M623.9,17.8v-0.3c-0.1-0.7-0.1-1.4,0.1-2.1v-0.1v-0.4v-0.7v-0.3c0-0.6,0-1.3,0-2c0-0.5,0-1,0-1.5
					c0-0.4,0-0.7,0-1.1c0-0.1,0-0.2,0-0.4c-0.2-1.1-0.3-2.3-0.1-3.4c0-0.4,0.1-0.8,0.1-1.2h6.5c0,0.5,0,1-0.1,1.5
					c-0.1,0.7-0.1,1.5,0,2.3c0.1,0.5,0.1,1,0.1,1.5c0,0.1,0,0.2,0,0.4c0.1,0.8,0.1,1.5,0,2.3c0,0.5,0,1.1,0,1.6v0.3
					c0,0.2,0,0.4,0,0.6v0.5c0,0.4,0,0.7-0.1,1.1c0,0.3,0,0.6,0,0.9v0.4L623.9,17.8z"/>
				<path class="st1" d="M638.9,17.7h-6.5c0-0.4,0-0.7,0.1-1.1c0.1-0.3,0.1-0.6,0-1c-0.1-0.6-0.2-1.2-0.2-1.8c0-0.3,0-0.6,0-0.9
					s0-0.6,0-0.9c0-0.2,0-0.5,0-0.7c0,0,0-0.1,0-0.1c0,0,0-0.3,0-0.5v-0.2c0-0.5,0-1.1,0.1-1.6V8.8c0-0.3,0-0.5,0.1-0.8V7.7
					c0-0.1,0-0.1,0-0.2c-0.1-0.3-0.1-0.6-0.1-0.9c0-0.1,0-0.2,0-0.4c0-0.4,0-0.8,0-1.2c0-0.2,0.1-0.5,0.2-0.7V4.2
					c-0.1,0.6,0.1,1.1,0.5,1.6l5.3-2.9c0.7,0.8,0.9,1.9,0.4,2.8c0,0.1,0,0.3,0,0.5s0,0.4,0,0.5c0,0.1,0,0.1,0,0.2
					c0.1,0.4,0.1,0.7,0.1,1.1v0.2c0,0.4,0,0.7-0.1,1.1v0.2c0,0.2,0,0.4,0,0.6v0.3v0.3c0,0.3,0,0.7,0,1c0,0,0,0.1,0,0.1
					c0,0.3,0,0.7,0,1s0,0.5,0,0.8c0,0.6,0,0.9,0.1,1.1c0.2,0.7,0.2,1.5,0.1,2.2C638.9,17.3,638.9,17.5,638.9,17.7z"/>
				<path class="st1" d="M647.6,18.1l-6.4-0.7c0-0.1,0-0.2,0-0.2c-0.1-0.5-0.2-1.1-0.3-1.6v-0.2l0.1-0.2c0-0.2,0.1-0.3,0.2-0.5
					c0,0,0-0.1,0-0.1c0-0.1,0-0.3,0-0.4c0-0.1,0-0.4-0.1-0.7c-0.1-0.4-0.1-0.8-0.1-1.2c0-0.2,0-0.4,0-0.6c0-0.5,0-1,0-1.4
					c0-0.4,0.1-0.8,0.1-1.3V8.8c0-0.2,0-0.4,0-0.5s0-0.4,0-0.6V7.5c0-0.2,0-0.4,0-0.5c0-0.4,0-0.7,0-1c0-0.2,0.1-0.4,0.1-0.6
					c0-0.1,0-0.1,0-0.2s0-0.4,0-0.5c0.1,0.7,0.6,1.4,1.5,1.8l3.5-4.2c1.8,0.9,1.6,2.3,1.5,3.3v0.1c0,0.3-0.1,0.5-0.1,0.8
					c0,0.2,0,0.4,0,0.6s0,0.5,0,0.8v0.3c0,0.1,0,0.2,0,0.2v0.1c0,0.2,0,0.4,0,0.5c0,0.5,0,1-0.1,1.6c0,0.3,0,0.5,0,0.8
					c0,0.3,0,0.6,0,0.8c0,0.2,0,0.4,0.1,0.6c0.1,0.4,0.1,0.8,0.1,1.2v0.2c0,0.3,0,0.7,0,1c0,0.2-0.1,0.3-0.1,0.5
					c0,0.1,0,0.2,0.1,0.4C647.7,16.7,647.7,17.4,647.6,18.1z M647.4,6.5L647.4,6.5z M641.1,5.2L641.1,5.2L641.1,5.2z"/>
				<path class="st1" d="M598.1,17.8v-0.3c-0.1-0.7-0.1-1.4,0.1-2.1v-0.1v-0.4c0-0.2,0-0.5,0-0.7v-0.3c0-0.6,0-1.3,0-2
					c0-0.5,0-1,0-1.5c0-0.4,0-0.7,0-1.1c0-0.1,0-0.2,0-0.4c-0.2-1.1-0.3-2.3-0.1-3.4c0-0.4,0.1-0.8,0.1-1.2h6.5c0,0.5,0,1-0.1,1.5
					c-0.1,0.7-0.1,1.5,0,2.3c0.1,0.5,0.1,1,0.1,1.5c0,0.1,0,0.2,0,0.4c0.1,0.8,0.1,1.5,0,2.3c0,0.5,0,1.1,0,1.6v0.3
					c0,0.2,0,0.4,0,0.6v0.5c0,0.4,0,0.7-0.1,1.1c0,0.3,0,0.6,0,0.9v0.4L598.1,17.8z"/>
				<path class="st1" d="M613.1,17.7h-6.5c0-0.4,0-0.7,0.1-1.1c0.1-0.3,0.1-0.6,0-0.9c-0.1-0.6-0.2-1.2-0.2-1.8c0-0.3,0-0.6,0-0.9
					s0-0.6,0-0.9c0-0.2,0-0.5,0-0.7c0,0,0-0.1,0-0.1s0-0.3-0.1-0.5v-0.2c0-0.5,0-1.1,0.1-1.6V8.8c0-0.3,0-0.5,0.1-0.8V7.8
					c0,0,0-0.1,0-0.2c-0.1-0.3-0.1-0.6-0.1-1c0-0.1,0-0.2,0-0.4c0-0.4,0-0.8,0-1.2c0-0.2,0.1-0.5,0.2-0.7V4.2
					c-0.1,0.6,0.1,1.1,0.5,1.6l5.3-2.9c0.7,0.8,0.9,1.9,0.4,2.8c0,0.1,0,0.3,0,0.5s0,0.4,0,0.5c0,0.1,0,0.1,0,0.2
					C613,7.3,613,7.7,613,8v0.2c0,0.4,0,0.7-0.1,1.1v0.2c0,0.2-0.1,0.4-0.1,0.6v0.3c0,0.1,0,0.2,0,0.3c0,0.3,0,0.7,0,1
					c0,0,0,0.1,0,0.1c0,0.3,0,0.7,0,1c0,0.4,0,0.5,0,0.8c0,0.6,0,0.9,0.1,1.1c0.2,0.7,0.2,1.5,0.1,2.2
					C613.1,17.3,613.1,17.5,613.1,17.7z"/>
				<path class="st1" d="M621.8,18.1l-6.4-0.7c0-0.1,0-0.2,0-0.2c-0.1-0.5-0.2-1.1-0.3-1.6v-0.3l0.1-0.2c0-0.2,0.1-0.3,0.1-0.5v-0.1
					c0-0.1,0-0.3,0-0.4c0-0.2,0-0.4-0.1-0.7c-0.1-0.4-0.1-0.8-0.1-1.2c0-0.2,0-0.4,0-0.6c0-0.5,0-1,0-1.4c0-0.4,0.1-0.8,0.1-1.3V8.8
					c0-0.2,0-0.4,0-0.5c0-0.2,0-0.4,0-0.6V7.5c0-0.2,0-0.3,0-0.5c0-0.3,0-0.7,0-1c0-0.2,0.1-0.4,0.1-0.6c0-0.1,0-0.1,0-0.2
					s0-0.4,0-0.5c0.1,0.7,0.6,1.4,1.5,1.8l3.5-4.2c1.8,0.9,1.6,2.3,1.5,3.3v0.1c0,0.3-0.1,0.5-0.1,0.8c0,0.2,0,0.4,0,0.6
					c0,0.3,0,0.5,0,0.8V8c0,0.1,0,0.2,0,0.2v0.1c0,0.2,0,0.4,0,0.5c0,0.5,0,1-0.1,1.6c0,0.2,0,0.5,0,0.8s0,0.5,0,0.8s0,0.4,0.1,0.7
					c0.1,0.4,0.1,0.8,0.1,1.2c0,0.1,0,0.2,0,0.2c0,0.3,0,0.7,0,1c0,0.2-0.1,0.3-0.1,0.5c0,0.1,0,0.2,0.1,0.4
					C621.9,16.7,622,17.4,621.8,18.1z M621.7,6.5L621.7,6.5z"/>
				<path class="st1" d="M777.2,17.8v-0.3c-0.1-0.7-0.1-1.4,0.1-2.1c0,0,0-0.1,0-0.1v-0.4c0-0.2,0-0.5,0-0.7v-0.3c0-0.6,0-1.3,0-2
					c0-0.5,0-1,0-1.5c0-0.4,0-0.7,0-1.1c0-0.1,0-0.3,0-0.4c-0.2-1.1-0.3-2.3-0.1-3.4c0-0.4,0.1-0.8,0.1-1.2h6.5c0,0.5,0,1-0.1,1.5
					c-0.1,0.7-0.1,1.5,0,2.3c0.1,0.5,0.1,1,0.1,1.5c0,0.1,0,0.2,0,0.4c0.1,0.8,0.1,1.5,0,2.3c0,0.5,0,1.1,0,1.6v0.3
					c0,0.2,0,0.4,0,0.6v0.5c0,0.4,0,0.7-0.1,1.1c0,0.3,0,0.6,0,0.9v0.4L777.2,17.8z"/>
				<path class="st1" d="M792.2,17.7h-6.5c0-0.4,0-0.7,0.1-1.1c0.1-0.3,0.1-0.6,0-0.9c-0.1-0.6-0.2-1.2-0.2-1.8c0-0.3,0-0.6,0-0.9
					v-0.9c0-0.2,0-0.5,0-0.7c0,0,0-0.1,0-0.1c0-0.2,0-0.3-0.1-0.5v-0.2c-0.1-0.5,0-1.1,0.1-1.6V8.8c0-0.3,0-0.5,0.1-0.8V7.8
					c0,0,0-0.1,0-0.2c-0.1-0.3-0.1-0.6-0.1-1c0-0.1,0-0.2,0-0.4c0-0.4,0-0.8,0-1.2c0-0.2,0.1-0.5,0.2-0.7V4.2
					c-0.1,0.6,0.1,1.1,0.5,1.6l5.3-2.9c0.7,0.8,0.9,1.9,0.4,2.8c0,0.1,0,0.3,0,0.4s0,0.4,0,0.6c0,0.1,0,0.1,0,0.2
					c0.1,0.4,0.1,0.7,0.1,1.1v0.3c0,0.4,0,0.7-0.1,1.1v0.2c0,0.2-0.1,0.4-0.1,0.6v0.3c0,0.1,0,0.2,0,0.3c0,0.3,0,0.7,0,1
					c0,0.1,0,0.1,0,0.2c0,0.3,0,0.7,0,1s0,0.5,0,0.8c0,0.4,0,0.7,0.1,1.1c0.2,0.7,0.2,1.5,0.1,2.2C792.2,17.3,792.2,17.5,792.2,17.7
					z"/>
				<path class="st1" d="M800.9,18.1l-6.4-0.7c0-0.1,0-0.2,0-0.2c-0.2-0.5-0.2-1.1-0.3-1.6v-0.2l0.1-0.2c0-0.2,0.1-0.3,0.1-0.5v-0.1
					c0-0.1,0-0.3,0-0.4c0-0.2,0-0.4-0.1-0.6c-0.1-0.4-0.1-0.8-0.1-1.2c0-0.2,0-0.4,0-0.6c0-0.5,0-1,0-1.4c0-0.4,0.1-0.8,0.1-1.3V8.8
					c0-0.2,0-0.4,0-0.5c0-0.2,0-0.4,0-0.6V7.5c0-0.2,0-0.4,0-0.5c0-0.4,0-0.7,0-1c0-0.2,0.1-0.4,0.1-0.6c0-0.1,0-0.1,0-0.2
					s0-0.4,0-0.5c0.1,0.7,0.6,1.4,1.4,1.8l3.5-4.2c1.8,0.8,1.6,2.3,1.5,3.3v0.1c0,0.3-0.1,0.5-0.1,0.8c0,0.2,0,0.4,0,0.6
					c0,0.2,0,0.5,0,0.8V8c0,0.1,0,0.2,0,0.2v0.1c0,0.2,0,0.4,0,0.5c0,0.5,0,1.1-0.1,1.6c0,0.2,0,0.5,0,0.8s0,0.6,0,0.8
					s0,0.4,0.1,0.7c0.1,0.4,0.1,0.8,0.1,1.2c0,0.1,0,0.2,0,0.2c0,0.3,0,0.7,0,1c0,0.2-0.1,0.3-0.1,0.5c0,0.1,0,0.2,0.1,0.4
					C801,16.7,801,17.4,800.9,18.1z M800.7,6.5L800.7,6.5z"/>
				<path class="st1" d="M751.4,17.8v-0.3c-0.1-0.7-0.1-1.4,0.1-2.1c0,0,0-0.1,0-0.1v-0.4c0-0.2,0-0.5,0-0.7v-0.3c0-0.6,0-1.3,0-2
					c0.1-0.5,0.1-1,0-1.5c0-0.4,0-0.7,0-1.1c0-0.1,0-0.3,0-0.4c-0.2-1.1-0.3-2.3-0.1-3.4c0-0.4,0.1-0.8,0.1-1.2h6.5
					c0,0.5,0,1-0.1,1.5c-0.1,0.7-0.1,1.5,0,2.3c0.1,0.5,0.1,1,0.1,1.5c0,0.1,0,0.3,0,0.4c0.1,0.8,0.1,1.5,0,2.3c0,0.5,0,1.1,0,1.6
					v0.3c0,0.2,0,0.4,0,0.6v0.5c0,0.4,0,0.7-0.1,1.1c0,0.3,0,0.6,0,0.9v0.4L751.4,17.8z"/>
				<path class="st1" d="M766.4,17.7h-6.5c0-0.4,0-0.7,0.1-1.1c0.1-0.3,0.1-0.6,0-0.9c-0.1-0.6-0.2-1.2-0.2-1.8c0-0.3,0-0.6,0-0.9
					s0-0.6,0-1s0-0.5,0-0.7c0,0,0-0.1,0-0.1s0-0.3,0-0.5v-0.2c-0.1-0.5,0-1.1,0.1-1.6V8.8c0-0.3,0-0.5,0.1-0.8V7.8c0,0,0-0.1,0-0.2
					c-0.1-0.3-0.1-0.6-0.1-0.9c0-0.1,0-0.2,0-0.4c0-0.4,0-0.8,0-1.2c0-0.2,0.1-0.5,0.2-0.7l0.1-0.1c-0.1,0.6,0.1,1.1,0.5,1.6
					l5.3-2.9c0.7,0.8,0.9,1.9,0.4,2.8c0,0.1,0,0.3,0,0.4s0,0.4,0,0.6c0,0.1,0,0.1,0,0.2c0.1,0.4,0.1,0.7,0.1,1.1v0.2
					c0,0.4,0,0.7-0.1,1.1v0.2c0,0.2-0.1,0.4-0.1,0.6v0.3c0,0.1,0,0.2,0,0.3c0,0.3,0,0.7,0,1c0,0.1,0,0.1,0,0.2c0,0.3,0,0.7,0,1
					s0,0.5,0,0.8c0,0.6,0.1,0.9,0.1,1.1c0.2,0.7,0.2,1.5,0.1,2.2C766.5,17.3,766.4,17.5,766.4,17.7z M759.8,11.4L759.8,11.4z"/>
				<path class="st1" d="M775.1,18.1l-6.4-0.7c0-0.1,0-0.2,0-0.2c-0.2-0.5-0.2-1.1-0.3-1.6v-0.2v-0.2c0-0.2,0.1-0.3,0.2-0.5
					c0,0,0-0.1,0-0.1s0-0.3,0-0.4c0-0.2,0-0.4-0.1-0.6c-0.1-0.4-0.1-0.8-0.1-1.2c0-0.2,0-0.4,0-0.6c0-0.5,0-1,0-1.4
					c0-0.4,0.1-0.8,0.1-1.3V8.8c0-0.2,0-0.4,0-0.5s0-0.4,0-0.6V7.5c0-0.2,0-0.4,0-0.5c0-0.4,0-0.7,0-1c0-0.2,0.1-0.4,0.1-0.6
					c0-0.1,0-0.2,0-0.2c0-0.2,0-0.4,0-0.5c0.1,0.7,0.7,1.4,1.6,1.8l3.4-4.2c1.8,0.8,1.6,2.3,1.5,3.3v0.1c0,0.3-0.1,0.5-0.1,0.8
					c0,0.2,0,0.4,0,0.6c0,0.2,0,0.5,0,0.8V8c0,0.1,0,0.2,0,0.2v0.1c0,0.2,0,0.4,0,0.5c0,0.5,0,1-0.1,1.6c0,0.3,0,0.5,0,0.8
					c0,0.3,0,0.6,0,0.8c0,0.2,0,0.4,0.1,0.7c0.1,0.4,0.1,0.8,0.1,1.2c0,0.1,0,0.2,0,0.2c0,0.3,0,0.7,0,1c0,0.2-0.1,0.3-0.1,0.5
					c0,0.1,0,0.2,0.1,0.4C775.3,16.7,775.3,17.4,775.1,18.1z M775,6.5L775,6.5z"/>
				<path class="st1" d="M726.1,17.8v-0.3c-0.1-0.7,0-1.4,0.1-2.1v-0.1v-0.4v-0.7v-0.3c0-0.6,0-1.3,0-2c0.1-0.5,0.1-1,0-1.5
					c0-0.4,0-0.7,0-1.1c0-0.1,0-0.2,0-0.4c-0.2-1.1-0.3-2.3-0.1-3.4c0-0.4,0-0.8,0-1.2h6.5c0,0.5,0,1-0.1,1.5
					c-0.1,0.7-0.1,1.5,0,2.3c0.1,0.5,0.1,1,0.1,1.5c0,0.1,0,0.3,0,0.4c0.1,0.8,0.1,1.5,0,2.3c0,0.5,0,1.1,0,1.6v0.3v0.6v0.5
					c0,0.4,0,0.7-0.1,1.1c0,0.3,0,0.6,0,0.9v0.4L726.1,17.8z"/>
				<path class="st1" d="M741.1,17.7h-6.5c0-0.4,0-0.7,0.1-1.1c0.1-0.3,0.1-0.6,0-0.9c-0.1-0.6-0.2-1.2-0.2-1.8c0-0.3,0-0.6,0-0.9
					s0-0.6,0-0.9c0-0.2,0-0.5,0-0.7c0,0,0-0.1,0-0.1s0-0.3,0-0.5v-0.2c0-0.5,0-1.1,0.1-1.6V8.8c0-0.3,0-0.5,0.1-0.8V7.8
					c0-0.1,0-0.1,0-0.2c-0.1-0.3-0.1-0.6-0.1-0.9c0-0.1,0-0.2,0-0.4c0-0.4,0-0.8,0-1.2c0-0.2,0.1-0.5,0.2-0.7V4.2
					c-0.1,0.6,0.1,1.1,0.5,1.6l5.3-2.9c0.7,0.8,0.9,1.9,0.4,2.8c0,0.1,0,0.3,0,0.5s0,0.4,0,0.5c0,0.1,0,0.1,0,0.2
					C741,7.3,741,7.6,741,8v0.2c0,0.4,0,0.7-0.1,1.1v0.2c0,0.2-0.1,0.4-0.1,0.6v0.3v0.3c0,0.3,0,0.7,0,1c0,0,0,0.1,0,0.1
					c0,0.3,0,0.7,0,1c0,0.4,0,0.5,0,0.8c0,0.6,0,0.9,0.1,1.1c0.2,0.7,0.2,1.5,0.1,2.2C741.1,17.3,741.1,17.5,741.1,17.7z"/>
				<path class="st1" d="M749.8,18.1l-6.4-0.7c0-0.1,0-0.2,0-0.2c-0.1-0.5-0.2-1.1-0.3-1.6v-0.2l0.1-0.2c0-0.2,0.1-0.3,0.2-0.5
					c0,0,0-0.1,0-0.1s0-0.3,0-0.4c0-0.1,0-0.4-0.1-0.7c-0.1-0.4-0.1-0.8-0.1-1.2c0-0.2,0-0.4,0-0.6c0-0.5,0-1,0-1.4
					c0-0.4,0.1-0.8,0.1-1.3V8.8c0-0.2,0-0.4,0-0.5s0-0.4,0-0.6V7.5c0-0.2,0-0.4,0-0.5c0-0.4,0-0.7,0-1c0-0.2,0.1-0.4,0.1-0.6
					c0-0.1,0-0.1,0-0.2c0-0.2,0-0.4,0-0.5c0.1,0.7,0.6,1.4,1.5,1.8l3.5-4.2c1.8,0.9,1.6,2.3,1.5,3.3v0.1c0,0.3-0.1,0.5-0.1,0.8
					c0,0.2,0,0.4,0,0.6s0,0.5,0,0.8v0.3c0,0.1,0,0.2,0,0.2v0.1c0,0.2,0,0.4,0,0.5c0,0.5,0,1-0.1,1.6c0,0.3,0,0.5,0,0.8
					c0,0.3,0,0.6,0,0.8c0,0.2,0,0.4,0.1,0.6c0.1,0.4,0.1,0.8,0.1,1.2c0,0.1,0,0.1,0,0.2c0,0.3,0,0.7,0,1c0,0.2-0.1,0.3-0.1,0.5
					c0,0.1,0,0.2,0.1,0.4C749.9,16.7,749.9,17.4,749.8,18.1z M743.4,5.2C743.4,5.2,743.4,5.3,743.4,5.2
					C743.4,5.3,743.4,5.2,743.4,5.2z"/>
				<path class="st1" d="M700.3,17.8v-0.3c-0.1-0.7-0.1-1.4,0.1-2.1v-0.1v-0.4c0-0.2,0-0.5,0-0.7v-0.3c0-0.6,0-1.3,0-2
					c0-0.5,0-1,0-1.5c0-0.4,0-0.7,0-1.1c0-0.1,0-0.2,0-0.4c-0.2-1.1-0.3-2.3-0.1-3.4c0-0.4,0.1-0.8,0.1-1.2h6.5c0,0.5,0,1-0.1,1.5
					c-0.1,0.7-0.1,1.5,0,2.3c0.1,0.5,0.1,1,0.1,1.5c0,0.1,0,0.2,0,0.4c0.1,0.8,0.1,1.5,0,2.3c0,0.5,0,1,0,1.6v0.3c0,0.2,0,0.4,0,0.6
					v0.5c0,0.4,0,0.7-0.1,1.1c0,0.3,0,0.6,0,0.9v0.4L700.3,17.8z"/>
				<path class="st1" d="M715.3,17.7h-6.5c0-0.4,0-0.7,0.1-1.1c0.1-0.3,0.1-0.6,0-0.9c-0.1-0.6-0.2-1.2-0.2-1.8c0-0.3,0-0.6,0-0.9
					c0-0.3,0-0.6,0-0.9c0-0.2,0-0.5,0-0.7c0,0,0-0.1,0-0.1s0-0.3,0-0.5v-0.2c0-0.5,0-1.1,0.1-1.6V8.8c0-0.3,0.1-0.5,0.1-0.8V7.8
					c0-0.1,0-0.1,0-0.2c-0.1-0.3-0.1-0.6-0.1-1c0-0.1,0-0.2,0-0.4c0-0.4,0-0.8,0-1.2c0-0.2,0.1-0.5,0.2-0.7V4.2
					c-0.1,0.6,0.1,1.1,0.5,1.6l5.3-2.9c0.7,0.8,0.9,1.9,0.4,2.8c0,0.1,0,0.3,0,0.5s0,0.4,0,0.5c0,0.1,0,0.1,0,0.2
					c0.1,0.4,0.1,0.7,0.1,1.1v0.2c0,0.4,0,0.7-0.1,1.1v0.2c0,0.2,0,0.4,0,0.6v0.3c0,0.1,0,0.2,0,0.3c0,0.3,0,0.7,0,1
					c0,0,0,0.1,0,0.1c0,0.3,0,0.7,0,1s0,0.5,0,0.8c0,0.6,0,0.9,0.1,1.1c0.2,0.7,0.2,1.5,0.1,2.2C715.3,17.3,715.3,17.5,715.3,17.7z"
					/>
				<path class="st1" d="M724,18.1l-6.4-0.7c0-0.1,0-0.2,0-0.2c-0.1-0.5-0.2-1.1-0.3-1.6v-0.3l0.1-0.2c0-0.2,0.1-0.3,0.2-0.5
					c0,0,0-0.1,0-0.1c0-0.1,0-0.3,0-0.4c0-0.1,0-0.4-0.1-0.6c-0.1-0.4-0.1-0.8-0.1-1.2c0-0.2,0-0.4,0-0.6c0-0.5,0-1,0-1.4
					c0-0.4,0.1-0.8,0.1-1.3V8.8c0-0.2,0-0.4,0-0.5c0-0.2,0-0.4,0-0.6V7.5c0-0.2,0-0.3,0-0.5c0-0.3,0-0.7,0-1c0-0.2,0.1-0.4,0.2-0.6
					c0-0.1,0-0.1,0-0.2s0-0.4,0-0.5c0.1,0.7,0.6,1.4,1.5,1.8l3.4-4.2c1.8,0.9,1.6,2.3,1.5,3.3v0.1c0,0.3-0.1,0.5-0.1,0.8
					c0,0.2,0,0.4,0,0.5c0,0.3,0,0.5,0,0.8V8c0,0.1,0,0.2,0,0.2v0.1c0,0.2,0,0.4,0,0.5c0,0.5,0,1-0.1,1.6c0,0.3,0,0.5,0,0.8
					c0,0.3,0,0.5,0,0.8s0,0.4,0.1,0.7c0.1,0.4,0.1,0.8,0.1,1.2c0,0.1,0,0.2,0,0.2c0,0.3,0,0.7,0,1c0,0.2-0.1,0.3-0.1,0.5
					c0,0.1,0.1,0.2,0.1,0.4C724.2,16.7,724.2,17.4,724,18.1z M724,6.5L724,6.5z"/>
			</g>
		</g>
	</g>
</g>
</svg>
