<svg xmlns="http://www.w3.org/2000/svg" viewBox="0 0 664.68 7.77"><defs><style>.cls-1{fill:#89c681;stroke:#89c681;stroke-linecap:round;stroke-linejoin:round;stroke-width:.9px}</style></defs><g id="レイヤー_2" data-name="レイヤー 2"><g id="文字_写真" data-name="文字＆写真"><path class="cls-1" d="m160.39 1.35-.27.31.41.4c.13 0 .29 0 .39.1a.41.41 0 0 1 .05.27.26.26 0 0 0 .05.12c.06.07.14.13.21.2s-.16.21-.24.31 0 .18 0 .28l-.56.6.21.21a.21.21 0 0 1 0 .1c-.3.32-.3.19 0 .51 0 .07-.06.12-.13.2a.61.61 0 0 1-.61.26.36.36 0 0 0-.37.15.27.27 0 0 1-.23.14h-.43c-.26-.12-.39-.4-.67-.56h-1.11l-.4-.43a3 3 0 0 1 0-.55l-.27-.31V1.99l1.3-1.33h.52l.31.28a5 5 0 0 1 .87 0 .58.58 0 0 0 .6.26.38.38 0 0 1 .15 0 .27.27 0 0 1 .22.15ZM158 1.8a2.61 2.61 0 0 0-.28 0 .26.26 0 0 0-.09.09c0 .07 0 .14.09.2h.56s.08-.05.1-.09 0-.15-.1-.19a.87.87 0 0 0-.28-.01Zm2.39 1.32c0-.06 0-.12-.09-.19l-.1.1c0 .06 0 .13.1.19Zm-43.44.43v-.43c0-.19 0-.25.23-.29.36-.06.36-.06.32-.44l-.2-.21s-.07-.07-.07-.11a.59.59 0 0 0 0-.27l-.81-.8V.86c0-.25-.09-.32-.35-.31a2.64 2.64 0 0 0-.69 0c-.13.14-.25.29-.47.25a.2.2 0 0 0-.12.06c-.07.06-.12.15-.2.19s-.19 0-.27 0-.22.18-.32.27h-.26l-1 1.05v1.18c-.09.11-.19.21-.28.31l.28.3a2.46 2.46 0 0 0 0 .28.17.17 0 0 0 .1.1c.4.13.4.13.59.31h2l.3-.28h.26Zm28.32.45a.23.23 0 0 1 0-.1l.2-.21a2.53 2.53 0 0 0 0-.28l.58-.61v-.53l.4-.41c.39 0 .39 0 .45-.36s.09-.23.42-.23l.3-.28s.08.07.1.11 0 .36.2.43c.15-.09.1-.24.12-.37a.2.2 0 0 1 .19-.17h.71a.7.7 0 0 1 .14 0 .55.55 0 0 0 .6.25h.14c.13 0 .22.12.22.29v.13l.29.31v.28l.2.2a.29.29 0 0 1 .07.26.27.27 0 0 1-.13.23.37.37 0 0 0-.15.22 4.73 4.73 0 0 1 0 .84.57.57 0 0 0-.25.46c0 .15-.1.22-.29.21h-.13l-.3.27h-.84l-.32-.28a6.07 6.07 0 0 0-.86 0 1.89 1.89 0 0 1-.2.2s-.08 0-.1 0-.25-.28-.47-.24-.21-.17-.32-.25-.2.15-.3.24a8.9 8.9 0 0 1-.67-.61Zm2.54-1.19v.42a.22.22 0 0 0 .09.24c.07 0 .12 0 .2-.08a3.83 3.83 0 0 1 .29-.28c0-.15.05-.3-.1-.39s-.29-.04-.48.12Zm-.67.1s.09-.06.09-.09 0-.07-.09-.1a.37.37 0 0 0-.26 0 .35.35 0 0 0-.21.15.3.3 0 0 0 .21.14.33.33 0 0 0 .26-.07ZM25.45 5H23.77l-.31-.27H23c-.15 0-.23-.09-.24-.27v-.2L22.49 4l.27-.29-.41-.41-.3.27h-.29l-.41-.41c.09-.1.17-.2.27-.3v-.32l1-1h.26a8.36 8.36 0 0 1 .63-.54 6.09 6.09 0 0 1 .85 0 .6.6 0 0 0 .6.26 3 3 0 0 1 .42 0h.1l.43.39v1c0 .11 0 .2.11.24s.13 0 .2-.11l.1-.11a.18.18 0 0 1 .16.17 1.46 1.46 0 0 1 0 .55s-.07.07-.11.12h-.41a.23.23 0 0 0-.25.09c-.05.06 0 .13.08.2a.38.38 0 0 1 .15.36c0 .35 0 .36-.25.61ZM25 2.28c0-.06 0-.12-.1-.19s-.07.06-.09.1 0 .13.09.19Zm49.28 1.31c0-.17-.09-.28-.23-.28h-.74L73 3h-.51a.48.48 0 0 1-.15 0l-.21-.2c-.31 0-.41 0-.43.21a.59.59 0 0 1 0 .27c-.1.15-.26.07-.39.1l-.41.41v.51l-.29.32v1.71l.72.71h.83l.32.29h.28l.21-.21L73 7c.3 0 .44-.1.38-.42l.39-.4c.14-.14.27-.28.41-.41s0-.27.1-.39.22-.18.25-.32a.31.31 0 0 0-.06-.27l-.2-.2c0-.15.16-.2.24-.31s0-.18 0-.28l-.28-.31a.65.65 0 0 1 .05-.1Zm18.3-1.88a3.27 3.27 0 0 1 .56-.62c.14-.16.15-.15.36-.16.37 0 .37 0 .61-.25a3.94 3.94 0 0 1 .84 0c.34 0 .34 0 .61.27a4.09 4.09 0 0 0 .7 0c.18 0 .31.07.32.19a.37.37 0 0 1-.13.38c-.19.13-.14.32-.15.51a.38.38 0 0 0 .15.36l.1.1v.1a2.08 2.08 0 0 1-.21.21v1.13l-.58.61c0 .15 0 .3-.11.39s-.2-.17-.32-.24-.17 0-.28 0l-.3.29c-.13 0-.29 0-.38-.11a.47.47 0 0 1 0-.27s0-.08-.06-.11a.53.53 0 0 0-.1-.06c-.1.07-.16.21-.31.23a.58.58 0 0 0-.61-.25c-.26 0-.22 0-.36-.15l-.27-.28v-.62c.17-.17.17-.17 0-.52a.28.28 0 0 1 0-.12c-.08-.34-.08-.67-.08-1.01Zm2.58.07a.33.33 0 0 0 0-.14.38.38 0 0 0-.09-.09c-.07 0-.14 0-.19.11s0 .09 0 .13A.18.18 0 0 0 95 2c.07.08.16 0 .16-.22Zm34.05 0 .27-.31-.21-.2c-.11-.11 0-.27-.1-.39l-.11-.11h-.85l-.31.28h-1.66l-1 1v.29a.5.5 0 0 0-.26.58v.28a.55.55 0 0 1 .27.46c0 .14.16.21.24.32a.58.58 0 0 0 .47.2l.32.26h.72c.09 0 .15-.07.23-.14s.35-.21.58 0l.12.11.3-.27h.55L129 4l.2-.2c0-.15-.16-.21-.24-.31l.27-.31ZM102 3.05l.28-.31a2.72 2.72 0 0 0 0-.28c.17-.17.16-.17.31-.59 0 0 .06-.1.09-.1h.58l.3-.29H105l1 1V3.9l-.29.31c0 .3-.07.44-.38.42 0 0-.08 0-.11.06l-.78.79H103l-.5-.5c-.12-.1-.28 0-.4-.11s-.09-.07-.09-.1c-.01-.58-.01-1.15-.01-1.72Zm2.72-.16a.32.32 0 0 0-.1.1.35.35 0 0 0 0 .37s.07.07.1.1a.32.32 0 0 0 .14-.22c.05-.14-.03-.35-.11-.35Zm31.77 1-.31-.28c-.41 0-.41 0-.42-.39V1.79a5.8 5.8 0 0 1 .47-.52c.13-.14.26-.28.48-.24a1.19 1.19 0 0 0 .32-.28h.56l.31-.3h1.14l.3.28h.29c.14.13.27.27.41.41v.28l-.27.3V2l.1.11c.2.19.2.19.16.49s-.34.33-.51.51 0 .34-.19.49-.54.53-.81.8a.37.37 0 0 1-.49-.13 1.14 1.14 0 0 0-.11-.11h-.84l-.32-.3Zm1.84-2.08a.36.36 0 0 0 0-.11l-.1-.1a.35.35 0 0 0-.14.22c0 .14.08.37.14.35a.26.26 0 0 0 .14-.22.65.65 0 0 0-.01-.14Zm-54.5.88-.3-.28c-.35 0-.39 0-.42.24s-.08.36-.45.31a.62.62 0 0 0-.61-.26c-.23 0-.23 0-.36.14l-.29.3v1.71l.29.31v.53l.7.73H84c.17 0 .28-.08.28-.22V6c0-.13 0-.28.06-.4s.25-.07.37-.1l.71-.7V3.37l-.29-.31v-.23l-.42-.42c-.09.09-.19.19-.3.28Zm-49.35-.8.41-.41h.55l.32-.29h.56l.11-.1a1.18 1.18 0 0 1 .24-.19.76.76 0 0 1 .26 0l.31-.27a5.4 5.4 0 0 1 .82 0l.44.37v.29a3.8 3.8 0 0 1 .28.33.77.77 0 0 1 0 .26l.26.31a3.26 3.26 0 0 0 0 .45.62.62 0 0 1-.24.62.13.13 0 0 0 0 .12c0 .23-.14.33-.26.47s-.09.37-.1.38a.3.3 0 0 1-.26.08.23.23 0 0 0-.23.13.41.41 0 0 1-.36.16h-.86a.28.28 0 0 1-.12 0l-.81-.8-.31.2a.29.29 0 0 1-.13-.23.29.29 0 0 1 .07-.26l.2-.2a.2.2 0 0 0-.19-.15.59.59 0 0 1-.27-.05l-.1-.1v-.39c0-.18 0-.25-.23-.28-.36-.07-.36-.07-.33-.45Zm1.18.63.09.1c.1-.07.14-.13.1-.19l-.1-.1c-.06.07-.09.13-.06.19ZM11.18 3.58l.94-1c.06-.06 0-.13-.09-.19h-.28c-.17-.17-.2-.37-.09-.49l.3-.3a1.16 1.16 0 0 1 .14-.09h.53a.59.59 0 0 1 .61-.28 2.55 2.55 0 0 1 .55 0l.51.52h.41c.25 0 .32.08.33.32s0 .28 0 .42a.59.59 0 0 1 .28.6 7.86 7.86 0 0 1 0 .84c-.13.13-.29.24-.26.47a.15.15 0 0 1 0 .12l-.66.67h-2.25c-.16 0-.24-.08-.25-.26v-.05c-.18-.19-.38-.39-.56-.59a.22.22 0 0 1 .23-.13c.14 0 .26 0 .3-.18-.14-.13-.27-.26-.4-.4ZM15 3.19c0-.07 0-.13-.09-.19a.76.76 0 0 0-.09.09c0 .06 0 .13.09.19Zm46.85 1.89c.39 0 .4 0 .41-.4.24-.34.6-.57.83-.92l-.1-.1c-.16-.16-.16-.16-.16-.36s.05-.38-.15-.51h-.28a4.76 4.76 0 0 0-.62-.57 2.09 2.09 0 0 1-.56 0L61 2a.18.18 0 0 0-.12-.05.91.91 0 0 0-.75.25.21.21 0 0 1-.13 0c-.23 0-.32.16-.46.28h-.14c-.19 0-.31.07-.3.21s-.12.34-.24.47a.37.37 0 0 0 0 .39c.06.08.15.08.25.09s.39-.09.53.11a6.22 6.22 0 0 1-.54.6v.29l.42.41h.56l.31.29h1.13Zm-58.5-.49a.11.11 0 0 1 .08-.08c.06 0 .13 0 .17.13s0 .08 0 .12-.09 0-.06 0h.35a.26.26 0 0 0 .29-.23.65.65 0 0 1 0-.14.6.6 0 0 0-.28-.61v-.57A.94.94 0 0 1 4.06 3c.12-.08.13-.14 0-.2A.38.38 0 0 0 4 2.76a.47.47 0 0 1-.27 0c-.09 0-.1 0-.1-.39v-.32c-.07-.12-.14-.15-.21-.08l-.2.2a.52.52 0 0 0-.49.2.5.5 0 0 1-.1.11h-1.2l-.28.3c-.15.16-.15.16-.59.31a.13.13 0 0 0-.09.1v1.4l1.05 1h.23L2 5.9l.3-.27a6.07 6.07 0 0 0 .86 0l.4-.41a1.07 1.07 0 0 0-.06-.43c-.11-.07-.16-.13-.15-.2Zm48.79-2h-.13c-.34-.07-.34-.07-.36-.44 0 0-.06-.09-.1-.1-.43-.15-.43-.15-.6-.31h-1.42l-.29.26c-.17.17-.15.11-.15.37a.65.65 0 0 0 0 .14.37.37 0 0 1-.05.26c-.1.15-.25.08-.39.1a.87.87 0 0 0-.09.11c-.12.26 0 .44.28.46s.24.06.26.25 0 .23-.18.29l-.2-.2a.35.35 0 0 0-.39 0 .19.19 0 0 0-.09.24.66.66 0 0 1 0 .14c.14.13.27.27.38.38s.3 0 .41.12l.48.49h2l1-1-.41-.4a3.38 3.38 0 0 0-.55 0s-.08 0-.11-.07-.07-.07-.07-.11a1.23 1.23 0 0 1 0-.27l.39-.41h.44a.18.18 0 0 0-.06-.3Zm-40.82 1h-.12c-.03 0-.14.1-.13.16a.14.14 0 0 0 .09.09c.06 0 .12 0 .16-.13s0-.08 0-.13Zm41.05-.75c-.13-.05-.18 0-.13.13s.11.14.17.13.08-.06.08-.09a.18.18 0 0 0-.12-.18ZM1.87 1.62a.48.48 0 0 0-.12 0c-.09 0-.14.11-.13.17s0 .08.08.09.13 0 .17-.13 0-.09 0-.13Zm0-.12c-.05.12 0 .17.13.12s.14-.11.13-.17-.06-.08-.13-.08-.09.04-.13.13ZM328.06 1.35l-.27.31.41.4c.13 0 .29 0 .39.1a.41.41 0 0 1 .05.27.18.18 0 0 0 .05.12l.2.2c0 .15-.15.21-.23.31s0 .18 0 .28l-.56.6c.08.08.15.14.21.21a.38.38 0 0 1 0 .1c-.29.32-.3.19 0 .51 0 .07-.07.12-.13.2a.62.62 0 0 1-.61.26.36.36 0 0 0-.37.15.28.28 0 0 1-.23.14h-.43c-.26-.12-.39-.4-.67-.56h-1.11l-.41-.43a3.13 3.13 0 0 1 0-.55l-.28-.31V2l1.31-1.34h.53l.31.28a5 5 0 0 1 .87 0 .57.57 0 0 0 .6.26.33.33 0 0 1 .14 0 .28.28 0 0 1 .23.15Zm-2.43.45a2.62 2.62 0 0 0-.28 0s-.07.06-.1.09 0 .14.1.2h.56L326 2s0-.15-.1-.19a.88.88 0 0 0-.27-.01ZM328 3.12c0-.06 0-.12-.1-.19a.43.43 0 0 0-.09.1c0 .06 0 .13.1.19Zm-43.44.43v-.43c0-.14.05-.25.24-.29.35-.06.35-.06.31-.44l-.2-.21a.17.17 0 0 1-.06-.11.59.59 0 0 0 0-.27L284 1a.68.68 0 0 0 0-.14c0-.25-.08-.32-.34-.31a2.75 2.75 0 0 0-.7 0c-.13.14-.24.29-.46.25a.2.2 0 0 0-.12.06 1.24 1.24 0 0 1-.21.19h-.27c-.09 0-.21.18-.31.27h-.26l-1 1.05v1.18l-.28.31.28.3a1.27 1.27 0 0 0 0 .28.17.17 0 0 0 .1.1c.4.13.4.13.59.31h2l.3-.28h.25Zm28.37.45a.46.46 0 0 1 .05-.1l.2-.21v-.28l.58-.61v-.56c0-.18.28-.27.41-.41.38 0 .39 0 .44-.36s.09-.23.42-.23l.3-.28a.5.5 0 0 1 .1.11c.07.14 0 .36.21.43.14-.09.1-.24.12-.37A.2.2 0 0 1 316 1h.85a.54.54 0 0 0 .59.25h.15c.13 0 .22.12.22.29v.13l.29.31v.28a2 2 0 0 0 .21.2.29.29 0 0 1 .07.26.29.29 0 0 1-.13.23.44.44 0 0 0-.16.22A3.94 3.94 0 0 1 318 4a.6.6 0 0 0-.26.46c0 .15-.1.22-.28.21h-.13l-.3.27h-.85c-.11-.11-.22-.2-.31-.28a6.07 6.07 0 0 0-.86 0l-.2.2h-.1c-.02 0-.25-.28-.47-.24s-.22-.17-.32-.25-.2.15-.3.24c-.24-.11-.45-.36-.69-.61Zm2.55-1.19v.42a.21.21 0 0 0 .08.24c.07 0 .13 0 .2-.08s.2-.19.29-.28.06-.3-.1-.39-.29-.04-.47.12Zm-.67.1s.09-.06.09-.09-.06-.07-.09-.1a.38.38 0 0 0-.26 0 .37.37 0 0 0-.22.15.32.32 0 0 0 .22.14.34.34 0 0 0 .26-.07ZM193.12 5H191.44l-.31-.27h-.45c-.16 0-.24-.09-.24-.27v-.2l-.28-.3.27-.29-.43-.41-.3.27h-.28c-.14-.13-.27-.27-.41-.41a3.65 3.65 0 0 1 .27-.3v-.28l1-1h.26c.21-.19.39-.41.62-.58A6.09 6.09 0 0 1 192 1a.58.58 0 0 0 .59.26 3.09 3.09 0 0 1 .43 0h.1l.43.39v1c0 .11 0 .2.1.24s.14 0 .2-.11l.1-.11a.2.2 0 0 1 .17.17 1.46 1.46 0 0 1 0 .55s-.06.07-.11.12h-.41a.22.22 0 0 0-.24.09c-.05.06 0 .13.08.2a.38.38 0 0 1 .15.36c0 .35 0 .36-.26.61-.06.07-.14.12-.21.23Zm-.45-2.67c0-.06 0-.12-.09-.19a.94.94 0 0 0-.1.1c0 .06 0 .13.1.19Zm49.27 1.31a.24.24 0 0 0-.23-.28H241l-.35-.36H240l-.2-.2c-.32 0-.41 0-.43.21a.6.6 0 0 1-.06.27c-.09.15-.25.07-.38.1s-.27.27-.41.41v.51l-.29.32v1.71L239 7h.84l.31.29h.29l.2-.21s.08-.08.11-.07c.31 0 .44-.1.39-.42l.39-.4.4-.41c.11-.11 0-.27.11-.39s.21-.18.24-.32a.31.31 0 0 0 0-.27c-.06-.07-.13-.13-.2-.2s.16-.2.23-.31 0-.18 0-.28l-.29-.31Zm18.31-1.88a3.27 3.27 0 0 1 .56-.62c.14-.16.15-.15.36-.16s.36 0 .61-.25a3.94 3.94 0 0 1 .84 0c.33 0 .33 0 .61.27a4.08 4.08 0 0 0 .7 0c.18 0 .31.07.32.19a.39.39 0 0 1-.13.38c-.19.13-.15.32-.15.51a.38.38 0 0 0 .15.36.94.94 0 0 1 .1.1s0 .08 0 .1l-.21.21V3.9l-.57.61c0 .15 0 .3-.12.39s-.19-.17-.31-.24-.18 0-.28 0l-.3.29c-.13 0-.29 0-.38-.11a.47.47 0 0 1 0-.27.17.17 0 0 0-.06-.11s-.06 0-.1-.06-.15.21-.31.23a.57.57 0 0 0-.6-.25c-.26 0-.22 0-.37-.15l-.26-.28v-.59c.17-.17.17-.17 0-.52a.56.56 0 0 1 0-.12Zm2.57.07v-.14a.29.29 0 0 0-.1-.09c-.06 0-.13 0-.18.11s0 .09 0 .13a.2.2 0 0 0 .11.24c.09 0 .18-.08.17-.3Zm34.05 0 .28-.31-.21-.2c-.11-.11 0-.27-.11-.39a.5.5 0 0 0-.1-.11h-.86l-.3.28h-1.66l-1 1v.29a.5.5 0 0 0-.26.58v.28a.56.56 0 0 1 .26.46c0 .14.17.21.25.32a.56.56 0 0 0 .47.2l.31.26h.74c.1 0 .16-.07.23-.14s.36-.21.59 0l.11.11.31-.27h.55l.21-.2a1.89 1.89 0 0 1 .2-.2c0-.15-.16-.21-.24-.31l.27-.31c-.03-.44-.04-.91-.04-1.38ZM269.7 3.05l.28-.31v-.28c.16-.17.16-.17.3-.59 0 0 .06-.1.1-.1h.58l.3-.29h1.42l1 1v1.4l-.28.31c.05.3-.07.44-.39.42 0 0-.07 0-.11.06l-.78.79h-1.42l-.5-.5c-.13-.1-.28 0-.4-.11s-.09-.07-.09-.1c-.01-.56-.01-1.13-.01-1.7Zm2.71-.16a.43.43 0 0 0-.09.1.34.34 0 0 0 .1.47.35.35 0 0 0 .14-.22c.02-.14-.07-.35-.15-.35Zm31.77 1-.3-.28c-.42 0-.42 0-.42-.39V1.79a5.91 5.91 0 0 1 .48-.52c.13-.14.26-.28.47-.24a1.1 1.1 0 0 0 .33-.28h.55l.32-.3h1.13l.31.28h.29l.41.41v.28l-.28.3V2l.11.11c.2.19.19.19.16.49s-.34.33-.51.51 0 .34-.19.49-.54.53-.81.8a.37.37 0 0 1-.49-.13l-.11-.11h-.84l-.32-.3ZM306 1.81a1.17 1.17 0 0 0 0-.11.32.32 0 0 0-.1-.1.35.35 0 0 0-.14.22c0 .14.09.37.15.35A.26.26 0 0 0 306 2Zm-54.5.88-.31-.28c-.35 0-.39 0-.41.24s-.09.36-.46.31a.61.61 0 0 0-.6-.26c-.23 0-.24 0-.37.14l-.28.3v1.71l.3.31v.53l.7.73h1.58c.17 0 .28-.08.29-.22V6c0-.13 0-.28.05-.4s.26-.07.38-.1l.71-.7V3.37l-.29-.31v-.23l-.42-.42-.3.28Zm-49.35-.8.4-.41h.56l.32-.29h.57l.1-.1a1.18 1.18 0 0 1 .21-.18.84.84 0 0 1 .27 0l.31-.27a5.23 5.23 0 0 1 .81 0l.45.39v.29a3.8 3.8 0 0 1 .28.33.77.77 0 0 1 0 .26l.26.31v.45a.6.6 0 0 1-.24.62.16.16 0 0 0 0 .12c0 .23-.13.33-.26.47a1.85 1.85 0 0 1-.1.38.28.28 0 0 1-.25.08c-.1 0-.17 0-.23.13a.42.42 0 0 1-.37.16h-.85a.33.33 0 0 1-.13 0l-.81-.8-.3.27a.29.29 0 0 1-.13-.23.27.27 0 0 1 .07-.26l.2-.2a.21.21 0 0 0-.19-.15.57.57 0 0 1-.27-.05l-.1-.1v-.49c0-.18-.06-.25-.23-.28-.35-.07-.36-.07-.32-.45Zm1.18.63.09.1c.1-.07.13-.13.09-.19a.43.43 0 0 0-.09-.1c-.06.07-.1.13-.06.19Zm-24.48 1.06.94-1c.05-.06 0-.13-.1-.19h-.28c-.16-.17-.19-.37-.08-.49l.3-.3a.68.68 0 0 1 .14-.09h.53a.58.58 0 0 1 .6-.28 2.55 2.55 0 0 1 .55 0l.52.52h.4c.25 0 .33.08.33.32v.42a.59.59 0 0 1 .28.6A7.86 7.86 0 0 1 183 4c-.14.13-.29.24-.26.47v.12l-.67.67h-2.18c-.17 0-.24-.08-.25-.26v-.12l-.64-.59a.24.24 0 0 1 .24-.13.25.25 0 0 0 .3-.18l-.4-.4Zm3.81-.39c0-.07 0-.13-.1-.19l-.09.09c0 .06 0 .13.1.19Zm46.86 1.89c.39 0 .39 0 .41-.4.24-.34.6-.57.83-.92l-.1-.1c-.17-.16-.16-.16-.17-.36s0-.38-.14-.51h-.29a4.76 4.76 0 0 0-.62-.57 2.11 2.11 0 0 1-.56 0l-.2-.2a.18.18 0 0 0-.12-.05.93.93 0 0 0-.76.25.17.17 0 0 1-.12 0c-.23 0-.33.16-.46.28h-.14c-.19 0-.31.07-.3.21a.6.6 0 0 1-.25.47.37.37 0 0 0 0 .39c.06.08.14.08.25.09s.38-.09.52.11a5.13 5.13 0 0 1-.54.6 2.71 2.71 0 0 0 0 .29c.14.13.27.27.41.41h.56l.32.29h1.13ZM171 4.59s.06-.08.09-.08.12 0 .17.13a.48.48 0 0 1 0 .12s-.09 0-.06 0h.35c.17 0 .28-.09.28-.23a.65.65 0 0 1 0-.14.58.58 0 0 0-.27-.61v-.57a1 1 0 0 1 .17-.2c.11-.08.13-.14 0-.2a.26.26 0 0 0-.12-.05.44.44 0 0 1-.26 0c-.1 0-.1 0-.1-.39v-.32c-.08-.12-.14-.15-.21-.08l-.21.2a.51.51 0 0 0-.48.2s-.07.07-.1.11h-1.15l-.28.3c-.16.16-.16.16-.59.31 0 0-.1.06-.1.1v1.4l1 1h.23l.31.27.3-.27a6.07 6.07 0 0 0 .86 0l.4-.41a1.07 1.07 0 0 0-.06-.43c-.11-.03-.17-.09-.17-.16Zm48.79-2a.42.42 0 0 0-.12 0c-.34-.07-.34-.07-.36-.44 0 0-.06-.09-.1-.1-.44-.15-.44-.15-.6-.31h-1.43l-.28.26c-.16.17-.15.11-.14.37a.65.65 0 0 0 0 .14.37.37 0 0 1 0 .26c-.1.15-.26.08-.39.1s-.08.07-.09.11c-.12.26 0 .44.27.46s.24.06.26.25 0 .23-.17.29-.13-.14-.2-.2a.35.35 0 0 0-.39 0 .19.19 0 0 0-.1.24s0 .09 0 .14l.38.38c.14.08.3 0 .41.12l.47.49h2l1-1-.41-.4a3.44 3.44 0 0 0-.56 0 .23.23 0 0 1-.11-.07s-.07-.07-.07-.11a2.48 2.48 0 0 1 0-.27l.39-.41h.44a.18.18 0 0 0-.09-.3ZM179 3.58a.29.29 0 0 0-.13 0c-.08 0-.13.1-.12.16s0 .08.08.09.13 0 .17-.13 0-.07 0-.12Zm41-.75c-.12-.05-.17 0-.12.13s.1.14.17.13.08-.06.08-.09-.01-.13-.13-.17Zm-50.46-1.21a.57.57 0 0 0-.13 0c-.08 0-.13.11-.12.17s.05.08.08.09.13 0 .17-.13a.57.57 0 0 0 0-.13Zm0-.12c0 .12 0 .17.13.12a.18.18 0 0 0 .12-.17.11.11 0 0 0-.08-.08c-.06-.01-.13.04-.17.13ZM495.72 1.35l-.27.31.41.4c.14 0 .29 0 .39.1a.49.49 0 0 1 .06.27.15.15 0 0 0 .05.12l.2.2c0 .15-.16.21-.24.31s0 .18 0 .28l-.56.6.21.21a.38.38 0 0 1 0 .1c-.3.32-.3.19 0 .51 0 .07-.07.12-.14.2a.61.61 0 0 1-.61.26.34.34 0 0 0-.36.15.28.28 0 0 1-.23.14h-.43c-.26-.12-.39-.4-.68-.56h-1.1l-.42-.43a2.39 2.39 0 0 1 0-.52l-.28-.31V2.02l1.33-1.36h.52l.32.28a5.06 5.06 0 0 1 .87 0 .57.57 0 0 0 .6.26.33.33 0 0 1 .14 0 .26.26 0 0 1 .22.15Zm-2.42.45a2.61 2.61 0 0 0-.28 0 .22.22 0 0 0-.1.09c0 .07 0 .14.1.2h.56s.07-.05.1-.09 0-.15-.11-.19a.82.82 0 0 0-.27-.01Zm2.39 1.32c0-.06 0-.12-.1-.19a.43.43 0 0 0-.09.1c0 .06 0 .13.09.19Zm-43.45.43v-.43c0-.19.05-.25.23-.29.36-.06.36-.06.32-.44l-.2-.21a.17.17 0 0 1-.06-.11.77.77 0 0 0 0-.27l-.81-.8a.68.68 0 0 1 0-.14c0-.25-.09-.32-.34-.31a2.72 2.72 0 0 0-.7 0c-.13.14-.25.29-.47.25a.2.2 0 0 0-.21.1c-.08.06-.13.15-.21.19s-.18 0-.27 0-.21.18-.31.27h-.27l-1 1.05v1.08l-.29.31.28.3a2.4 2.4 0 0 0 0 .28.13.13 0 0 0 .1.1c.4.13.4.13.59.31h2l.3-.28h.25ZM480.6 4v-.1l.2-.21a2.72 2.72 0 0 1 0-.28l.57-.61v-.53l.41-.41c.38 0 .38 0 .44-.36s.09-.23.42-.23L483 1a.5.5 0 0 1 .1.11c.07.14 0 .36.2.43.15-.09.11-.24.13-.37a.19.19 0 0 1 .19-.17h.84a.55.55 0 0 0 .6.25h.14a.26.26 0 0 1 .23.29v.13l.28.31v.28l.2.2a.3.3 0 0 1 .08.26.29.29 0 0 1-.13.23.38.38 0 0 0-.16.22 4.72 4.72 0 0 1 0 .84.55.55 0 0 0-.26.46c0 .15-.1.22-.29.21H485l-.29.27h-.85l-.32-.28a5.93 5.93 0 0 0-.85 0l-.2.2h-.1c-.01 0-.25-.28-.47-.24s-.22-.17-.33-.25-.2.15-.3.24c-.24-.12-.45-.37-.69-.62Zm2.54-1.19v.42a.23.23 0 0 0 .09.24c.07 0 .12 0 .2-.08s.2-.19.29-.28 0-.3-.1-.39-.29-.04-.48.12Zm-.67.1s.09-.06.09-.09-.05-.07-.09-.1a.37.37 0 0 0-.26 0 .38.38 0 0 0-.21.15.32.32 0 0 0 .22.14.3.3 0 0 0 .25-.07ZM360.79 5h-1.69l-.31-.27h-.44c-.16 0-.24-.09-.24-.27v-.2l-.28-.3a3.58 3.58 0 0 1 .26-.29c-.14-.15-.28-.28-.41-.41l-.3.27h-.28l-.42-.41.27-.3v-.28l1-1h.26a8.36 8.36 0 0 1 .61-.58 6.18 6.18 0 0 1 .86 0 .58.58 0 0 0 .59.26 3.09 3.09 0 0 1 .43 0h.09l.43.39v1c0 .11 0 .2.11.24s.13 0 .2-.11l.1-.11a.2.2 0 0 1 .17.17 1.7 1.7 0 0 1 0 .55s-.06.07-.11.12h-.41a.23.23 0 0 0-.25.09c0 .06 0 .13.09.2a.38.38 0 0 1 .15.36c0 .35 0 .36-.26.61Zm-.45-2.67c0-.06 0-.12-.1-.19s-.07.06-.09.1 0 .13.09.19a.47.47 0 0 0 .1-.15Zm49.27 1.31c0-.17-.09-.28-.23-.28h-.74l-.32-.36h-.52a.48.48 0 0 1-.13-.09l-.2-.2c-.32 0-.41 0-.43.21a.76.76 0 0 1-.06.27c-.1.15-.25.07-.39.1l-.4.41v.6l-.3.32v1.71l.72.71h.84l.31.29h.29l.2-.21s.08-.08.11-.07c.3 0 .44-.1.39-.42.12-.14.26-.27.39-.4l.4-.41c.11-.11 0-.27.1-.39s.22-.18.25-.32a.31.31 0 0 0 0-.27c-.06-.07-.14-.13-.2-.2s.15-.2.23-.31 0-.18 0-.28l-.29-.31Zm18.3-1.88a3.65 3.65 0 0 1 .56-.62c.15-.16.15-.15.37-.16s.36 0 .61-.25a3.91 3.91 0 0 1 .84 0c.33 0 .33 0 .6.27a4.21 4.21 0 0 0 .71 0c.17 0 .3.07.31.19a.35.35 0 0 1-.13.38c-.18.13-.14.32-.15.51a.39.39 0 0 0 .16.36l.1.1v.1l-.2.21V3.9c-.19.21-.39.41-.58.61 0 .15 0 .3-.11.39s-.19-.17-.31-.24-.18 0-.29 0l-.29.29c-.14 0-.29 0-.39-.11a.57.57 0 0 1 0-.27.17.17 0 0 0-.06-.11.53.53 0 0 0-.1-.06c-.1.07-.15.21-.31.23a.57.57 0 0 0-.6-.25c-.27 0-.22 0-.37-.15l-.26-.28v-.58c.17-.17.17-.17 0-.52a.28.28 0 0 1 0-.12c-.11-.35-.11-.68-.11-1.02Zm2.58.07a.66.66 0 0 0 0-.14.29.29 0 0 0-.1-.09c-.06 0-.14 0-.19.11s0 .09 0 .13a.19.19 0 0 0 .1.24c.1 0 .2-.08.19-.3Zm34.05 0 .27-.31-.21-.2c-.1-.11 0-.27-.1-.39s-.07-.07-.1-.11h-.86l-.31.28h-1.65l-1.05 1v.29a.52.52 0 0 0-.27.58 2.36 2.36 0 0 1 0 .28.56.56 0 0 1 .26.46c0 .14.16.21.24.32a.58.58 0 0 0 .47.2l.32.26h.74a.36.36 0 0 0 .23-.14c.21-.22.36-.21.59 0a1.13 1.13 0 0 0 .11.11l.31-.27h.55l.2-.2.21-.2c0-.15-.16-.21-.25-.31l.28-.31c.02-.44.02-.91.02-1.38Zm-27.18 1.22.29-.31a2.53 2.53 0 0 1 0-.28c.16-.17.16-.17.3-.59 0 0 .06-.1.1-.1h.58l.29-.29h1.43l1 1V3.9l-.29.31c.05.3-.07.44-.38.42 0 0-.08 0-.11.06l-.78.79h-1.44l-.51-.5c-.12-.1-.28 0-.39-.11s-.1-.07-.1-.1c.02-.58.01-1.15.01-1.72Zm2.72-.16a.94.94 0 0 0-.1.1.33.33 0 0 0 0 .37.43.43 0 0 0 .09.1.32.32 0 0 0 .14-.22c.04-.14-.05-.35-.13-.35Zm31.77 1-.31-.28c-.41 0-.41 0-.41-.39V1.79a4.69 4.69 0 0 1 .48-.52c.12-.14.25-.28.47-.24a1.41 1.41 0 0 0 .33-.28h.59l.32-.3h1.13l.31.28h.28l.41.41v.28l-.28.3V2a1.14 1.14 0 0 0 .11.11c.19.19.19.19.15.49l-.51.51c-.05.16 0 .34-.19.49s-.54.53-.8.8a.37.37 0 0 1-.49-.13l-.11-.11h-.85l-.31-.3Zm1.85-2.08a1.17 1.17 0 0 0-.05-.11.47.47 0 0 0-.1-.1.35.35 0 0 0-.14.22c0 .14.09.37.14.35a.27.27 0 0 0 .15-.17Zm-54.5.88-.31-.28c-.35 0-.39 0-.41.24s-.09.35-.48.35a.61.61 0 0 0-.6-.26c-.24 0-.24 0-.37.14l-.29.3v1.71l.29.31v.53l.7.73h1.58c.17 0 .28-.08.29-.22a.75.75 0 0 1 0-.15c0-.13 0-.28.05-.4s.26-.07.38-.1l.7-.7V3.41l-.3-.31v-.27l-.41-.42-.3.28Zm-49.36-.8c.14-.13.27-.27.41-.41h.56l.31-.29h.57a.94.94 0 0 1 .1-.1A1.18 1.18 0 0 1 372 .9a.76.76 0 0 1 .26 0l.31-.27a5.37 5.37 0 0 1 .82 0l.44.39a2.44 2.44 0 0 0 0 .29 3.58 3.58 0 0 1 .27.33.58.58 0 0 1 0 .26l.27.31v.45a.6.6 0 0 1-.24.62.13.13 0 0 0 0 .12c0 .23-.14.33-.26.47a2.84 2.84 0 0 1-.1.38.29.29 0 0 1-.26.08c-.09 0-.16 0-.23.13a.41.41 0 0 1-.36.16h-.86a.28.28 0 0 1-.12 0l-.81-.8-.3.27a.3.3 0 0 1-.14-.23.32.32 0 0 1 .07-.26l.2-.2a.2.2 0 0 0-.19-.15.53.53 0 0 1-.26-.05l-.1-.1v-.43c0-.14 0-.25-.22-.28-.38-.12-.38-.12-.35-.5Zm1.18.63.1.1c.09-.07.13-.13.09-.19a.43.43 0 0 0-.09-.1c-.12.07-.12.13-.12.19Zm-24.51 1.06.95-1c.05-.06 0-.13-.1-.19h-.28c-.16-.17-.2-.37-.08-.49s.19-.2.3-.3l.13-.09h.57a.59.59 0 0 1 .61-.28 2.55 2.55 0 0 1 .55 0l.52.52h.4c.25 0 .33.08.33.32v.42a.58.58 0 0 1 .27.6 5.9 5.9 0 0 1 0 .84c-.13.13-.29.24-.25.47a.21.21 0 0 1-.05.12l-.66.67h-2.18c-.17 0-.25-.08-.25-.26v-.05l-.57-.59a.23.23 0 0 1 .23-.13c.14 0 .26 0 .3-.18l-.4-.4Zm3.82-.39c0-.07 0-.13-.1-.19l-.09.09c0 .06 0 .13.09.19Zm46.85 1.89c.4 0 .4 0 .42-.4.23-.34.6-.57.83-.92l-.11-.1c-.16-.16-.16-.16-.16-.36s0-.38-.15-.51h-.28a4.76 4.76 0 0 0-.62-.57 2.09 2.09 0 0 1-.56 0 2 2 0 0 0-.21-.2.17.17 0 0 0-.12-.05.92.92 0 0 0-.75.25.19.19 0 0 1-.13 0c-.23 0-.32.16-.46.28h-.13c-.2 0-.31.07-.3.21a.6.6 0 0 1-.25.47.35.35 0 0 0 0 .39c.06.08.14.08.25.09s.38-.09.52.11a5.13 5.13 0 0 1-.54.6v.29l.42.41h.56l.31.29h1.14Zm-58.5-.49s.05-.08.09-.08.12 0 .16.13 0 .08 0 .12-.09 0-.07 0h.35a.26.26 0 0 0 .29-.23.65.65 0 0 1 0-.14.57.57 0 0 0-.28-.61v-.57a1.4 1.4 0 0 1 .16-.2c.12-.08.14-.14 0-.2a.31.31 0 0 0-.12-.05.49.49 0 0 1-.27 0c-.09 0-.09 0-.09-.39v-.32c-.08-.12-.15-.15-.21-.08l-.21.2a.51.51 0 0 0-.48.2l-.1.11h-1.17l-.28.3c-.15.16-.15.16-.58.31 0 0-.1.06-.1.1v1.4c.36.34.69.68 1.05 1h.24l.3.27.31-.27a6.13 6.13 0 0 0 .86 0l.4-.41a.93.93 0 0 0-.07-.43c-.14-.03-.19-.09-.18-.16Zm48.79-2h-.12c-.34-.07-.34-.07-.37-.44 0 0-.06-.09-.1-.1-.43-.15-.43-.15-.59-.31h-1.43l-.29.27c-.16.17-.15.11-.15.37v.14a.33.33 0 0 1-.05.26c-.09.15-.25.08-.38.1s-.08.07-.1.11c-.12.26 0 .44.28.46s.24.06.26.25 0 .23-.18.29l-.2-.2a.33.33 0 0 0-.38 0 .18.18 0 0 0-.1.24.66.66 0 0 1 0 .14l.39.38c.14.08.3 0 .41.12l.47.49h2l1-1c-.13-.14-.27-.27-.4-.4a3.51 3.51 0 0 0-.56 0s-.08 0-.11-.07-.07-.07-.07-.11a2.48 2.48 0 0 1 0-.27l.39-.41h.43a.18.18 0 0 0-.05-.31Zm-40.81 1a.29.29 0 0 0-.13 0c-.08 0-.14.1-.13.16a.16.16 0 0 0 .09.09c.06 0 .13 0 .17-.13a.56.56 0 0 0 0-.13Zm41-.75c-.12-.05-.18 0-.12.13s.1.14.16.13a.16.16 0 0 0 .09-.09c.05-.07 0-.14-.09-.18Zm-50.45-1.22a.56.56 0 0 0-.13 0c-.08 0-.14.11-.13.17a.14.14 0 0 0 .09.09c.06 0 .12 0 .16-.13a.29.29 0 0 0 .01-.13Zm0-.12c0 .12 0 .17.12.12s.14-.11.13-.17a.11.11 0 0 0-.09-.08c-.06-.01-.13.04-.16.13ZM663.39 1.35l-.27.31.41.4c.13 0 .29 0 .39.1a.41.41 0 0 1 .05.27.26.26 0 0 0 0 .12l.21.2c0 .15-.16.21-.24.31s0 .18 0 .28l-.56.6.22.21a.38.38 0 0 1 0 .1c-.3.32-.3.19 0 .51 0 .07-.06.12-.13.2a.61.61 0 0 1-.61.26.36.36 0 0 0-.37.15.26.26 0 0 1-.22.14h-.43c-.27-.12-.4-.4-.68-.56h-1.11l-.4-.43a3 3 0 0 1 0-.55l-.27-.31V1.99l1.34-1.33h.52l.31.28a5 5 0 0 1 .87 0 .58.58 0 0 0 .6.26.38.38 0 0 1 .15 0 .27.27 0 0 1 .22.15ZM661 1.8a2.43 2.43 0 0 0-.27 0 .22.22 0 0 0-.1.09c0 .07 0 .14.1.2h.56s.07-.05.09-.09 0-.15-.1-.19a.87.87 0 0 0-.28-.01Zm2.39 1.32c0-.06 0-.12-.09-.19l-.1.1c0 .06 0 .13.1.19Zm-43.44.43v-.43c0-.19.05-.25.23-.29.36-.06.36-.06.32-.44l-.2-.21s-.07-.07-.07-.11a.59.59 0 0 0 0-.27l-.8-.8a.68.68 0 0 1 0-.14c0-.25-.09-.32-.35-.31a2.67 2.67 0 0 0-.69 0c-.13.14-.25.29-.47.25a.2.2 0 0 0-.12.06c-.07.06-.12.15-.2.19s-.19 0-.27 0-.22.18-.32.27h-.26l-1 1.05v1.18c-.09.11-.19.21-.28.31l.28.3a2.46 2.46 0 0 0 0 .28.17.17 0 0 0 .1.1c.41.13.41.13.59.31h2l.3-.28h.26Zm28.32.45a.16.16 0 0 1 .05-.1l.19-.21v-.28l.57-.61v-.53l.4-.41c.39 0 .39 0 .45-.36s.09-.23.42-.23l.3-.28s.08.07.1.11 0 .36.2.43c.15-.09.1-.24.13-.37a.18.18 0 0 1 .18-.17h.71a.7.7 0 0 1 .14 0 .55.55 0 0 0 .6.25h.14c.13 0 .22.12.22.29v.13l.29.31v.28a1.89 1.89 0 0 0 .2.2.33.33 0 0 1 .08.26.32.32 0 0 1-.13.23.35.35 0 0 0-.16.22 3.94 3.94 0 0 1 0 .84.57.57 0 0 0-.25.46c0 .15-.1.22-.29.21h-.13l-.3.27h-.84l-.32-.28a6.07 6.07 0 0 0-.86 0 1.89 1.89 0 0 1-.2.2s-.08 0-.09 0-.26-.28-.48-.24-.21-.17-.32-.25-.2.15-.3.24a8.9 8.9 0 0 1-.7-.61Zm2.54-1.19v.42a.22.22 0 0 0 .09.24c.07 0 .12 0 .2-.08s.2-.19.29-.28.05-.3-.1-.39-.29-.04-.48.12Zm-.67.1s.09-.06.09-.09-.05-.07-.09-.1a.37.37 0 0 0-.26 0 .37.37 0 0 0-.22.15.34.34 0 0 0 .22.14.33.33 0 0 0 .26-.07ZM528.45 5H526.77l-.31-.27H526c-.15 0-.23-.09-.24-.27v-.2l-.28-.3.27-.29c-.14-.15-.28-.28-.41-.41l-.3.27h-.28l-.42-.41c.09-.1.17-.2.27-.3v-.28l1-1h.26a8.36 8.36 0 0 1 .61-.58 6.09 6.09 0 0 1 .85 0 .61.61 0 0 0 .6.26 3 3 0 0 1 .42 0h.1l.43.39v1c0 .11 0 .2.11.24s.13 0 .2-.11l.1-.11a.19.19 0 0 1 .16.17 1.46 1.46 0 0 1 0 .55s-.07.07-.11.12h-.41a.23.23 0 0 0-.25.09c-.05.06 0 .13.08.2a.38.38 0 0 1 .15.36c0 .35 0 .36-.25.61ZM528 2.28c0-.06 0-.12-.1-.19s-.07.06-.09.1 0 .13.09.19Zm49.26 1.31c0-.17-.08-.28-.22-.28h-.74L576 3h-.51a.48.48 0 0 1-.13-.09l-.21-.2c-.31 0-.4 0-.43.21a.59.59 0 0 1-.05.27c-.1.15-.26.07-.39.1l-.41.41v.6l-.29.32v1.71l.72.71h.84l.31.29h.28l.21-.21L576 7c.3 0 .44-.1.38-.42.13-.14.26-.27.4-.4s.26-.28.4-.41 0-.27.1-.39.22-.18.25-.32a.34.34 0 0 0-.05-.27c-.06-.07-.14-.13-.21-.2s.16-.2.24-.31 0-.18 0-.28l-.3-.31Zm18.31-1.88a3.65 3.65 0 0 1 .56-.62c.15-.16.15-.15.36-.16.37 0 .37 0 .61-.25a3.94 3.94 0 0 1 .84 0c.34 0 .34 0 .61.27a4.09 4.09 0 0 0 .7 0c.18 0 .31.07.32.19a.37.37 0 0 1-.13.38c-.19.13-.14.32-.15.51a.38.38 0 0 0 .15.36l.11.1v.1a2.08 2.08 0 0 1-.21.21v1.13l-.58.61c0 .15 0 .3-.11.39s-.2-.17-.32-.24-.17 0-.28 0l-.3.29c-.13 0-.29 0-.38-.11a.57.57 0 0 1 0-.27s0-.08-.07-.11-.06 0-.09-.06-.16.21-.31.23a.58.58 0 0 0-.61-.25c-.26 0-.22 0-.36-.15l-.27-.28v-.62c.17-.17.17-.17 0-.52a.28.28 0 0 1 0-.12c-.08-.34-.08-.67-.08-1.01Zm2.58.07a.33.33 0 0 0 0-.14.19.19 0 0 0-.09-.09c-.07 0-.14 0-.19.11s0 .09 0 .13A.18.18 0 0 0 598 2c.07.08.16 0 .16-.22Zm34.05 0 .27-.31-.21-.2c-.11-.11 0-.27-.1-.39a1.14 1.14 0 0 0-.11-.11h-.85l-.31.28h-1.66l-1 1v.29a.49.49 0 0 0-.27.58v.28a.55.55 0 0 1 .27.46c0 .14.16.21.24.32a.56.56 0 0 0 .47.2l.32.26h.74c.09 0 .15-.07.23-.14s.35-.21.58 0l.12.11.3-.27h.55L632 4l.2-.2c0-.15-.16-.21-.24-.31l.27-.31ZM605 3.05c.1-.1.19-.21.28-.31a2.72 2.72 0 0 0 0-.28c.17-.17.17-.17.31-.59 0 0 .06-.1.09-.1h.58l.3-.29H608c.33.33.67.66 1 1V3.9l-.29.31c0 .3-.07.44-.38.42 0 0-.08 0-.11.06l-.78.79H606l-.5-.5c-.12-.1-.28 0-.39-.11s-.1-.07-.1-.1c-.01-.58-.01-1.15-.01-1.72Zm2.72-.16a.32.32 0 0 0-.1.1.35.35 0 0 0 0 .37s.07.07.1.1a.32.32 0 0 0 .14-.22c.05-.14-.03-.35-.11-.35Zm31.77 1-.31-.28c-.41 0-.41 0-.42-.39V1.79a5.8 5.8 0 0 1 .47-.52c.13-.14.26-.28.48-.24a1.19 1.19 0 0 0 .32-.28h.56l.31-.3h1.14l.3.28h.29l.41.41v.28l-.27.3V2l.1.11c.2.19.2.19.16.49l-.51.51c-.06.16 0 .34-.19.49s-.54.53-.8.8a.38.38 0 0 1-.5-.13l-.03-.09h-.84l-.32-.3Zm1.84-2.08a.22.22 0 0 0-.05-.11.43.43 0 0 0-.09-.1.32.32 0 0 0-.14.22c0 .14.09.37.14.35a.26.26 0 0 0 .14-.22.65.65 0 0 0 .03-.14Zm-54.5.88-.3-.28c-.35 0-.39 0-.42.24s-.08.36-.45.31a.62.62 0 0 0-.61-.26c-.23 0-.23 0-.37.14l-.28.3v1.71l.29.31v.53l.71.73h1.6c.17 0 .28-.08.28-.22V6c0-.13 0-.28.06-.4s.25-.07.37-.1l.71-.7V3.37l-.29-.31v-.23l-.42-.42-.3.28Zm-49.35-.8.41-.41h.55l.32-.29h.56l.11-.1a.91.91 0 0 1 .21-.18.76.76 0 0 1 .26 0l.31-.27a5.4 5.4 0 0 1 .82 0l.44.39v.29a3.8 3.8 0 0 1 .28.33.77.77 0 0 1 0 .26l.27.31a3.37 3.37 0 0 0 0 .45.64.64 0 0 1-.24.62.17.17 0 0 0-.05.12c0 .23-.13.33-.25.47s-.09.37-.1.38a.3.3 0 0 1-.26.08.23.23 0 0 0-.23.13.41.41 0 0 1-.36.16h-.86a.28.28 0 0 1-.12 0l-.81-.8-.31.27a.29.29 0 0 1-.13-.23.29.29 0 0 1 .07-.26c.07-.06.13-.13.2-.2a.2.2 0 0 0-.19-.15.59.59 0 0 1-.27-.05.94.94 0 0 1-.1-.1v-.49c0-.18-.05-.25-.23-.28-.3-.07-.3-.07-.27-.45Zm1.18.63.1.1c.09-.07.13-.13.09-.19a.32.32 0 0 0-.1-.1c-.06.07-.09.13-.06.19Zm-24.48 1.06.94-1c.06-.06 0-.13-.09-.19h-.28c-.16-.17-.2-.37-.09-.49l.3-.3.14-.09h.53a.59.59 0 0 1 .61-.28 2.55 2.55 0 0 1 .55 0l.51.52h.41c.25 0 .33.08.33.32v.42a.59.59 0 0 1 .28.6 5.9 5.9 0 0 1 0 .84c-.13.13-.29.24-.25.47a.21.21 0 0 1 0 .12l-.66.67h-2.19c-.16 0-.24-.08-.25-.26v-.05l-.56-.59a.23.23 0 0 1 .23-.13c.14 0 .26 0 .3-.18l-.4-.4Zm3.82-.39c0-.07 0-.13-.1-.19l-.1.09c0 .06 0 .13.1.19Zm46.85 1.89c.39 0 .4 0 .41-.4.24-.34.61-.57.83-.92l-.1-.1c-.16-.16-.16-.16-.16-.36s0-.38-.15-.51h-.28a4.27 4.27 0 0 0-.63-.57 2 2 0 0 1-.55 0L564 2a.18.18 0 0 0-.12-.05.92.92 0 0 0-.75.25.21.21 0 0 1-.13 0c-.23 0-.32.16-.46.28h-.14c-.19 0-.3.07-.3.21a.55.55 0 0 1-.25.47.39.39 0 0 0 0 .39.32.32 0 0 0 .25.09c.18 0 .39-.09.53.11a6.22 6.22 0 0 1-.54.6v.29l.42.41h.56l.31.29h1.13Zm-58.5-.49a.11.11 0 0 1 .08-.08c.07 0 .13 0 .17.13s0 .08 0 .12-.09 0-.06 0h.35c.17 0 .28-.09.28-.23v-.14a.57.57 0 0 0-.28-.61v-.57a.94.94 0 0 1 .16-.2c.12-.08.13-.14 0-.2a.38.38 0 0 0-.12-.05.47.47 0 0 1-.27 0c-.09 0-.1 0-.1-.39v-.32c-.07-.12-.14-.15-.2-.08a2 2 0 0 0-.21.2.53.53 0 0 0-.49.2.5.5 0 0 1-.1.11h-1.16l-.28.3c-.16.16-.16.16-.59.31a.13.13 0 0 0-.09.1v1.4l1.05 1h.23l.31.27.3-.27a6.07 6.07 0 0 0 .86 0l.41-.41a.93.93 0 0 0-.07-.43c-.14-.03-.19-.09-.18-.16Zm48.79-2h-.13c-.34-.07-.34-.07-.36-.44 0 0-.06-.09-.1-.1-.43-.15-.43-.15-.6-.31h-1.42l-.29.27c-.17.17-.15.11-.15.37v.14a.37.37 0 0 1-.05.26c-.1.15-.25.08-.38.1a.5.5 0 0 0-.1.11c-.12.26 0 .44.27.46s.25.06.27.25 0 .23-.18.29l-.2-.2a.35.35 0 0 0-.39 0 .19.19 0 0 0-.09.24.66.66 0 0 1 0 .14l.38.38c.15.08.3 0 .41.12l.48.49h2l1-1-.4-.4a3.57 3.57 0 0 0-.56 0s-.08 0-.11-.07-.07-.07-.07-.11a2.45 2.45 0 0 1 0-.27l.39-.41h.44a.18.18 0 0 0-.06-.31Zm-40.82 1h-.12c-.03 0-.14.1-.13.16a.14.14 0 0 0 .09.09c.06 0 .12 0 .16-.13s0-.08 0-.13Zm41-.75c-.13-.05-.18 0-.13.13s.11.14.17.13a.2.2 0 0 0 .14-.1c.01-.06-.05-.13-.13-.17Zm-50.5-1.21a.48.48 0 0 0-.12 0c-.09 0-.14.11-.13.17s.05.08.09.09.12 0 .16-.13.05-.1.05-.14Zm0-.12c-.05.12 0 .17.13.12s.14-.11.13-.17-.06-.08-.09-.08-.08.03-.12.12Z"/></g></g></svg>