<svg version="1.1" id="レイヤー_1" xmlns="http://www.w3.org/2000/svg" x="0" y="0" viewBox="0 0 598.9 362.8" style="enable-background:new 0 0 598.9 362.8" xml:space="preserve"><style>.st0{fill:#7b001e}.st1{fill:#651815}.st2{fill:#a00000}</style><g id="レイヤー_2_00000088841236767288490850000005517461222163764922_"><g id="文字_写真"><path class="st0" d="M357.7 240.9c3.2 3.2 4.8 7.8 4.8 13.7-.1 3.6-.9 7.1-2.2 10.4-1.5 3.2-3.7 6.1-6.3 8.5l-10 9.6c-1.5 1.5-5.6 5.9-12.2 13.4H350c5.2 0 8.8-4.3 10.8-13h1.5l-1.9 21.9h-36v-4.1c4.2-5.2 10.5-12.6 18.9-22.3 2.9-3.6 5.4-7.4 7.4-11.5 1.2-3 1.9-7.3 1.9-13 0-5.2-1.2-9-3.7-11.5-2-2-4.6-3.1-7.4-3-3.2 0-6.3 1.3-8.5 3.7-3.2 3.1-4.9 7.4-4.8 11.9.9-1.6 2.6-2.5 4.5-2.6 1.4 0 2.7.5 3.7 1.5 2 2.4 2 5.8 0 8.2-1.1 1-2.6 1.6-4.1 1.5-1.9.1-3.7-.8-4.8-2.2-1.4-1.6-2.2-3.8-2.2-5.9 0-6.2 2-11.3 5.9-15.2 3.3-3.4 7.9-5.3 12.6-5.2 5.8 0 10.5 1.7 13.9 5.2zM382.2 293.6c1.6 1.7 2.4 4 2.2 6.3 0 5.2-2.2 10-6.7 14.5-1.7 1.6-3.6 2.9-5.6 4.1l-1.5-2.6c4.2-2.2 7.3-6.1 8.5-10.8-1 .2-2 .4-3 .4-3.5.2-6.5-2.5-6.7-6v-.7c-.1-2.1.7-4.1 2.2-5.6 1.4-1.3 3.3-2 5.2-1.9 2.2.1 4.1.9 5.4 2.3zM408.2 305.5c-3 0-4.5-2.5-4.5-7.4 0-3.9.3-7.7 1.1-11.5.8-4 2.1-7.8 3.7-11.5 4.1-10.2 8.7-20.3 13.7-30h-21.5c-3.5 0-5.9 4.6-7.4 13.7h-1.9l2.2-23h35.6v3.3c-7.7 12.6-12.9 24.9-15.6 36.7-1 3.5-1.5 7.1-1.5 10.8 0 2.7.2 6.4.7 11.1.7 5.2-.9 7.8-4.6 7.8zM460.2 235.7v59c0 5.4 2.1 8.2 6.3 8.2h3v2.6h-28.2v-2.6h4.1c4.2 0 6.3-2.7 6.3-8.2V252c0-5.4-2.2-8.2-6.7-8.2h-3.7v-2.6h5.2c5.2 0 8.9-1.9 11.1-5.6h2.6zM511.4 240.5c5.9 5.9 8.9 15.7 8.9 29.3 0 14.6-3 24.9-8.9 30.8-3.2 3.2-6.5 4.8-10 4.8s-6.8-1.6-10-4.8c-6.4-6.4-9.6-16.7-9.6-30.8 0-13.1 3.2-22.9 9.6-29.3 3.2-3.2 6.6-4.8 10-4.8 3.4 0 6.7 1.6 10 4.8zm-14.5.8c-4.2 4.2-6.3 13.7-6.3 28.6 0 15.8 2.1 25.9 6.3 30.1 1.9 2.5 5.4 3 7.8 1.1.4-.3.8-.7 1.1-1.1 3.7-3.7 5.6-13.7 5.6-30.1 0-14.8-1.9-24.4-5.6-28.6-1.1-1.4-2.7-2.2-4.5-2.2-1.7.1-3.3.9-4.4 2.2zM567 272.1c1.1 1.5.8 2.3-1.1 2.5V308c0 .5-.6 1.1-1.7 1.9-1.1.8-2.4 1.3-3.8 1.3-.3 0-.4-.2-.4-.6v-1.9c0-.2-.4-.6-1.3-1L554 306c-.5-.4-.5-.6 0-.6h6c1 0 1.5-.4 1.5-1.1v-14.4h-28v20.3l-1 .6c-1.9.8-3 .8-3.4 0v-42.3l4.7 2.8h26.9l2.5-3 3.8 3.8zm-33.5 16.7h11.8v-16.3h-11.7l-.1 16.3zm16.1 0h12v-16.3h-11.9l-.1 16.3z"/><path d="m493.8 362.3-.6.5c-4.7-4.7-6.9-9.8-6.9-16-.1-6.1 2.4-11.9 6.9-16.1l.6.5c-4.1 5.9-5.2 9.9-5.2 15.5s1.2 9.7 5.2 15.6zM503 343.7c6.1 2.2 4.6 6.1 2.6 4.7-.6-1.5-1.5-3-2.6-4.1v13.6c-.4.5-1.1.7-1.7.7h-.3v-13.4c-1.3 2.9-3.1 5.4-5.4 7.6l-.4-.4c2.6-3.6 4.3-7.7 5.2-12h-4.2l-.2-.9h5v-5.3c-1.6.4-3.3.8-5 1l-.2-.5c3.2-1 6.3-2.4 9.1-4.2l2.6 2c-.3.3-.8.3-1.5.1-.8.3-1.9.7-3 1v5.8h1.2l1.3-1.7s1.5 1.3 2.5 2.2c-.1.3-.4.5-.8.5H503v3.3zm20.9 12.3c.6.2.7.5.7.9 0 .8-.8 1.2-4.2 1.2h-2.1c-1.9 0-2.3-.5-2.3-1.9v-10.6h-2.3c-.6 6.6-2.6 10.4-9 13l-.2-.5c5.3-3 6.7-6.8 7-12.5h-1.4v.9c0 .2-.8.6-1.6.6h-.3v-11.2l2.1 1h5.6c1.2-2.1 2.2-4.3 3-6.5l3.1 1.1c-.1.3-.5.6-1.2.5-1.2 1.8-2.6 3.5-4.1 5H520l1-1.1 2 1.8c-.3.3-.7.5-1.2.5v8.3c-.4.4-1 .6-1.6.6h-.2v-1.3h-2v10.1c0 .4.1.6.8.6h3.2c.2 0 .4-.2.5-.4.2-.5.6-2.5.9-4.4h.4l.1 4.3zm-14.5-25.5c6.3 2.9 4.5 7.1 2.4 5.5-.5-1.9-1.5-3.7-2.8-5.3l.4-.2zm.9 14.1h9.7v-7h-9.7v7zM533.6 352.9c2.1 2.5 4.5 2.9 9.8 2.9 3.6 0 8.5 0 12.2-.1v.4c-.9.1-1.5.8-1.5 1.7h-10.7c-5.6 0-8.1-.7-10.3-4.3-1.4 1.5-3 2.9-4.6 4.2.1.3-.1.7-.4.8l-1.4-2.6c1.2-.5 3.1-1.5 4.9-2.5v-9.1H527l-.2-.9h4.3l1.2-1.6 2.7 2.2c-.4.3-.9.5-1.5.6v8.3zm-5.2-21.8c7.8 2.4 6.3 7.4 3.8 5.9-.9-2.2-2.3-4.1-4.2-5.6l.4-.3zm5.6 21.7c5-3.6 8.8-9.7 10.2-17.3-.1-.7-.2-1.5-.3-2.3h-6.2l-.3-.9h5.7l1.1-1.6 2.9 2.1c-.7.5-1.5.8-2.3.7 1.1 7.4 4.1 14.2 10.8 17.5l-.1.3c-.9.2-1.6.8-1.9 1.7-4.4-2.9-6.8-7.2-8.3-12.7-2.1 5.4-5.9 9.9-10.8 12.8l-.5-.3zM558.4 329.9c4.2 2.7 8.3 7 8.3 14.5s-4.2 11.8-8.3 14.5l-.5-.6c7.7-5.9 9.1-16.9 3.2-24.6-.9-1.2-2-2.2-3.2-3.2l.5-.6zM334.9 332.6l.9.9-10.2 10.2 10.2 10.3-.9.9-10.2-10.2-10.3 10.2-.9-.9 10.3-10.3-10.2-10.2.9-.9 10.2 10.2 10.2-10.2zm-19.1 13.5c-1.3 0-2.3-1-2.3-2.3 0-1.3 1-2.3 2.3-2.3 1.3 0 2.3 1 2.3 2.3 0 1.2-1 2.3-2.3 2.3zm6.5-11.2c0-1.3 1-2.3 2.3-2.3 1.3 0 2.3 1 2.3 2.3 0 1.3-1 2.3-2.3 2.3-1.2 0-2.3-1-2.3-2.3zm4.7 17.7c0 1.3-1 2.3-2.3 2.3-1.3 0-2.3-1-2.3-2.3 0-1.3 1-2.3 2.3-2.3 1.3 0 2.3 1 2.3 2.3zm6.5-11.2c1.3 0 2.3 1 2.3 2.3 0 1.3-1 2.3-2.3 2.3-1.3 0-2.3-1-2.3-2.3 0-1.2 1-2.3 2.3-2.3zM348.3 351.6c1.5 2.3 4.1 3.3 7.7 3.5 3.4.1 10.3 0 13.9-.2-.3.8-.6 1.5-.7 2.4-3.4.1-9.7.2-13.1.1-4-.1-6.8-1.3-8.8-3.7-1.5 1.3-3 2.6-4.7 4l-1.2-2.3c1.6-1.1 3.2-2.3 4.7-3.5V344h-4.3v-2.2h6.6l-.1 9.8zm-1-15c-1.5-1.9-3.3-3.6-5.3-4.9l1.7-1.4c2 1.3 3.9 2.9 5.4 4.8l-1.8 1.5zm14.1 7.3c1.2 3.8 4.2 6.7 8.1 7.7-.6.6-1.1 1.2-1.5 1.9-3.8-1.2-6.8-4.2-8.2-8-1 2.8-3.2 5.6-8.1 7.9-.4-.6-1-1.2-1.5-1.7 5.4-2.2 7.2-5.1 7.7-7.8h-8v-2.1h8.2v-4.3H351v-2h3.9c-.6-1.8-1.5-3.5-2.7-5l2-.8c1.2 1.5 2.2 3.1 2.8 4.9l-1.9.8h13.4v2h-7.9v4.3h8.9v2.1l-8.1.1zm5.4-13.6c-1 1.8-2.1 3.5-3.4 5.1l-1.9-.7c1.1-1.6 2.1-3.4 2.9-5.2l2.4.8zM379.8 342.5c.9 1 4 5.1 4.7 6.1l-1.5 1.8c-.6-1.1-2-3.5-3.1-5.3v12.7h-2.1v-12.7c-1 3.1-2.5 6.1-4.3 8.8-.3-.8-.7-1.5-1.2-2.2 2.1-2.9 3.8-6.2 4.8-9.6h-4.4v-2.2h5v-10.2h2.1v10.2h5.1v2.2h-5.1v.4zm-5.2-3.7c-.3-2.3-.8-4.6-1.6-6.8l1.7-.4c.9 2.2 1.5 4.5 1.8 6.8l-1.9.4zm10.3-6.9c-.7 2.4-1.6 4.7-2.5 7l-1.5-.5c.8-2.3 1.5-4.6 2-7l2 .5zm12.1 17.3v8.7h-2.2v-8.3l-9.6 1.7-.4-2.1 10-1.8v-17.8h2.1V347l3.7-.6.3 2.1-3.9.7zm-6.3-4.4c-1.5-1.5-3.3-2.7-5.1-3.7l1.1-1.6c1.9.9 3.6 2.1 5.2 3.5l-1.2 1.8zm1.3-7.5c-1.5-1.5-3.1-2.9-4.9-4l1.2-1.5c1.8 1 3.4 2.3 4.9 3.8l-1.2 1.7zM417.6 344.4v1c-.4 7.7-.7 10.5-1.5 11.5-.5.6-1.2.9-2 .9-1.3.1-2.5.1-3.8 0-.1-.7-.3-1.4-.6-2 1.2.1 2.4.2 3.5.2.4 0 .7-.1 1-.3.6-.6.9-3 1.1-9.1h-5.1c-.7 4.5-2.1 8.8-5.4 11.5-.4-.6-1-1.2-1.6-1.6 4.2-3.4 5-9.7 5.3-15.3h-3.4V331h12.2v10.1h-6.5c-.1 1.1-.1 2.2-.3 3.3h7.1zm-10.3-5.4h7.9v-6h-7.9v6zm15.5 11.3h-2.2v-17h2.2v17zm7.6-20.1v24.6c0 1.5-.4 2.3-1.4 2.7s-2.8.4-5.6.4c-.2-.8-.5-1.6-.8-2.3 2.2.1 4.1.1 4.7 0s.8-.2.8-.8v-24.6h2.3zM440.9 351.6c1.5 2.3 4.3 3.3 8 3.5 3.4.1 10.3 0 14-.2-.3.8-.6 1.5-.8 2.4-3.4.1-9.8.2-13.2.1-4.1-.1-7-1.2-9-3.7-1.4 1.3-2.9 2.6-4.4 4l-1.2-2.3c1.5-1.1 3-2.3 4.4-3.6v-7.9h-3.9v-2.2h6.2l-.1 9.9zm-.9-14.8c-1.4-2-3.1-3.7-5-5.1l1.7-1.4c1.9 1.4 3.7 3.1 5 5l-1.7 1.5zm13.2-7.1c2.6 3.2 5.9 5.8 9.7 7.6-.5.6-1 1.3-1.4 2.1-3.6-1.9-6.7-4.5-9.3-7.6-2.5 3.2-5.6 5.8-9.2 7.7-.3-.7-.7-1.3-1.2-1.9 3.7-1.8 6.8-4.5 9.2-7.9h2.2zm-4.8 16.3c-1.1 2.3-2.6 4.4-4.5 6.2l-1.8-1.2c1.8-1.5 3.2-3.4 4.2-5.5l2.1.5zm13.6-1.8h-8.6v7.1c0 1.1-.2 1.7-1 2-1.3.3-2.7.4-4 .3-.1-.7-.3-1.4-.6-2h2.9c.4 0 .5-.1.5-.4v-7h-8.1v-2h8.1v-2.8h-4.5v-1.9h11.4v1.9h-4.6v2.8h8.5v2zm-2 8c-1.1-2.1-2.6-4.1-4.2-5.9l1.8-.9c1.7 1.7 3.2 3.7 4.3 5.8l-1.9 1z"/><path class="st1" d="M22.1 118.9c.8-3 1.5-6 1.8-7.8l6.9 4.3c-.2.3-.6.5-1 .5-.3 0-.5-.1-.8-.2-2.2 2.6-4.6 5-7.1 7.2-.1 3.8-.4 7.6-1 11.4 5.6 2.3 7.5 5.3 7.5 7.7 0 2.2-1.7 4.1-3.9 4.2-1.2 0-2.4-.7-3.1-1.7.1-2.6-.2-5.1-1.1-7.6-1.5 6.8-4.6 12.1-10.5 16.2l-.6-.8c4.6-7 5.8-15.7 6-27.4h-.1c-.4 2.4-2.1 4.1-3.8 4.1-1.4 0-2.5-1.2-2.5-2.6v-.1c.1-1.2.6-2.3 1.5-3.1.9-1.1 1.7-3.9 1.7-7.4 0-.8 0-1.7-.1-2.5l.7-.1c1.3 2.6 2.1 5.4 2.6 8.3h.1c0-5.8-.1-12.4-.1-19.8l9.1.7c0 .8-.5 1.2-2.2 1.5.1 5.5.1 10.5 0 15zm39.1 13.3c-.4.6-1.1.8-2.5.8h-6.8c-.1.4-.5.7-1.7.9v11.7c0 1.2 0 1.2.9 1.2h2.6c.9 0 1.2-.1 1.7-.7 1-1.9 1.8-3.8 2.5-5.7h.3v6.1c2 1 2.2 1.3 2.2 2.2 0 2.5-1.7 3.9-6.6 3.9h-3.7c-6 0-7.1-1.4-7.1-7.1V133h-2.8l1.6.1c-.1.8-.6 1.2-2.2 1.2-1.1 8.5-5.2 15.6-18.8 18.9l-.3-.7C30 148.4 32 141 32.1 133h-6.3l-.2-.9h5.8V124H26l-.2-.9h5.6v-7.8l7.3.7v-6H28.1l-.2-.9h10.8v-7.4l8.8.7c0 .6-.4 1-1.6 1.1v5.5h2.9l3.4-4.7 6.1 4.8c-.4.6-1.1.8-2.6.8h-9.8v6.2c0 .1-1.5 1.6-7.2 1.6v-.7c-.2.1-.4.1-.5.1v5.8h8.4v-7.8l8.5.8c0 .6-.5 1-1.8 1.1v5.8l2.6-4.3 4.7 4.4c-.4.6-1.1.8-2.5.8h-4.8v8.1h.1l2.7-4.4 5.1 4.8zm-23-.1h8.4V124h-8.4v8.1zM97.9 116.2c.8.5 1.6.7 2.5.6.3 0 1.9-.2 2.3-.2 1.4 0 3.2 1.3 3.2 2.7 0 3.1-6.7 4.7-14.8 6.3 1.2 2.4 3.2 4.3 5.7 5.3 1.9.5 3.1 2.2 3.1 4.1 0 2-1 2.9-2.9 2.9-2.8 0-4.3-2-6.2-2.7-2.1-.7-4.2-1.1-6.4-1.1-4 0-7.3 1.8-7.3 5.2 0 2.5 3 4.3 9.3 4.3.5 0 1.1-.1 1.6-.1 2.2-.1 4.3-.3 6.4-.9 2.6 0 4.8 2.8 4.8 4.3 0 2.5-4.1 3.1-11.3 3.1-11 0-17.2-3.2-17.2-9 0-5.6 6.6-9.5 14.6-9.5 1.3 0 2.6.1 3.8.4l-.1-.2c-1-.6-2.1-2.9-3.3-5.3-4.2.9-8.4 1.4-12.6 1.6-5.3 0-6.8-1.7-8.3-6.1l.8-.4c2.1 2 3.8 2.2 6.4 2.2h1.2c3.8-.2 7.5-.7 11.2-1.5-.5-1.5-1.2-3.6-1.4-4.7-2.5.5-5.1.8-7.6.9-3.3 0-6-1.5-7.4-5.4l.4-.4c1.6 1.1 3.5 1.6 5.4 1.5 2.7-.1 5.4-.4 8-.9-.2-.8-.7-3-.9-3.7-.3-1.4-1.6-2.3-3-2.1-.7 0-1.4.1-2 .4l-.3-.2c.3-2.2 2.7-4 6.4-4 3.5 0 4.9 1.5 4.9 2.6 0 .4-.1 2.2-.1 2.7.1 1 .2 2 .4 3 2-.5 4.5-1.3 5.2-3.7 3.9 0 7 .8 7 2.8 0 1.6-1.9 2.5-3.5 3.2-2.5 1-5.1 1.9-7.7 2.5.3 1.5.7 3 1.2 4.5 2.2-.5 8.3-2.1 8.3-4.3 0-.1 0-.3-.1-.4l.3-.3zM161.6 133.9c-.4.6-1.1.8-2.6.8h-18.1c4.6 4.9 13.5 8 21.4 9l-.1.6c-3 .8-5.2 3.4-6 7.4-7.8-3.2-12.7-8.3-15.9-16v15.7c0 .1-1.5 1.9-8.3 1.9v-12.4c-5.3 4.9-12.6 8.6-21 11.1l-.4-.7c6.7-4 12.2-9.7 15.8-16.6h-15.2l-.3-.9h21v-7h-8.4v.9c0 .2-1.2 2.8-7.5 2.8V111l8.1 3h3v-6.8h-15.4l-.3-.9h39.3l3.9-5 7.2 5.1c-.4.6-1.1.8-2.6.8h-13.6v6.8h3.2l2.9-3.7 7.6 5.3c-.6.7-1.3 1.1-2.2 1.2v10.9c0 .1-2.2 1.6-7.6 1.6v-2.4h-11.7v.1l4.5.3c-.1.8-.5 1.2-2 1.5v5.1h10.3l3.9-5 7.1 5zm-38-19.1V126h3.5v-11.2h-3.5zm10.8-7.6v6.8h3.9v-6.8h-3.9zm0 18.8h3.9v-11.1h-3.9V126zm15-11.2h-3.8V126h3.8v-11.2zM199.4 116.2c.8.5 1.6.7 2.5.6.3 0 1.9-.2 2.2-.2 1.4 0 3.2 1.3 3.2 2.7 0 3.1-6.7 4.7-14.8 6.3 1.2 2.4 3.2 4.3 5.7 5.3 1.9.5 3.1 2.2 3.1 4.1 0 2-1 2.9-2.9 2.9-2.9 0-4.3-2-6.2-2.7-2.1-.7-4.2-1.1-6.4-1.1-4 0-7.3 1.8-7.3 5.2 0 2.5 3 4.3 9.3 4.3.5 0 1.1-.1 1.6-.1 2.2-.1 4.3-.3 6.4-.9 2.6 0 4.8 2.8 4.8 4.3 0 2.5-4.1 3.1-11.3 3.1-11 0-17.2-3.2-17.2-9 0-5.6 6.6-9.5 14.6-9.5 1.3 0 2.6.1 3.8.4l-.1-.2c-1-.6-2.1-2.9-3.3-5.3-4.2.9-8.4 1.4-12.6 1.6-5.3 0-6.8-1.7-8.3-6.1l.8-.4c2.1 2 3.8 2.2 6.4 2.2h1.2c3.8-.2 7.5-.7 11.2-1.5-.5-1.5-1.2-3.6-1.4-4.7-2.5.5-5.1.8-7.6.9-3.3 0-6-1.5-7.4-5.4l.4-.4c1.6 1.1 3.5 1.6 5.4 1.5 2.7-.1 5.4-.4 8-.9-.2-.8-.7-3-.9-3.7-.3-1.4-1.6-2.3-3-2.1-.7 0-1.4.1-2 .4l-.3-.2c.3-2.2 2.7-4 6.4-4 3.5 0 4.9 1.5 4.9 2.6 0 .4-.1 2.2-.1 2.7.1 1 .2 2 .4 3 2-.5 4.5-1.3 5.2-3.7 3.9 0 7 .8 7 2.8 0 1.6-1.9 2.5-3.5 3.2-2.5 1-5.1 1.8-7.8 2.4.3 1.5.7 3 1.2 4.5 2.2-.5 8.3-2.1 8.3-4.3 0-.1 0-.3-.1-.4l.5-.2zM223.9 132.4c3.2-3.4 7.1-6.2 12.4-6.2 4.9 0 7.2 4.1 7.2 8.1 0 1.3-.1 3.8-.1 5 0 3 1.5 3.8 4.7 3.8 5.4 0 9.5-4 12.6-11.6l.7.2c-1.9 11.2-6.9 18.3-15.6 18.3-6.3 0-9.4-3.6-9.4-8.3 0-1.4.2-4.8.2-6.2 0-4.6-.4-6.6-3.1-6.6-3.7 0-7.9 4.4-9.9 9.6-.9 2.2-1.6 4.6-2 6.9-.5 3-2.1 4.3-3.9 4.3s-4-1-4-3.5c0-2.2.5-4.4 1.4-6.4 1.6-3.6 3.4-7.5 5.5-11.7 5.4-10.4 8.1-15.5 8.1-17.8.1-.7-.2-1.4-.8-1.9-.9-.6-2.1-.8-3.2-.7l-.2-.2c1-1.6 2.7-2.5 4.6-2.5 4 .1 8.2 2 8.2 5.2 0 2.2-2 3.5-3.3 5.2-4 5.3-7.3 10.9-10 16.9l-.1.1zM288.5 116c.6-1 2.1-1.5 4-1.5 3.5 0 7.4 4.5 7.4 7 0 3.1-2.7 3.1-5.5 3.6-10.3 1.8-23.4 6.8-23.4 13.5 0 4.1 4.8 4.6 10.9 4.6 3.9 0 9.7-.7 11.4-2.1 4.1.6 7.5 2.1 7.5 4.6 0 3-3.6 4.1-18.5 4.1-7.5 0-16-2-16-10.6 0-5.8 5.9-10.1 10.6-13-3.8-1.2-3.8-6-3.8-14.7 0-1.5-.2-3-1.2-3.5-.7-.4-1.4-.6-2.2-.6-.3 0-.5 0-.8.1l-.2-.3c.7-2 2.8-2.8 4.7-2.8 4.5.1 7.7 3 7.7 5.7-.1 1.1-.3 2.2-.7 3.3-.4 1.6-.6 3.3-.5 5v2.2c.1 1.5.7 3 1.8 3.1 1.8-.9 5-2.5 6.8-3.3 1.6-.7 2.7-1.4 2.7-2.5-.2-1.2-1.4-2-2.6-1.8l-.1-.1zM317.9 132.4c3.2-3.4 7.1-6.2 12.4-6.2 4.9 0 7.2 4.1 7.2 8.1 0 1.3-.1 3.8-.1 5 0 3 1.5 3.8 4.7 3.8 5.4 0 9.5-4 12.6-11.6l.7.2c-1.9 11.2-6.9 18.3-15.6 18.3-6.3 0-9.5-3.6-9.5-8.3 0-1.4.2-4.8.2-6.2 0-4.6-.4-6.6-3.1-6.6-3.7 0-7.9 4.4-9.9 9.6-.9 2.2-1.6 4.6-2 6.9-.5 3-2.1 4.3-3.9 4.3s-4-1-4-3.5c0-2.2.5-4.4 1.4-6.4 1.6-3.6 3.4-7.5 5.5-11.7 5.4-10.4 8-15.5 8-17.8.1-.7-.2-1.4-.8-1.9-.9-.6-2.1-.8-3.2-.7l-.2-.2c1-1.6 2.7-2.5 4.6-2.5 4 .1 8.2 2 8.2 5.2 0 2.2-2 3.5-3.3 5.2-4 5.3-7.3 10.9-10 16.9l.1.1zM381.7 141.3h-10v-1.4l10.7-17.3h4.6v16.6h3.1l-.3 2.1H387v2.2c0 2.5.2 3 2.5 3v1.7h-10.6v-1.7c2.7 0 2.8-.5 2.8-3v-2.2zm-.1-14.2c-.4.6-.9 1.9-1.8 3.2l-5.3 8.9h7.2V130c0-.9 0-2 .1-2.9h-.2zM420.5 119.1l4.7 3.5c-.4.4-.8.7-1.4.7v26.1c0 .1-1.2 1.5-4.9 1.5v-2.3h-10.8v.9c0 .2-.6 1.9-4.5 1.9v-30.2h-.2c-.8 2.2-1.7 4.4-2.9 6.4l1.4.5c-.1.3-.4.6-1.1.7V150c-.1.3-2 1.4-3.9 1.4h-.9v-17c-1 1.3-2.2 2.4-3.4 3.5l-.4-.2c2.3-4.4 4.7-12.1 6-19.1l5.3 1.5v-.5l4.7 2h10.1l2.2-2.5zM408.2 148H419v-11.6c-.3.2-.7.3-1.1.4v7.8c-.8.6-1.8.9-2.7.9h-.6v-2.1h-2v1.7s-.5 1.2-3.3 1.2v-12.6l2.4 1v-4.9h-3.2l-.2-.6h3.3v-5.8l5 .5c0 .4-.3.7-1.3.8v4.6l1.5-2.4 2 1.7v-6.4h-10.7V148zm4.4-12.4v7.1h2v-7.1h-2zm2.9-.7 1.1-1.4 2.5 2.6v-6.3h-3.5v5.1zM50.3 198.6c-.3.5-.9.6-2.1.6H33.5c3.7 4 11 6.5 17.4 7.4l-.1.5c-2.4.7-4.2 2.8-4.9 6-6-2.3-10.7-7-13-13.1v12.8c0 .1-1.2 1.6-6.7 1.6v-10.1c-4.3 4-10.2 7-17.1 9l-.3-.6c5.4-3.3 9.9-7.9 12.9-13.5H9.4l-.2-.7h17.1v-5.7h-6.9v.7c0 .2-1 2.2-6.1 2.2v-15.9l6.6 2.5h2.4v-5.5H9.8l-.2-.7h32l3.2-4.1 5.9 4.2c-.3.5-.9.6-2.1.6H37.4v5.5H40l2.3-3 6.2 4.4c-.5.5-1.1.9-1.8 1v8.9c0 .1-1.8 1.3-6.2 1.3V193H31l3.7.3c-.1.6-.4 1-1.6 1.2v4.2h8.4l3.1-4 5.7 3.9zM19.5 183v9.1h2.8V183h-2.8zm8.8-6.2v5.5h3.1v-5.5h-3.1zm0 15.3h3.1V183h-3.1v9.1zm12.2-9.1h-3.1v9.1h3.1V183zM81.1 184.2c.6.4 1.3.5 2.1.5.3 0 1.5-.1 1.8-.1 1.3 0 2.4.9 2.6 2.2 0 2.6-5.5 3.8-12 5.1.9 2 2.6 3.5 4.6 4.3 1.5.4 2.5 1.8 2.5 3.4 0 1.6-.8 2.3-2.4 2.3-2.3 0-3.5-1.6-5.1-2.2-1.7-.6-3.4-.9-5.2-.9-3.3 0-5.9 1.5-5.9 4.2 0 2 2.4 3.5 7.6 3.5H73c1.8 0 3.5-.3 5.2-.7 1.9.2 3.5 1.6 3.9 3.5 0 2-3.3 2.5-9.2 2.5-9 0-14-2.6-14-7.3 0-4.5 5.4-7.7 11.9-7.7 1 0 2.1.1 3.1.3v-.1c-.8-.5-1.8-2.4-2.7-4.3-3.4.7-6.9 1.2-10.3 1.3-4.3 0-5.5-1.4-6.7-4.9l.6-.4c1.7 1.7 3.1 1.8 5.2 1.8h1c3.1-.1 6.1-.5 9.1-1.2-.4-1.2-1-3-1.1-3.8-2 .4-4.1.7-6.2.7-2.7 0-4.8-1.2-6-4.4l.3-.4c1.3.9 2.8 1.3 4.4 1.2 2.2 0 4.4-.3 6.5-.7-.2-.7-.6-2.4-.7-3-.2-1.1-1.3-1.8-2.4-1.7-.6 0-1.1.1-1.6.4l-.3-.1c.3-1.8 2.2-3.3 5.2-3.3s4 1.2 4 2.1c0 .3-.1 1.8-.1 2.2.1.8.2 1.6.3 2.5 1.7-.4 3.7-1.1 4.2-3 3.2 0 5.7.7 5.7 2.3 0 1.3-1.5 2-2.9 2.6-2.1.8-4.2 1.5-6.3 2 .2 1.2.6 2.5 1 3.7 1.8-.4 6.8-1.7 6.8-3.5 0-.1 0-.2-.1-.3l.3-.6zM101 197.3c2.6-2.7 5.8-5 10-5.1 4 0 5.8 3.3 5.8 6.6 0 1.1-.1 3.1-.1 4 0 2.5 1.2 3.1 3.8 3.1 4.4 0 7.7-3.2 10.2-9.4l.6.1c-1.5 9.1-5.6 14.9-12.7 14.9-5.2 0-7.7-2.9-7.7-6.7 0-1.1.1-3.9.1-5 0-3.8-.3-5.4-2.5-5.4-3 0-6.4 3.6-8.1 7.8-.7 1.8-1.3 3.7-1.6 5.6-.4 2.4-1.7 3.5-3.1 3.5-1.6.2-3.1-1.1-3.3-2.7v-.2c0-1.8.4-3.6 1.1-5.2 1.3-3 2.8-6.1 4.5-9.5 4.4-8.4 6.6-12.6 6.6-14.5 0-.6-.2-1.1-.6-1.5-.8-.5-1.7-.7-2.6-.6l-.2-.2c.8-1.3 2.2-2 3.7-2.1 3.3 0 6.6 1.6 6.6 4.2 0 1.8-1.6 2.8-2.7 4.2-3.2 4.3-6 8.9-8.2 13.8l.4.3zM153.6 184c.5-.8 1.7-1.2 3.3-1.2 2.8 0 6 3.7 6 5.7 0 2.6-2.2 2.5-4.5 2.9-8.4 1.5-19 5.5-19 11 0 3.4 3.9 3.8 8.9 3.8 3.2 0 7.9-.6 9.3-1.7 3.4.5 6.1 1.7 6.1 3.7 0 2.4-3 3.3-15 3.3-6.1 0-13-1.6-13-8.6 0-4.8 4.8-8.2 8.6-10.6-3.1-1-3.1-4.9-3.1-11.9 0-1.2-.2-2.4-1-2.8-.6-.3-1.2-.5-1.8-.5-.2 0-.4 0-.6.1l-.1-.3c.6-1.5 2.2-2.4 3.8-2.3 3.6.1 6.2 2.5 6.2 4.7-.1.9-.3 1.8-.6 2.6-.3 1.3-.5 2.7-.4 4.1v1.8c.1 1.2.6 2.5 1.4 2.6 1.5-.8 4.1-2 5.5-2.7 1.3-.6 2.2-1.1 2.2-2.1-.2-1-1.1-1.6-2.1-1.5l-.1-.1zM177.5 197.3c2.6-2.7 5.8-5 10-5.1 4 0 5.9 3.3 5.9 6.6 0 1.1-.1 3.1-.1 4 0 2.5 1.2 3.1 3.8 3.1 4.4 0 7.7-3.2 10.2-9.4l.6.1c-1.5 9.1-5.6 14.9-12.7 14.9-5.1 0-7.7-2.9-7.7-6.7 0-1.1.1-3.9.1-5 0-3.8-.4-5.4-2.5-5.4-3 0-6.4 3.6-8.1 7.8-.7 1.8-1.3 3.7-1.6 5.6-.4 2.4-1.7 3.5-3.1 3.5-1.6.2-3.1-1.1-3.3-2.7v-.1c0-1.8.4-3.6 1.1-5.2 1.3-3 2.8-6.1 4.5-9.5 4.4-8.4 6.6-12.6 6.6-14.5 0-.6-.2-1.1-.6-1.5-.8-.5-1.7-.7-2.6-.6l-.2-.2c.8-1.3 2.2-2 3.7-2.1 3.3 0 6.6 1.6 6.6 4.2 0 1.8-1.6 2.8-2.7 4.2-3.2 4.3-6 8.9-8.2 13.8l.3.2zM244.8 196.7l6.2 4.4c-.3.5-.9.6-2.1.6h-15.3v10.9c0 .4-2 1.7-5.5 1.7h-1.3v-12.6h-16.9l-.2-.7h17.1v-8.9H215l-.2-.7h12v-8.6h-14.4l-.2-.7h10.7c-.8-.2-1.6-.7-2.1-1.4 0-2.9-.8-5.7-2.5-8l.3-.2c6.6 1.2 8.8 3.8 8.8 6 0 1.7-1.2 3.2-2.9 3.5h9.6c.6-3.2 1-6.4 1.3-9.6l9 2c-.1.6-.5.8-1.7.8-2.3 2.5-4.8 4.8-7.5 6.8h4.6l3.3-4.2 6.2 4.3c-.3.5-.9.6-2.1.6h-13.5v8.6h3l3.2-4.1 5.9 4.1c-.3.5-.9.6-2.1.6h-10v8.9h7.9l3.2-4.1zM289.1 182.6l5.5 3c-.3.5-.8.6-2 .6h-38.7l-.2-.7h17.2v-3.3h-13.1l-.2-.7h13.3v-3.2h-15.2l-.2-.7h10.1c-.9-1.9-2.3-3.5-3.9-4.8l.2-.3c1-.1 1.9-.2 2.9-.2 3.9 0 5.2 1.5 5.2 3.1 0 .9-.4 1.7-1.1 2.2h8c.9-1.7 1.6-3.5 2.2-5.4l7.8 1.9c-.1.8-.8.8-1.5.8-2.2 1.1-4.5 2-6.9 2.7h6.4l2.9-3.2 5.5 3.3c-.3.5-.9.6-2 .6h-14v3.2h5.8l2.8-2.7 5.3 2.8c-.3.5-.9.6-2 .6H277v3.3h9.3l2.8-2.9zm5.3 19.1c-.3.5-.8.6-2 .6h-14.8c-.1.4-.6.7-1.6.8-.1.8-.3 1.5-.5 2.3h10.6l2.8-2.8 5.3 2.9c-.3.5-.8.6-2 .6h-15.8c2.5 1.6 6.5 2.1 10.8 2.1 2.2 0 4.6-.1 6.9-.4v.5c-2.2.9-3.4 3-3.8 6-7.2-1.1-12.3-3-15.1-8.3-1.5 4.1-5.5 6.8-21.1 8.2l-.2-.7c10-2.1 13.5-4.4 14.8-7.5h-14.6l-.2-.7h15c.3-1 .5-2.1.5-3.1h-15.6l-.2-.7h17.2v-3H258l-.2-.7h13.1v-2.5h-13.6l-.2-.7h8.1c-.6-.2-1.2-.6-1.5-1.2.1-1.5-.3-2.9-1.1-4.1l.3-.2c1.6 0 3.1.3 4.6.8-.1-1-.4-1.9-.9-2.8l.3-.2c4.5.7 6 2.2 6 3.5s-1.8 2.6-3.5 2.4c-.4.9-1.2 1.6-2.1 1.9h10.6c.2-.6.4-1.3.6-2-.9 0-1.7-.5-2.2-1.1-.1-1.7-.7-3.2-1.8-4.5l.3-.2c5.4.1 7.1 1.7 7 3.2l4.7 1.3c-.2.7-.9.7-1.5.7-1.8 1-3.7 1.9-5.7 2.6h5.1l2.6-3 2.5 1.6c-1.4-2.3-3.3-4.3-5.5-5.9l.2-.4c7.6-.4 10.1 2.3 10.1 4.6.1 1.5-1.1 2.8-2.6 2.9h-.1l.4.2c-.3.5-.9.6-2 .6h-4.5l4.7 2.6c-.3.5-.9.6-2 .6h-11v3h10.1l2.5-2.8 4.6 3zM262 186.6c.1.6.2 1.1.2 1.7 0 4-2.8 5.9-5.2 5.9-1.6 0-3.2-.8-3.2-2.4.1-1.3 1-2.3 2.3-2.6 2-.1 4.7-1 5.4-2.6h.5zm15 8.8v2.6h5.8l2.5-2.6H277zM330.5 177.3h-8.9v21.8H315v-28.3h15.5v6.5zm-1.1-5.3h-13.1v25.9h4.3v-21.8h8.9V172zM382.8 195.9c-.4.6-1.1.8-2.6.8h-18c4.6 4.9 13.5 8 21.4 9l-.1.6c-3 .8-5.2 3.4-6 7.4-7.8-3.2-12.7-8.3-15.9-16v15.7c0 .1-1.5 1.9-8.3 1.9v-12.4c-5.3 4.9-12.6 8.6-21 11.1l-.4-.7c6.7-4 12.2-9.7 15.9-16.6h-15.2l-.3-.9h21v-7h-8.4v.9c0 .2-1.2 2.8-7.5 2.8V173l8.1 3h3v-6.8H333l-.3-.9H372l3.9-5 7.2 5.1c-.4.6-1.1.8-2.6.8h-13.6v6.8h3.2l2.9-3.7 7.6 5.4c-.6.7-1.3 1.1-2.2 1.2v10.9c0 .1-2.2 1.6-7.6 1.6V189H359v.1l4.5.3c-.1.8-.5 1.2-2 1.5v5.1h10.3l3.9-5 7.1 4.9zm-38-19.1V188h3.5v-11.2h-3.5zm10.9-7.6v6.8h3.9v-6.8h-3.9zm0 18.8h3.9v-11.1h-3.9V188zm15-11.2h-3.8V188h3.8v-11.2zM395.3 187.9c-1.8 2.2-2.8 4.9-3 7.7 0 4.2 3.3 7.6 12.2 7.6 5.9 0 10.8-.8 13-1.7 4.3.9 5.6 2.8 5.6 4.8 0 3.7-7.2 3.8-17.9 3.8-11.1 0-16.4-5.2-16.4-11.5 0-3.9 2-7.9 6-11.3l.5.6zm10.9-9.5c-2.9.7-5.8 1-8.7 1-3.3 0-7.5-3.5-7.2-7l.3.1c1.2 1.1 3.6 1.2 6.6 1.2 6.1 0 12-2.5 14.9-2.8 3.4.2 6.9 2.5 6.9 5.5 0 1.6-1.9 2.5-3.5 2.6-3.5.2-9.1 1.6-15.1 4.7l-.4-.6c1.1-.8 5.1-3.2 6.4-4.4l-.2-.3zm11.5-12.4c4.9 1 8 3.3 8 6.1.1 1.2-.8 2.3-2 2.4h-.1c-1 .1-1.9-.6-2.1-1.6-.5-2.6-2-4.8-4.2-6.3l.4-.6zm6.9-2.7c4.9 1 8 3.3 8 6.1.1 1.2-.8 2.3-1.9 2.4h-.1c-1 .1-1.9-.6-2.1-1.6-.6-2.6-2.1-4.8-4.4-6.3l.5-.6zM443.8 187.3c-1.8 2.2-2.8 4.9-3 7.7 0 4.2 3.3 7.6 12.2 7.6 5.9 0 10.8-.8 12.9-1.7 4.3.9 5.6 2.8 5.6 4.8 0 3.7-7.2 3.8-17.9 3.8-11.1 0-16.4-5.2-16.4-11.5 0-3.9 2-7.9 6-11.3l.6.6zm10.9-9.5c-2.9.7-5.8 1-8.8 1-3.3 0-7.5-3.3-7.1-7l.3.1c1.2 1.2 3.2 1.2 5.9 1.2h.6c6.1 0 13.1-2.8 14.9-2.8 3.4 0 6.9 2.3 6.9 5.5 0 1.6-1.9 2.5-3.5 2.6-3.5.2-9.1 1.6-15.1 4.6l-.4-.5c1.1-.8 5.1-3.2 6.4-4.4l-.1-.3zM485.4 211.6c13.6-1.4 22.5-6.7 22.5-13.7 0-5.3-1.5-8.9-7.6-8.9-2.9 0-9.8 2.1-15.6 9.9-1.1 1.4-2.1 3.4-3.9 3.4-2.1 0-3.4-1.6-3.4-3.9 0-3.6 1.7-3.9 3.9-6.2 4.8-4.9 13.2-13.7 16.9-17.3 1.2-1.1 1.9-1.8 1.9-2.1 0-.1-.1-.3-.4-.3-3.6.5-7.2 1.7-10.4 3.5-1.2.8-1.6 1.6-3 1.6-2.5 0-5.5-3.3-5.5-6.2 0-1.4.5-2.9 1.5-3.9l.3.1c.1 1.9 1.7 3.4 3.6 3.4h.2c3.5 0 9.4-.9 12.1-2 1.5-.6 2.7-1.8 3.3-1.8 2.1 0 6.4 2.5 6.4 5.2 0 2.1-2.3 2.4-4.2 3.8-5.8 4.5-11.1 9.4-15.9 14.9l.1.1c5-3.2 10.2-4.9 14.2-4.9 7.6 0 13.2 4.9 13.1 12.1 0 9.9-8.9 14.1-29.9 14.3l-.2-1.1zM520.1 207.6h10.4V182h7.8v33.3H520v-7.7zm1.4 6.2H537v-30.4h-5V209h-10.5v4.8zM493.8 113v13.2h12.1v4.7h-12.1v14h-4.6v-14h-12.1v-4.7h12.1V113h4.6z"/><path class="st2" d="M74.7 34.4V38c2.1.6 4 1.6 5.7 2.9 1 .7 1.6 1.8 1.7 3 0 .5-.1.9-.4 1.2-.2.2-.5.4-.8.4-.6 0-1.1-.4-1.6-1.3-1-2.2-2.6-4.1-4.6-5.5v5.8l.1 14.7c0 .9-.6 1.3-1.8 1.3-.8 0-1.2-.4-1.2-1.1 0-.1 0-1 .1-2.5.2-4.8.3-10.7.4-17.7-2.2 4.6-5.4 8.7-9.3 12h-.2c-.2 0-.3-.1-.3-.3v-.1c4-4.9 7.1-10.4 9-16.4H66c-1 0-1.9.1-2.9.3l-.4-1.7c1.1.2 2.2.3 3.3.3h6v-7.6c-2.7.6-5.5 1-8.3 1.2-.2 0-.3-.1-.3-.4s0-.2.2-.3c4.4-.8 8.6-2.2 12.6-4.1 1.1-.5 2.2-1.2 3.1-2 2 1.4 3 2.3 3 2.7s-.3.5-.8.5c-.4 0-.8-.1-1.2-.2-1.8.7-3.7 1.4-5.6 1.9v8.2H78c1.1-1.3 1.8-2 2.1-2 .8.4 1.6.9 2.2 1.6.7.5 1 .9 1 1.2 0 .3-.2.4-.6.4h-8zM98.1 56H87.4v2.2c0 .8-.6 1.2-1.8 1.2-.8 0-1.2-.3-1.2-1l.2-18.9c0-7.2-.1-11.9-.2-14 1.2.5 2.3 1.1 3.4 1.7h9.9c1-1 1.5-1.5 1.7-1.5.7.3 1.3.7 1.9 1.3.5.5.7.8.7 1s-.4.7-1.2 1.3v9.5l.2 19.1c0 .8-.6 1.2-1.8 1.2-.8 0-1.2-.3-1.2-1l.1-2.1zm0-1.1V28.5H87.5v26.4h10.6zM126.4 44.7v-.4c0-1.5 0-3-.2-4.5 1.2.1 2.5.3 3.7.5.4.1.6.3.6.6s-.4.6-1.4 1v2.8h12.8c1.3-1.5 2.1-2.3 2.3-2.3 1 .4 1.8 1 2.6 1.8.7.6 1.1 1 1.1 1.3s-.2.4-.6.4h-17.6c2.3 2.7 5.2 4.9 8.3 6.6 3.3 1.6 6.7 2.7 10.3 3.2.1 0 .2.1.2.2s-.1.3-.2.3c-.5.1-1 .4-1.4.7-.3.4-.6.8-.8 1.3-.1.4-.4.6-.8.6-.7-.1-1.4-.3-2.1-.6-2.4-1-4.7-2.3-6.8-3.8-3-2.1-5.6-4.7-7.6-7.8.2 6.3.3 10.7.3 13.2 0 .9-.6 1.3-1.8 1.3-.8 0-1.2-.4-1.2-1.1 0-.6.1-2.3.1-5 .1-3.2.2-5.6.2-7-2.5 2.7-5.4 5-8.6 6.9-3.1 1.7-6.3 3.2-9.7 4.2-.2 0-.3-.1-.3-.4 0-.1 0-.2.1-.2 6.4-2.9 12.1-7.2 16.7-12.5h-12.4c-1.1 0-2.2.1-3.2.3l-.4-1.7c1.2.2 2.4.3 3.7.3h14.1zM114.9 39v.8c0 .8-.6 1.1-1.7 1.1-.8 0-1.1-.3-1.1-.9l.1-6.8c0-2.6-.1-4.5-.2-5.9 1.1.5 2.2 1 3.2 1.6h6.6v-5.4h-10c-1 0-2.1.1-3.1.3l-.4-1.6c1.2.2 2.4.3 3.6.3h30.6c1.2-1.5 2-2.2 2.2-2.2.9.4 1.8 1 2.5 1.7.7.5 1 .9 1 1.2s-.2.4-.6.4h-13.7V29h6.9c.9-.9 1.4-1.4 1.6-1.4.7.3 1.3.7 1.8 1.2.5.4.7.8.7 1s-.4.7-1.2 1.2v2.4l.1 6.5c0 .7-.6 1.1-1.6 1.1-.8 0-1.2-.3-1.2-1v-1h-26.1zm6.9-1.1v-7.8h-6.9v7.8h6.9zm2.6 0h6.8v-7.8h-6.8v7.8zm6.8-8.9v-5.3h-6.8V29h6.8zm9.7 9v-7.8h-7.1V38h7.1zM171.2 47.1v-4.2h-9v.8c0 .7-.6 1.1-1.7 1.1-.8 0-1.2-.3-1.2-.9l.2-8.5c0-2.8-.1-5-.2-6.7 1.1.5 2.2 1 3.3 1.6h20.5c.9-1 1.4-1.5 1.6-1.5.7.3 1.3.7 1.8 1.2s.8.8.8 1.1-.4.7-1.2 1.2v3.2l.2 8c0 .8-.6 1.2-1.7 1.2-.8 0-1.1-.3-1.1-.9V43h-9.6v4.2h13.9c1.3-1.5 2-2.2 2.2-2.2.9.4 1.8 1 2.5 1.7.7.6 1 1 1 1.2s-.2.4-.6.4h-18.4c2.2 2.3 4.9 4 7.9 5.2 3.7 1.4 7.6 2.4 11.6 2.8.1 0 .2.1.2.2s-.1.2-.2.3c-.5.1-1 .3-1.3.6-.3.4-.6.8-.7 1.2-.2.6-.5.8-.8.8-.6-.1-1.3-.2-1.9-.4-2.7-.8-5.3-2-7.7-3.4-3-1.8-5.7-4.1-7.8-6.9.2 5.8.3 9.4.3 10.9 0 .9-.6 1.3-1.9 1.3-.8 0-1.2-.4-1.2-1.1s.1-3.9.4-10c-5.1 4.9-11.4 8.3-18.3 9.8-.2 0-.4-.1-.4-.4 0-.1 0-.2.1-.2 6.3-2.1 12-5.9 16.5-10.9h-12.6c-1 0-2 .1-3 .3l-.4-1.7c1.1.2 2.2.3 3.3.3l14.6.1zm-5.8-22.8v-.6c0-1.3-.1-2.7-.2-4 1.3.1 2.6.3 3.8.6.4.1.6.3.6.5s-.5.7-1.5 1v2.4h9.1v-.4c0-1.4-.1-2.8-.2-4.2 1.3.1 2.5.3 3.8.6.4.1.7.3.7.6s-.5.6-1.5 1v2.4h7.7c1.2-1.5 1.9-2.2 2.2-2.2.9.4 1.8 1 2.6 1.7.6.5 1 .9 1 1.2s-.2.4-.6.4h-13c0 .5.1.9.1 1.5v.6c0 .8-.6 1.2-1.7 1.2-.8 0-1.2-.3-1.2-1l.1-2.2H168l.1 2.2c0 .8-.6 1.2-1.7 1.2-.8 0-1.2-.3-1.2-1V27c0-.5.1-1 .1-1.6h-8.7c-1 0-2 .1-2.9.3l-.4-1.6c1.1.2 2.2.3 3.3.3h8.8zm5.8 17.5V37h-9v4.8h9zm0-5.9v-4.5h-9v4.5h9zm2.7 5.9h9.6V37h-9.6v4.8zm0-5.9h9.6v-4.5h-9.6v4.5zM219.7 39.2h12.6c1.5-1.8 2.3-2.7 2.6-2.7 1 .5 1.9 1.2 2.7 2 .8.7 1.2 1.1 1.2 1.4s-.2.4-.6.4h-18.4v5.5l.2 11.1c0 1.2-.6 2.3-1.6 2.8-.9.5-1.9.8-2.9.8-.2 0-.4 0-.5-.1-.1-.2-.2-.4-.2-.6-.2-.7-.7-1.3-1.4-1.6-1.4-.6-2.8-1-4.2-1.3-.1 0-.2-.1-.2-.3s.1-.3.2-.3c3.5.4 5.8.5 7 .5.4.1.8-.2.8-.6V40.3h-14.9c-1.2 0-2.3.1-3.5.2l-.4-1.7c1.3.2 2.6.3 3.9.3h15v-.2c0-3.6-.1-5.8-.2-6.8 1.4.2 2.4.3 3 .5 2.8-2.3 5.3-5 7.5-7.9h-20.3c-1.2 0-2.5.1-3.7.3l-.4-1.7c1.3.2 2.7.3 4 .3h20.4c.5-.6 1.2-1.1 1.9-1.5.3 0 1 .5 2.1 1.6.6.6.9 1 .9 1.3s-.6.6-1.9.9c-2.8 2.8-5.9 5.2-9.3 7.1.2.1.3.2.3.4 0 .4-.5.8-1.5 1.2l-.2 4.6zM243.7 53.7l-.4-1.6c1.4.2 2.8.3 4.2.3h28.7c1.7-2 2.7-3 3-3 1.1.6 2.1 1.4 3 2.2.8.7 1.2 1.2 1.2 1.5s-.2.4-.6.4h-35.2c-1.3 0-2.6.1-3.9.2zm5.4-23.8-.4-1.6c1.3.2 2.7.3 4 .3h18.6c1.7-1.9 2.6-2.8 2.9-2.8 1 .6 2 1.3 2.9 2.1.9.7 1.3 1.2 1.3 1.5s-.2.4-.6.4h-25c-1.3-.1-2.5 0-3.7.1zM296.6 34.2v3.6c1.6.6 3.1 1.5 4.3 2.8.7.7 1.1 1.7 1.2 2.7 0 .4-.1.9-.4 1.2-.2.3-.5.4-.8.4-.6 0-1-.5-1.3-1.6-.4-1.9-1.5-3.6-3-4.8v21.4c0 .8-.6 1.2-1.7 1.2-.8 0-1.2-.3-1.2-1 0-.2 0-1 .1-2.4.2-4.6.3-10.2.4-17-1.6 4-3.8 7.6-6.7 10.8h-.1c-.2 0-.4-.1-.4-.3v-.1c3.3-5.2 5.5-10.9 6.7-16.9h-3.3c-.9 0-1.8.1-2.6.3l-.4-1.7c1 .2 2 .3 3 .3h3.6v-7.9c-2 .4-3.9.7-5.9.9-.2 0-.3-.1-.3-.4 0-.1.1-.2.1-.2 3.2-.8 6.3-1.9 9.2-3.5.9-.5 1.8-1.1 2.5-1.8 1.9 1.4 2.8 2.2 2.8 2.5s-.3.5-.9.5c-.4 0-.7-.1-1.1-.1-1.3.6-2.6 1-3.9 1.4v8.6h1.8c1-1.2 1.6-1.8 1.9-1.8s.9.5 2 1.4c.6.5.9.8.9 1.1s-.2.4-.6.4h-5.9zm19.2 13.1v4.8h6.6c1.1-1.3 1.7-2 1.9-2 .8.4 1.5 1 2.2 1.6.6.5.9.9.9 1.1s-.2.4-.6.4h-11.1V58h8.3c1.2-1.4 1.9-2.1 2.1-2.1.9.4 1.6 1 2.3 1.7.6.5.9.9.9 1.1 0 .3-.2.4-.6.4H303c-1 0-2 .1-2.9.3l-.4-1.7c1.1.2 2.2.3 3.4.3h10v-4.8h-7.9c-.9 0-1.8.1-2.7.3l-.5-1.7c1 .2 2.1.3 3.2.3h7.9v-4.8h-6.5v.7c0 .7-.5 1.1-1.6 1.1-.8 0-1.1-.3-1.1-1l.2-7.9c0-3.5-.1-6-.2-7.5 1.1.4 2.1.9 3.1 1.5h6.2V30h-8.3c-1 0-1.9.1-2.9.3l-.4-1.7c1.1.2 2.2.3 3.3.3h8.3V25c-3.3.4-6.6.5-9.9.5-.2 0-.2-.1-.2-.4s.1-.2.2-.3c5-.5 10-1.5 14.8-2.9 1.6-.4 3-1.1 4.4-1.9 2.1 1.7 3.2 2.7 3.2 3 0 .3-.2.4-.7.4-.6 0-1.1-.1-1.6-.4-2.5.6-5 1.2-7.5 1.5v4.1h7.6c1.2-1.4 2-2.1 2.2-2.1.9.4 1.7 1 2.4 1.6.6.5 1 1 1 1.2s-.2.4-.6.4H316v4.2h6.6c.8-.9 1.4-1.4 1.6-1.4.6.3 1.2.7 1.6 1.1.5.5.8.8.8 1.1s-.4.6-1.1 1.1v3.3l.1 8.1c0 .8-.5 1.2-1.6 1.2-.8 0-1.2-.3-1.2-.9v-.4l-7 .2zm-9.1-1.1h6.5v-5h-6.5v5zm0-6.2h6.5v-4.8h-6.5V40zm9.1 6.2h6.9v-5h-6.9v5zm0-6.2h6.9v-4.8h-6.9V40zM343.2 30.6h2.2c1-1.2 1.5-1.8 1.8-1.8.8.3 1.4.8 2 1.5.5.4.7.7.7 1s-.2.4-.6.4h-6.2v10c1.8-.7 3.5-1.4 5.2-2.2h.1c.2 0 .3.1.3.3 0 .1 0 .1-.1.2-1.8 1.2-3.6 2.3-5.5 3.3 0 4.7 0 8.9.1 12.4v3.9c0 .9-.6 1.3-1.8 1.3-.8 0-1.2-.3-1.2-1v-2.2c.1-3.7.1-8.1.1-13.2-1.6.7-3.2 1.4-4.8 2-.1 1-.4 1.5-.8 1.5s-1.1-1.3-1.9-3.8c.8 0 1.6-.1 2.4-.3 1.4-.3 3.1-.8 5.1-1.4v-11h-3.9c-.9 2.5-2 4.8-3.5 7 0 .1-.1.1-.2.1-.2 0-.4-.1-.4-.3v-.1c1.2-3.2 2.1-6.6 2.5-10 .2-1.4.4-2.8.4-4.2 1.6.5 2.6.8 3.1 1s.8.4.8.7-.5.6-1.4.8c-.2 1.1-.6 2.4-1 4h3.5c0-5.5-.1-9.1-.2-10.6 1.3.1 2.6.3 3.8.6.4.1.6.3.6.6s-.5.7-1.6 1.2l.4 8.3zm14.2 4.7v-7h-5.7c-.9 0-1.8.1-2.7.3l-.4-1.7c1 .2 2.1.3 3.1.3h5.7v-1.7c0-1.8 0-3.6-.2-5.4 1.3.1 2.6.3 3.9.7.4.1.6.4.6.6s-.5.8-1.6 1.2v4.7h6.4c1.2-1.4 1.9-2.1 2.1-2.1.9.4 1.6 1 2.3 1.7.6.5.9.9.9 1.1s-.2.4-.6.4H360v7h8.4c1.2-1.4 1.9-2.1 2.1-2.1.9.4 1.7 1 2.4 1.7.6.5 1 .9 1 1.1s-.2.4-.6.4h-23.4c-1 0-1.9.1-2.8.3l-.5-1.8c1.1.2 2.2.3 3.3.3h7.5zm6 7.6c0-1.8 0-3.7-.2-5.5 1.2.1 2.5.3 3.6.6.5.1.7.3.7.6s-.5.7-1.5 1.1V43h2.5c1.1-1.4 1.8-2.1 2.1-2.1.9.4 1.7.9 2.3 1.6.6.5.9.9.9 1.2s-.2.4-.6.4H366v3.3l.2 10.1c0 1.1-.5 2.2-1.5 2.8-.7.5-1.6.8-2.5.7-.3 0-.4 0-.5-.2-.1-.2-.2-.4-.2-.6-.2-.7-.7-1.2-1.3-1.4-1.2-.4-2.3-.8-3.6-1-.1 0-.2-.1-.2-.3s.1-.3.2-.3c2.7.2 4.6.3 5.8.3.5 0 .8-.2.8-.7V44H350c-.9 0-1.8.1-2.7.2l-.4-1.7c1 .2 2.1.3 3.1.3l13.4.1zm-12.2 3.8v-.1c0-.2.1-.3.3-.3 1.8.5 3.4 1.4 4.7 2.7.8.7 1.2 1.7 1.2 2.8 0 1.3-.5 1.9-1.6 1.9-.7 0-1.2-.5-1.5-1.6-.4-2.1-1.5-4-3.1-5.4zM385.8 40.7c1.9-.7 3.4-1.3 4.5-1.8h.1c.2 0 .3.1.3.3 0 .1 0 .2-.1.2-1.4 1-3 2.1-4.8 3.2l.1 15.4c.1 1.1-.4 2.1-1.4 2.7-.6.4-1.3.7-2.1.6-.4 0-.5-.2-.6-.6-.1-.6-.4-1.1-.9-1.4-.9-.4-1.8-.8-2.8-1-.1 0-.2-.2-.2-.3 0-.2.1-.3.2-.2 2 .2 3.3.3 4.2.3.5 0 .8-.3.8-.9V44c-.9.5-1.9.9-2.8 1.3-.2 1.1-.5 1.7-.9 1.7s-1-1.3-1.8-3.9c1-.2 2-.4 3.1-.8l2.3-.7V31.4h-2.3c-.8 0-1.7.1-2.5.3L378 30c1 .2 1.9.3 2.9.3h2.3c0-5.5-.1-8.8-.2-10 1.3.1 2.5.3 3.7.6.4.1.6.3.6.6s-.5.7-1.5 1.1v7.6h.7c.9-1.1 1.4-1.7 1.6-1.7s1 .5 2.1 1.5c.4.4.6.7.6.9s-.2.4-.6.4h-4.5l.1 9.4zm2.5 20.3c-.2 0-.3-.1-.3-.3 0-.1 0-.2.1-.2 2.8-1.3 5.3-3 7.5-5.1.8-.7 1.5-1.5 2.1-2.4 2.1 1.3 3.2 2.1 3.2 2.4s-.3.4-.9.4c-.3 0-.7 0-1-.1-3.1 2.7-6.8 4.5-10.7 5.3zm20.3-16.5v6.1h4.9c1.1-1.4 1.8-2.1 2.1-2.1.8.4 1.6.9 2.3 1.6.6.5.9.9.9 1.2s-.2.4-.6.4h-25.9c-.9 0-1.9.1-2.8.3l-.5-1.8c1.1.2 2.2.3 3.2.3h4.8v-6.1h-3.5c-.9 0-1.8.1-2.7.3l-.4-1.7c1 .2 2.1.3 3.1.3h3.5v-.4c0-1.7-.1-3.3-.2-4.6 1.1.1 2.3.3 3.4.6.4.1.5.3.5.5s-.4.7-1.3 1v2.9h6.6v-.7c0-1.4 0-2.9-.2-4.3 1.1.1 2.3.3 3.4.6.4.1.6.3.6.5s-.4.6-1.3 1v2.9h3.8c1-1.3 1.7-2 1.9-2 .8.4 1.5.9 2.2 1.5.6.5.9.9.9 1.2s-.2.4-.6.4l-8.1.1zM399.8 30h-6v3.6c-.1.6.2 1.1.7 1.3.8.2 1.6.3 2.4.3 2 0 3.2-.2 3.8-.7.7-.8 1.2-1.8 1.3-2.8 0-.1.1-.1.2-.1.2 0 .3.1.3.2-.1 1.2-.1 1.9-.1 2.2s.1.6.4.7c.4.1.6.4.6.8 0 .6-.4 1.1-1.2 1.4-1.9.4-3.8.6-5.7.5-2.1 0-3.5-.3-4.3-.9-.6-.7-.9-1.6-.9-2.5l.1-6.8c0-1.8-.1-3.6-.2-5.4 1 .4 1.9.8 2.9 1.4h5.4c.7-.9 1.2-1.3 1.4-1.3.6.2 1.1.5 1.5.9.5.4.7.7.7 1s-.4.6-1.1 1.1v1.4l.1 3.8c0 .6-.5.9-1.4.9-.5-.2-.9-.5-.9-1zm0-1.1v-4.8h-6v4.8h6zm6.3 15.5h-6.6v6.1h6.6v-6.1zm7.5-14.4h-5.9v3.6c-.1.6.2 1.1.8 1.3 1 .3 2 .4 3 .3 1 0 1.9 0 2.9-.2.5-.1.9-.3 1.3-.7.6-.9 1-1.8 1.2-2.9 0-.1.1-.1.2-.1.2 0 .3.1.3.2-.1.9-.1 1.7-.1 2.3 0 .3.2.7.5.8.4.1.6.4.6.8 0 .6-.4 1-1.3 1.3-1.9.5-3.9.6-5.9.5-2.4 0-4-.3-4.9-.9-.7-.6-1.1-1.6-1-2.5l.1-6.9c0-1.8 0-3.6-.2-5.4 1 .4 2 .8 2.9 1.4h5.2c.8-.9 1.3-1.3 1.5-1.3s.7.3 1.5 1c.5.4.8.7.8.9s-.4.6-1.1 1.1V30c0 .7-.5 1-1.4 1-.7 0-1-.3-1-.8V30zm-7.1 24.1c-.1 0-.1-.1-.1-.2 0-.2.1-.3.3-.3 2.6.4 5.1 1.3 7.4 2.7 1.5 1 2.3 2.1 2.3 3.2s-.4 1.5-1.2 1.5c-.4 0-.9-.4-1.6-1.3-1-1.3-2.1-2.4-3.4-3.4-1.2-.9-2.4-1.6-3.7-2.2zm7.1-25.2v-4.8h-5.9v4.8h5.9zM440.8 37.8c.5-.1 4.1-1 10.8-2.7.5-.1 1-.4 1.3-.9.2-.3.6-.6 1-.6.6 0 1.5.5 2.6 1.6s1.5 1.6 1.5 2.1-.4.9-1.3 1c-.6.1-1.2.4-1.6.9-2.6 2.6-5.4 5-8.3 7.2-.2.2-.5.2-.7.2-.3 0-.4-.2-.4-.5s.1-.5.4-.7c2.6-2.5 5-5.2 7.1-8 .1-.1.2-.3.2-.5 0-.1-.1-.2-.3-.2h-.2c-1.3.3-5.3 1.3-12 3.1v5.8c-.1 1.6 0 3.2.3 4.8.1.5.5 1 1 1.2 1.2.4 2.5.5 3.7.5 1.7 0 3.3-.1 5-.4l3-.4c.7 0 1.3.1 1.9.5.4.3.6.7.6 1.2 0 .7-.5 1.1-1.5 1.3-2 .3-4 .4-6.1.3-1.9 0-3.8 0-5.6-.3-.9-.1-1.8-.5-2.5-1-.8-.6-1.4-1.6-1.7-2.6-.3-1.3-.4-2.5-.4-3.8 0-2-.1-4.2 0-6.5-3.2.8-5.6 1.5-7.3 2.1-.6.2-1.2.4-1.7.7-.3.3-.8.5-1.3.5-1-.2-2-.7-2.6-1.5-.9-.6-1.4-1.6-1.6-2.6 0-.5.2-.7.5-.7s.4.1.6.4c.6.7 1.4 1.2 2.4 1.3 1-.1 2.1-.2 3.1-.5 1.3-.3 4-.9 7.9-1.8V31c0-.6-.2-1.2-.7-1.6-.5-.4-1.1-.6-1.8-.7-.5-.1-.7-.2-.7-.4s.2-.5.4-.6c.5-.3 1-.4 1.5-.3 1.3.1 2.6.4 3.7 1 .9.4 1.3.9 1.3 1.5-.1.5-.3.9-.6 1.2-.3.4-.4.9-.4 1.4-.3 1.2-.4 3-.5 5.3zM469.2 36.7c-.1-.1-.2-.3-.3-.5 0-.1.1-.3.2-.3.1-.1.2-.1.4-.1s.4.1.6.2c1 .6 1.9 1.3 2.6 2.2.9.8 1.4 1.9 1.5 3.1 0 .5-.2 1-.5 1.3-.3.2-.6.4-.9.4-.7 0-1.2-.6-1.5-1.8-.2-.8-.4-1.6-.8-2.4-.4-.8-.8-1.4-1.3-2.1zm20 0c0-.4-.3-.7-.9-1-.5-.3-1-.4-1.5-.5-.1 0-.2-.2-.2-.3 0-.2.1-.3.3-.4.4-.2.9-.3 1.3-.2 1.2 0 2.5.4 3.5 1.2.9.7 1.4 1.3 1.4 1.8 0 .4-.3.7-.6.8-.4.2-.8.6-1 1-2 3.9-4.5 7.6-7.4 10.8-3.1 3.4-6.8 6.2-10.9 8.1-.3.1-.6.2-.9.2-.4 0-.5-.2-.5-.6 0-.2.2-.5.4-.6 7.2-4.4 12.9-10.7 16.5-18.3.2-.7.4-1.3.5-2zm-12.3-2c-.1-.2-.2-.4-.2-.6 0-.2.2-.4.6-.4.2 0 .4.1.6.2 1.1.7 2 1.6 2.8 2.7.6.8 1 1.9 1 2.9 0 1.3-.5 2-1.5 2-.4.1-.8-.1-1-.4-.3-.5-.5-1-.5-1.5-.1-.9-.3-1.7-.6-2.5s-.7-1.6-1.2-2.4zM510.7 36.9c2.4.2 4.9.7 7.1 1.6 3.1 1.2 4.6 2.6 4.6 4.1 0 .5-.1 1-.5 1.3-.2.2-.5.4-.8.4-.7-.1-1.3-.4-1.8-1-1.2-1.2-2.5-2.3-4-3.2-1.5-.9-3-1.6-4.7-2v7.7l.1 10.6c0 1.3-.4 1.9-1.2 1.9-.5-.1-.9-.4-1.2-.8-.6-.8-1-1.8-1-2.8 0-.5.1-.9.4-1.3.3-.8.4-1.7.4-2.5.1-2.8.1-5.7.1-8.7s.1-7.3.1-13c.1-.9 0-1.8-.2-2.7-.6-.9-1.4-1.5-2.4-1.8-.3-.1-.5-.3-.5-.5s.1-.4.4-.5c.2-.1.4-.2.7-.2 1.3 0 2.6.4 3.7 1 1.3.7 1.9 1.4 1.9 2.1 0 .6-.3 1.1-.8 1.4-.2.1-.3.7-.3 1.7 0 1.9-.1 4.3-.1 7.2z"/><path style="fill:none;stroke:#651815;stroke-miterlimit:10" d="M.5.5h593.3V77H.5z"/><path class="st1" d="M549.6 185.8c2.7-.9 5.3-2 7.8-3.3l.6.3v21.4c0 2.6.6 3.1 3.4 3.1v1.3h-11.7v-1.3c3 0 3.6-.4 3.6-3.1v-15.1c0-1.6-.2-2.5-.8-2.5-.9.1-1.8.3-2.6.7l-.3-1.5zM598.5 187.6c-.2.4-.7.5-1.6.5h-10.5c2.4 5.6 6.8 10.1 12.4 12.6l-.1.4c-1.8.4-3.3 2.1-3.9 4.6-4.6-3.6-7.3-9.4-8.9-17.5h-.2v15l2-3.4 3.8 3.6c-.2.4-.7.5-1.5.5h-4.2v6.6c0 .4-1.9 1.4-3.8 1.4h-.9v-8h-5.5l-.1-.6h5.6v-8.6c-3 4.9-7.3 8.8-12.5 11.2l-.3-.4c4.8-4.3 8.3-11.2 9.8-17.5H569l-.2-.6h12.4v-8.9l6.1.6c-.1.6-.3 1-1.4 1.1v7.1h5.8l2.4-3.8 4.4 4.1z"/></g></g></svg>