<?xml version="1.0" encoding="utf-8"?>
<!-- Generator: Adobe Illustrator 25.4.1, SVG Export Plug-In . SVG Version: 6.00 Build 0)  -->
<svg version="1.1" id="レイヤー_1" xmlns="http://www.w3.org/2000/svg" xmlns:xlink="http://www.w3.org/1999/xlink" x="0px"
	 y="0px" viewBox="0 0 542.2 292.5" style="enable-background:new 0 0 542.2 292.5;" xml:space="preserve">
<style type="text/css">
	.st0{fill:#7B001E;}
	.st1{fill:#651815;}
</style>
<g id="レイヤー_2_00000057846221733817603720000000777559503788759946_">
	<g id="文字_写真">
		<path d="M66.4,217.8H51.3v-40.8h15.1v0.8c-7,3.1-11.6,9.9-11.6,19.6s4.6,16.6,11.6,19.6V217.8z M89.5,210.9v3.3H70.1v-2.6
			c2.7-2.8,5.5-5.8,7.6-8c4.8-5.2,6.8-8.9,6.8-12.6c0-4-2.3-6.6-6.1-6.6c-1,0-2,0.1-2.9,0.4l-1.1,3.4c-0.5,1.9-1.2,2.7-2.3,2.7
			c-0.9,0-1.7-0.5-2.1-1.4c0.7-4.6,4.8-7,9.4-7c5.9,0,8.7,3.3,8.7,8.1c0,4-2.1,7.2-9.2,14.2c-1.2,1.3-3.5,3.6-5.9,5.9L89.5,210.9z
			 M115.9,189c4.1,7.7,10.5,13.9,18.2,17.7l-0.1,0.4c-1.3,0.2-2.5,1.1-2.9,2.4c-6.7-4.1-12.7-11.4-16.2-20.6v18h4l2.1-2.8
			c0,0,2.3,1.9,3.8,3.3c-0.1,0.5-0.6,0.7-1.2,0.7h-8.7v8.2c0,0.4-1.2,1.1-2.4,1.1h-0.6v-9.3h-9.3l-0.3-1.3h9.6v-15.5
			c-4.2,7.8-10.6,14.2-18.4,18.4l-0.4-0.7c7.2-5.1,12.9-12.2,16.5-20.3H93.9l-0.4-1.3h18.3v-10.4l4.6,0.5c-0.1,0.7-0.5,1.1-1.6,1.3
			v8.6H127l2.3-2.9c0,0,2.6,2,4.1,3.5c-0.1,0.5-0.5,0.7-1.1,0.7L115.9,189z M156.8,178.2l4.9,3.6c-0.7,0.8-2.3,1.3-4.5,1.5v2.1
			c1.5,13.8,8.2,24.1,20.6,29.1l-0.2,0.5c-1.5,0.1-2.4,0.9-3.1,2.5c-8.9-5.1-15.2-13.8-17.1-23.9c-2.5,10.6-9.8,19.4-19.8,23.9
			l-0.4-0.7c9.8-5.2,17.2-15.9,18.6-31.3v-3.3h-10l-0.4-1.3h9.5L156.8,178.2z M192.3,197.4c0-9.7-4.6-16.5-11.6-19.6v-0.8h15.1v40.8
			h-15.1v-0.8C187.7,214,192.3,207.1,192.3,197.4L192.3,197.4z"/>
		<path class="st0" d="M329.3,171.8c3.2,3.2,4.8,7.6,4.8,13c0,5.2-1.4,9.1-4.1,11.9c-2.3,2.2-5.1,3.8-8.2,4.8
			c3.6,0.9,6.9,2.7,9.6,5.2c2.7,2.7,4.1,6.6,4.1,11.5c0.1,4.5-1.3,9-4.1,12.6c-3.5,4.2-8.5,6.3-15.2,6.3c-5.9,0-10.3-1.7-13-5.2
			c-2.4-2.9-3.7-6.6-3.7-10.4c0-2.5,0.6-4.3,1.9-5.6c0.9-1.1,2.3-1.8,3.7-1.9c1.7,0,3.3,0.7,4.5,1.9c2,2.4,2,5.8,0,8.2
			c-1,1-2.3,1.5-3.7,1.5c-1.2,0.1-2.4-0.3-3.3-1.1c2,6.2,6,9.3,11.9,9.3c3.6,0,7-1.6,9.3-4.4c2-2.7,3-6.4,3-11.1
			c0-5.4-1.4-9.5-4.1-12.2c-1.6-1.8-3.9-2.9-6.3-3c-0.6,0-1.3,0.1-1.9,0.4c-0.8,0.4-1.7,0.6-2.6,0.7c-0.6,0-1.1-0.3-1.5-0.7
			c-0.2-0.5-0.4-1-0.4-1.5c0-0.5,0.1-1,0.4-1.5c0.4-0.4,0.9-0.7,1.5-0.7c0.9,0,1.8,0.3,2.6,0.7c0.6,0.3,1.2,0.5,1.9,0.4
			c2,0,4.2-1.5,6.7-4.4c1.7-2.2,2.6-6.1,2.6-11.5c0-5.2-1.1-8.9-3.3-11.1c-1.7-1.9-4.1-3-6.7-3c-5.2,0-9,3.3-11.5,10
			c1-0.7,2.1-1.1,3.3-1.1c1.5-0.1,3,0.5,4.1,1.5c1,1,1.5,2.3,1.5,3.7c-0.1,3.2-2.8,5.7-6,5.6c-1.3-0.1-2.6-0.6-3.6-1.5
			c-1.2-1.2-1.9-3.1-1.9-5.6c0-4.2,1.7-8,5.2-11.5c2.8-2.9,6.7-4.5,10.8-4.4C322.3,167.4,326.3,168.9,329.3,171.8L329.3,171.8z
			 M356.7,225.3c1.6,1.7,2.4,4,2.2,6.3c0,5.2-2.2,10-6.7,14.5c-1.7,1.6-3.6,2.9-5.6,4.1l-1.5-2.6c4.2-2.2,7.3-6.1,8.5-10.8
			c-1,0.2-2,0.4-3,0.4c-3.5,0.2-6.5-2.5-6.7-6c0-0.2,0-0.4,0-0.7c-0.1-2.1,0.7-4.1,2.2-5.6c1.4-1.3,3.3-2,5.2-1.9
			C353.5,223,355.4,223.8,356.7,225.3L356.7,225.3z M414.6,200l2.2-32.6h30.4c0,3-0.4,5.1-1.1,6.3c-1.2,2-3.3,3-6.3,3h-20.8
			l-1.5,19.7c3.7-4.7,8-7.1,13-7.1c4.5,0,8.8,1.9,11.9,5.2c4.2,4.2,6.3,10,6.3,17.4c0,7.4-2,13.5-5.9,18.2
			c-3.7,4.7-8.8,7.1-15.2,7.1c-5.2,0-9.3-1.9-12.2-5.6c-2.1-2.5-3.3-5.6-3.3-8.9c0-2.7,0.6-4.7,1.9-5.9c2.4-2.5,6.4-2.5,8.9,0
			c0,0,0,0,0,0c1,1.1,1.6,2.6,1.5,4.1c0,1.7-0.6,3.3-1.9,4.5c-1,1-2.3,1.5-3.7,1.5c-1.2,0-2.4-0.4-3.3-1.1c1.7,5.2,5.3,7.8,10.8,7.8
			c3.8,0.1,7.4-1.7,9.6-4.8c2.5-3,3.7-8.4,3.7-16.3c0-7.7-1.5-13-4.5-16c-2-2-4.6-3.1-7.4-3c-3.7,0-7.3,2.5-10.8,7.4L414.6,200z
			 M485.9,172.2c5.9,5.9,8.9,15.7,8.9,29.3c0,14.6-3,24.9-8.9,30.8c-3.2,3.2-6.6,4.8-10,4.8c-3.4,0-6.8-1.6-10-4.8
			c-6.4-6.4-9.7-16.7-9.6-30.8c0-13.1,3.2-22.9,9.6-29.3c3.2-3.2,6.5-4.8,10-4.8S482.7,169,485.9,172.2L485.9,172.2z M471.4,172.9
			c-4.2,4.2-6.3,13.7-6.3,28.6c0,15.8,2.1,25.8,6.3,30.1c1.8,2.5,5.3,3,7.8,1.1c0.4-0.3,0.8-0.7,1.1-1.1c3.7-3.7,5.6-13.7,5.6-30.1
			c0-14.9-1.9-24.4-5.6-28.6c-1.1-1.4-2.7-2.2-4.5-2.2C474.1,170.9,472.5,171.7,471.4,172.9L471.4,172.9z M541.5,203.8
			c1.1,1.5,0.8,2.3-1.1,2.5v33.4c0,0.5-0.6,1.1-1.7,1.9c-1.1,0.8-2.4,1.3-3.8,1.3c-0.2,0-0.4-0.2-0.4-0.6v-1.9c0-0.3-0.4-0.6-1.3-1
			l-4.7-1.7c-0.5-0.4-0.5-0.6,0-0.6h6.1c1,0,1.5-0.4,1.5-1.1v-14.4h-28v20.3l-1,0.6c-1.9,0.8-3,0.8-3.4,0v-42.3l4.7,2.8h26.9l2.5-3
			L541.5,203.8z M508,220.4h11.8v-16.3H508V220.4z M524.1,220.4H536v-16.3h-11.9L524.1,220.4z"/>
		<path d="M468.3,292l-0.6,0.5c-4.7-4.7-6.9-9.8-6.9-16c-0.1-6.1,2.4-11.9,6.9-16.1l0.6,0.6c-4.1,5.9-5.2,9.9-5.2,15.5
			S464.2,286.1,468.3,292z M477.5,273.3c6.1,2.2,4.6,6.1,2.6,4.8c-0.6-1.5-1.5-3-2.6-4.1v13.6c-0.4,0.5-1.1,0.7-1.7,0.7h-0.3v-13.4
			c-1.3,2.9-3.1,5.4-5.4,7.6l-0.4-0.4c2.5-3.6,4.3-7.7,5.2-12h-4.2l-0.2-0.9h5v-5.3c-1.6,0.4-3.3,0.8-5,1l-0.2-0.5
			c3.2-1,6.3-2.4,9.1-4.2l2.6,2c-0.3,0.3-0.8,0.3-1.5,0.1c-0.8,0.3-1.9,0.7-3,1v5.8h1.2l1.3-1.7c0,0,1.5,1.3,2.5,2.2
			c-0.1,0.3-0.4,0.5-0.8,0.5h-4.2L477.5,273.3z M498.4,285.7c0.6,0.2,0.7,0.5,0.7,0.9c0,0.8-0.8,1.2-4.2,1.2h-2.1
			c-1.9,0-2.3-0.5-2.3-1.9v-10.6h-2.3c-0.6,6.6-2.6,10.4-9,13l-0.2-0.5c5.3-3,6.7-6.8,7-12.5h-1.4v0.9c0,0.2-0.8,0.6-1.6,0.6h-0.3
			v-11.3l2.1,1h5.5c1.2-2.1,2.2-4.3,3-6.5l3.1,1c-0.1,0.3-0.5,0.6-1.1,0.5c-1.2,1.8-2.6,3.5-4.1,5h3.3l1-1.1l2,1.8
			c-0.3,0.3-0.7,0.5-1.1,0.6v8.2c-0.4,0.4-1,0.6-1.6,0.6h-0.4v-1.3h-2v10.1c0,0.4,0.1,0.5,0.8,0.5h3.4c0.2,0,0.4-0.2,0.5-0.4
			c0.4-1.4,0.7-2.9,0.9-4.4h0.4L498.4,285.7z M483.9,260.2c6.3,2.9,4.5,7.1,2.4,5.5c-0.5-1.9-1.5-3.7-2.8-5.3L483.9,260.2z
			 M484.8,274.3h9.7v-7h-9.7V274.3z M508.1,282.6c2.1,2.5,4.5,2.9,9.8,2.9c3.6,0,8.5,0,12.2-0.1v0.4c-0.9,0.1-1.5,0.8-1.5,1.7H518
			c-5.7,0-8.1-0.7-10.3-4.3c-1.4,1.5-3,2.9-4.6,4.2c0.1,0.3-0.1,0.7-0.4,0.8l-1.4-2.6c1.2-0.5,3.1-1.5,4.9-2.5V274h-4.6l-0.2-0.9
			h4.3l1.2-1.6l2.7,2.2c-0.4,0.3-0.9,0.5-1.5,0.5L508.1,282.6z M502.9,260.8c7.8,2.4,6.3,7.4,3.8,5.9c-0.9-2.2-2.3-4.1-4.1-5.6
			L502.9,260.8z M508.5,282.5c5-3.7,8.8-9.7,10.2-17.3c-0.1-0.7-0.2-1.5-0.3-2.3h-6.2L512,262h5.7l1.1-1.6l2.9,2.1
			c-0.6,0.5-1.5,0.8-2.3,0.8c1.2,7.3,4.1,14.2,10.8,17.5l-0.1,0.4c-0.9,0.2-1.6,0.8-1.9,1.7c-4.4-2.9-6.8-7.2-8.3-12.7
			c-2.1,5.4-5.9,9.9-10.9,12.8L508.5,282.5z M532.9,259.5c4.2,2.7,8.3,7,8.3,14.5s-4.2,11.8-8.3,14.5l-0.5-0.6
			c7.7-5.9,9.1-16.9,3.2-24.6c-0.9-1.2-2-2.2-3.2-3.2L532.9,259.5z M309.4,265.3l0.9,0.9L300,276.4l10.2,10.2l-0.9,0.9l-10.2-10.2
			l-10.3,10.3l-0.9-0.9l10.3-10.3L288,266.2l0.9-0.9l10.2,10.2L309.4,265.3z M290.3,278.7c-1.3,0-2.3-1-2.3-2.3c0-1.3,1-2.3,2.3-2.3
			c1.3,0,2.3,1,2.3,2.3c0,0,0,0,0,0C292.6,277.7,291.6,278.7,290.3,278.7z M296.8,267.6c0-1.3,1-2.3,2.3-2.3s2.3,1,2.3,2.3
			s-1,2.3-2.3,2.3h0C297.9,269.9,296.8,268.9,296.8,267.6z M301.5,285.2c0,1.3-1,2.3-2.3,2.3s-2.3-1-2.3-2.3s1-2.3,2.3-2.3h0
			C300.4,282.9,301.5,284,301.5,285.2z M308,274.1c1.3,0,2.3,1,2.3,2.3s-1,2.3-2.3,2.3s-2.3-1-2.3-2.3v0
			C305.7,275.1,306.7,274.1,308,274.1z M322.8,284.3c1.5,2.3,4.2,3.3,7.7,3.5c3.4,0.1,10.3,0,13.9-0.2c-0.3,0.8-0.6,1.5-0.7,2.4
			c-3.4,0.1-9.7,0.2-13.1,0.1c-4-0.2-6.8-1.3-8.8-3.7c-1.5,1.3-3,2.6-4.7,4l-1.2-2.3c1.6-1.1,3.2-2.3,4.7-3.5v-7.9h-4.3v-2.2h6.6
			L322.8,284.3z M321.8,269.3c-1.5-1.9-3.2-3.6-5.3-4.9l1.7-1.4c2,1.3,3.9,2.9,5.4,4.8L321.8,269.3z M335.9,276.5
			c1.2,3.8,4.2,6.7,8.1,7.7c-0.6,0.6-1.1,1.2-1.5,1.9c-3.8-1.2-6.8-4.2-8.1-8c-1,2.8-3.2,5.6-8.1,7.8c-0.4-0.6-1-1.2-1.5-1.7
			c5.4-2.2,7.2-5.1,7.7-7.8h-8v-2.1h8.2v-4.3h-7.3v-2h3.9c-0.6-1.8-1.5-3.5-2.7-5l2-0.8c1.2,1.5,2.2,3.1,2.8,4.9l-1.9,0.8H343v2
			h-7.9v3.5c0,0.3,0,0.6,0,0.8h8.9v2.1L335.9,276.5z M341.4,263c-1,1.8-2.1,3.5-3.3,5.1l-1.9-0.7c1.1-1.6,2.1-3.4,2.9-5.2L341.4,263
			z M354.3,275.2c0.9,1,4,5,4.6,6.1l-1.5,1.8c-0.6-1.1-2-3.5-3.1-5.3v12.7h-2.1v-12.8c-1,3.1-2.5,6.1-4.3,8.8
			c-0.3-0.8-0.7-1.5-1.2-2.2c2.1-2.9,3.8-6.2,4.8-9.6h-4.3v-2.2h5v-10.2h2.1v10.2h5v2.2h-5L354.3,275.2z M349.1,271.5
			c-0.3-2.4-0.8-4.7-1.7-6.9l1.7-0.4c0.9,2.2,1.5,4.5,1.8,6.8L349.1,271.5z M359.4,264.6c-0.7,2.4-1.6,4.7-2.5,7l-1.5-0.5
			c0.8-2.3,1.5-4.6,2-7L359.4,264.6z M371.5,281.8v8.7h-2.2v-8.3l-9.6,1.8l-0.4-2.1l10-1.8v-17.8h2.2v17.4l3.6-0.7l0.4,2.1
			L371.5,281.8z M365.2,277.5c-1.5-1.5-3.3-2.7-5.1-3.7l1.1-1.6c1.9,0.9,3.6,2.1,5.2,3.5L365.2,277.5z M366.5,270
			c-1.5-1.5-3.1-2.9-4.9-4l1.2-1.5c1.8,1,3.4,2.3,4.9,3.8L366.5,270z M392.1,277.1v1c-0.4,7.7-0.7,10.5-1.5,11.5
			c-0.5,0.6-1.2,0.9-2,0.9c-1.3,0.1-2.5,0.1-3.8,0c-0.1-0.7-0.3-1.4-0.6-2c1.5,0.1,3,0.1,3.5,0.1c0.4,0.1,0.8-0.1,1-0.3
			c0.6-0.6,0.9-3,1.1-9.1h-5.1c-0.7,4.5-2.1,8.8-5.4,11.5c-0.4-0.6-1-1.2-1.6-1.6c4.2-3.4,5-9.7,5.3-15.3h-3.4v-10.1h12.2v10.1h-6.6
			c-0.1,1.1-0.2,2.2-0.3,3.3L392.1,277.1z M381.8,271.7h7.9v-6h-7.9V271.7z M397.3,283H395v-17h2.2L397.3,283z M404.8,262.9v24.6
			c0,1.5-0.4,2.3-1.4,2.7s-2.8,0.4-5.6,0.4c-0.2-0.8-0.5-1.6-0.8-2.3c2.2,0.1,4.1,0.1,4.7,0s0.8-0.2,0.8-0.8v-24.6L404.8,262.9z
			 M415.4,284.3c1.5,2.3,4.3,3.3,8,3.5c3.4,0.1,10.3,0,14-0.2c-0.4,0.8-0.6,1.5-0.8,2.4c-3.4,0.1-9.8,0.2-13.2,0.1
			c-4.1-0.2-7-1.2-9-3.7c-1.4,1.3-2.9,2.6-4.4,4l-1.2-2.3c1.5-1.1,3-2.3,4.4-3.6v-7.9h-3.9v-2.2h6.2L415.4,284.3z M414.5,269.4
			c-1.4-1.9-3.1-3.7-5-5.1l1.7-1.4c1.9,1.4,3.7,3.1,5.1,5L414.5,269.4z M427.7,262.3c2.6,3.3,5.9,5.9,9.7,7.6
			c-0.5,0.6-1,1.3-1.4,2.1c-3.6-1.9-6.7-4.5-9.3-7.6c-2.5,3.2-5.6,5.8-9.2,7.7c-0.3-0.7-0.7-1.3-1.2-1.9c3.7-1.8,6.8-4.5,9.2-7.9
			L427.7,262.3z M422.9,278.7c-1.1,2.3-2.6,4.4-4.5,6.2c-0.6-0.4-1.2-0.8-1.8-1.2c1.8-1.5,3.2-3.4,4.2-5.5L422.9,278.7z
			 M436.5,276.8H428v7.1c0,1.1-0.2,1.7-1,2c-1.3,0.3-2.7,0.4-4,0.3c-0.1-0.7-0.3-1.3-0.6-2h2.9c0.4,0,0.5-0.1,0.5-0.4v-7h-8.1v-2
			h8.1v-2.8h-4.5v-1.9h11.4v1.9H428v2.8h8.5L436.5,276.8z M434.5,284.8c-1.1-2.1-2.5-4.1-4.2-5.8l1.8-0.9c1.7,1.7,3.2,3.7,4.3,5.8
			L434.5,284.8z"/>
		<path class="st1" d="M60.7,38.6c-0.5,0.7-1.3,0.9-3.1,0.9H36.1c5.4,5.8,16.1,9.5,25.5,10.7l-0.1,0.8c-3.5,1-6.1,4-7.2,8.7
			c-9.3-3.8-15.2-9.9-18.9-18.9v18.6c0,0.1-1.8,2.3-9.9,2.3V46.8C19.3,52.6,10.6,57,0.4,60L0,59.1c8-4.7,14.5-11.5,18.9-19.6h-18
			l-0.3-1h25v-8.3h-10v1c0,0.3-1.4,3.3-9,3.3V11.4l9.6,3.6h3.5V7H1.3L1,6h46.9l4.7-6l8.6,6.1C60.6,6.8,59.8,7,58,7H41.8v8h3.8
			l3.4-4.4l9,6.3c-0.7,0.8-1.6,1.3-2.6,1.4v12.9c0,0.1-2.6,1.8-9.1,1.8v-2.8H32.4v0.1l5.4,0.4c-0.1,0.9-0.6,1.4-2.4,1.7v6.1h12.2
			l4.6-5.9L60.7,38.6z M15.5,16v13.2h4.2V16H15.5z M28.4,7v8H33V7H28.4z M28.4,29.2H33V16h-4.6V29.2z M46.3,16h-4.5v13.2h4.5V16z
			 M109,17.7c0.9,0.5,2,0.8,3,0.7c0.4,0,2.2-0.2,2.7-0.2c1.7,0,3.8,1.5,3.8,3.2c0,3.7-8,5.5-17.6,7.5c1.4,2.9,3.8,5.1,6.8,6.3
			c2.8,1,3.7,2.8,3.7,4.9c0,2.4-1.2,3.4-3.5,3.4c-3.4,0-5.1-2.3-7.4-3.2c-2.5-0.8-5-1.3-7.6-1.3c-4.8,0-8.7,2.2-8.7,6.1
			c0,3,3.6,5.1,11.1,5.1c0.6,0,1.3-0.1,1.9-0.1c2.6-0.1,5.1-0.4,7.6-1c3.1,0,5.7,3.3,5.7,5.1c0,3-4.9,3.7-13.4,3.7
			c-13.1,0-20.5-3.8-20.5-10.6c0-6.6,7.9-11.3,17.4-11.3c1.5,0,3,0.2,4.5,0.5l-0.1-0.2c-1.2-0.8-2.6-3.5-3.9-6.3
			c-4.9,1-10,1.7-15,1.9c-6.3,0-8.1-2-9.8-7.2l0.9-0.5c2.5,2.4,4.6,2.6,7.7,2.6h1.4c4.5-0.2,8.9-0.8,13.3-1.8
			c-0.6-1.7-1.4-4.3-1.7-5.5c-3,0.6-6,1-9.1,1.1c-3.9,0-7.1-1.8-8.8-6.4l0.5-0.5c1.9,1.3,4.1,1.9,6.4,1.8c3.2-0.1,6.4-0.4,9.5-1.1
			c-0.3-1-0.8-3.5-1-4.3c-0.4-1.6-1.9-2.7-3.5-2.5c-0.8,0-1.6,0.1-2.4,0.5l-0.4-0.2c0.4-2.6,3.3-4.7,7.6-4.7c4.2,0,5.8,1.8,5.8,3.1
			c0,0.4-0.1,2.6-0.1,3.1c0.1,1.2,0.2,2.4,0.4,3.6c2.4-0.6,5.4-1.6,6.1-4.4c4.7,0,8.4,1,8.4,3.3c0,1.9-2.2,2.9-4.2,3.8
			c-3,1.2-6.1,2.2-9.3,2.9c0.4,1.8,0.9,3.6,1.5,5.3c2.6-0.6,9.9-2.5,9.9-5.1c0-0.2,0-0.3-0.1-0.5L109,17.7z M141.4,36.7
			c3.8-4,8.4-7.3,14.7-7.4c5.8,0,8.6,4.8,8.6,9.6c0,1.5-0.1,4.5-0.1,5.9c0,3.6,1.8,4.5,5.6,4.5c6.4,0,11.3-4.7,15-13.7l0.8,0.2
			c-2.2,13.2-8.3,21.7-18.6,21.7c-7.6,0-11.3-4.2-11.3-9.8c0-1.7,0.2-5.7,0.2-7.3c0-5.5-0.5-7.8-3.7-7.8c-4.4,0-9.4,5.2-11.8,11.4
			c-1.1,2.6-1.9,5.4-2.4,8.2c-0.6,3.5-2.5,5.1-4.6,5.1s-4.8-1.2-4.8-4.2c0-2.6,0.6-5.2,1.7-7.6c1.9-4.3,4-8.9,6.6-13.8
			c6.4-12.3,9.6-18.4,9.6-21c0.1-0.8-0.3-1.7-0.9-2.2c-1.1-0.7-2.5-1-3.8-0.8l-0.3-0.3c1.2-1.8,3.2-3,5.4-3c4.8,0.1,9.7,2.3,9.7,6.2
			c0,2.6-2.4,4.1-4,6.1c-3.6,4.6-9.2,13.4-12,20L141.4,36.7z M221.6,17.3c0.7-1.2,2.5-1.7,4.8-1.7c4.2,0,8.8,5.4,8.8,8.2
			c0,3.7-3.2,3.6-6.6,4.2c-12.3,2.2-27.9,8-27.9,15.9c0,4.9,5.7,5.5,13,5.5c4.7,0,11.5-0.8,13.6-2.5c4.9,0.7,9,2.4,9,5.4
			c0,3.5-4.4,4.9-22,4.9c-8.9,0-19.1-2.4-19.1-12.5c0-6.9,7-11.9,12.6-15.4c-4.5-1.5-4.5-7.1-4.5-17.3c0-1.8-0.2-3.5-1.5-4.1
			c-0.8-0.4-1.7-0.7-2.6-0.7c-0.3,0-0.7,0-1,0.1L198,7.1c0.8-2.4,3.3-3.3,5.6-3.3c5.3,0.1,9.1,3.6,9.1,6.8c-0.1,1.3-0.4,2.6-0.8,3.9
			c-0.5,1.9-0.7,3.9-0.6,5.9c0,1,0,1.9,0.1,2.6c0.1,1.7,0.8,3.6,2.1,3.7c2.2-1.1,6-3,8.1-3.9c1.9-0.8,3.3-1.7,3.3-3
			s-1.6-2.4-3.1-2.2L221.6,17.3z M259.8,36.7c3.8-4,8.4-7.3,14.7-7.4c5.8,0,8.6,4.8,8.6,9.6c0,1.5-0.1,4.5-0.1,5.9
			c0,3.6,1.8,4.5,5.6,4.5c6.4,0,11.3-4.7,15-13.7l0.8,0.2c-2.2,13.2-8.3,21.7-18.6,21.7c-7.5,0-11.3-4.2-11.3-9.8
			c0-1.7,0.2-5.7,0.2-7.3c0-5.5-0.5-7.8-3.7-7.8c-4.4,0-9.4,5.2-11.8,11.4c-1.1,2.6-1.9,5.4-2.4,8.2c-0.6,3.5-2.5,5.1-4.6,5.1
			s-4.8-1.2-4.8-4.2c0-2.6,0.6-5.2,1.7-7.6c1.9-4.3,4-8.9,6.6-13.8c6.4-12.3,9.6-18.4,9.6-21c0.1-0.8-0.3-1.7-0.9-2.2
			c-1.1-0.7-2.5-1-3.8-0.8l-0.3-0.3c1.2-1.8,3.2-3,5.4-3c4.8,0.1,9.7,2.3,9.7,6.2c0,2.6-2.4,4.1-4,6.1c-3.6,4.6-9.2,13.4-12,20
			L259.8,36.7z M361.6,35.9l9.1,6.4c-0.5,0.7-1.3,0.9-3.1,0.9h-22.5v15.9c0,0.5-3,2.4-8.1,2.4h-1.9V43.2h-24.7l-0.3-1h25v-13H318
			l-0.3-1h17.5V15.7h-21.1l-0.3-1h15.6c-1.2-0.3-2.3-1-3.1-2c0-4-1.3-8.7-3.6-11.6l0.4-0.3c9.7,1.8,12.9,5.6,12.9,8.8
			c-0.1,2.5-1.8,4.6-4.3,5.1h14.1c0.9-4.6,1.5-9.3,1.9-14l13.1,2.9c-0.2,0.8-0.8,1.2-2.5,1.2c-3.3,3.7-7,7-10.9,9.9h6.7l4.9-6.1
			l9,6.3c-0.4,0.7-1.3,0.9-3.1,0.9h-19.7v12.5h4.4l4.7-5.9l8.6,6c-0.4,0.7-1.3,0.9-3.1,0.9h-14.6v13h11.6L361.6,35.9z M429.7,15.3
			l8,4.4c-0.4,0.8-1.2,0.9-2.9,0.9h-56.8l-0.3-1H403v-4.8h-19.2l-0.3-1H403V9.1h-22.3l-0.3-1h14.8c-1.3-2.8-3.3-5.2-5.8-7l0.3-0.4
			c1.4-0.2,2.9-0.3,4.3-0.3c5.7,0,7.7,2.2,7.7,4.5c0,1.3-0.7,2.5-1.7,3.3h11.8c1.3-2.5,2.4-5.1,3.2-7.8L426.4,3
			c-0.2,1.1-1.2,1.1-2.2,1.1c-3.3,1.6-6.7,2.9-10.1,3.9h9.3l4.2-4.6l8,4.7c-0.5,0.8-1.3,0.9-3,0.9h-20.7v4.7h8.5l4.1-4l7.7,4.1
			c-0.4,0.8-1.3,0.9-2.9,0.9h-17.4v4.7h13.6L429.7,15.3z M437.4,43.1c-0.5,0.8-1.2,0.9-2.9,0.9h-21.7c-0.2,0.6-0.8,1-2.4,1.2
			c-0.2,1.1-0.4,2.2-0.7,3.3h15.5l4.2-4l7.8,4.2c-0.4,0.8-1.2,0.9-2.9,0.9h-23.2c3.7,2.3,9.5,3.1,15.9,3.1c3.3,0,6.7-0.2,10.1-0.5
			l0.1,0.8c-3.2,1.3-5,4.4-5.6,8.8c-10.6-1.5-18-4.4-22.1-12.1h-0.1c-2.2,6-8.1,9.9-31,12l-0.3-1c14.6-3,19.7-6.3,21.6-10.9h-21.3
			l-0.3-1h22c0.5-1.5,0.7-3.1,0.8-4.7h-23l-0.3-1H403v-4.3h-18.9l-0.3-1H403V34h-19.9l-0.3-1h11.8c-0.9-0.3-1.7-0.9-2.2-1.7
			c0.1-2.1-0.5-4.2-1.7-6l0.4-0.3c2.3,0,4.6,0.4,6.8,1.2c-0.1-1.4-0.6-2.8-1.3-4l0.5-0.3c6.6,1,8.8,3.1,8.8,5.1s-2.6,3.8-5.1,3.5
			c-0.6,1.3-1.7,2.3-3.1,2.6h15.5c0.2-0.9,0.6-1.9,0.8-3c-1.3-0.1-2.5-0.7-3.3-1.7c-0.1-2.4-1-4.7-2.6-6.5l0.4-0.3
			c7.9,0.1,10.4,2.4,10.2,4.7l6.8,1.9c-0.3,1-1.3,1-2.2,1c-2.7,1.5-5.5,2.8-8.3,3.9h7.5l3.8-4.4l3.6,2.3c-2.1-3.4-4.8-6.3-8.1-8.5
			l0.3-0.5c11.1-0.5,14.8,3.4,14.8,6.6c0.1,2.2-1.7,4.1-3.9,4.2c0,0-0.1,0-0.1,0l0.5,0.3c-0.5,0.8-1.3,0.9-2.9,0.9h-6.5l6.9,3.8
			c-0.4,0.8-1.3,0.9-2.9,0.9h-16.3V43h14.8l3.7-4.1L437.4,43.1z M390,21.2c0.2,0.8,0.3,1.7,0.3,2.5c0,5.8-4.2,8.5-7.7,8.5
			c-2.3,0-4.7-1.1-4.7-3.5c0-1.9,1.6-3.2,3.3-3.8c3-0.2,6.9-1.5,7.9-3.8L390,21.2z M411.9,34v3.7h8.5L424,34H411.9z M30.4,87.7H18
			V118H8.6V78.6h21.8V87.7z M28.7,80.3H10.3v36h6V86.1h12.4V80.3z M95.9,116.6c-0.4,0.7-1.3,0.9-3.1,0.9H71.3
			c5.4,5.8,16.1,9.5,25.5,10.7l-0.1,0.8c-3.5,1-6.1,4-7.2,8.7c-9.3-3.8-15.2-9.8-18.9-18.9v18.6c0,0.1-1.8,2.3-9.9,2.3v-14.7
			c-6.3,5.8-15,10.2-25.1,13.2l-0.5-0.8c8-4.7,14.5-11.5,18.9-19.6H36l-0.3-1h25v-8.2h-10v1c0,0.3-1.4,3.3-9,3.3V89.4l9.7,3.6h3.5
			v-8H36.5l-0.3-1h46.8l4.7-6l8.6,6.1C95.8,84.8,95,85,93.2,85H77v8h3.8l3.4-4.4l9,6.3c-0.7,0.8-1.6,1.3-2.6,1.4v12.9
			c0,0.1-2.6,1.8-9.1,1.8v-2.8H67.6v0.1l5.4,0.4c-0.1,0.9-0.6,1.4-2.4,1.7v6.1h12.2l4.6-5.9L95.9,116.6z M50.7,94v13.2h4.2V94H50.7z
			 M63.6,85v8h4.6v-8H63.6z M63.6,107.2h4.6V94h-4.6V107.2z M81.5,94H77v13.2h4.5L81.5,94z M114,107c-2.2,3-3.6,6.3-3.6,9.2
			c0,5,4,9,14.6,9c7,0,12.9-0.9,15.4-2c5.1,1,6.7,3.3,6.7,5.7c0,4.4-8.6,4.6-21.3,4.6c-13.2,0-19.5-6.2-19.5-13.6
			c0-4.6,2.4-9.3,7.2-13.4L114,107z M127,95.8c-3.4,0.8-6.9,1.1-10.4,1.1c-3.9,0-9-4.1-8.6-8.3l0.4,0.1c1.4,1.3,4.3,1.5,7.9,1.5
			c7.2,0,14.3-3,17.7-3.3c4,0.2,8.2,2.9,8.2,6.5c0,1.9-2.2,3-4.2,3.1c-4.2,0.2-10.9,1.9-18,5.5l-0.5-0.6c1.3-1,6.1-3.8,7.6-5.2
			L127,95.8z M140.7,81.2c5.8,1.2,9.5,3.9,9.5,7.2c0.1,1.4-1,2.7-2.4,2.8c0,0-0.1,0-0.1,0c-1.2,0.2-2.3-0.7-2.5-1.9
			c-0.6-3-2.5-5.7-5.1-7.4L140.7,81.2z M148.9,78c5.8,1.2,9.6,3.9,9.6,7.2c0.1,1.4-0.9,2.7-2.3,2.8c-0.1,0-0.1,0-0.2,0
			c-1.2,0.2-2.3-0.7-2.5-1.9c-0.7-3.1-2.6-5.7-5.2-7.4L148.9,78z M175,106.4c-2.2,3-3.6,6.3-3.6,9.2c0,5,4,9,14.6,9
			c7,0,12.9-0.9,15.4-2c5.1,1,6.7,3.3,6.7,5.7c0,4.4-8.6,4.6-21.3,4.6c-13.2,0-19.5-6.2-19.5-13.6c0-4.6,2.4-9.3,7.2-13.4L175,106.4
			z M188,95.1c-3.4,0.9-6.9,1.3-10.4,1.2c-4,0-8.9-3.9-8.5-8.3l0.4,0.1c1.4,1.4,3.8,1.5,7,1.5h0.8c7.2,0,15.6-3.3,17.8-3.3
			c4.1,0,8.2,2.7,8.2,6.5c0,1.9-2.2,3-4.2,3.1c-4.2,0.2-10.9,1.9-18,5.5l-0.5-0.6c1.3-1,6.1-3.8,7.6-5.2L188,95.1z M227.8,135.1
			c16.2-1.6,26.8-7.9,26.8-16.3c0-6.3-1.7-10.5-9.1-10.5c-3.5,0-11.6,2.4-18.6,11.6c-1.3,1.6-2.5,4-4.6,4c-2.5-0.1-4.1-1.8-4.1-4.6
			c0-4.3,2-4.6,4.7-7.3c5.7-5.8,15.7-16.3,20.1-20.5c1.4-1.3,2.2-2.1,2.2-2.4c0-0.1-0.1-0.3-0.5-0.3c-4.3,0.6-8.5,2-12.4,4.1
			c-1.5,0.9-1.9,1.8-3.6,1.8c-3,0.1-6.5-3.9-6.5-7.3c-0.1-1.7,0.6-3.4,1.8-4.6l0.4,0.1c0.1,2.3,2,4.1,4.2,4c0.1,0,0.2,0,0.2,0
			c4.2,0,11.2-1,14.4-2.4c1.8-0.8,3.2-2.1,4-2.1c2.5,0,7.7,2.9,7.7,6.2c0,2.5-2.8,2.8-5,4.5c-5.6,4.2-14.7,12.6-19,17.7l0.1,0.1
			c6-3.8,12.2-5.8,17-5.8c9,0,15.7,5.8,15.6,14.3c0,11.8-10.6,16.7-35.6,16.9L227.8,135.1z M272.3,130.3h12.4v-30.3h9.3v39.4h-21.8
			V130.3z M274,137.8h18.4v-36h-6V132H274L274,137.8z"/>
	</g>
</g>
<g>
	<g>
		<path class="st0" d="M399.4,170.3c3.2,3.2,4.8,7.8,4.8,13.7c0,3-0.7,6.4-2.2,10.4c-1.5,3.2-3.6,6.1-6.3,8.5l-10,9.6
			c-1.5,1.5-5.6,5.9-12.2,13.4h18.2c5.2,0,8.8-4.3,10.8-13h1.5l-1.9,21.9h-36v-4.1c4.2-5.2,10.5-12.6,18.9-22.3
			c3.5-4.5,5.9-8.3,7.4-11.5c1.2-3,1.9-7.3,1.9-13c0-5.2-1.2-9-3.7-11.5c-2-2-4.5-3-7.4-3c-3.2,0-6.1,1.2-8.5,3.7
			c-3.2,3.2-4.8,7.2-4.8,11.9c1.2-1.7,2.7-2.6,4.5-2.6c1.5,0,2.7,0.5,3.7,1.5c1,1,1.5,2.4,1.5,4.1c0,1.7-0.5,3.1-1.5,4.1
			c-1,1-2.4,1.5-4.1,1.5c-2,0-3.6-0.7-4.8-2.2c-1.5-1.7-2.2-3.7-2.2-5.9c0-6.2,2-11.3,5.9-15.2c3.5-3.5,7.7-5.2,12.6-5.2
			C391.2,165.1,395.9,166.9,399.4,170.3z"/>
	</g>
</g>
</svg>
