<svg xmlns="http://www.w3.org/2000/svg" viewBox="0 0 670 86.15"><defs><style>.cls-1{fill:#31a129}</style></defs><g id="レイヤー_2" data-name="レイヤー 2"><g id="contents"><path class="cls-1" d="M13.83 13.08c0 .5-.26.75-.79.75h-4l.15 7.52c1.36-.29 2.58-.58 3.65-.86a1 1 0 0 1 .63 0 .28.28 0 0 1 .23.35 4.13 4.13 0 0 1-.94 1 18.93 18.93 0 0 1-4.58 2.82A26 26 0 0 0 4 26.87a2.49 2.49 0 0 1-.62.79c-.37.1-.66-.07-.86-.51L.78 23.62c-.21-.44-.06-.72.43-.82s1.45-.26 3.33-.55l-.12-8.42H1.88a.66.66 0 0 1-.75-.75q0-.78.75-.78h2.51l-.08-5.88a.36.36 0 0 1 .11-.35.5.5 0 0 1 .36-.16l3.84.16a.9.9 0 0 1 1 1 .89.89 0 0 1-.4.79.5.5 0 0 0-.22.48l.08 4h.43L10.62 11a1 1 0 0 1 .7-.39 1.08 1.08 0 0 1 .74.39l1.3 1.26a1.28 1.28 0 0 1 .47.82Zm24.72 17c-.1 1.39-1.28 2.21-3.53 2.47q-1.73.19-7.17.28l-5.4.07c-4.08-.18-6.11-1.81-6.11-4.89V15.2l-2.55.74a.69.69 0 0 1-.94-.55.68.68 0 0 1 .51-.94l3-.82v-8c0-.37.16-.54.5-.51l3.84.23c.76.06 1.15.38 1.18 1a1.06 1.06 0 0 1-.59.94.27.27 0 0 0-.12.24v4.78l1.69-.47V1.09c0-.34.17-.49.51-.47l3.6.2a.9.9 0 0 1 1 1.06.92.92 0 0 1-.51.86.25.25 0 0 0-.15.23v7.56l2.39-.66 1.72-1.77a1.15 1.15 0 0 1 .82-.39A1.39 1.39 0 0 1 33 8l2.23 1.76a.91.91 0 0 1 .39.71.87.87 0 0 1-.39.66l-.82.67v7.33q0 3.29-2.94 3.72C30 23 29.32 22.39 29.26 21c0-.65-.48-1.12-1.37-1.41l-.62-.19v2.74a1.51 1.51 0 0 1-1.53 1.65l-1.88.21c-.68.08-1-.23-1-.94v-9.67l-1.69.47v12.31c0 1.07.45 1.63 1.34 1.68a70.19 70.19 0 0 0 10.3-.27A2.41 2.41 0 0 0 34.67 26L36 23.38c.21-.39.41-.57.59-.54.37.07.52.36.47.86l-.27 2.35c-.11 1 .08 1.61.55 1.92a2.34 2.34 0 0 1 1.21 2.15ZM29.89 11.4l-2.62.74v6.46h1.45c.52 0 .84-.09 1-.29a2.21 2.21 0 0 0 .19-1.12ZM55.67 24.05a.5.5 0 0 0-.39.28q-3.14 6.81-11.17 9.2a.31.31 0 0 1-.43-.12c-.08-.13 0-.28.08-.47a41.71 41.71 0 0 0 4.82-6.77A32.4 32.4 0 0 0 50.7 21c.15-.45.48-.59 1-.44l4.08 1.34c.63.21.94.54.94 1q-.03 1.15-1.05 1.15Zm17.91-7.91q0 .78-.87.78H45.37a.77.77 0 0 1-.87-.86.76.76 0 0 1 .87-.86H66l2.7-2.71a1.24 1.24 0 0 1 1.64 0L73 15.24a1.5 1.5 0 0 1 .58.9Zm-3.33-9.92c0 .53-.29.79-.87.79h-19.9a.76.76 0 0 1-.86-.86.77.77 0 0 1 .86-.87h13.2l2.67-2.7a1.24 1.24 0 0 1 1.64 0l2.71 2.74a1.56 1.56 0 0 1 .55.9Zm3.44 23.63c-.1 1.72-1.45 2.65-4 2.78a76.64 76.64 0 0 1-8.31.08c-1.46-.11-2.19-1-2.19-2.59v-9.28a.4.4 0 0 1 .14-.35.53.53 0 0 1 .37-.12l4.23.19a.92.92 0 0 1 1 1 1 1 0 0 1-.43.83.47.47 0 0 0-.24.43V27a.48.48 0 0 0 .47.55 17.84 17.84 0 0 0 3.49 0c.55-.06 1-.54 1.45-1.45l1.53-3.33q.35-.75.78-.63c.34.08.48.39.43.94L72 25.85a1.72 1.72 0 0 0 .63 1.69 2.55 2.55 0 0 1 1.06 2.31ZM111.62 16.37a1.6 1.6 0 0 1 .08.47c0 .5-.17.78-.51.86a1.53 1.53 0 0 1-.47.08.69.69 0 0 1-.55-.23.18.18 0 0 0-.2 0 56.64 56.64 0 0 0-6.38 2.15 12.88 12.88 0 0 1 1.21 3 3 3 0 0 1 0 .55 2.4 2.4 0 0 1-1.06 2.15l-.59.39a1.89 1.89 0 0 1-1.09.32 1.26 1.26 0 0 1-1.41-1.1 32.65 32.65 0 0 0-.83-3.72C97.25 22.71 96 24.27 96 26q0 3.06 4.23 2.7a12.51 12.51 0 0 0 4-1 2.39 2.39 0 0 1 1-.2 1.83 1.83 0 0 1 1.57 1l.74 1.21a2.36 2.36 0 0 1 .36 1.26 2 2 0 0 1-1.22 2 17 17 0 0 1-6.38.94 9.54 9.54 0 0 1-5.88-1.68A6.21 6.21 0 0 1 92 26.75q.12-4.11 7-8.42c-.7-1.85-1.41-2.9-2.11-3.13a2.2 2.2 0 0 0-2.08.58l-.47 1.81A1.68 1.68 0 0 1 92.69 19a2.27 2.27 0 0 1-.62-.12l-1.45-.43c-1-.29-1.45-.83-1.45-1.61a2.69 2.69 0 0 1 .12-.7l2-7.33h-4.08a.69.69 0 0 1-.78-.78c0-.55.26-.83.78-.83h4.43L92.89.7a.56.56 0 0 1 .75-.47l4.5.78a.79.79 0 0 1 .71 1.1.88.88 0 0 1-.67.67.29.29 0 0 0-.2.11l-1.17 4.35h3.68l2.51-2.5a1 1 0 0 1 .74-.36 1.06 1.06 0 0 1 .75.36L107 7.28a1.41 1.41 0 0 1 .51.82q0 .75-.78.75H96.42l-.79 3.76a7.27 7.27 0 0 1 .94-.08q2.91 0 5.41 4.16c1.54-.79 4-1.92 7.25-3.41a.61.61 0 0 1 .9.31ZM133.64 21.11a1.05 1.05 0 0 1-.2.94l-2.51 4.2a2.2 2.2 0 0 0-.31 2 9.38 9.38 0 0 1 .35 1 2.41 2.41 0 0 1-.51 1.73 2.12 2.12 0 0 1-1.56.82 2.87 2.87 0 0 1-2.75-1.8 8.93 8.93 0 0 1-1.05-3.41 77.62 77.62 0 0 1-.32-8.43q0-6.47.35-12.38 0-.54.51-.51l4.12.32c.65.05 1 .32 1 .82a.83.83 0 0 1-.55.86.21.21 0 0 0-.12.16A129.93 129.93 0 0 0 129.6 23c0 .53.16.79.39.79a.53.53 0 0 0 .39-.24l2.24-2.08a1.63 1.63 0 0 1 .78-.5.26.26 0 0 1 .24.14Zm22.41-9.48c0 .5-.26.75-.79.75h-6.89v9c1 .28 1.8.55 2.43.78q4.81 1.77 4.82 4.27a3.92 3.92 0 0 1-.32 1.53c-.49 1.17-1 1.76-1.64 1.76a1.12 1.12 0 0 1-.75-.31l-2.31-2a10.62 10.62 0 0 0-2.51-1.64 7.23 7.23 0 0 1-1.84 4.23 5.89 5.89 0 0 1-4.25 1.85 6.5 6.5 0 0 1-4.54-1.37 5.23 5.23 0 0 1-2-4.23 4.66 4.66 0 0 1 2.43-4.39 9.35 9.35 0 0 1 5.17-1.1v-8.38h-6.47a.73.73 0 0 1-.82-.83c0-.52.28-.78.82-.78h6.47V3c0-.34.17-.49.51-.47l4.5.28c.58 0 .85.3.83.82a1.23 1.23 0 0 1-.47.86.12.12 0 0 0-.08.12v6.19h.65l2.5-2.51a1.1 1.1 0 0 1 .75-.39 1.12 1.12 0 0 1 .78.39l2.51 2.51a1.4 1.4 0 0 1 .51.83Zm-13.17 12.66a5.54 5.54 0 0 0-2.19-.16c-1.31.23-2 .86-2 1.88a1.87 1.87 0 0 0 .57 1.63 2.7 2.7 0 0 0 1.78.45c1.36-.09 1.96-1.32 1.84-3.8ZM190.33 23.89q-3.57 8.47-11.05 8.51-8.11 0-8.23-9.72v-5l.12-5.6.08-8.34c0-.37.18-.54.55-.51l4.66.27c.6 0 .89.31.86.86a.79.79 0 0 1-.59.79c-.08 0-.11.06-.11.12L176.5 12q-.17 7.45-.16 9.72A10.44 10.44 0 0 0 177 26c.63 1.15 1.88 1.72 3.76 1.72q4.18 0 8.54-4.66a.54.54 0 0 1 .86-.08.72.72 0 0 1 .17.91ZM185.71 10a3 3 0 0 1 .11.75 1.26 1.26 0 0 1-1.33 1.37 1.43 1.43 0 0 1-1.13-.67 11.26 11.26 0 0 0-2.32-2c-.28-.13-.4-.32-.35-.55.08-.42.73-.63 2-.63a3 3 0 0 1 3.02 1.73Zm3.37-2.7a2.09 2.09 0 0 1 .15.75 1.26 1.26 0 0 1-1.33 1.37c-.31 0-.89-.34-1.72-1.1l-1.73-1.57c-.31-.13-.44-.31-.39-.55.1-.41.77-.62 2-.62a2.91 2.91 0 0 1 3.02 1.74ZM234.6 19.43q0 10.82-13.52 13.12c-1 .16-1.48.07-1.48-.27 0-.18.34-.49 1-.9a28.52 28.52 0 0 0 5.92-4.63 10.46 10.46 0 0 0 2.9-6.73q.27-6-3.76-7.92a41.57 41.57 0 0 1-5.33 10.19q-4.47 6.08-9.13 5.8-4.82-.32-4.9-7-.08-4.93 4.27-8.77Q209.41 9.2 208 5.6c-.16-.42 0-.67.31-.75l4.31-1c.63-.15 1 0 1.18.51a.88.88 0 0 1-.2.9.23.23 0 0 0 0 .2c.31 1 .77 2.38 1.37 4.15a19.2 19.2 0 0 1 6.78-1.49c.13-.68.44-2.22.94-4.62.05-.31.26-.43.63-.35l4.31.82a.83.83 0 0 1 .78 1 .85.85 0 0 1-.63.82c-.1 0-.17.07-.19.12q-.36 1.57-.75 2.94a11.32 11.32 0 0 1 5.63 4.05 10.71 10.71 0 0 1 2.13 6.53Zm-20.18 2.5q-.34-.9-2.54-6.81a7.89 7.89 0 0 0-1.77 4.42 5.89 5.89 0 0 0 .2 2.28c.29.91.81 1.37 1.57 1.37a3.45 3.45 0 0 0 2.54-1.26Zm6.47-11A10.69 10.69 0 0 0 216 12.3q.78 2.31 2 5.56a33.58 33.58 0 0 0 2.89-6.86ZM249.37 33c-.91.06-1.76-.65-2.54-2.11-.61-1.15-1.21-2.3-1.81-3.45-.36-.47-.92-1.17-1.68-2.12-.29-.47-.26-.82.1-1.05a1.69 1.69 0 0 1 1.27-.24 8.63 8.63 0 0 1 6.29 3.9 4.33 4.33 0 0 1 .62 2.27 3.13 3.13 0 0 1-.58 1.9 2.11 2.11 0 0 1-1.67.9ZM37.14 61.57A16.17 16.17 0 0 0 35.06 66q-.27 1.29-1.29 1.29a4.15 4.15 0 0 1-1.1-.2q-8-2.38-12-8.38a21.77 21.77 0 0 1-7.76 5.45 29.24 29.24 0 0 1-8.23 2.31 1.5 1.5 0 0 1-1-.12c-.31-.21-.26-.46.16-.74a61.36 61.36 0 0 0 7.79-6.12 29.34 29.34 0 0 0 6-7.83.68.68 0 0 1 1-.36l4.93 2.08c.58.24.87.59.87 1.06 0 .89-.46 1.28-1.37 1.17a.16.16 0 0 0-.16.08l-1.1 1.34q5.05 3 15 3.68c.36 0 .55.14.55.35a.88.88 0 0 1-.21.51Zm-4.82 22.8a.69.69 0 0 1-.78.79H7.6q-.75 0-.75-.87 0-.66.75-.66h9v-6.15h-6.18a.66.66 0 0 1-.75-.75q0-.78.75-.78h6.19v-5.84H9.44c-.52 0-.78-.25-.78-.74a.69.69 0 0 1 .78-.79h15.08l2-2a1 1 0 0 1 .71-.36 1.14 1.14 0 0 1 .74.36l2.31 2a1.09 1.09 0 0 1 .43.79c0 .49-.26.74-.78.74h-7.64V76h2.08l1.8-1.76a.91.91 0 0 1 1.45 0L29.38 76a1.19 1.19 0 0 1 .43.78q0 .75-.78.75h-6.74v6.15h3.8l2-2.2a.94.94 0 0 1 .7-.35 1.17 1.17 0 0 1 .75.35l2.35 2.2a1.06 1.06 0 0 1 .43.69ZM75.26 56.28l-.9.86v25.63q0 1.8-1.29 1.92l-2.79.23a.77.77 0 0 1-.64-.23.86.86 0 0 1-.3-.63v-1.53h-19c.08 1.15-.28 1.78-1.09 1.88l-3.1.35c-.57.08-.86-.17-.86-.74V53.74c0-.37.16-.55.47-.55a1 1 0 0 1 .35.07l4.16 1.81h18.64l2.35-2.24a1 1 0 0 1 .74-.23 1.05 1.05 0 0 1 .7.23l2.59 2.28a.77.77 0 0 1 .31.58.86.86 0 0 1-.34.59ZM69.34 81V56.59H50.23L50.3 81Zm-1.21-18.76c0 .49-.26.74-.78.74h-5.92v4.94h1l1.25-1.26a1.09 1.09 0 0 1 .75-.35 1 1 0 0 1 .7.35l1.3 1.3c.31.31.47.56.47.74 0 .5-.27.75-.79.75h-4.68v6.42h1.88l1.25-1.25a1.06 1.06 0 0 1 .75-.36 1 1 0 0 1 .7.36l1.3 1.29a1.31 1.31 0 0 1 .47.78.66.66 0 0 1-.75.75H52.54c-.5 0-.75-.26-.75-.79s.25-.78.75-.78h4.35v-6.42h-3.53q-.78 0-.78-.75a.69.69 0 0 1 .78-.78h3.53V63h-4.67a.69.69 0 0 1-.78-.78q0-.75.78-.75h10.62l1.69-1.72a1 1 0 0 1 .7-.35 1 1 0 0 1 .75.35l1.68 1.72a1.33 1.33 0 0 1 .47.77Zm-1.57 11.83a1.15 1.15 0 0 1-.82-.35c-.78-.76-1.62-1.51-2.51-2.24a.59.59 0 0 1-.23-.55.46.46 0 0 1 .39-.43 8.67 8.67 0 0 1 1.76-.19c1.73 0 2.59.76 2.59 2.27a1.67 1.67 0 0 1-.34 1 1 1 0 0 1-.84.49ZM105.74 70a31.08 31.08 0 0 1-1.49 9.52q-1.29 4.15-5 4.12-2 0-2-2.16a2.2 2.2 0 0 0-1.72-2.19l-1.3-.43c-.6-.21-.88-.5-.86-.86s.41-.55 1.06-.47l3.25.39a1.86 1.86 0 0 0 2.2-1.1 22.61 22.61 0 0 0 1-4.7 29.49 29.49 0 0 0 .19-4.82c-.08-1.28-.63-2-1.64-2a12.24 12.24 0 0 0-3.61.39 122.11 122.11 0 0 1-6.65 16.61c-.45.91-1 1.37-1.61 1.37a2.46 2.46 0 0 1-1.33-.55l-.67-.47a1.78 1.78 0 0 1-.86-1.41 2.72 2.72 0 0 1 .36-1.18 102.29 102.29 0 0 0 5.71-13.51l-4.5.74a.34.34 0 0 0-.12.12.71.71 0 0 1-.7.63c-.47 0-.75-.2-.83-.75l-.47-3.13c-.05-.37.15-.58.59-.63 2.27-.24 4.66-.52 7.17-.86a57.4 57.4 0 0 0 1.45-7.25.55.55 0 0 1 .67-.51l3.8.71c.52.1.77.39.74.86s-.21.57-.63.7c-.07 0-.11.07-.11.12-.45 2.25-.81 3.93-1.1 5.05l3.21-.11a6.33 6.33 0 0 1 4.39 1.8c.94 1.1 1.41 3.09 1.41 5.96Zm11.56-1.6a3.83 3.83 0 0 1-.55 2 2.14 2.14 0 0 1-1.57 1.26 3.42 3.42 0 0 1-.62 0 1.93 1.93 0 0 1-1.81-1.22 2 2 0 0 0-1.64-1.29l-1.84-.16c-.63 0-1-.15-1-.54s.31-.54.94-.59l2-.16c.39 0 .51-.25.35-.67a15.9 15.9 0 0 0-4.35-5.75c-.42-.4-.59-.7-.51-.91s.56-.44 1.29-.31a13.21 13.21 0 0 1 6.82 3.41 6.78 6.78 0 0 1 2.49 4.96ZM149.23 75.05q-.07 9.8-14.38 9.79c-.47 0-.74-.13-.82-.39s0-.61.43-.74a26.19 26.19 0 0 0 6.31-2.82 6.78 6.78 0 0 0 3.37-5.61q0-4.19-3.22-4.5a4 4 0 0 0-3.29 1.29V73c0 1.12-.64 1.73-1.92 1.8l-1.8.12c-1.12.08-1.68-.42-1.68-1.49V57.65a.48.48 0 0 1 .58-.55l4.55.2a.91.91 0 0 1 1 .9.77.77 0 0 1-.59.86.16.16 0 0 0-.12.16v9.25a11.54 11.54 0 0 1 4.12-.67 8.07 8.07 0 0 1 5.23 2.12 6.54 6.54 0 0 1 2.23 5.13Zm.16-17.55q0 2.19-1.65 2.58c-.63.13-1.81-.51-3.56-1.92q-1.22-1-3.53-2.94c-.37-.23-.55-.47-.55-.7s.28-.54.82-.67a11.62 11.62 0 0 1 2.59-.31 8 8 0 0 1 3.84.9 3.32 3.32 0 0 1 2.04 3.06ZM190.41 74.3a13.19 13.19 0 0 1-1.65 7.49 7.11 7.11 0 0 1-6.5 3.44q-7.72 0-8.11-8.61c-.05-1.15-.08-2.83-.08-5h-3.57a.69.69 0 0 1-.78-.78c0-.55.26-.83.78-.83h3.61c0-1.75.09-3.78.2-6.11h-4.82c-.55 0-.83-.26-.83-.78a.73.73 0 0 1 .83-.82h4.85q.32-6.12.4-9.09a.32.32 0 0 1 .39-.36l4.82.28c.55 0 .82.32.82.9a.83.83 0 0 1-.67.86.21.21 0 0 0 0 .12q-.42 5.91-.47 7.29h.75l2.51-2.51a1 1 0 0 1 1.48 0l2.55 2.55c.34.34.51.61.51.82 0 .49-.26.74-.78.74h-7.06c-.1 2.07-.17 4.1-.19 6.11h1.8l2.51-2.5a1 1 0 0 1 .74-.36 1.06 1.06 0 0 1 .75.36l2.5 2.49a1.39 1.39 0 0 1 .51.87c0 .49-.27.74-.82.74h-8.07v4.86q.24 3.84 4.15 3.8a5 5 0 0 0 3.84-2.08 9.39 9.39 0 0 0 1.92-4.11q.19-1 .63-1c.35-.03.52.39.55 1.22ZM208 60.4a2 2 0 0 1-.47 1.25 1.41 1.41 0 0 1-1.14.59 1.25 1.25 0 0 1-1.09-.67 35 35 0 0 0-2.08-2.94.74.74 0 0 1-.12-.39c0-.42.21-.61.63-.59Q208 58 208 60.4Zm6.62 3.52q-.95 2.7-5.29 13.24a2 2 0 0 0 .2.71 11.52 11.52 0 0 1 .66 3.92c0 2.06-.71 3.09-2.15 3.09a1.79 1.79 0 0 1-1.49-.7 2.27 2.27 0 0 1-.47-1.65c.21-2.9.17-4.63-.12-5.21a5.93 5.93 0 0 0-2-1.49.36.36 0 0 1-.23-.31c0-.24.23-.35.7-.35a10.71 10.71 0 0 1 2.08.23q2.82-4.28 7.29-11.83a.45.45 0 0 1 .39-.24c.36 0 .52.2.39.59Zm-6 4.23a2 2 0 0 1-.47 1.28 1.47 1.47 0 0 1-1.14.56 1.22 1.22 0 0 1-1.1-.62 27.3 27.3 0 0 0-2.07-3 .55.55 0 0 1-.12-.35q0-.67.63-.63c2.77.23 4.2 1.14 4.2 2.76Zm29-6.19c0 .47-.26.71-.78.71H229V72h.63l2.39-2.39a.93.93 0 0 1 1.45 0l2.31 2.39a1.41 1.41 0 0 1 .51.82c0 .47-.27.71-.79.71h-6.58v9.09h1.72l2.36-2.36a.93.93 0 0 1 1.45 0l2.43 2.43a1.26 1.26 0 0 1 .47.82.64.64 0 0 1-.74.71h-20.54a.79.79 0 0 1 0-1.57H223v-9.09h-5.21a.79.79 0 0 1 0-1.57H223v-9.32h-6.23q-.78 0-.78-.75a.69.69 0 0 1 .78-.78h14l2.39-2.39a1 1 0 0 1 .75-.35 1 1 0 0 1 .7.35l2.39 2.43q.54.51.54.82Zm-10.66-3.25a2.19 2.19 0 0 1-1 .24 2.33 2.33 0 0 1-2-1 47.83 47.83 0 0 0-3.53-4.23.69.69 0 0 1-.24-.48c0-.52.73-.78 2.2-.78a8.28 8.28 0 0 1 3.88.9 3.36 3.36 0 0 1 2.11 3.06 2.41 2.41 0 0 1-1.5 2.29ZM274.8 79.75l-1.53 1.68a6.13 6.13 0 0 0-1.33 2.39q-.44 1.89-1.8 1.89a2.93 2.93 0 0 1-.87-.16 26.79 26.79 0 0 1-9.36-5.29q-4.89 4-13.52 4.86c-.75.08-1.13-.12-1.13-.59 0-.26.18-.48.55-.67q7.51-3.72 10.34-7.6a18.08 18.08 0 0 1-3.45-6.93 1.61 1.61 0 0 1 0-1.22c.24-.34.55-.27.94.2a33.3 33.3 0 0 0 5.09 4.86 34.86 34.86 0 0 0 2.71-6.66c.13-.39.45-.5 1-.32l4.56 1.57a1 1 0 0 1 .63 1.22.89.89 0 0 1-.78.78.25.25 0 0 0-.24.16 43 43 0 0 1-3.06 6 44.33 44.33 0 0 0 11.05 2.62.51.51 0 0 1 .47.55 1 1 0 0 1-.27.66Zm.43-17.91c0 .53-.29.79-.86.79h-27.78a.87.87 0 0 1 0-1.73H257v-8c0-.31.17-.47.51-.47l5.6.2a1.41 1.41 0 0 1 1 .45 1.23 1.23 0 0 1 .36 1 1.39 1.39 0 0 1-1 1.33.25.25 0 0 0-.16.24v5.25h4.39l2.66-2.7a1.25 1.25 0 0 1 1.65 0l2.7 2.74a1.5 1.5 0 0 1 .52.9ZM306.49 69.29c.06.7.08 1.31.08 1.8a31 31 0 0 1-1.57 9.56 6.34 6.34 0 0 1-1.84 2.9 4.58 4.58 0 0 1-3.13 1.21q-2 0-2-2.19a2.19 2.19 0 0 0-1.76-2.15L295 80c-.63-.2-.92-.49-.87-.86s.41-.58 1.06-.51l3.25.39c1.23.16 2.08-.5 2.55-2a32.9 32.9 0 0 0 .59-3.72 24.48 24.48 0 0 0 .19-4.86c-.08-1.31-.62-2-1.64-2.08a14.64 14.64 0 0 0-3.61.39 117.13 117.13 0 0 1-6.52 16.6c-.44.92-1 1.38-1.61 1.38a2.32 2.32 0 0 1-1.33-.51l-.66-.47a1.8 1.8 0 0 1-.87-1.45 2.87 2.87 0 0 1 .32-1.18 113.06 113.06 0 0 0 5.72-13.52c-1.13.19-2.63.45-4.51.79q-.07 0-.12.12a.69.69 0 0 1-.7.62c-.47.05-.75-.21-.82-.78l-.43-3.1c-.06-.39.14-.61.58-.66l.67-.08c2-.21 4.2-.47 6.5-.78a61.83 61.83 0 0 0 1.45-7.25.55.55 0 0 1 .67-.51l3.76.74c.55.11.81.38.78.83s-.22.6-.66.7a.26.26 0 0 0-.12.16c-.45 2.24-.81 3.92-1.1 5 1.88-.08 3-.1 3.21-.08A6.57 6.57 0 0 1 305 65a7 7 0 0 1 1.49 4.29Zm11.29 1.21a4.1 4.1 0 0 1-.51 2 2.19 2.19 0 0 1-1.57 1.22 4.58 4.58 0 0 1-.66.07 1.7 1.7 0 0 1-1.79-1.19 1.78 1.78 0 0 0-1.62-1.31l-1.84-.16c-.68 0-1-.23-1-.55s.31-.53.94-.59l2-.19c.39 0 .5-.25.35-.67a16.9 16.9 0 0 0-4.39-5.72q-.63-.58-.51-.9c.13-.34.56-.44 1.29-.31a13.38 13.38 0 0 1 6.86 3.41 6.69 6.69 0 0 1 2.45 4.89Zm-4-11.44a2.11 2.11 0 0 1 .16.75 1.29 1.29 0 0 1-1.33 1.41 1.46 1.46 0 0 1-1.14-.67 10.86 10.86 0 0 0-2.31-2c-.29-.13-.41-.31-.35-.54.07-.42.73-.63 1.95-.63 1.61-.04 2.62.53 3.06 1.68Zm3.37-2.66a2.1 2.1 0 0 1 .16.74 1.26 1.26 0 0 1-1.31 1.37 1.34 1.34 0 0 1-1.13-.66 9 9 0 0 0-2.31-2c-.29-.18-.41-.38-.36-.59.08-.39.74-.59 2-.59 1.54 0 2.55.58 2.99 1.73ZM357.43 79.44c-1.05.7-1.82 1.24-2.31 1.6a4.45 4.45 0 0 0-1.73 2.12 1.55 1.55 0 0 1-1.57 1.25 1.92 1.92 0 0 1-1.29-.51 35.67 35.67 0 0 1-10.38-14.65 24.35 24.35 0 0 1-5.55 8.5 25.3 25.3 0 0 1-8.48 5.68c-.52.21-.87.25-1.06.12-.36-.21-.33-.52.08-.94a42.92 42.92 0 0 0 6.19-8 31.36 31.36 0 0 0 4-9.25c.08-.36.3-.48.67-.35l3.13 1.21a37.46 37.46 0 0 1-1.37-9.64h-4.94a.65.65 0 0 1-.74-.74c0-.52.25-.78.74-.78h6l1.37-1.26a1.17 1.17 0 0 1 .74-.35 1 1 0 0 1 .71.35l1.17 1.26a1.39 1.39 0 0 1 .47.78.65.65 0 0 1-.74.74l-.63.24c-.31 0-.46.24-.43.71a18.42 18.42 0 0 0 .74 4.38 22.45 22.45 0 0 0 6.08 10.15 37.87 37.87 0 0 0 8.54 6c.57.31.86.6.86.86a.76.76 0 0 1-.27.52ZM391 74.77a9.11 9.11 0 0 1-3.29 7.61 11.48 11.48 0 0 1-8.07 2.35 10.28 10.28 0 0 1-4.78-1.3 4.7 4.7 0 0 1-2.35-4.07A4.16 4.16 0 0 1 374 76a5.57 5.57 0 0 1 3.45-1.33 5.24 5.24 0 0 1 4.23 1.76 6.91 6.91 0 0 1 1.8 3.49c1.67-1 2.43-2.94 2.27-5.69a5.43 5.43 0 0 0-1.56-3.7 5.3 5.3 0 0 0-3.77-1.47 8.1 8.1 0 0 0-4.5 1.45l-.39.39-3.22 3.77a2.3 2.3 0 0 1-1.76 1 1.85 1.85 0 0 1-1.33-.62l-.43-.63a1.92 1.92 0 0 1-.67-1.45 2 2 0 0 1 .51-1.33q6.54-7.8 11.25-14.26h-8.39c-.55 0-.82-.26-.82-.79a.73.73 0 0 1 .82-.82h8.9l2.58-2a1.44 1.44 0 0 1 .9-.31 1.24 1.24 0 0 1 .9.39l2.28 2.24a1.42 1.42 0 0 1 .43 1.41c-.11.41-.46.66-1.06.74l-.78.12-6.59 7.64-.9.82 1.77-.55c.57 0 1.13-.08 1.68-.08a9.64 9.64 0 0 1 6.58 2.32 8 8 0 0 1 2.82 6.26ZM379.8 81c-.13-2.11-.88-3.25-2.24-3.41a2 2 0 0 0-1.46.3 1.41 1.41 0 0 0-.53 1.31c.08 1.31 1.09 2 3.05 2a3.83 3.83 0 0 0 1.18-.2ZM435.82 73.79a.69.69 0 0 1-.78.79h-11.6V76c2.41.81 6.19 1.34 11.37 1.6q.42 0 .27.51l-1.21 2.16s-.14.65-.4 1.88c-.15.73-.48 1.1-1 1.1a1.09 1.09 0 0 1-.39-.08 16.78 16.78 0 0 1-8.66-5.1v5.72a1.82 1.82 0 0 1-1.8 2l-2.62.28c-.68.07-1-.23-1-.91V80.1a16.16 16.16 0 0 1-5.1 2 26.61 26.61 0 0 1-5.32.82.9.9 0 0 1-.67-.11c-.29-.37-.23-.66.16-.87q8.1-4.38 10.34-7.32h-11.24a.7.7 0 0 1-.79-.79c0-.49.26-.74.79-.74H418v-3.41q0-.54.51-.51l4.58.24c.71 0 1.05.38 1 1a1.11 1.11 0 0 1-.51.87.26.26 0 0 0-.16.23V73h6.39l2-2.08a1 1 0 0 1 .7-.35 1.09 1.09 0 0 1 .75.35l2.11 2.08a1.18 1.18 0 0 1 .45.79Zm-.35-19.55c0 .47-.26.71-.78.71h-8.23v3.6h2.12l1.88-1.64a.84.84 0 0 1 1.29 0l2.39 2a.7.7 0 0 1 0 1.17l-.59.55-.23 6.23c0 .91-.42 1.41-1.18 1.49l-3 .27a.67.67 0 0 1-.58-.19.81.81 0 0 1-.24-.59v-1.25h-15.53v.74a.83.83 0 0 1-.83.94l-3.33.43c-.55.08-.83-.17-.86-.74l-.27-10.23a.64.64 0 0 1 .27-.57.76.76 0 0 1 .63-.06l4.11 1.45h2.55V55H407a.69.69 0 0 1-.79-.78c0-.5.26-.75.79-.75h21.7l2.42-2.47a.93.93 0 0 1 1.45 0l2.43 2.42a1.41 1.41 0 0 1 .47.82ZM415.1 65.06v-4.94h-2.47l.12 4.94Zm6.82-6.51V55h-2.28v3.6Zm0 6.51v-4.94h-2.28v4.94Zm6.58-4.94h-2v4.94h1.92ZM474.73 69.6A12.49 12.49 0 0 1 470 79.67a23.81 23.81 0 0 1-10.54 4.7q-.71.16-.9-.27a.51.51 0 0 1 .23-.75q10.74-6 10.74-13.79 0-8.85-8.66-8.85a11.12 11.12 0 0 0-7.13 2.43 7.92 7.92 0 0 0-3.21 6.58 5.49 5.49 0 0 0 .51 2.35 2.32 2.32 0 0 0 1.68 1.57c1.25.21 2.55-1.26 3.88-4.39a23.49 23.49 0 0 0 1.92-6.31c0-.31.2-.43.51-.35l3.84.94a.74.74 0 0 1 .63.9.87.87 0 0 1-.55.67c-.06 0-.08 0-.08.11q-1.65 6.95-5.21 10.66-2.87 3-5.41 2.74-2.24-.19-3.68-3a11 11 0 0 1-1.26-4.82 13 13 0 0 1 3.8-10.17 13.84 13.84 0 0 1 10.19-4 13.58 13.58 0 0 1 9.68 3.57 12.3 12.3 0 0 1 3.75 9.41ZM512.93 75.24a8.19 8.19 0 0 1-3.65 6.9 16.24 16.24 0 0 1-7.6 2.86.51.51 0 0 1-.54-.2.32.32 0 0 1 .11-.51q6.51-4.23 6.55-8.73a6.32 6.32 0 0 0-1.92-5.1 7.48 7.48 0 0 0-5.41-1.52v7.21a8 8 0 0 1-1.65 5.36 6.13 6.13 0 0 1-5.13 2 5.47 5.47 0 0 1-4.46-2.27 7.83 7.83 0 0 1-1.53-4.9 8.69 8.69 0 0 1 2.39-5.8 11 11 0 0 1 5.29-3.48v-4.74h-5.61a.73.73 0 0 1-.82-.83c0-.52.28-.78.82-.78h5.61v-6.7c0-.39.18-.58.54-.55l4.08.2c.76 0 1.12.34 1.1.94a.68.68 0 0 1-.47.66c-.14.06-.2.13-.2.24v5.21h1.8l2.51-2.51a1.12 1.12 0 0 1 .78-.39 1.1 1.1 0 0 1 .75.39l2.5 2.51a1.4 1.4 0 0 1 .51.86q0 .75-.78.75h-8.07v4h1.41a12.72 12.72 0 0 1 7.6 2.16 7.85 7.85 0 0 1 3.49 6.76Zm-17.63 1.1v-6.07a5.15 5.15 0 0 0-2.78 2.58 7.51 7.51 0 0 0-1 3.73 3.1 3.1 0 0 0 .55 1.76 1.73 1.73 0 0 0 1.45.86c1.18.03 1.78-.93 1.78-2.86ZM517.51 61a3.23 3.23 0 0 1 .2.94c0 1.31-.73 2-2.2 2.08a2 2 0 0 1-1.72-.9 15.83 15.83 0 0 0-3.8-3.45.66.66 0 0 1-.35-.55c0-.63.94-.94 2.82-.94 2.71.02 4.4.96 5.05 2.82ZM557.24 55.42c0 .55-.26.82-.78.82h-7.72v2a1.06 1.06 0 0 1-1.14 1.14l-2.74.12a.62.62 0 0 1-.41-.16.42.42 0 0 1-.14-.39v-2.67h-6.7v1.73a1 1 0 0 1-1.1 1.17l-2.74.2c-.39 0-.59-.15-.59-.51v-2.59h-7.09c-.52 0-.78-.27-.78-.82a.69.69 0 0 1 .78-.78h7.09v-2.67a.41.41 0 0 1 .14-.39.64.64 0 0 1 .41-.16l3.49.16a1.14 1.14 0 0 1 .55 2.12.27.27 0 0 0-.16.27v.67h6.78v-2.59c0-.37.19-.53.59-.51l3.48.28a1 1 0 0 1 1.06 1.14 1.08 1.08 0 0 1-.59.94.28.28 0 0 0-.15.28v.43h2.78l1.72-1.73a1.3 1.3 0 0 1 .94-.43.79.79 0 0 1 .59.24l2 1.92a1.08 1.08 0 0 1 .43.77Zm0 19c0 .52-.27.78-.82.78h-12.7v.43a22.55 22.55 0 0 0 5.57 1.61q2.46.39 6.19.63c.54 0 .66.29.35.78-1.18 1.91-1.76 3.14-1.76 3.69s-.4 1-1.18 1a10.12 10.12 0 0 1-5-1.76 17.43 17.43 0 0 1-4.2-3.33v5.37c0 1.23-.55 1.87-1.64 1.92l-2.55.12c-.65 0-1-.28-1-.91v-5.51a14.36 14.36 0 0 1-5 2.59A22.14 22.14 0 0 1 528 83c-.47 0-.74 0-.82-.23s0-.58.31-.79c2.22-1.33 3.82-2.33 4.78-3a26.4 26.4 0 0 0 4.27-3.69h-10.1a.69.69 0 0 1-.79-.78c0-.55.26-.82.79-.82h12.14v-2.76H536v.32a.91.91 0 0 1-.9 1l-3.21.43q-.9.12-.9-.78l-.2-11.56a.72.72 0 0 1 .26-.55.5.5 0 0 1 .56-.12l4.16 1.33h10.81l1.57-1.33a1.16 1.16 0 0 1 1.49 0l2.35 2a.8.8 0 0 1 .31.63.9.9 0 0 1-.31.62l-.63.59-.15 6.93q0 1.65-1.26 1.77l-2.9.27c-.57 0-.86-.21-.86-.78v-.79h-2.47v2.71h7.68l2-1.88a1.09 1.09 0 0 1 .78-.36 1 1 0 0 1 .75.36l1.88 1.88a1.3 1.3 0 0 1 .43.84Zm-18.69-9.25v-2.62h-2.66l.08 2.66Zm0 4.2v-2.59H536l.07 2.63Zm7.84-6.86h-2.63v2.66h2.55Zm-.12 4.23h-2.51v2.63h2.47ZM597.28 72.46a.64.64 0 0 1-.74.71h-12.31v6.46c0 3.55-1.39 5.49-4.11 5.8a6.61 6.61 0 0 1-.82 0 1.85 1.85 0 0 1-1.8-1.14c-.27-.57-.57-1.17-.91-1.8a3.72 3.72 0 0 0-1.84-.74l-.7-.16c-.58-.13-.86-.38-.86-.74s.31-.63.94-.63h2.74a2.35 2.35 0 0 0 1.45-.35 1.73 1.73 0 0 0 .43-1.37v-5.33h-12.42a.79.79 0 0 1 0-1.57h12.38v-6.5a.49.49 0 0 1 .59-.55l2.5.12 3.84-6.9h-15q-.75 0-.75-.78a.66.66 0 0 1 .75-.75h14.96l2.28-2.24a1.52 1.52 0 0 1 1.12-.5 1.45 1.45 0 0 1 .94.39l3.45 2.82a1.46 1.46 0 0 1 .63 1.14 1 1 0 0 1-.78 1.1l-1.65.23-7.75 5.82c.65.18 1 .51.94 1a1.35 1.35 0 0 1-.27.72 1.78 1.78 0 0 0-.28.49v4.39h6.31l2.39-2.39a1 1 0 0 1 .75-.27 1 1 0 0 1 .7.27l2.43 2.43a1.3 1.3 0 0 1 .47.82Z"/><path style="fill:none" d="M0 0h670v86H0z"/></g></g></svg>