<svg xmlns="http://www.w3.org/2000/svg" viewBox="0 0 542.35 230.48"><defs><style>.cls-1{fill:#7b001e}.cls-2{fill:#651815}</style></defs><g id="レイヤー_2" data-name="レイヤー 2"><g id="文字_写真" data-name="文字＆写真"><path d="M66.6 158.82H51.5v-40.75h15.1v.75c-6.95 3.12-11.6 9.94-11.6 19.62s4.65 16.56 11.6 19.63ZM89 153.76v1.41H71.56v-1.41l7-.84c0-2.64.09-5.24.09-7.83V127l-6.61.75v-1.58l9.51-2.47.66.53-.21 6.86v14c0 2.59.05 5.19.09 7.83ZM113.28 139.72c0 11.75-4.75 16.06-9.73 16.06s-9.81-4.31-9.81-16.06 4.8-16.2 9.81-16.2 9.73 4.4 9.73 16.2ZM103.55 154c3.08 0 6.08-3.17 6.08-14.3s-3-14.39-6.08-14.39-6.11 3.08-6.11 14.39 2.94 14.3 6.11 14.3ZM130.39 119.83c-.17.48-.7.83-1.71.79a72.36 72.36 0 0 1-4 8.89l2 .79c-.13.4-.53.66-1.32.79v26.45a3 3 0 0 1-2.24 1h-.53v-25.47a40.8 40.8 0 0 1-5.28 6.82l-.66-.43a72.37 72.37 0 0 0 9.19-21.13Zm27.07 3a3.53 3.53 0 0 1-1.9.88v33.09c0 .36-1.4 1.1-2.42 1.1h-.39v-3.17h-19.63v2.43c0 .39-1 1.14-2.2 1.14h-.53v-37.86l3 1.41h19l1.58-1.85Zm-4.71 30.63v-30.33h-19.63v30.32Zm-8.75-21.4v6h2.77l1.28-1.41 2.51 2.38a3.12 3.12 0 0 1-1.59.79v9.51a3 3 0 0 1-2 .88h-.44V148h-7.26v1.85c0 .22-1 .79-2 .79h-.39V136.9l2.64 1.19h2v-6H135l-.35-1.27h6.78v-6.17l4 .44c-.09.58-.44 1-1.45 1.15v4.58h2.73l1.72-2.25s1.93 1.63 3.16 2.86c-.13.44-.52.66-1.14.66Zm2.51 7.31h-7.26v7.26h7.26ZM180.69 119.21l4.92 3.61c-.7.84-2.28 1.32-4.48 1.5v2.15c1.5 13.78 8.23 24.07 20.6 29.14l-.18.52c-1.5.05-2.42.88-3.08 2.51a35 35 0 0 1-17.12-23.89 34.7 34.7 0 0 1-19.76 23.85l-.44-.66c9.77-5.19 17.16-15.89 18.62-31.34v-3.3h-10l-.35-1.27h9.46ZM216.24 138.44c0-9.68-4.62-16.5-11.58-19.62v-.75h15.1v40.75h-15.1v-.75c6.96-3.07 11.58-9.95 11.58-19.63Z"/><path class="cls-1" d="M332.42 105.58q4.81 4.83 4.82 13.73A30.28 30.28 0 0 1 335 129.7a26.46 26.46 0 0 1-6.31 8.54l-10 9.65q-2.24 2.22-12.25 13.36h18.18q7.8 0 10.77-13h1.48l-1.87 21.9h-36v-4.08q6.3-7.8 18.92-22.27a62.12 62.12 0 0 0 7.43-11.5c1.23-3 1.85-7.29 1.85-13q0-7.78-3.71-11.5a10.06 10.06 0 0 0-7.42-3 11.74 11.74 0 0 0-8.54 3.71 16.17 16.17 0 0 0-4.82 11.87 5.39 5.39 0 0 1 4.45-2.59 5.06 5.06 0 0 1 3.71 1.48 5.57 5.57 0 0 1-4.08 9.65 6 6 0 0 1-4.82-2.23 8.81 8.81 0 0 1-2.23-5.93q0-9.27 5.94-15.22a17.17 17.17 0 0 1 12.62-5.19q8.92.04 14.12 5.23ZM356.91 158.28a8.54 8.54 0 0 1 2.23 6.3q0 7.8-6.68 14.48a29.9 29.9 0 0 1-5.57 4.08l-1.48-2.6a17.13 17.13 0 0 0 8.53-10.76 12.08 12.08 0 0 1-3 .37 6.36 6.36 0 0 1-6.68-6.68 7.52 7.52 0 0 1 2.23-5.56 7 7 0 0 1 5.19-1.86 7.1 7.1 0 0 1 5.23 2.23ZM389.19 100.39q5.94 0 9.28 3.34a10.65 10.65 0 0 1 3.34 7.79A6.08 6.08 0 0 1 400 116a5.56 5.56 0 0 1-4.09 1.49 5.08 5.08 0 0 1-5.19-5.2 6.06 6.06 0 0 1 1.85-4.45 5.52 5.52 0 0 1 4.09-1.49 8.12 8.12 0 0 0-6.68-3.34q-4.83 0-8.54 4.46-5.94 7.78-5.94 28.57 4.46-9.64 12.25-9.65a12.73 12.73 0 0 1 10.76 5.57q4.45 5.2 4.46 15.21 0 11.15-4.83 17.07a15.12 15.12 0 0 1-12.25 5.94 14 14 0 0 1-11.5-5.57q-7.43-9.27-7.42-28.57 0-18.55 7.79-28.57a17.59 17.59 0 0 1 14.43-7.08Zm-13.73 44.9q0 12.61 4.83 18.92a6.38 6.38 0 0 0 5.19 3 6.69 6.69 0 0 0 5.57-3q4.08-5.19 4.08-17.07 0-9.27-3.71-13.73c-1.73-2.22-3.71-3.34-5.94-3.34q-3 0-6.68 4.46-3.33 4.08-3.34 10.76ZM444.86 105.58q4.81 4.83 4.82 13.73a30.28 30.28 0 0 1-2.22 10.39 26.46 26.46 0 0 1-6.31 8.54l-10 9.65q-2.24 2.22-12.25 13.36h18.19q7.79 0 10.76-13h1.48l-1.85 21.89h-36v-4.08q6.3-7.8 18.93-22.27a62.52 62.52 0 0 0 7.42-11.5c1.23-3 1.85-7.29 1.85-13q0-7.78-3.71-11.5a10.06 10.06 0 0 0-7.42-3 11.72 11.72 0 0 0-8.53 3.71 16.14 16.14 0 0 0-4.83 11.87 5.41 5.41 0 0 1 4.45-2.59 5.1 5.1 0 0 1 3.72 1.48 5.57 5.57 0 0 1-4.09 9.65 6 6 0 0 1-4.82-2.23 8.81 8.81 0 0 1-2.23-5.93q0-9.27 5.94-15.22a17.18 17.18 0 0 1 12.62-5.19q8.88.05 14.08 5.24ZM486.05 105.21q8.91 8.91 8.91 29.32 0 21.9-8.91 30.8-4.83 4.81-10 4.82t-10-4.82q-9.64-9.65-9.65-30.8 0-19.66 9.65-29.32 4.82-4.81 10-4.82t10 4.82Zm-14.47.74q-6.31 6.31-6.31 28.58 0 23.75 6.31 30.05a5.56 5.56 0 0 0 8.9 0q5.56-5.57 5.57-30.05 0-22.27-5.57-28.58a5.63 5.63 0 0 0-4.45-2.22 6.42 6.42 0 0 0-4.45 2.27ZM541.71 136.77q1.71 2.28-1.14 2.46v33.37c0 .5-.57 1.14-1.7 1.9a6.62 6.62 0 0 1-3.79 1.32c-.26 0-.38-.19-.38-.57v-1.89c0-.26-.45-.57-1.33-1l-4.74-1.71c-.51-.37-.51-.57 0-.57h6.07c1 0 1.51-.37 1.51-1.13v-14.36h-28.06v20.29l-.94.56q-2.85 1.14-3.42 0v-42.27l4.74 2.84h26.92l2.47-3Zm-33.56 16.68h11.76v-16.3h-11.76Zm16.12 0h11.94v-16.3h-11.94Z"/><path d="m468.46 230-.65.52c-4.68-4.68-6.88-9.82-6.88-16a21.7 21.7 0 0 1 6.88-16.07l.65.56c-4.06 5.89-5.24 9.89-5.24 15.51s1.21 9.58 5.24 15.48ZM477.7 211.32c6.14 2.2 4.56 6.11 2.64 4.75a11.55 11.55 0 0 0-2.64-4.13v13.65a2 2 0 0 1-1.7.68h-.28V212.9a25 25 0 0 1-5.4 7.63l-.4-.43a32.11 32.11 0 0 0 5.24-12h-4.22l-.21-.93h5v-5.3a49.07 49.07 0 0 1-5 1l-.19-.5a37.78 37.78 0 0 0 9.08-4.21l2.61 2c-.28.31-.81.31-1.55.1-.84.34-1.86.68-3 1v5.83h1.21l1.33-1.74s1.52 1.27 2.45 2.17c-.06.34-.37.5-.8.5h-4.17Zm20.87 12.37c.62.25.71.47.71.87 0 .81-.77 1.18-4.15 1.18h-2.08c-1.92 0-2.26-.5-2.26-1.86v-10.6h-2.27c-.59 6.57-2.6 10.41-9 13l-.22-.47c5.28-3 6.67-6.76 7-12.52H485v.9c0 .18-.84.62-1.65.62H483v-11.27l2.08 1h5.52a39.58 39.58 0 0 0 3-6.54l3.07 1c-.13.34-.5.56-1.15.5a29.48 29.48 0 0 1-4.12 5H494.68l1-1.15 2 1.8a2.29 2.29 0 0 1-1.15.56V214a2.16 2.16 0 0 1-1.58.62h-.37v-1.3h-2v10.14c0 .43.09.55.8.55h3.23c.25 0 .37-.09.46-.4a42.45 42.45 0 0 0 .87-4.37h.41Zm-14.45-25.45c6.26 2.85 4.46 7.1 2.39 5.49a14.58 14.58 0 0 0-2.76-5.27Zm.84 14.11h9.7v-7H485ZM508.3 220.59c2.14 2.48 4.49 2.86 9.83 2.86 3.62 0 8.52 0 12.24-.13v.44a1.8 1.8 0 0 0-1.55 1.7h-10.66c-5.64 0-8.13-.71-10.33-4.28a49 49 0 0 1-4.56 4.25.62.62 0 0 1-.37.78l-1.42-2.64c1.21-.53 3.1-1.49 4.86-2.45V212h-4.55l-.19-.93h4.31l1.18-1.58 2.7 2.24a2.47 2.47 0 0 1-1.49.55Zm-5.24-21.79c7.75 2.38 6.26 7.44 3.84 5.86a14.53 14.53 0 0 0-4.15-5.62Zm5.64 21.7c5-3.66 8.78-9.74 10.2-17.3-.12-.74-.21-1.52-.31-2.33h-6.17l-.28-.9h5.68l1.08-1.58 2.92 2.11a3.48 3.48 0 0 1-2.3.75c1.15 7.34 4.09 14.2 10.76 17.54l-.12.35a2.8 2.8 0 0 0-1.93 1.67c-4.37-2.88-6.85-7.16-8.34-12.68A25.44 25.44 0 0 1 509.07 221ZM533.1 197.53c4.18 2.66 8.34 7 8.34 14.51s-4.16 11.84-8.34 14.51l-.53-.62a17.55 17.55 0 0 0 0-27.78ZM309.56 203.28l.9.9-10.23 10.23 10.23 10.23-.9.9-10.23-10.23-10.26 10.26-.9-.9 10.26-10.26-10.23-10.23.9-.9 10.23 10.23Zm-19.06 13.45a2.33 2.33 0 1 1 2.32-2.32 2.34 2.34 0 0 1-2.32 2.32Zm6.5-11.16a2.33 2.33 0 1 1 2.32 2.33 2.33 2.33 0 0 1-2.32-2.33Zm4.65 17.68a2.33 2.33 0 1 1-2.33-2.33 2.34 2.34 0 0 1 2.34 2.33Zm6.51-11.17a2.33 2.33 0 1 1-2.33 2.33 2.34 2.34 0 0 1 2.34-2.33ZM323 222.29c1.45 2.26 4.15 3.31 7.72 3.47 3.38.12 10.26 0 13.89-.22a10.7 10.7 0 0 0-.75 2.36c-3.38.12-9.73.18-13.14.06-4-.16-6.79-1.27-8.78-3.66-1.49 1.3-3 2.64-4.68 4l-1.26-2.36a52.9 52.9 0 0 0 4.71-3.53v-7.85h-4.31v-2.17h6.6Zm-1-15a21.17 21.17 0 0 0-5.27-4.9l1.71-1.4a23.07 23.07 0 0 1 5.39 4.78Zm14.08 7.25a11.31 11.31 0 0 0 8.09 7.69 8.14 8.14 0 0 0-1.45 1.93 12.81 12.81 0 0 1-8.16-8c-1 2.79-3.16 5.64-8.09 7.84a10.74 10.74 0 0 0-1.52-1.7c5.36-2.17 7.16-5.12 7.72-7.79h-8v-2.07H333v-4.31h-7.26v-2.05h3.88a17.09 17.09 0 0 0-2.67-5l2-.78a17.43 17.43 0 0 1 2.82 4.93l-1.86.84h13.36v2.05h-7.94v3.47a7.86 7.86 0 0 1 0 .84h8.9v2.07Zm5.48-13.54c-1.09 1.77-2.33 3.82-3.35 5.12l-1.89-.68a31 31 0 0 0 2.88-5.21ZM354.51 213.2c.87 1 4 5.05 4.65 6.11l-1.52 1.8c-.56-1.15-2-3.54-3.13-5.27v12.71h-2.14V215.8a35.7 35.7 0 0 1-4.28 8.84 14.3 14.3 0 0 0-1.17-2.23 32 32 0 0 0 4.83-9.64h-4.34v-2.17h5v-10.24h2.14v10.24h5.06v2.17h-5.06Zm-5.21-3.69a30 30 0 0 0-1.67-6.88l1.67-.41a28.29 28.29 0 0 1 1.83 6.79Zm10.27-6.91a63.8 63.8 0 0 1-2.55 7l-1.49-.49a55.19 55.19 0 0 0 2.05-7Zm12.09 17.23v8.72h-2.17v-8.31l-9.61 1.76-.38-2.14 10-1.76v-17.8h2.17v17.4l3.66-.66.34 2.11Zm-6.27-4.34a23.52 23.52 0 0 0-5.14-3.72l1.08-1.61a24.16 24.16 0 0 1 5.21 3.47Zm1.31-7.5a25.84 25.84 0 0 0-4.87-4l1.18-1.55a24.8 24.8 0 0 1 4.87 3.78ZM392.27 215.06v1c-.37 7.72-.68 10.54-1.52 11.51a2.43 2.43 0 0 1-2 .86 27.64 27.64 0 0 1-3.79 0 4.67 4.67 0 0 0-.65-2c1.52.15 3 .15 3.54.15a1.25 1.25 0 0 0 1.05-.34c.56-.62.87-3 1.15-9.08H385c-.68 4.49-2.14 8.77-5.39 11.47A5.79 5.79 0 0 0 378 227c4.21-3.35 5-9.68 5.27-15.29h-3.38v-10.04h12.18v10.07h-6.57c-.06 1.09-.15 2.2-.28 3.32ZM382 209.7h7.87v-6H382Zm15.45 11.3h-2.23v-17h2.23Zm7.55-20.14v24.65c0 1.55-.43 2.26-1.39 2.67s-2.76.4-5.58.4a9.51 9.51 0 0 0-.84-2.33c2.17.1 4.13.07 4.71 0s.81-.18.81-.77v-24.62ZM415.61 222.29c1.52 2.29 4.28 3.31 8 3.47 3.38.12 10.33 0 14-.22a10.22 10.22 0 0 0-.78 2.36c-3.38.12-9.8.18-13.21.06-4.12-.16-7-1.24-9-3.66-1.4 1.3-2.85 2.64-4.4 4L409 226a49.47 49.47 0 0 0 4.4-3.56v-7.85h-3.94v-2.17h6.17Zm-.9-14.86a22.44 22.44 0 0 0-5-5.08l1.71-1.37a22.28 22.28 0 0 1 5.05 5Zm13.18-7.1a26.81 26.81 0 0 0 9.71 7.6 10 10 0 0 0-1.37 2.08 31.79 31.79 0 0 1-9.33-7.6 28.24 28.24 0 0 1-9.21 7.69 10.26 10.26 0 0 0-1.21-1.89 24.3 24.3 0 0 0 9.18-7.88Zm-4.81 16.34a20.75 20.75 0 0 1-4.46 6.23 12.69 12.69 0 0 0-1.8-1.17 16.55 16.55 0 0 0 4.22-5.55Zm13.62-1.83h-8.56v7.07c0 1.15-.22 1.71-1 2a12.87 12.87 0 0 1-4 .34 10.25 10.25 0 0 0-.62-2h2.91c.37 0 .5-.1.5-.44v-7h-8.07v-2h8.07v-2.71h-4.53v-1.92h11.38v1.92h-4.62v2.79h8.56Zm-2 8a26.5 26.5 0 0 0-4.2-5.84l1.79-.87a26.31 26.31 0 0 1 4.34 5.77Z"/><path class="cls-2" d="M15.68 20.86c1-3.52 1.79-7.17 2.17-9.28l8.26 5.12a1.5 1.5 0 0 1-1.22.58 3 3 0 0 1-.89-.19 94.78 94.78 0 0 1-8.45 8.57 95.94 95.94 0 0 1-1.15 13.51c6.65 2.75 9 6.27 9 9.08a4.94 4.94 0 0 1-4.67 5 4.55 4.55 0 0 1-3.65-2 24.17 24.17 0 0 0-1.28-9c-1.79 8-5.44 14.27-12.54 19.2l-.71-.9C6 52.22 7.42 41.92 7.62 28.09h-.07C7 31 5.06 33 3 33a3.05 3.05 0 0 1-3-3.2 5.4 5.4 0 0 1 1.79-3.71c1.09-1.28 2-4.61 2-8.77a23.41 23.41 0 0 0-.13-3l.83-.06a34.09 34.09 0 0 1 3.07 9.79h.07c0-6.91-.13-14.72-.13-23.48l10.88.83c-.07 1-.58 1.47-2.63 1.73-.06 6.46-.06 12.35-.13 17.72Zm46.59 15.68c-.51.71-1.35.9-3 .9H51.2c-.13.45-.58.83-2 1v13.84c0 1.48 0 1.48 1 1.48h3.13c1 0 1.41-.07 2-.84a54.17 54.17 0 0 0 2.94-6.78h.38v7.17c2.44 1.15 2.69 1.53 2.69 2.62 0 3-2 4.67-7.87 4.67h-4.32c-7.17 0-8.45-1.66-8.45-8.44V37.44h-3.33v.06l1.86.13c-.13 1-.77 1.41-2.62 1.47-1.28 10-6.21 18.43-22.34 22.34L14 60.6c11.14-4.92 13.5-13.69 13.63-23.16h-7.54l-.25-1h6.91v-9.56h-6.4l-.26-1h6.66v-9.24l8.7.83v-7.1h-12.6l-.26-1h12.86V.64L46 1.47c-.07.71-.45 1.15-1.86 1.35v6.52h3.46l4-5.56 7.3 5.69c-.45.71-1.35.9-3.08.9H44.09v7.36c0 .06-1.73 1.85-8.64 1.85v-.77a1.73 1.73 0 0 1-.64.13v6.91h10v-9.21l10.11 1c-.07.7-.58 1.15-2.11 1.34v6.91h.06L56 20.8l5.63 5.2c-.51.71-1.35.9-3 .9H52.8v9.53h.12l3.27-5.18Zm-27.46-.13h10v-9.53h-10ZM109.18 17.66a5.11 5.11 0 0 0 3 .71c.38 0 2.24-.2 2.69-.2 1.72 0 3.77 1.54 3.84 3.2 0 3.72-8 5.51-17.6 7.49a12.64 12.64 0 0 0 6.78 6.27c2.75 1 3.65 2.82 3.65 4.87 0 2.36-1.15 3.39-3.46 3.39-3.39 0-5.12-2.31-7.42-3.2a24.39 24.39 0 0 0-7.62-1.28c-4.8 0-8.7 2.17-8.7 6.14 0 3 3.58 5.12 11.07 5.12.64 0 1.28-.06 1.92-.06a36.78 36.78 0 0 0 7.62-1c3.13 0 5.69 3.33 5.69 5.12 0 2.95-4.86 3.65-13.44 3.65-13.12 0-20.47-3.77-20.54-10.62C76.67 40.64 84.54 36 94.08 36a23.67 23.67 0 0 1 4.54.44l-.06-.19c-1.15-.8-2.56-3.48-3.91-6.25a97.45 97.45 0 0 1-15 1.92c-6.34 0-8.07-2.05-9.86-7.17l.9-.51c2.49 2.43 4.54 2.56 7.68 2.56h1.4A82.32 82.32 0 0 0 93.05 25c-.57-1.73-1.4-4.29-1.66-5.5a54.53 54.53 0 0 1-9.09 1.09c-3.9 0-7.1-1.8-8.83-6.4l.51-.52a10.47 10.47 0 0 0 6.4 1.8 53.42 53.42 0 0 0 9.54-1.09c-.26-1-.83-3.52-1-4.35a3.24 3.24 0 0 0-3.51-2.5 4.5 4.5 0 0 0-2.41.53l-.39-.19c.39-2.56 3.27-4.73 7.62-4.73 4.16 0 5.82 1.79 5.82 3.07 0 .45-.13 2.62-.13 3.13a33.85 33.85 0 0 0 .45 3.59c2.43-.64 5.38-1.6 6.15-4.42 4.67 0 8.38 1 8.38 3.33 0 1.92-2.24 2.94-4.22 3.77a57 57 0 0 1-9.28 2.88 35.29 35.29 0 0 0 1.47 5.32c2.62-.58 9.92-2.5 9.92-5.06a1 1 0 0 0-.13-.45ZM188.28 38.59c-.44.7-1.34.9-3.13.9h-21.5c5.44 5.75 16.06 9.47 25.53 10.68l-.13.77c-3.52 1-6.14 4-7.17 8.7-9.34-3.77-15.16-9.85-18.94-18.94v18.56c0 .13-1.79 2.3-9.85 2.3V46.84C146.82 52.6 138.11 57 128 60l-.45-.83a51 51 0 0 0 18.88-19.64h-18.05l-.32-1h25v-8.32H143v1c0 .26-1.41 3.26-9 3.26V11.39l9.6 3.59h3.52V7H128.9l-.32-1h46.84l4.67-6 8.58 6.08c-.51.7-1.35.9-3.14.9h-16.19v8h3.78l3.39-4.42 9 6.33a4.06 4.06 0 0 1-2.62 1.41v12.87c0 .12-2.62 1.85-9.09 1.85v-2.81h-13.87v.06l5.38.38c-.13.9-.58 1.41-2.37 1.73v6.08h12.23l4.6-5.89ZM143 16v13.18h4.16V16Zm13-9v8h4.6V7Zm0 22.2h4.6V16H156ZM173.82 16h-4.48v13.18h4.48ZM236.54 17.66a5.11 5.11 0 0 0 3 .71c.38 0 2.24-.2 2.69-.2 1.73 0 3.77 1.54 3.84 3.2 0 3.72-8 5.51-17.6 7.49a12.64 12.64 0 0 0 6.78 6.27c2.75 1 3.65 2.82 3.65 4.87 0 2.36-1.15 3.39-3.46 3.39-3.39 0-5.12-2.31-7.42-3.2a24.33 24.33 0 0 0-7.61-1.28c-4.8 0-8.71 2.17-8.71 6.14 0 3 3.59 5.12 11.07 5.12.64 0 1.28-.06 1.92-.06a36.78 36.78 0 0 0 7.62-1c3.13 0 5.69 3.33 5.69 5.12 0 2.95-4.86 3.65-13.44 3.65-13.11 0-20.47-3.77-20.54-10.62C204 40.64 211.9 36 221.44 36a23.67 23.67 0 0 1 4.54.44l-.06-.19c-1.15-.77-2.56-3.45-3.9-6.27a97.71 97.71 0 0 1-15 1.92c-6.34 0-8.07-2.05-9.86-7.17l.9-.51c2.49 2.43 4.54 2.56 7.68 2.56h1.4A82.56 82.56 0 0 0 220.42 25c-.58-1.73-1.41-4.29-1.67-5.5a54.41 54.41 0 0 1-9.09 1.09c-3.9 0-7.1-1.8-8.83-6.4l.51-.52a10.47 10.47 0 0 0 6.4 1.8 53.32 53.32 0 0 0 9.54-1.09c-.26-1-.83-3.52-1-4.35a3.25 3.25 0 0 0-3.52-2.5 4.5 4.5 0 0 0-2.37.51l-.39-.17c.39-2.56 3.27-4.73 7.62-4.73 4.16 0 5.82 1.79 5.82 3.07 0 .45-.13 2.62-.13 3.13a33.85 33.85 0 0 0 .45 3.59c2.43-.64 5.38-1.6 6.15-4.42 4.67 0 8.38 1 8.38 3.33 0 1.92-2.24 2.94-4.22 3.77a57 57 0 0 1-9.28 2.88 35.29 35.29 0 0 0 1.47 5.32c2.62-.58 9.92-2.5 9.92-5.06a1 1 0 0 0-.13-.45ZM268.93 36.73c3.77-4 8.45-7.29 14.72-7.36 5.82 0 8.57 4.8 8.57 9.6 0 1.54-.13 4.55-.13 5.89 0 3.58 1.8 4.48 5.57 4.48 6.4 0 11.27-4.74 15-13.69l.83.19c-2.24 13.24-8.26 21.69-18.62 21.69-7.55 0-11.27-4.22-11.27-9.79 0-1.66.2-5.7.2-7.3 0-5.5-.52-7.8-3.72-7.8-4.41 0-9.4 5.18-11.84 11.39a42.41 42.41 0 0 0-2.36 8.19c-.58 3.52-2.5 5.06-4.61 5.06s-4.8-1.16-4.8-4.16a18 18 0 0 1 1.66-7.56c1.86-4.28 4-8.89 6.6-13.82 6.39-12.29 9.59-18.36 9.59-21a2.68 2.68 0 0 0-.89-2.24 5.78 5.78 0 0 0-3.78-.83l-.25-.26a6.63 6.63 0 0 1 5.44-3c4.8.07 9.72 2.31 9.72 6.15 0 2.56-2.36 4.09-4 6.14-3.59 4.61-9.22 13.37-12 20ZM349.12 17.34c.7-1.21 2.5-1.73 4.8-1.73 4.16 0 8.77 5.38 8.77 8.26 0 3.71-3.2 3.65-6.59 4.22-12.29 2.18-27.91 8-27.91 15.94 0 4.86 5.7 5.5 13 5.5 4.67 0 11.51-.83 13.56-2.49 4.93.7 9 2.43 9 5.44 0 3.52-4.35 4.86-22 4.86-9 0-19.07-2.37-19.07-12.48 0-6.91 7-11.9 12.6-15.36-4.48-1.47-4.48-7.1-4.48-17.34 0-1.79-.25-3.52-1.47-4.1a6.31 6.31 0 0 0-2.62-.7 4.52 4.52 0 0 0-1 .13l-.19-.39c.83-2.36 3.32-3.32 5.56-3.32 5.32.06 9.16 3.58 9.16 6.78a13.3 13.3 0 0 1-.84 3.9 21.42 21.42 0 0 0-.64 5.89c0 1 0 1.92.07 2.62.13 1.73.83 3.59 2.11 3.72 2.18-1.09 5.95-3 8.13-3.91 1.92-.83 3.26-1.66 3.26-3s-1.6-2.36-3.07-2.17ZM387.33 36.73c3.78-4 8.45-7.29 14.72-7.36 5.82 0 8.57 4.8 8.57 9.6 0 1.54-.12 4.55-.12 5.89 0 3.58 1.79 4.48 5.56 4.48 6.4 0 11.27-4.74 15-13.69l.83.19c-2.24 13.24-8.25 21.69-18.62 21.69-7.55 0-11.27-4.22-11.27-9.79 0-1.66.2-5.7.2-7.3 0-5.5-.51-7.8-3.71-7.8-4.42 0-9.41 5.18-11.84 11.39a41.82 41.82 0 0 0-2.37 8.19c-.58 3.52-2.5 5.06-4.61 5.06s-4.8-1.16-4.8-4.16a18 18 0 0 1 1.66-7.56c1.86-4.28 4-8.89 6.6-13.82 6.4-12.29 9.6-18.36 9.6-21a2.69 2.69 0 0 0-.9-2.24 5.78 5.78 0 0 0-3.83-.88l-.25-.26a6.63 6.63 0 0 1 5.44-3c4.8.07 9.72 2.31 9.72 6.15 0 2.56-2.36 4.09-4 6.14-3.59 4.61-9.22 13.37-12 20Z"/></g></g></svg>